G75*
%MOIN*%
%OFA0B0*%
%FSLAX25Y25*%
%IPPOS*%
%LPD*%
%AMOC8*
5,1,8,0,0,1.08239X$1,22.5*
%
%ADD10C,0.00000*%
%ADD11R,0.01750X0.00070*%
%ADD12R,0.01750X0.00070*%
%ADD13R,0.00560X0.00070*%
%ADD14R,0.01540X0.00070*%
%ADD15R,0.01540X0.00070*%
%ADD16R,0.01400X0.00070*%
%ADD17R,0.01260X0.00070*%
%ADD18R,0.03850X0.00070*%
%ADD19R,0.01540X0.00070*%
%ADD20R,0.02030X0.00070*%
%ADD21R,0.03430X0.00070*%
%ADD22R,0.02100X0.00070*%
%ADD23R,0.01680X0.00070*%
%ADD24R,0.01330X0.00070*%
%ADD25R,0.01610X0.00070*%
%ADD26R,0.02450X0.00070*%
%ADD27R,0.02380X0.00070*%
%ADD28R,0.01470X0.00070*%
%ADD29R,0.01260X0.00070*%
%ADD30R,0.03850X0.00070*%
%ADD31R,0.01680X0.00070*%
%ADD32R,0.02730X0.00070*%
%ADD33R,0.03430X0.00070*%
%ADD34R,0.01610X0.00070*%
%ADD35R,0.01330X0.00070*%
%ADD36R,0.01470X0.00070*%
%ADD37R,0.02870X0.00070*%
%ADD38R,0.02940X0.00070*%
%ADD39R,0.03080X0.00070*%
%ADD40R,0.01540X0.00070*%
%ADD41R,0.03290X0.00070*%
%ADD42R,0.03220X0.00070*%
%ADD43R,0.01820X0.00070*%
%ADD44R,0.03360X0.00070*%
%ADD45R,0.01820X0.00070*%
%ADD46R,0.03500X0.00070*%
%ADD47R,0.01890X0.00070*%
%ADD48R,0.03570X0.00070*%
%ADD49R,0.03640X0.00070*%
%ADD50R,0.01960X0.00070*%
%ADD51R,0.03710X0.00070*%
%ADD52R,0.03640X0.00070*%
%ADD53R,0.01960X0.00070*%
%ADD54R,0.03710X0.00070*%
%ADD55R,0.03780X0.00070*%
%ADD56R,0.02030X0.00070*%
%ADD57R,0.03920X0.00070*%
%ADD58R,0.03990X0.00070*%
%ADD59R,0.03920X0.00070*%
%ADD60R,0.01890X0.00070*%
%ADD61R,0.02170X0.00070*%
%ADD62R,0.02170X0.00070*%
%ADD63R,0.02240X0.00070*%
%ADD64R,0.02310X0.00070*%
%ADD65R,0.01470X0.00070*%
%ADD66R,0.02310X0.00070*%
%ADD67R,0.02100X0.00070*%
%ADD68R,0.02380X0.00070*%
%ADD69R,0.01400X0.00070*%
%ADD70R,0.02240X0.00070*%
%ADD71R,0.02450X0.00070*%
%ADD72R,0.02240X0.00070*%
%ADD73R,0.02520X0.00070*%
%ADD74R,0.02590X0.00070*%
%ADD75R,0.02590X0.00070*%
%ADD76R,0.03570X0.00070*%
%ADD77R,0.03570X0.00070*%
%ADD78R,0.03570X0.00070*%
%ADD79R,0.03290X0.00070*%
%ADD80R,0.01190X0.00070*%
%ADD81R,0.03290X0.00070*%
%ADD82R,0.01120X0.00070*%
%ADD83R,0.01120X0.00070*%
%ADD84R,0.03150X0.00070*%
%ADD85R,0.01190X0.00070*%
%ADD86R,0.03150X0.00070*%
%ADD87R,0.01120X0.00070*%
%ADD88R,0.03010X0.00070*%
%ADD89R,0.01120X0.00070*%
%ADD90R,0.02940X0.00070*%
%ADD91R,0.02870X0.00070*%
%ADD92R,0.02870X0.00070*%
%ADD93R,0.02800X0.00070*%
%ADD94R,0.02730X0.00070*%
%ADD95R,0.01470X0.00070*%
%ADD96R,0.03780X0.00070*%
%ADD97R,0.46270X0.00070*%
%ADD98R,0.46270X0.00070*%
%ADD99R,0.01020X0.00030*%
%ADD100R,0.01800X0.00030*%
%ADD101R,0.02310X0.00030*%
%ADD102R,0.02730X0.00030*%
%ADD103R,0.03090X0.00030*%
%ADD104R,0.03450X0.00030*%
%ADD105R,0.03750X0.00030*%
%ADD106R,0.03990X0.00030*%
%ADD107R,0.04260X0.00030*%
%ADD108R,0.04500X0.00030*%
%ADD109R,0.04710X0.00030*%
%ADD110R,0.04950X0.00030*%
%ADD111R,0.05160X0.00030*%
%ADD112R,0.05340X0.00030*%
%ADD113R,0.05550X0.00030*%
%ADD114R,0.05730X0.00030*%
%ADD115R,0.05910X0.00030*%
%ADD116R,0.06090X0.00030*%
%ADD117R,0.06210X0.00030*%
%ADD118R,0.06390X0.00030*%
%ADD119R,0.06570X0.00030*%
%ADD120R,0.06690X0.00030*%
%ADD121R,0.06870X0.00030*%
%ADD122R,0.06990X0.00030*%
%ADD123R,0.07140X0.00030*%
%ADD124R,0.07290X0.00030*%
%ADD125R,0.07410X0.00030*%
%ADD126R,0.07530X0.00030*%
%ADD127R,0.07650X0.00030*%
%ADD128R,0.07770X0.00030*%
%ADD129R,0.07920X0.00030*%
%ADD130R,0.08040X0.00030*%
%ADD131R,0.08160X0.00030*%
%ADD132R,0.08280X0.00030*%
%ADD133R,0.08370X0.00030*%
%ADD134R,0.08490X0.00030*%
%ADD135R,0.08610X0.00030*%
%ADD136R,0.08730X0.00030*%
%ADD137R,0.08850X0.00030*%
%ADD138R,0.08910X0.00030*%
%ADD139R,0.09030X0.00030*%
%ADD140R,0.09150X0.00030*%
%ADD141R,0.09270X0.00030*%
%ADD142R,0.09330X0.00030*%
%ADD143R,0.09450X0.00030*%
%ADD144R,0.09540X0.00030*%
%ADD145R,0.09630X0.00030*%
%ADD146R,0.09750X0.00030*%
%ADD147R,0.09810X0.00030*%
%ADD148R,0.09930X0.00030*%
%ADD149R,0.09990X0.00030*%
%ADD150R,0.10110X0.00030*%
%ADD151R,0.10170X0.00030*%
%ADD152R,0.10290X0.00030*%
%ADD153R,0.10350X0.00030*%
%ADD154R,0.10440X0.00030*%
%ADD155R,0.10530X0.00030*%
%ADD156R,0.10590X0.00030*%
%ADD157R,0.10710X0.00030*%
%ADD158R,0.10770X0.00030*%
%ADD159R,0.10830X0.00030*%
%ADD160R,0.10950X0.00030*%
%ADD161R,0.11010X0.00030*%
%ADD162R,0.11070X0.00030*%
%ADD163R,0.11160X0.00030*%
%ADD164R,0.11250X0.00030*%
%ADD165R,0.11310X0.00030*%
%ADD166R,0.11370X0.00030*%
%ADD167R,0.11430X0.00030*%
%ADD168R,0.11550X0.00030*%
%ADD169R,0.11610X0.00030*%
%ADD170R,0.11670X0.00030*%
%ADD171R,0.11730X0.00030*%
%ADD172R,0.11790X0.00030*%
%ADD173R,0.11910X0.00030*%
%ADD174R,0.11970X0.00030*%
%ADD175R,0.12030X0.00030*%
%ADD176R,0.12090X0.00030*%
%ADD177R,0.12150X0.00030*%
%ADD178R,0.12210X0.00030*%
%ADD179R,0.12270X0.00030*%
%ADD180R,0.12330X0.00030*%
%ADD181R,0.12390X0.00030*%
%ADD182R,0.12450X0.00030*%
%ADD183R,0.12510X0.00030*%
%ADD184R,0.12570X0.00030*%
%ADD185R,0.12630X0.00030*%
%ADD186R,0.12690X0.00030*%
%ADD187R,0.12750X0.00030*%
%ADD188R,0.12810X0.00030*%
%ADD189R,0.12870X0.00030*%
%ADD190R,0.12930X0.00030*%
%ADD191R,0.12990X0.00030*%
%ADD192R,0.13050X0.00030*%
%ADD193R,0.13110X0.00030*%
%ADD194R,0.13170X0.00030*%
%ADD195R,0.13230X0.00030*%
%ADD196R,0.13290X0.00030*%
%ADD197R,0.13350X0.00030*%
%ADD198R,0.13410X0.00030*%
%ADD199R,0.13470X0.00030*%
%ADD200R,0.13530X0.00030*%
%ADD201R,0.13590X0.00030*%
%ADD202R,0.13650X0.00030*%
%ADD203R,0.13710X0.00030*%
%ADD204R,0.13770X0.00030*%
%ADD205R,0.13830X0.00030*%
%ADD206R,0.13890X0.00030*%
%ADD207R,0.13950X0.00030*%
%ADD208R,0.14010X0.00030*%
%ADD209R,0.14070X0.00030*%
%ADD210R,0.14130X0.00030*%
%ADD211R,0.14160X0.00030*%
%ADD212R,0.14190X0.00030*%
%ADD213R,0.14250X0.00030*%
%ADD214R,0.14310X0.00030*%
%ADD215R,0.14370X0.00030*%
%ADD216R,0.14430X0.00030*%
%ADD217R,0.14490X0.00030*%
%ADD218R,0.14550X0.00030*%
%ADD219R,0.14610X0.00030*%
%ADD220R,0.14670X0.00030*%
%ADD221R,0.14700X0.00030*%
%ADD222R,0.14730X0.00030*%
%ADD223R,0.14790X0.00030*%
%ADD224R,0.14850X0.00030*%
%ADD225R,0.14910X0.00030*%
%ADD226R,0.14970X0.00030*%
%ADD227R,0.15030X0.00030*%
%ADD228R,0.15090X0.00030*%
%ADD229R,0.15150X0.00030*%
%ADD230R,0.15210X0.00030*%
%ADD231R,0.15270X0.00030*%
%ADD232R,0.15330X0.00030*%
%ADD233R,0.15390X0.00030*%
%ADD234R,0.15450X0.00030*%
%ADD235R,0.15510X0.00030*%
%ADD236R,0.15570X0.00030*%
%ADD237R,0.15630X0.00030*%
%ADD238R,0.15690X0.00030*%
%ADD239R,0.15750X0.00030*%
%ADD240R,0.15810X0.00030*%
%ADD241R,0.15870X0.00030*%
%ADD242R,0.15930X0.00030*%
%ADD243R,0.01470X0.00030*%
%ADD244R,0.06090X0.00030*%
%ADD245R,0.06060X0.00030*%
%ADD246R,0.01500X0.00030*%
%ADD247R,0.01350X0.00030*%
%ADD248R,0.01260X0.00030*%
%ADD249R,0.05520X0.00030*%
%ADD250R,0.01200X0.00030*%
%ADD251R,0.05430X0.00030*%
%ADD252R,0.05400X0.00030*%
%ADD253R,0.01230X0.00030*%
%ADD254R,0.01170X0.00030*%
%ADD255R,0.05310X0.00030*%
%ADD256R,0.05280X0.00030*%
%ADD257R,0.01140X0.00030*%
%ADD258R,0.05220X0.00030*%
%ADD259R,0.01170X0.00030*%
%ADD260R,0.01110X0.00030*%
%ADD261R,0.05130X0.00030*%
%ADD262R,0.05070X0.00030*%
%ADD263R,0.05070X0.00030*%
%ADD264R,0.01080X0.00030*%
%ADD265R,0.05010X0.00030*%
%ADD266R,0.04980X0.00030*%
%ADD267R,0.01050X0.00030*%
%ADD268R,0.04890X0.00030*%
%ADD269R,0.04830X0.00030*%
%ADD270R,0.04800X0.00030*%
%ADD271R,0.04770X0.00030*%
%ADD272R,0.04740X0.00030*%
%ADD273R,0.04680X0.00030*%
%ADD274R,0.04620X0.00030*%
%ADD275R,0.01020X0.00030*%
%ADD276R,0.04590X0.00030*%
%ADD277R,0.04560X0.00030*%
%ADD278R,0.04530X0.00030*%
%ADD279R,0.04470X0.00030*%
%ADD280R,0.04440X0.00030*%
%ADD281R,0.04410X0.00030*%
%ADD282R,0.04380X0.00030*%
%ADD283R,0.04350X0.00030*%
%ADD284R,0.00030X0.00030*%
%ADD285R,0.04320X0.00030*%
%ADD286R,0.04290X0.00030*%
%ADD287R,0.00990X0.00030*%
%ADD288R,0.00060X0.00030*%
%ADD289R,0.00090X0.00030*%
%ADD290R,0.04230X0.00030*%
%ADD291R,0.00090X0.00030*%
%ADD292R,0.04200X0.00030*%
%ADD293R,0.00990X0.00030*%
%ADD294R,0.00120X0.00030*%
%ADD295R,0.04170X0.00030*%
%ADD296R,0.00120X0.00030*%
%ADD297R,0.00150X0.00030*%
%ADD298R,0.04140X0.00030*%
%ADD299R,0.04110X0.00030*%
%ADD300R,0.00180X0.00030*%
%ADD301R,0.04080X0.00030*%
%ADD302R,0.00210X0.00030*%
%ADD303R,0.04050X0.00030*%
%ADD304R,0.04020X0.00030*%
%ADD305R,0.00240X0.00030*%
%ADD306R,0.04020X0.00030*%
%ADD307R,0.03990X0.00030*%
%ADD308R,0.00270X0.00030*%
%ADD309R,0.03960X0.00030*%
%ADD310R,0.00270X0.00030*%
%ADD311R,0.00300X0.00030*%
%ADD312R,0.03930X0.00030*%
%ADD313R,0.03900X0.00030*%
%ADD314R,0.00330X0.00030*%
%ADD315R,0.00360X0.00030*%
%ADD316R,0.03870X0.00030*%
%ADD317R,0.03840X0.00030*%
%ADD318R,0.03840X0.00030*%
%ADD319R,0.03810X0.00030*%
%ADD320R,0.00390X0.00030*%
%ADD321R,0.03780X0.00030*%
%ADD322R,0.00390X0.00030*%
%ADD323R,0.00420X0.00030*%
%ADD324R,0.00420X0.00030*%
%ADD325R,0.00450X0.00030*%
%ADD326R,0.03720X0.00030*%
%ADD327R,0.00480X0.00030*%
%ADD328R,0.03690X0.00030*%
%ADD329R,0.03660X0.00030*%
%ADD330R,0.03630X0.00030*%
%ADD331R,0.00510X0.00030*%
%ADD332R,0.03600X0.00030*%
%ADD333R,0.00540X0.00030*%
%ADD334R,0.03570X0.00030*%
%ADD335R,0.03540X0.00030*%
%ADD336R,0.00570X0.00030*%
%ADD337R,0.00570X0.00030*%
%ADD338R,0.03510X0.00030*%
%ADD339R,0.00600X0.00030*%
%ADD340R,0.03480X0.00030*%
%ADD341R,0.00630X0.00030*%
%ADD342R,0.00660X0.00030*%
%ADD343R,0.03420X0.00030*%
%ADD344R,0.03390X0.00030*%
%ADD345R,0.03390X0.00030*%
%ADD346R,0.00690X0.00030*%
%ADD347R,0.03360X0.00030*%
%ADD348R,0.00690X0.00030*%
%ADD349R,0.00720X0.00030*%
%ADD350R,0.03330X0.00030*%
%ADD351R,0.00720X0.00030*%
%ADD352R,0.03300X0.00030*%
%ADD353R,0.00750X0.00030*%
%ADD354R,0.03270X0.00030*%
%ADD355R,0.00780X0.00030*%
%ADD356R,0.03240X0.00030*%
%ADD357R,0.03210X0.00030*%
%ADD358R,0.00810X0.00030*%
%ADD359R,0.03180X0.00030*%
%ADD360R,0.00840X0.00030*%
%ADD361R,0.03150X0.00030*%
%ADD362R,0.03120X0.00030*%
%ADD363R,0.00960X0.00030*%
%ADD364R,0.03120X0.00030*%
%ADD365R,0.00240X0.00030*%
%ADD366R,0.03090X0.00030*%
%ADD367R,0.00870X0.00030*%
%ADD368R,0.00870X0.00030*%
%ADD369R,0.03060X0.00030*%
%ADD370R,0.00900X0.00030*%
%ADD371R,0.03030X0.00030*%
%ADD372R,0.03000X0.00030*%
%ADD373R,0.00930X0.00030*%
%ADD374R,0.02970X0.00030*%
%ADD375R,0.02940X0.00030*%
%ADD376R,0.02940X0.00030*%
%ADD377R,0.02910X0.00030*%
%ADD378R,0.02880X0.00030*%
%ADD379R,0.02850X0.00030*%
%ADD380R,0.02820X0.00030*%
%ADD381R,0.02790X0.00030*%
%ADD382R,0.02760X0.00030*%
%ADD383R,0.02700X0.00030*%
%ADD384R,0.02670X0.00030*%
%ADD385R,0.02670X0.00030*%
%ADD386R,0.02640X0.00030*%
%ADD387R,0.02610X0.00030*%
%ADD388R,0.02580X0.00030*%
%ADD389R,0.02550X0.00030*%
%ADD390R,0.02520X0.00030*%
%ADD391R,0.02490X0.00030*%
%ADD392R,0.01290X0.00030*%
%ADD393R,0.02490X0.00030*%
%ADD394R,0.02460X0.00030*%
%ADD395R,0.02430X0.00030*%
%ADD396R,0.01290X0.00030*%
%ADD397R,0.01320X0.00030*%
%ADD398R,0.01320X0.00030*%
%ADD399R,0.02400X0.00030*%
%ADD400R,0.02370X0.00030*%
%ADD401R,0.02340X0.00030*%
%ADD402R,0.01380X0.00030*%
%ADD403R,0.01410X0.00030*%
%ADD404R,0.02280X0.00030*%
%ADD405R,0.01440X0.00030*%
%ADD406R,0.02250X0.00030*%
%ADD407R,0.00540X0.00030*%
%ADD408R,0.02220X0.00030*%
%ADD409R,0.02220X0.00030*%
%ADD410R,0.01470X0.00030*%
%ADD411R,0.02190X0.00030*%
%ADD412R,0.02160X0.00030*%
%ADD413R,0.02130X0.00030*%
%ADD414R,0.01530X0.00030*%
%ADD415R,0.02100X0.00030*%
%ADD416R,0.01560X0.00030*%
%ADD417R,0.02070X0.00030*%
%ADD418R,0.02040X0.00030*%
%ADD419R,0.02040X0.00030*%
%ADD420R,0.01590X0.00030*%
%ADD421R,0.02010X0.00030*%
%ADD422R,0.01590X0.00030*%
%ADD423R,0.01620X0.00030*%
%ADD424R,0.01980X0.00030*%
%ADD425R,0.01620X0.00030*%
%ADD426R,0.01950X0.00030*%
%ADD427R,0.01650X0.00030*%
%ADD428R,0.01920X0.00030*%
%ADD429R,0.01680X0.00030*%
%ADD430R,0.01890X0.00030*%
%ADD431R,0.01860X0.00030*%
%ADD432R,0.01710X0.00030*%
%ADD433R,0.01830X0.00030*%
%ADD434R,0.01740X0.00030*%
%ADD435R,0.01770X0.00030*%
%ADD436R,0.01770X0.00030*%
%ADD437R,0.01890X0.00030*%
%ADD438R,0.01920X0.00030*%
%ADD439R,0.00840X0.00030*%
%ADD440R,0.02070X0.00030*%
%ADD441R,0.01140X0.00030*%
%ADD442R,0.02190X0.00030*%
%ADD443R,0.02370X0.00030*%
%ADD444R,0.02520X0.00030*%
%ADD445R,0.02790X0.00030*%
%ADD446R,0.02820X0.00030*%
%ADD447R,0.02970X0.00030*%
%ADD448R,0.03270X0.00030*%
%ADD449R,0.03420X0.00030*%
%ADD450R,0.03690X0.00030*%
%ADD451R,0.04290X0.00030*%
%ADD452R,0.04650X0.00030*%
%ADD453R,0.04890X0.00030*%
%ADD454R,0.04920X0.00030*%
%ADD455R,0.05040X0.00030*%
%ADD456R,0.05100X0.00030*%
%ADD457R,0.05190X0.00030*%
%ADD458R,0.05250X0.00030*%
%ADD459R,0.05370X0.00030*%
%ADD460R,0.05490X0.00030*%
%ADD461R,0.04170X0.00030*%
%ADD462R,0.05640X0.00030*%
%ADD463R,0.05880X0.00030*%
%ADD464R,0.15360X0.00030*%
%ADD465R,0.14100X0.00030*%
%ADD466R,0.11850X0.00030*%
%ADD467R,0.11490X0.00030*%
%ADD468R,0.11130X0.00030*%
%ADD469R,0.10890X0.00030*%
%ADD470R,0.10650X0.00030*%
%ADD471R,0.10410X0.00030*%
%ADD472R,0.10230X0.00030*%
%ADD473R,0.09900X0.00030*%
%ADD474R,0.09690X0.00030*%
%ADD475R,0.09510X0.00030*%
%ADD476R,0.09210X0.00030*%
%ADD477R,0.08790X0.00030*%
%ADD478R,0.08250X0.00030*%
%ADD479R,0.08130X0.00030*%
%ADD480R,0.08010X0.00030*%
%ADD481R,0.07890X0.00030*%
%ADD482R,0.07260X0.00030*%
%ADD483R,0.07110X0.00030*%
%ADD484R,0.06810X0.00030*%
%ADD485R,0.06510X0.00030*%
%ADD486R,0.06030X0.00030*%
%ADD487R,0.05700X0.00030*%
%ADD488R,0.04470X0.00030*%
%ADD489C,0.00600*%
%ADD490C,0.01000*%
%ADD491C,0.00400*%
%ADD492C,0.00787*%
D10*
X0013469Y0037693D02*
X0418665Y0037693D01*
X0418907Y0037696D01*
X0419148Y0037705D01*
X0419389Y0037719D01*
X0419630Y0037740D01*
X0419870Y0037766D01*
X0420110Y0037798D01*
X0420349Y0037836D01*
X0420586Y0037879D01*
X0420823Y0037929D01*
X0421058Y0037984D01*
X0421292Y0038044D01*
X0421524Y0038111D01*
X0421755Y0038182D01*
X0421984Y0038260D01*
X0422211Y0038343D01*
X0422436Y0038431D01*
X0422659Y0038525D01*
X0422879Y0038624D01*
X0423097Y0038729D01*
X0423312Y0038838D01*
X0423525Y0038953D01*
X0423735Y0039073D01*
X0423941Y0039198D01*
X0424145Y0039328D01*
X0424346Y0039463D01*
X0424543Y0039603D01*
X0424737Y0039747D01*
X0424927Y0039896D01*
X0425113Y0040050D01*
X0425296Y0040208D01*
X0425475Y0040370D01*
X0425650Y0040537D01*
X0425821Y0040708D01*
X0425988Y0040883D01*
X0426150Y0041062D01*
X0426308Y0041245D01*
X0426462Y0041431D01*
X0426611Y0041621D01*
X0426755Y0041815D01*
X0426895Y0042012D01*
X0427030Y0042213D01*
X0427160Y0042417D01*
X0427285Y0042623D01*
X0427405Y0042833D01*
X0427520Y0043046D01*
X0427629Y0043261D01*
X0427734Y0043479D01*
X0427833Y0043699D01*
X0427927Y0043922D01*
X0428015Y0044147D01*
X0428098Y0044374D01*
X0428176Y0044603D01*
X0428247Y0044834D01*
X0428314Y0045066D01*
X0428374Y0045300D01*
X0428429Y0045535D01*
X0428479Y0045772D01*
X0428522Y0046009D01*
X0428560Y0046248D01*
X0428592Y0046488D01*
X0428618Y0046728D01*
X0428639Y0046969D01*
X0428653Y0047210D01*
X0428662Y0047451D01*
X0428665Y0047693D01*
X0428665Y0149740D01*
X0428662Y0149982D01*
X0428653Y0150223D01*
X0428639Y0150464D01*
X0428618Y0150705D01*
X0428592Y0150945D01*
X0428560Y0151185D01*
X0428522Y0151424D01*
X0428479Y0151661D01*
X0428429Y0151898D01*
X0428374Y0152133D01*
X0428314Y0152367D01*
X0428247Y0152599D01*
X0428176Y0152830D01*
X0428098Y0153059D01*
X0428015Y0153286D01*
X0427927Y0153511D01*
X0427833Y0153734D01*
X0427734Y0153954D01*
X0427629Y0154172D01*
X0427520Y0154387D01*
X0427405Y0154600D01*
X0427285Y0154810D01*
X0427160Y0155016D01*
X0427030Y0155220D01*
X0426895Y0155421D01*
X0426755Y0155618D01*
X0426611Y0155812D01*
X0426462Y0156002D01*
X0426308Y0156188D01*
X0426150Y0156371D01*
X0425988Y0156550D01*
X0425821Y0156725D01*
X0425650Y0156896D01*
X0425475Y0157063D01*
X0425296Y0157225D01*
X0425113Y0157383D01*
X0424927Y0157537D01*
X0424737Y0157686D01*
X0424543Y0157830D01*
X0424346Y0157970D01*
X0424145Y0158105D01*
X0423941Y0158235D01*
X0423735Y0158360D01*
X0423525Y0158480D01*
X0423312Y0158595D01*
X0423097Y0158704D01*
X0422879Y0158809D01*
X0422659Y0158908D01*
X0422436Y0159002D01*
X0422211Y0159090D01*
X0421984Y0159173D01*
X0421755Y0159251D01*
X0421524Y0159322D01*
X0421292Y0159389D01*
X0421058Y0159449D01*
X0420823Y0159504D01*
X0420586Y0159554D01*
X0420349Y0159597D01*
X0420110Y0159635D01*
X0419870Y0159667D01*
X0419630Y0159693D01*
X0419389Y0159714D01*
X0419148Y0159728D01*
X0418907Y0159737D01*
X0418665Y0159740D01*
X0338272Y0159740D01*
X0338030Y0159743D01*
X0337789Y0159752D01*
X0337548Y0159766D01*
X0337307Y0159787D01*
X0337067Y0159813D01*
X0336827Y0159845D01*
X0336588Y0159883D01*
X0336351Y0159926D01*
X0336114Y0159976D01*
X0335879Y0160031D01*
X0335645Y0160091D01*
X0335413Y0160158D01*
X0335182Y0160229D01*
X0334953Y0160307D01*
X0334726Y0160390D01*
X0334501Y0160478D01*
X0334278Y0160572D01*
X0334058Y0160671D01*
X0333840Y0160776D01*
X0333625Y0160885D01*
X0333412Y0161000D01*
X0333202Y0161120D01*
X0332996Y0161245D01*
X0332792Y0161375D01*
X0332591Y0161510D01*
X0332394Y0161650D01*
X0332200Y0161794D01*
X0332010Y0161943D01*
X0331824Y0162097D01*
X0331641Y0162255D01*
X0331462Y0162417D01*
X0331287Y0162584D01*
X0331116Y0162755D01*
X0330949Y0162930D01*
X0330787Y0163109D01*
X0330629Y0163292D01*
X0330475Y0163478D01*
X0330326Y0163668D01*
X0330182Y0163862D01*
X0330042Y0164059D01*
X0329907Y0164260D01*
X0329777Y0164464D01*
X0329652Y0164670D01*
X0329532Y0164880D01*
X0329417Y0165093D01*
X0329308Y0165308D01*
X0329203Y0165526D01*
X0329104Y0165746D01*
X0329010Y0165969D01*
X0328922Y0166194D01*
X0328839Y0166421D01*
X0328761Y0166650D01*
X0328690Y0166881D01*
X0328623Y0167113D01*
X0328563Y0167347D01*
X0328508Y0167582D01*
X0328458Y0167819D01*
X0328415Y0168056D01*
X0328377Y0168295D01*
X0328345Y0168535D01*
X0328319Y0168775D01*
X0328298Y0169016D01*
X0328284Y0169257D01*
X0328275Y0169498D01*
X0328272Y0169740D01*
X0328272Y0346591D01*
X0328269Y0346833D01*
X0328260Y0347074D01*
X0328246Y0347315D01*
X0328225Y0347556D01*
X0328199Y0347796D01*
X0328167Y0348036D01*
X0328129Y0348275D01*
X0328086Y0348512D01*
X0328036Y0348749D01*
X0327981Y0348984D01*
X0327921Y0349218D01*
X0327854Y0349450D01*
X0327783Y0349681D01*
X0327705Y0349910D01*
X0327622Y0350137D01*
X0327534Y0350362D01*
X0327440Y0350585D01*
X0327341Y0350805D01*
X0327236Y0351023D01*
X0327127Y0351238D01*
X0327012Y0351451D01*
X0326892Y0351661D01*
X0326767Y0351867D01*
X0326637Y0352071D01*
X0326502Y0352272D01*
X0326362Y0352469D01*
X0326218Y0352663D01*
X0326069Y0352853D01*
X0325915Y0353039D01*
X0325757Y0353222D01*
X0325595Y0353401D01*
X0325428Y0353576D01*
X0325257Y0353747D01*
X0325082Y0353914D01*
X0324903Y0354076D01*
X0324720Y0354234D01*
X0324534Y0354388D01*
X0324344Y0354537D01*
X0324150Y0354681D01*
X0323953Y0354821D01*
X0323752Y0354956D01*
X0323548Y0355086D01*
X0323342Y0355211D01*
X0323132Y0355331D01*
X0322919Y0355446D01*
X0322704Y0355555D01*
X0322486Y0355660D01*
X0322266Y0355759D01*
X0322043Y0355853D01*
X0321818Y0355941D01*
X0321591Y0356024D01*
X0321362Y0356102D01*
X0321131Y0356173D01*
X0320899Y0356240D01*
X0320665Y0356300D01*
X0320430Y0356355D01*
X0320193Y0356405D01*
X0319956Y0356448D01*
X0319717Y0356486D01*
X0319477Y0356518D01*
X0319237Y0356544D01*
X0318996Y0356565D01*
X0318755Y0356579D01*
X0318514Y0356588D01*
X0318272Y0356591D01*
X0277248Y0356591D01*
X0277006Y0356588D01*
X0276765Y0356579D01*
X0276524Y0356565D01*
X0276283Y0356544D01*
X0276043Y0356518D01*
X0275803Y0356486D01*
X0275564Y0356448D01*
X0275327Y0356405D01*
X0275090Y0356355D01*
X0274855Y0356300D01*
X0274621Y0356240D01*
X0274389Y0356173D01*
X0274158Y0356102D01*
X0273929Y0356024D01*
X0273702Y0355941D01*
X0273477Y0355853D01*
X0273254Y0355759D01*
X0273034Y0355660D01*
X0272816Y0355555D01*
X0272601Y0355446D01*
X0272388Y0355331D01*
X0272178Y0355211D01*
X0271972Y0355086D01*
X0271768Y0354956D01*
X0271567Y0354821D01*
X0271370Y0354681D01*
X0271176Y0354537D01*
X0270986Y0354388D01*
X0270800Y0354234D01*
X0270617Y0354076D01*
X0270438Y0353914D01*
X0270263Y0353747D01*
X0270092Y0353576D01*
X0269925Y0353401D01*
X0269763Y0353222D01*
X0269605Y0353039D01*
X0269451Y0352853D01*
X0269302Y0352663D01*
X0269158Y0352469D01*
X0269018Y0352272D01*
X0268883Y0352071D01*
X0268753Y0351867D01*
X0268628Y0351661D01*
X0268508Y0351451D01*
X0268393Y0351238D01*
X0268284Y0351023D01*
X0268179Y0350805D01*
X0268080Y0350585D01*
X0267986Y0350362D01*
X0267898Y0350137D01*
X0267815Y0349910D01*
X0267737Y0349681D01*
X0267666Y0349450D01*
X0267599Y0349218D01*
X0267539Y0348984D01*
X0267484Y0348749D01*
X0267434Y0348512D01*
X0267391Y0348275D01*
X0267353Y0348036D01*
X0267321Y0347796D01*
X0267295Y0347556D01*
X0267274Y0347315D01*
X0267260Y0347074D01*
X0267251Y0346833D01*
X0267248Y0346591D01*
X0267248Y0169740D01*
X0267245Y0169498D01*
X0267236Y0169257D01*
X0267222Y0169016D01*
X0267201Y0168775D01*
X0267175Y0168535D01*
X0267143Y0168295D01*
X0267105Y0168056D01*
X0267062Y0167819D01*
X0267012Y0167582D01*
X0266957Y0167347D01*
X0266897Y0167113D01*
X0266830Y0166881D01*
X0266759Y0166650D01*
X0266681Y0166421D01*
X0266598Y0166194D01*
X0266510Y0165969D01*
X0266416Y0165746D01*
X0266317Y0165526D01*
X0266212Y0165308D01*
X0266103Y0165093D01*
X0265988Y0164880D01*
X0265868Y0164670D01*
X0265743Y0164464D01*
X0265613Y0164260D01*
X0265478Y0164059D01*
X0265338Y0163862D01*
X0265194Y0163668D01*
X0265045Y0163478D01*
X0264891Y0163292D01*
X0264733Y0163109D01*
X0264571Y0162930D01*
X0264404Y0162755D01*
X0264233Y0162584D01*
X0264058Y0162417D01*
X0263879Y0162255D01*
X0263696Y0162097D01*
X0263510Y0161943D01*
X0263320Y0161794D01*
X0263126Y0161650D01*
X0262929Y0161510D01*
X0262728Y0161375D01*
X0262524Y0161245D01*
X0262318Y0161120D01*
X0262108Y0161000D01*
X0261895Y0160885D01*
X0261680Y0160776D01*
X0261462Y0160671D01*
X0261242Y0160572D01*
X0261019Y0160478D01*
X0260794Y0160390D01*
X0260567Y0160307D01*
X0260338Y0160229D01*
X0260107Y0160158D01*
X0259875Y0160091D01*
X0259641Y0160031D01*
X0259406Y0159976D01*
X0259169Y0159926D01*
X0258932Y0159883D01*
X0258693Y0159845D01*
X0258453Y0159813D01*
X0258213Y0159787D01*
X0257972Y0159766D01*
X0257731Y0159752D01*
X0257490Y0159743D01*
X0257248Y0159740D01*
X0194571Y0159740D01*
X0194329Y0159743D01*
X0194088Y0159752D01*
X0193847Y0159766D01*
X0193606Y0159787D01*
X0193366Y0159813D01*
X0193126Y0159845D01*
X0192887Y0159883D01*
X0192650Y0159926D01*
X0192413Y0159976D01*
X0192178Y0160031D01*
X0191944Y0160091D01*
X0191712Y0160158D01*
X0191481Y0160229D01*
X0191252Y0160307D01*
X0191025Y0160390D01*
X0190800Y0160478D01*
X0190577Y0160572D01*
X0190357Y0160671D01*
X0190139Y0160776D01*
X0189924Y0160885D01*
X0189711Y0161000D01*
X0189501Y0161120D01*
X0189295Y0161245D01*
X0189091Y0161375D01*
X0188890Y0161510D01*
X0188693Y0161650D01*
X0188499Y0161794D01*
X0188309Y0161943D01*
X0188123Y0162097D01*
X0187940Y0162255D01*
X0187761Y0162417D01*
X0187586Y0162584D01*
X0187415Y0162755D01*
X0187248Y0162930D01*
X0187086Y0163109D01*
X0186928Y0163292D01*
X0186774Y0163478D01*
X0186625Y0163668D01*
X0186481Y0163862D01*
X0186341Y0164059D01*
X0186206Y0164260D01*
X0186076Y0164464D01*
X0185951Y0164670D01*
X0185831Y0164880D01*
X0185716Y0165093D01*
X0185607Y0165308D01*
X0185502Y0165526D01*
X0185403Y0165746D01*
X0185309Y0165969D01*
X0185221Y0166194D01*
X0185138Y0166421D01*
X0185060Y0166650D01*
X0184989Y0166881D01*
X0184922Y0167113D01*
X0184862Y0167347D01*
X0184807Y0167582D01*
X0184757Y0167819D01*
X0184714Y0168056D01*
X0184676Y0168295D01*
X0184644Y0168535D01*
X0184618Y0168775D01*
X0184597Y0169016D01*
X0184583Y0169257D01*
X0184574Y0169498D01*
X0184571Y0169740D01*
X0184571Y0346748D01*
X0184568Y0346986D01*
X0184560Y0347224D01*
X0184545Y0347461D01*
X0184525Y0347698D01*
X0184499Y0347934D01*
X0184468Y0348170D01*
X0184431Y0348405D01*
X0184388Y0348639D01*
X0184339Y0348872D01*
X0184285Y0349104D01*
X0184225Y0349334D01*
X0184160Y0349563D01*
X0184089Y0349790D01*
X0184013Y0350015D01*
X0183931Y0350238D01*
X0183844Y0350460D01*
X0183752Y0350679D01*
X0183654Y0350896D01*
X0183552Y0351110D01*
X0183444Y0351322D01*
X0183330Y0351532D01*
X0183212Y0351738D01*
X0183089Y0351942D01*
X0182961Y0352142D01*
X0182829Y0352339D01*
X0182691Y0352534D01*
X0182549Y0352724D01*
X0182402Y0352912D01*
X0182251Y0353095D01*
X0182096Y0353275D01*
X0181936Y0353451D01*
X0181772Y0353623D01*
X0181603Y0353792D01*
X0181431Y0353956D01*
X0181255Y0354116D01*
X0181075Y0354271D01*
X0180892Y0354422D01*
X0180704Y0354569D01*
X0180514Y0354711D01*
X0180319Y0354849D01*
X0180122Y0354981D01*
X0179922Y0355109D01*
X0179718Y0355232D01*
X0179512Y0355350D01*
X0179302Y0355464D01*
X0179090Y0355572D01*
X0178876Y0355674D01*
X0178659Y0355772D01*
X0178440Y0355864D01*
X0178218Y0355951D01*
X0177995Y0356033D01*
X0177770Y0356109D01*
X0177543Y0356180D01*
X0177314Y0356245D01*
X0177084Y0356305D01*
X0176852Y0356359D01*
X0176619Y0356408D01*
X0176385Y0356451D01*
X0176150Y0356488D01*
X0175914Y0356519D01*
X0175678Y0356545D01*
X0175441Y0356565D01*
X0175204Y0356580D01*
X0174966Y0356588D01*
X0174728Y0356591D01*
X0132406Y0356591D01*
X0132168Y0356588D01*
X0131930Y0356580D01*
X0131693Y0356565D01*
X0131456Y0356545D01*
X0131220Y0356519D01*
X0130984Y0356488D01*
X0130749Y0356451D01*
X0130515Y0356408D01*
X0130282Y0356359D01*
X0130050Y0356305D01*
X0129820Y0356245D01*
X0129591Y0356180D01*
X0129364Y0356109D01*
X0129139Y0356033D01*
X0128916Y0355951D01*
X0128694Y0355864D01*
X0128475Y0355772D01*
X0128258Y0355674D01*
X0128044Y0355572D01*
X0127832Y0355464D01*
X0127622Y0355350D01*
X0127416Y0355232D01*
X0127212Y0355109D01*
X0127012Y0354981D01*
X0126815Y0354849D01*
X0126620Y0354711D01*
X0126430Y0354569D01*
X0126242Y0354422D01*
X0126059Y0354271D01*
X0125879Y0354116D01*
X0125703Y0353956D01*
X0125531Y0353792D01*
X0125362Y0353623D01*
X0125198Y0353451D01*
X0125038Y0353275D01*
X0124883Y0353095D01*
X0124732Y0352912D01*
X0124585Y0352724D01*
X0124443Y0352534D01*
X0124305Y0352339D01*
X0124173Y0352142D01*
X0124045Y0351942D01*
X0123922Y0351738D01*
X0123804Y0351532D01*
X0123690Y0351322D01*
X0123582Y0351110D01*
X0123480Y0350896D01*
X0123382Y0350679D01*
X0123290Y0350460D01*
X0123203Y0350238D01*
X0123121Y0350015D01*
X0123045Y0349790D01*
X0122974Y0349563D01*
X0122909Y0349334D01*
X0122849Y0349104D01*
X0122795Y0348872D01*
X0122746Y0348639D01*
X0122703Y0348405D01*
X0122666Y0348170D01*
X0122635Y0347934D01*
X0122609Y0347698D01*
X0122589Y0347461D01*
X0122574Y0347224D01*
X0122566Y0346986D01*
X0122563Y0346748D01*
X0122563Y0169740D01*
X0122560Y0169498D01*
X0122551Y0169257D01*
X0122537Y0169016D01*
X0122516Y0168775D01*
X0122490Y0168535D01*
X0122458Y0168295D01*
X0122420Y0168056D01*
X0122377Y0167819D01*
X0122327Y0167582D01*
X0122272Y0167347D01*
X0122212Y0167113D01*
X0122145Y0166881D01*
X0122074Y0166650D01*
X0121996Y0166421D01*
X0121913Y0166194D01*
X0121825Y0165969D01*
X0121731Y0165746D01*
X0121632Y0165526D01*
X0121527Y0165308D01*
X0121418Y0165093D01*
X0121303Y0164880D01*
X0121183Y0164670D01*
X0121058Y0164464D01*
X0120928Y0164260D01*
X0120793Y0164059D01*
X0120653Y0163862D01*
X0120509Y0163668D01*
X0120360Y0163478D01*
X0120206Y0163292D01*
X0120048Y0163109D01*
X0119886Y0162930D01*
X0119719Y0162755D01*
X0119548Y0162584D01*
X0119373Y0162417D01*
X0119194Y0162255D01*
X0119011Y0162097D01*
X0118825Y0161943D01*
X0118635Y0161794D01*
X0118441Y0161650D01*
X0118244Y0161510D01*
X0118043Y0161375D01*
X0117839Y0161245D01*
X0117633Y0161120D01*
X0117423Y0161000D01*
X0117210Y0160885D01*
X0116995Y0160776D01*
X0116777Y0160671D01*
X0116557Y0160572D01*
X0116334Y0160478D01*
X0116109Y0160390D01*
X0115882Y0160307D01*
X0115653Y0160229D01*
X0115422Y0160158D01*
X0115190Y0160091D01*
X0114956Y0160031D01*
X0114721Y0159976D01*
X0114484Y0159926D01*
X0114247Y0159883D01*
X0114008Y0159845D01*
X0113768Y0159813D01*
X0113528Y0159787D01*
X0113287Y0159766D01*
X0113046Y0159752D01*
X0112805Y0159743D01*
X0112563Y0159740D01*
X0013469Y0159740D01*
X0013227Y0159737D01*
X0012986Y0159728D01*
X0012745Y0159714D01*
X0012504Y0159693D01*
X0012264Y0159667D01*
X0012024Y0159635D01*
X0011785Y0159597D01*
X0011548Y0159554D01*
X0011311Y0159504D01*
X0011076Y0159449D01*
X0010842Y0159389D01*
X0010610Y0159322D01*
X0010379Y0159251D01*
X0010150Y0159173D01*
X0009923Y0159090D01*
X0009698Y0159002D01*
X0009475Y0158908D01*
X0009255Y0158809D01*
X0009037Y0158704D01*
X0008822Y0158595D01*
X0008609Y0158480D01*
X0008399Y0158360D01*
X0008193Y0158235D01*
X0007989Y0158105D01*
X0007788Y0157970D01*
X0007591Y0157830D01*
X0007397Y0157686D01*
X0007207Y0157537D01*
X0007021Y0157383D01*
X0006838Y0157225D01*
X0006659Y0157063D01*
X0006484Y0156896D01*
X0006313Y0156725D01*
X0006146Y0156550D01*
X0005984Y0156371D01*
X0005826Y0156188D01*
X0005672Y0156002D01*
X0005523Y0155812D01*
X0005379Y0155618D01*
X0005239Y0155421D01*
X0005104Y0155220D01*
X0004974Y0155016D01*
X0004849Y0154810D01*
X0004729Y0154600D01*
X0004614Y0154387D01*
X0004505Y0154172D01*
X0004400Y0153954D01*
X0004301Y0153734D01*
X0004207Y0153511D01*
X0004119Y0153286D01*
X0004036Y0153059D01*
X0003958Y0152830D01*
X0003887Y0152599D01*
X0003820Y0152367D01*
X0003760Y0152133D01*
X0003705Y0151898D01*
X0003655Y0151661D01*
X0003612Y0151424D01*
X0003574Y0151185D01*
X0003542Y0150945D01*
X0003516Y0150705D01*
X0003495Y0150464D01*
X0003481Y0150223D01*
X0003472Y0149982D01*
X0003469Y0149740D01*
X0003469Y0047693D01*
X0003472Y0047451D01*
X0003481Y0047210D01*
X0003495Y0046969D01*
X0003516Y0046728D01*
X0003542Y0046488D01*
X0003574Y0046248D01*
X0003612Y0046009D01*
X0003655Y0045772D01*
X0003705Y0045535D01*
X0003760Y0045300D01*
X0003820Y0045066D01*
X0003887Y0044834D01*
X0003958Y0044603D01*
X0004036Y0044374D01*
X0004119Y0044147D01*
X0004207Y0043922D01*
X0004301Y0043699D01*
X0004400Y0043479D01*
X0004505Y0043261D01*
X0004614Y0043046D01*
X0004729Y0042833D01*
X0004849Y0042623D01*
X0004974Y0042417D01*
X0005104Y0042213D01*
X0005239Y0042012D01*
X0005379Y0041815D01*
X0005523Y0041621D01*
X0005672Y0041431D01*
X0005826Y0041245D01*
X0005984Y0041062D01*
X0006146Y0040883D01*
X0006313Y0040708D01*
X0006484Y0040537D01*
X0006659Y0040370D01*
X0006838Y0040208D01*
X0007021Y0040050D01*
X0007207Y0039896D01*
X0007397Y0039747D01*
X0007591Y0039603D01*
X0007788Y0039463D01*
X0007989Y0039328D01*
X0008193Y0039198D01*
X0008399Y0039073D01*
X0008609Y0038953D01*
X0008822Y0038838D01*
X0009037Y0038729D01*
X0009255Y0038624D01*
X0009475Y0038525D01*
X0009698Y0038431D01*
X0009923Y0038343D01*
X0010150Y0038260D01*
X0010379Y0038182D01*
X0010610Y0038111D01*
X0010842Y0038044D01*
X0011076Y0037984D01*
X0011311Y0037929D01*
X0011548Y0037879D01*
X0011785Y0037836D01*
X0012024Y0037798D01*
X0012264Y0037766D01*
X0012504Y0037740D01*
X0012745Y0037719D01*
X0012986Y0037705D01*
X0013227Y0037696D01*
X0013469Y0037693D01*
X0012918Y0053441D02*
X0012920Y0053599D01*
X0012926Y0053757D01*
X0012936Y0053915D01*
X0012950Y0054073D01*
X0012968Y0054230D01*
X0012989Y0054387D01*
X0013015Y0054543D01*
X0013045Y0054699D01*
X0013078Y0054854D01*
X0013116Y0055007D01*
X0013157Y0055160D01*
X0013202Y0055312D01*
X0013251Y0055463D01*
X0013304Y0055612D01*
X0013360Y0055760D01*
X0013420Y0055906D01*
X0013484Y0056051D01*
X0013552Y0056194D01*
X0013623Y0056336D01*
X0013697Y0056476D01*
X0013775Y0056613D01*
X0013857Y0056749D01*
X0013941Y0056883D01*
X0014030Y0057014D01*
X0014121Y0057143D01*
X0014216Y0057270D01*
X0014313Y0057395D01*
X0014414Y0057517D01*
X0014518Y0057636D01*
X0014625Y0057753D01*
X0014735Y0057867D01*
X0014848Y0057978D01*
X0014963Y0058087D01*
X0015081Y0058192D01*
X0015202Y0058294D01*
X0015325Y0058394D01*
X0015451Y0058490D01*
X0015579Y0058583D01*
X0015709Y0058673D01*
X0015842Y0058759D01*
X0015977Y0058843D01*
X0016113Y0058922D01*
X0016252Y0058999D01*
X0016393Y0059071D01*
X0016535Y0059141D01*
X0016679Y0059206D01*
X0016825Y0059268D01*
X0016972Y0059326D01*
X0017121Y0059381D01*
X0017271Y0059432D01*
X0017422Y0059479D01*
X0017574Y0059522D01*
X0017727Y0059561D01*
X0017882Y0059597D01*
X0018037Y0059628D01*
X0018193Y0059656D01*
X0018349Y0059680D01*
X0018506Y0059700D01*
X0018664Y0059716D01*
X0018821Y0059728D01*
X0018980Y0059736D01*
X0019138Y0059740D01*
X0019296Y0059740D01*
X0019454Y0059736D01*
X0019613Y0059728D01*
X0019770Y0059716D01*
X0019928Y0059700D01*
X0020085Y0059680D01*
X0020241Y0059656D01*
X0020397Y0059628D01*
X0020552Y0059597D01*
X0020707Y0059561D01*
X0020860Y0059522D01*
X0021012Y0059479D01*
X0021163Y0059432D01*
X0021313Y0059381D01*
X0021462Y0059326D01*
X0021609Y0059268D01*
X0021755Y0059206D01*
X0021899Y0059141D01*
X0022041Y0059071D01*
X0022182Y0058999D01*
X0022321Y0058922D01*
X0022457Y0058843D01*
X0022592Y0058759D01*
X0022725Y0058673D01*
X0022855Y0058583D01*
X0022983Y0058490D01*
X0023109Y0058394D01*
X0023232Y0058294D01*
X0023353Y0058192D01*
X0023471Y0058087D01*
X0023586Y0057978D01*
X0023699Y0057867D01*
X0023809Y0057753D01*
X0023916Y0057636D01*
X0024020Y0057517D01*
X0024121Y0057395D01*
X0024218Y0057270D01*
X0024313Y0057143D01*
X0024404Y0057014D01*
X0024493Y0056883D01*
X0024577Y0056749D01*
X0024659Y0056613D01*
X0024737Y0056476D01*
X0024811Y0056336D01*
X0024882Y0056194D01*
X0024950Y0056051D01*
X0025014Y0055906D01*
X0025074Y0055760D01*
X0025130Y0055612D01*
X0025183Y0055463D01*
X0025232Y0055312D01*
X0025277Y0055160D01*
X0025318Y0055007D01*
X0025356Y0054854D01*
X0025389Y0054699D01*
X0025419Y0054543D01*
X0025445Y0054387D01*
X0025466Y0054230D01*
X0025484Y0054073D01*
X0025498Y0053915D01*
X0025508Y0053757D01*
X0025514Y0053599D01*
X0025516Y0053441D01*
X0025514Y0053283D01*
X0025508Y0053125D01*
X0025498Y0052967D01*
X0025484Y0052809D01*
X0025466Y0052652D01*
X0025445Y0052495D01*
X0025419Y0052339D01*
X0025389Y0052183D01*
X0025356Y0052028D01*
X0025318Y0051875D01*
X0025277Y0051722D01*
X0025232Y0051570D01*
X0025183Y0051419D01*
X0025130Y0051270D01*
X0025074Y0051122D01*
X0025014Y0050976D01*
X0024950Y0050831D01*
X0024882Y0050688D01*
X0024811Y0050546D01*
X0024737Y0050406D01*
X0024659Y0050269D01*
X0024577Y0050133D01*
X0024493Y0049999D01*
X0024404Y0049868D01*
X0024313Y0049739D01*
X0024218Y0049612D01*
X0024121Y0049487D01*
X0024020Y0049365D01*
X0023916Y0049246D01*
X0023809Y0049129D01*
X0023699Y0049015D01*
X0023586Y0048904D01*
X0023471Y0048795D01*
X0023353Y0048690D01*
X0023232Y0048588D01*
X0023109Y0048488D01*
X0022983Y0048392D01*
X0022855Y0048299D01*
X0022725Y0048209D01*
X0022592Y0048123D01*
X0022457Y0048039D01*
X0022321Y0047960D01*
X0022182Y0047883D01*
X0022041Y0047811D01*
X0021899Y0047741D01*
X0021755Y0047676D01*
X0021609Y0047614D01*
X0021462Y0047556D01*
X0021313Y0047501D01*
X0021163Y0047450D01*
X0021012Y0047403D01*
X0020860Y0047360D01*
X0020707Y0047321D01*
X0020552Y0047285D01*
X0020397Y0047254D01*
X0020241Y0047226D01*
X0020085Y0047202D01*
X0019928Y0047182D01*
X0019770Y0047166D01*
X0019613Y0047154D01*
X0019454Y0047146D01*
X0019296Y0047142D01*
X0019138Y0047142D01*
X0018980Y0047146D01*
X0018821Y0047154D01*
X0018664Y0047166D01*
X0018506Y0047182D01*
X0018349Y0047202D01*
X0018193Y0047226D01*
X0018037Y0047254D01*
X0017882Y0047285D01*
X0017727Y0047321D01*
X0017574Y0047360D01*
X0017422Y0047403D01*
X0017271Y0047450D01*
X0017121Y0047501D01*
X0016972Y0047556D01*
X0016825Y0047614D01*
X0016679Y0047676D01*
X0016535Y0047741D01*
X0016393Y0047811D01*
X0016252Y0047883D01*
X0016113Y0047960D01*
X0015977Y0048039D01*
X0015842Y0048123D01*
X0015709Y0048209D01*
X0015579Y0048299D01*
X0015451Y0048392D01*
X0015325Y0048488D01*
X0015202Y0048588D01*
X0015081Y0048690D01*
X0014963Y0048795D01*
X0014848Y0048904D01*
X0014735Y0049015D01*
X0014625Y0049129D01*
X0014518Y0049246D01*
X0014414Y0049365D01*
X0014313Y0049487D01*
X0014216Y0049612D01*
X0014121Y0049739D01*
X0014030Y0049868D01*
X0013941Y0049999D01*
X0013857Y0050133D01*
X0013775Y0050269D01*
X0013697Y0050406D01*
X0013623Y0050546D01*
X0013552Y0050688D01*
X0013484Y0050831D01*
X0013420Y0050976D01*
X0013360Y0051122D01*
X0013304Y0051270D01*
X0013251Y0051419D01*
X0013202Y0051570D01*
X0013157Y0051722D01*
X0013116Y0051875D01*
X0013078Y0052028D01*
X0013045Y0052183D01*
X0013015Y0052339D01*
X0012989Y0052495D01*
X0012968Y0052652D01*
X0012950Y0052809D01*
X0012936Y0052967D01*
X0012926Y0053125D01*
X0012920Y0053283D01*
X0012918Y0053441D01*
X0012918Y0143992D02*
X0012920Y0144150D01*
X0012926Y0144308D01*
X0012936Y0144466D01*
X0012950Y0144624D01*
X0012968Y0144781D01*
X0012989Y0144938D01*
X0013015Y0145094D01*
X0013045Y0145250D01*
X0013078Y0145405D01*
X0013116Y0145558D01*
X0013157Y0145711D01*
X0013202Y0145863D01*
X0013251Y0146014D01*
X0013304Y0146163D01*
X0013360Y0146311D01*
X0013420Y0146457D01*
X0013484Y0146602D01*
X0013552Y0146745D01*
X0013623Y0146887D01*
X0013697Y0147027D01*
X0013775Y0147164D01*
X0013857Y0147300D01*
X0013941Y0147434D01*
X0014030Y0147565D01*
X0014121Y0147694D01*
X0014216Y0147821D01*
X0014313Y0147946D01*
X0014414Y0148068D01*
X0014518Y0148187D01*
X0014625Y0148304D01*
X0014735Y0148418D01*
X0014848Y0148529D01*
X0014963Y0148638D01*
X0015081Y0148743D01*
X0015202Y0148845D01*
X0015325Y0148945D01*
X0015451Y0149041D01*
X0015579Y0149134D01*
X0015709Y0149224D01*
X0015842Y0149310D01*
X0015977Y0149394D01*
X0016113Y0149473D01*
X0016252Y0149550D01*
X0016393Y0149622D01*
X0016535Y0149692D01*
X0016679Y0149757D01*
X0016825Y0149819D01*
X0016972Y0149877D01*
X0017121Y0149932D01*
X0017271Y0149983D01*
X0017422Y0150030D01*
X0017574Y0150073D01*
X0017727Y0150112D01*
X0017882Y0150148D01*
X0018037Y0150179D01*
X0018193Y0150207D01*
X0018349Y0150231D01*
X0018506Y0150251D01*
X0018664Y0150267D01*
X0018821Y0150279D01*
X0018980Y0150287D01*
X0019138Y0150291D01*
X0019296Y0150291D01*
X0019454Y0150287D01*
X0019613Y0150279D01*
X0019770Y0150267D01*
X0019928Y0150251D01*
X0020085Y0150231D01*
X0020241Y0150207D01*
X0020397Y0150179D01*
X0020552Y0150148D01*
X0020707Y0150112D01*
X0020860Y0150073D01*
X0021012Y0150030D01*
X0021163Y0149983D01*
X0021313Y0149932D01*
X0021462Y0149877D01*
X0021609Y0149819D01*
X0021755Y0149757D01*
X0021899Y0149692D01*
X0022041Y0149622D01*
X0022182Y0149550D01*
X0022321Y0149473D01*
X0022457Y0149394D01*
X0022592Y0149310D01*
X0022725Y0149224D01*
X0022855Y0149134D01*
X0022983Y0149041D01*
X0023109Y0148945D01*
X0023232Y0148845D01*
X0023353Y0148743D01*
X0023471Y0148638D01*
X0023586Y0148529D01*
X0023699Y0148418D01*
X0023809Y0148304D01*
X0023916Y0148187D01*
X0024020Y0148068D01*
X0024121Y0147946D01*
X0024218Y0147821D01*
X0024313Y0147694D01*
X0024404Y0147565D01*
X0024493Y0147434D01*
X0024577Y0147300D01*
X0024659Y0147164D01*
X0024737Y0147027D01*
X0024811Y0146887D01*
X0024882Y0146745D01*
X0024950Y0146602D01*
X0025014Y0146457D01*
X0025074Y0146311D01*
X0025130Y0146163D01*
X0025183Y0146014D01*
X0025232Y0145863D01*
X0025277Y0145711D01*
X0025318Y0145558D01*
X0025356Y0145405D01*
X0025389Y0145250D01*
X0025419Y0145094D01*
X0025445Y0144938D01*
X0025466Y0144781D01*
X0025484Y0144624D01*
X0025498Y0144466D01*
X0025508Y0144308D01*
X0025514Y0144150D01*
X0025516Y0143992D01*
X0025514Y0143834D01*
X0025508Y0143676D01*
X0025498Y0143518D01*
X0025484Y0143360D01*
X0025466Y0143203D01*
X0025445Y0143046D01*
X0025419Y0142890D01*
X0025389Y0142734D01*
X0025356Y0142579D01*
X0025318Y0142426D01*
X0025277Y0142273D01*
X0025232Y0142121D01*
X0025183Y0141970D01*
X0025130Y0141821D01*
X0025074Y0141673D01*
X0025014Y0141527D01*
X0024950Y0141382D01*
X0024882Y0141239D01*
X0024811Y0141097D01*
X0024737Y0140957D01*
X0024659Y0140820D01*
X0024577Y0140684D01*
X0024493Y0140550D01*
X0024404Y0140419D01*
X0024313Y0140290D01*
X0024218Y0140163D01*
X0024121Y0140038D01*
X0024020Y0139916D01*
X0023916Y0139797D01*
X0023809Y0139680D01*
X0023699Y0139566D01*
X0023586Y0139455D01*
X0023471Y0139346D01*
X0023353Y0139241D01*
X0023232Y0139139D01*
X0023109Y0139039D01*
X0022983Y0138943D01*
X0022855Y0138850D01*
X0022725Y0138760D01*
X0022592Y0138674D01*
X0022457Y0138590D01*
X0022321Y0138511D01*
X0022182Y0138434D01*
X0022041Y0138362D01*
X0021899Y0138292D01*
X0021755Y0138227D01*
X0021609Y0138165D01*
X0021462Y0138107D01*
X0021313Y0138052D01*
X0021163Y0138001D01*
X0021012Y0137954D01*
X0020860Y0137911D01*
X0020707Y0137872D01*
X0020552Y0137836D01*
X0020397Y0137805D01*
X0020241Y0137777D01*
X0020085Y0137753D01*
X0019928Y0137733D01*
X0019770Y0137717D01*
X0019613Y0137705D01*
X0019454Y0137697D01*
X0019296Y0137693D01*
X0019138Y0137693D01*
X0018980Y0137697D01*
X0018821Y0137705D01*
X0018664Y0137717D01*
X0018506Y0137733D01*
X0018349Y0137753D01*
X0018193Y0137777D01*
X0018037Y0137805D01*
X0017882Y0137836D01*
X0017727Y0137872D01*
X0017574Y0137911D01*
X0017422Y0137954D01*
X0017271Y0138001D01*
X0017121Y0138052D01*
X0016972Y0138107D01*
X0016825Y0138165D01*
X0016679Y0138227D01*
X0016535Y0138292D01*
X0016393Y0138362D01*
X0016252Y0138434D01*
X0016113Y0138511D01*
X0015977Y0138590D01*
X0015842Y0138674D01*
X0015709Y0138760D01*
X0015579Y0138850D01*
X0015451Y0138943D01*
X0015325Y0139039D01*
X0015202Y0139139D01*
X0015081Y0139241D01*
X0014963Y0139346D01*
X0014848Y0139455D01*
X0014735Y0139566D01*
X0014625Y0139680D01*
X0014518Y0139797D01*
X0014414Y0139916D01*
X0014313Y0140038D01*
X0014216Y0140163D01*
X0014121Y0140290D01*
X0014030Y0140419D01*
X0013941Y0140550D01*
X0013857Y0140684D01*
X0013775Y0140820D01*
X0013697Y0140957D01*
X0013623Y0141097D01*
X0013552Y0141239D01*
X0013484Y0141382D01*
X0013420Y0141527D01*
X0013360Y0141673D01*
X0013304Y0141821D01*
X0013251Y0141970D01*
X0013202Y0142121D01*
X0013157Y0142273D01*
X0013116Y0142426D01*
X0013078Y0142579D01*
X0013045Y0142734D01*
X0013015Y0142890D01*
X0012989Y0143046D01*
X0012968Y0143203D01*
X0012950Y0143360D01*
X0012936Y0143518D01*
X0012926Y0143676D01*
X0012920Y0143834D01*
X0012918Y0143992D01*
X0406618Y0143992D02*
X0406620Y0144150D01*
X0406626Y0144308D01*
X0406636Y0144466D01*
X0406650Y0144624D01*
X0406668Y0144781D01*
X0406689Y0144938D01*
X0406715Y0145094D01*
X0406745Y0145250D01*
X0406778Y0145405D01*
X0406816Y0145558D01*
X0406857Y0145711D01*
X0406902Y0145863D01*
X0406951Y0146014D01*
X0407004Y0146163D01*
X0407060Y0146311D01*
X0407120Y0146457D01*
X0407184Y0146602D01*
X0407252Y0146745D01*
X0407323Y0146887D01*
X0407397Y0147027D01*
X0407475Y0147164D01*
X0407557Y0147300D01*
X0407641Y0147434D01*
X0407730Y0147565D01*
X0407821Y0147694D01*
X0407916Y0147821D01*
X0408013Y0147946D01*
X0408114Y0148068D01*
X0408218Y0148187D01*
X0408325Y0148304D01*
X0408435Y0148418D01*
X0408548Y0148529D01*
X0408663Y0148638D01*
X0408781Y0148743D01*
X0408902Y0148845D01*
X0409025Y0148945D01*
X0409151Y0149041D01*
X0409279Y0149134D01*
X0409409Y0149224D01*
X0409542Y0149310D01*
X0409677Y0149394D01*
X0409813Y0149473D01*
X0409952Y0149550D01*
X0410093Y0149622D01*
X0410235Y0149692D01*
X0410379Y0149757D01*
X0410525Y0149819D01*
X0410672Y0149877D01*
X0410821Y0149932D01*
X0410971Y0149983D01*
X0411122Y0150030D01*
X0411274Y0150073D01*
X0411427Y0150112D01*
X0411582Y0150148D01*
X0411737Y0150179D01*
X0411893Y0150207D01*
X0412049Y0150231D01*
X0412206Y0150251D01*
X0412364Y0150267D01*
X0412521Y0150279D01*
X0412680Y0150287D01*
X0412838Y0150291D01*
X0412996Y0150291D01*
X0413154Y0150287D01*
X0413313Y0150279D01*
X0413470Y0150267D01*
X0413628Y0150251D01*
X0413785Y0150231D01*
X0413941Y0150207D01*
X0414097Y0150179D01*
X0414252Y0150148D01*
X0414407Y0150112D01*
X0414560Y0150073D01*
X0414712Y0150030D01*
X0414863Y0149983D01*
X0415013Y0149932D01*
X0415162Y0149877D01*
X0415309Y0149819D01*
X0415455Y0149757D01*
X0415599Y0149692D01*
X0415741Y0149622D01*
X0415882Y0149550D01*
X0416021Y0149473D01*
X0416157Y0149394D01*
X0416292Y0149310D01*
X0416425Y0149224D01*
X0416555Y0149134D01*
X0416683Y0149041D01*
X0416809Y0148945D01*
X0416932Y0148845D01*
X0417053Y0148743D01*
X0417171Y0148638D01*
X0417286Y0148529D01*
X0417399Y0148418D01*
X0417509Y0148304D01*
X0417616Y0148187D01*
X0417720Y0148068D01*
X0417821Y0147946D01*
X0417918Y0147821D01*
X0418013Y0147694D01*
X0418104Y0147565D01*
X0418193Y0147434D01*
X0418277Y0147300D01*
X0418359Y0147164D01*
X0418437Y0147027D01*
X0418511Y0146887D01*
X0418582Y0146745D01*
X0418650Y0146602D01*
X0418714Y0146457D01*
X0418774Y0146311D01*
X0418830Y0146163D01*
X0418883Y0146014D01*
X0418932Y0145863D01*
X0418977Y0145711D01*
X0419018Y0145558D01*
X0419056Y0145405D01*
X0419089Y0145250D01*
X0419119Y0145094D01*
X0419145Y0144938D01*
X0419166Y0144781D01*
X0419184Y0144624D01*
X0419198Y0144466D01*
X0419208Y0144308D01*
X0419214Y0144150D01*
X0419216Y0143992D01*
X0419214Y0143834D01*
X0419208Y0143676D01*
X0419198Y0143518D01*
X0419184Y0143360D01*
X0419166Y0143203D01*
X0419145Y0143046D01*
X0419119Y0142890D01*
X0419089Y0142734D01*
X0419056Y0142579D01*
X0419018Y0142426D01*
X0418977Y0142273D01*
X0418932Y0142121D01*
X0418883Y0141970D01*
X0418830Y0141821D01*
X0418774Y0141673D01*
X0418714Y0141527D01*
X0418650Y0141382D01*
X0418582Y0141239D01*
X0418511Y0141097D01*
X0418437Y0140957D01*
X0418359Y0140820D01*
X0418277Y0140684D01*
X0418193Y0140550D01*
X0418104Y0140419D01*
X0418013Y0140290D01*
X0417918Y0140163D01*
X0417821Y0140038D01*
X0417720Y0139916D01*
X0417616Y0139797D01*
X0417509Y0139680D01*
X0417399Y0139566D01*
X0417286Y0139455D01*
X0417171Y0139346D01*
X0417053Y0139241D01*
X0416932Y0139139D01*
X0416809Y0139039D01*
X0416683Y0138943D01*
X0416555Y0138850D01*
X0416425Y0138760D01*
X0416292Y0138674D01*
X0416157Y0138590D01*
X0416021Y0138511D01*
X0415882Y0138434D01*
X0415741Y0138362D01*
X0415599Y0138292D01*
X0415455Y0138227D01*
X0415309Y0138165D01*
X0415162Y0138107D01*
X0415013Y0138052D01*
X0414863Y0138001D01*
X0414712Y0137954D01*
X0414560Y0137911D01*
X0414407Y0137872D01*
X0414252Y0137836D01*
X0414097Y0137805D01*
X0413941Y0137777D01*
X0413785Y0137753D01*
X0413628Y0137733D01*
X0413470Y0137717D01*
X0413313Y0137705D01*
X0413154Y0137697D01*
X0412996Y0137693D01*
X0412838Y0137693D01*
X0412680Y0137697D01*
X0412521Y0137705D01*
X0412364Y0137717D01*
X0412206Y0137733D01*
X0412049Y0137753D01*
X0411893Y0137777D01*
X0411737Y0137805D01*
X0411582Y0137836D01*
X0411427Y0137872D01*
X0411274Y0137911D01*
X0411122Y0137954D01*
X0410971Y0138001D01*
X0410821Y0138052D01*
X0410672Y0138107D01*
X0410525Y0138165D01*
X0410379Y0138227D01*
X0410235Y0138292D01*
X0410093Y0138362D01*
X0409952Y0138434D01*
X0409813Y0138511D01*
X0409677Y0138590D01*
X0409542Y0138674D01*
X0409409Y0138760D01*
X0409279Y0138850D01*
X0409151Y0138943D01*
X0409025Y0139039D01*
X0408902Y0139139D01*
X0408781Y0139241D01*
X0408663Y0139346D01*
X0408548Y0139455D01*
X0408435Y0139566D01*
X0408325Y0139680D01*
X0408218Y0139797D01*
X0408114Y0139916D01*
X0408013Y0140038D01*
X0407916Y0140163D01*
X0407821Y0140290D01*
X0407730Y0140419D01*
X0407641Y0140550D01*
X0407557Y0140684D01*
X0407475Y0140820D01*
X0407397Y0140957D01*
X0407323Y0141097D01*
X0407252Y0141239D01*
X0407184Y0141382D01*
X0407120Y0141527D01*
X0407060Y0141673D01*
X0407004Y0141821D01*
X0406951Y0141970D01*
X0406902Y0142121D01*
X0406857Y0142273D01*
X0406816Y0142426D01*
X0406778Y0142579D01*
X0406745Y0142734D01*
X0406715Y0142890D01*
X0406689Y0143046D01*
X0406668Y0143203D01*
X0406650Y0143360D01*
X0406636Y0143518D01*
X0406626Y0143676D01*
X0406620Y0143834D01*
X0406618Y0143992D01*
X0406618Y0053441D02*
X0406620Y0053599D01*
X0406626Y0053757D01*
X0406636Y0053915D01*
X0406650Y0054073D01*
X0406668Y0054230D01*
X0406689Y0054387D01*
X0406715Y0054543D01*
X0406745Y0054699D01*
X0406778Y0054854D01*
X0406816Y0055007D01*
X0406857Y0055160D01*
X0406902Y0055312D01*
X0406951Y0055463D01*
X0407004Y0055612D01*
X0407060Y0055760D01*
X0407120Y0055906D01*
X0407184Y0056051D01*
X0407252Y0056194D01*
X0407323Y0056336D01*
X0407397Y0056476D01*
X0407475Y0056613D01*
X0407557Y0056749D01*
X0407641Y0056883D01*
X0407730Y0057014D01*
X0407821Y0057143D01*
X0407916Y0057270D01*
X0408013Y0057395D01*
X0408114Y0057517D01*
X0408218Y0057636D01*
X0408325Y0057753D01*
X0408435Y0057867D01*
X0408548Y0057978D01*
X0408663Y0058087D01*
X0408781Y0058192D01*
X0408902Y0058294D01*
X0409025Y0058394D01*
X0409151Y0058490D01*
X0409279Y0058583D01*
X0409409Y0058673D01*
X0409542Y0058759D01*
X0409677Y0058843D01*
X0409813Y0058922D01*
X0409952Y0058999D01*
X0410093Y0059071D01*
X0410235Y0059141D01*
X0410379Y0059206D01*
X0410525Y0059268D01*
X0410672Y0059326D01*
X0410821Y0059381D01*
X0410971Y0059432D01*
X0411122Y0059479D01*
X0411274Y0059522D01*
X0411427Y0059561D01*
X0411582Y0059597D01*
X0411737Y0059628D01*
X0411893Y0059656D01*
X0412049Y0059680D01*
X0412206Y0059700D01*
X0412364Y0059716D01*
X0412521Y0059728D01*
X0412680Y0059736D01*
X0412838Y0059740D01*
X0412996Y0059740D01*
X0413154Y0059736D01*
X0413313Y0059728D01*
X0413470Y0059716D01*
X0413628Y0059700D01*
X0413785Y0059680D01*
X0413941Y0059656D01*
X0414097Y0059628D01*
X0414252Y0059597D01*
X0414407Y0059561D01*
X0414560Y0059522D01*
X0414712Y0059479D01*
X0414863Y0059432D01*
X0415013Y0059381D01*
X0415162Y0059326D01*
X0415309Y0059268D01*
X0415455Y0059206D01*
X0415599Y0059141D01*
X0415741Y0059071D01*
X0415882Y0058999D01*
X0416021Y0058922D01*
X0416157Y0058843D01*
X0416292Y0058759D01*
X0416425Y0058673D01*
X0416555Y0058583D01*
X0416683Y0058490D01*
X0416809Y0058394D01*
X0416932Y0058294D01*
X0417053Y0058192D01*
X0417171Y0058087D01*
X0417286Y0057978D01*
X0417399Y0057867D01*
X0417509Y0057753D01*
X0417616Y0057636D01*
X0417720Y0057517D01*
X0417821Y0057395D01*
X0417918Y0057270D01*
X0418013Y0057143D01*
X0418104Y0057014D01*
X0418193Y0056883D01*
X0418277Y0056749D01*
X0418359Y0056613D01*
X0418437Y0056476D01*
X0418511Y0056336D01*
X0418582Y0056194D01*
X0418650Y0056051D01*
X0418714Y0055906D01*
X0418774Y0055760D01*
X0418830Y0055612D01*
X0418883Y0055463D01*
X0418932Y0055312D01*
X0418977Y0055160D01*
X0419018Y0055007D01*
X0419056Y0054854D01*
X0419089Y0054699D01*
X0419119Y0054543D01*
X0419145Y0054387D01*
X0419166Y0054230D01*
X0419184Y0054073D01*
X0419198Y0053915D01*
X0419208Y0053757D01*
X0419214Y0053599D01*
X0419216Y0053441D01*
X0419214Y0053283D01*
X0419208Y0053125D01*
X0419198Y0052967D01*
X0419184Y0052809D01*
X0419166Y0052652D01*
X0419145Y0052495D01*
X0419119Y0052339D01*
X0419089Y0052183D01*
X0419056Y0052028D01*
X0419018Y0051875D01*
X0418977Y0051722D01*
X0418932Y0051570D01*
X0418883Y0051419D01*
X0418830Y0051270D01*
X0418774Y0051122D01*
X0418714Y0050976D01*
X0418650Y0050831D01*
X0418582Y0050688D01*
X0418511Y0050546D01*
X0418437Y0050406D01*
X0418359Y0050269D01*
X0418277Y0050133D01*
X0418193Y0049999D01*
X0418104Y0049868D01*
X0418013Y0049739D01*
X0417918Y0049612D01*
X0417821Y0049487D01*
X0417720Y0049365D01*
X0417616Y0049246D01*
X0417509Y0049129D01*
X0417399Y0049015D01*
X0417286Y0048904D01*
X0417171Y0048795D01*
X0417053Y0048690D01*
X0416932Y0048588D01*
X0416809Y0048488D01*
X0416683Y0048392D01*
X0416555Y0048299D01*
X0416425Y0048209D01*
X0416292Y0048123D01*
X0416157Y0048039D01*
X0416021Y0047960D01*
X0415882Y0047883D01*
X0415741Y0047811D01*
X0415599Y0047741D01*
X0415455Y0047676D01*
X0415309Y0047614D01*
X0415162Y0047556D01*
X0415013Y0047501D01*
X0414863Y0047450D01*
X0414712Y0047403D01*
X0414560Y0047360D01*
X0414407Y0047321D01*
X0414252Y0047285D01*
X0414097Y0047254D01*
X0413941Y0047226D01*
X0413785Y0047202D01*
X0413628Y0047182D01*
X0413470Y0047166D01*
X0413313Y0047154D01*
X0413154Y0047146D01*
X0412996Y0047142D01*
X0412838Y0047142D01*
X0412680Y0047146D01*
X0412521Y0047154D01*
X0412364Y0047166D01*
X0412206Y0047182D01*
X0412049Y0047202D01*
X0411893Y0047226D01*
X0411737Y0047254D01*
X0411582Y0047285D01*
X0411427Y0047321D01*
X0411274Y0047360D01*
X0411122Y0047403D01*
X0410971Y0047450D01*
X0410821Y0047501D01*
X0410672Y0047556D01*
X0410525Y0047614D01*
X0410379Y0047676D01*
X0410235Y0047741D01*
X0410093Y0047811D01*
X0409952Y0047883D01*
X0409813Y0047960D01*
X0409677Y0048039D01*
X0409542Y0048123D01*
X0409409Y0048209D01*
X0409279Y0048299D01*
X0409151Y0048392D01*
X0409025Y0048488D01*
X0408902Y0048588D01*
X0408781Y0048690D01*
X0408663Y0048795D01*
X0408548Y0048904D01*
X0408435Y0049015D01*
X0408325Y0049129D01*
X0408218Y0049246D01*
X0408114Y0049365D01*
X0408013Y0049487D01*
X0407916Y0049612D01*
X0407821Y0049739D01*
X0407730Y0049868D01*
X0407641Y0049999D01*
X0407557Y0050133D01*
X0407475Y0050269D01*
X0407397Y0050406D01*
X0407323Y0050546D01*
X0407252Y0050688D01*
X0407184Y0050831D01*
X0407120Y0050976D01*
X0407060Y0051122D01*
X0407004Y0051270D01*
X0406951Y0051419D01*
X0406902Y0051570D01*
X0406857Y0051722D01*
X0406816Y0051875D01*
X0406778Y0052028D01*
X0406745Y0052183D01*
X0406715Y0052339D01*
X0406689Y0052495D01*
X0406668Y0052652D01*
X0406650Y0052809D01*
X0406636Y0052967D01*
X0406626Y0053125D01*
X0406620Y0053283D01*
X0406618Y0053441D01*
D11*
X0239273Y0128922D03*
X0239273Y0129062D03*
X0239273Y0129132D03*
X0239273Y0129272D03*
X0239273Y0129412D03*
X0239273Y0129482D03*
X0239273Y0129622D03*
X0239273Y0129762D03*
X0239273Y0129832D03*
X0239273Y0129972D03*
X0239273Y0130112D03*
X0239273Y0130182D03*
X0239273Y0130322D03*
X0239273Y0130462D03*
X0239273Y0130532D03*
X0239273Y0130672D03*
X0239273Y0130812D03*
X0239273Y0130882D03*
X0239273Y0131022D03*
X0239273Y0131162D03*
X0239273Y0131232D03*
X0239273Y0131372D03*
X0239273Y0131512D03*
X0239273Y0131582D03*
X0239273Y0131722D03*
X0239273Y0131862D03*
X0239273Y0131932D03*
X0239273Y0132072D03*
X0239273Y0132212D03*
X0239273Y0132282D03*
X0239273Y0132422D03*
X0239273Y0132562D03*
X0239273Y0132632D03*
X0239273Y0132772D03*
X0239273Y0132912D03*
X0239273Y0132982D03*
X0239273Y0133122D03*
X0239273Y0133262D03*
X0239273Y0133332D03*
X0239273Y0133472D03*
X0239273Y0133612D03*
X0239273Y0133682D03*
X0239273Y0133822D03*
X0239273Y0133962D03*
X0239273Y0134032D03*
X0239273Y0134172D03*
X0239273Y0134312D03*
X0239273Y0134382D03*
X0239273Y0134522D03*
X0239273Y0134662D03*
X0239273Y0134732D03*
X0239273Y0134872D03*
X0239273Y0135012D03*
X0239273Y0135082D03*
X0239273Y0135222D03*
X0239273Y0135362D03*
X0239273Y0135432D03*
X0239273Y0135572D03*
X0239273Y0135712D03*
X0239273Y0135782D03*
X0239273Y0135922D03*
X0239273Y0136062D03*
X0239273Y0136132D03*
X0239273Y0136272D03*
X0239273Y0136412D03*
X0239273Y0136482D03*
X0239273Y0136622D03*
X0239273Y0136762D03*
X0239273Y0136832D03*
X0239273Y0136972D03*
X0239273Y0137112D03*
X0239273Y0137182D03*
X0239273Y0137322D03*
X0239273Y0137462D03*
X0239273Y0137532D03*
X0239273Y0137672D03*
X0239273Y0137812D03*
X0239273Y0137882D03*
X0239273Y0138022D03*
X0239273Y0138162D03*
X0239273Y0138232D03*
X0239273Y0138372D03*
X0239273Y0138512D03*
X0239273Y0138582D03*
X0239273Y0138722D03*
X0239273Y0138862D03*
X0239273Y0138932D03*
X0239273Y0139072D03*
X0239273Y0139212D03*
X0239273Y0139282D03*
X0239273Y0139422D03*
X0239273Y0139562D03*
X0239273Y0139632D03*
X0239273Y0139772D03*
X0239273Y0139912D03*
X0239273Y0139982D03*
X0239273Y0140122D03*
X0239273Y0140262D03*
X0239273Y0140332D03*
X0239273Y0140472D03*
X0239273Y0140612D03*
X0239273Y0140682D03*
X0239273Y0140822D03*
X0239273Y0140962D03*
X0239273Y0141032D03*
X0239273Y0141172D03*
X0239273Y0141312D03*
X0239273Y0141382D03*
X0239273Y0141522D03*
X0239273Y0141662D03*
X0239273Y0141732D03*
X0239273Y0141872D03*
X0239273Y0142012D03*
X0239273Y0142082D03*
X0239273Y0142222D03*
X0239273Y0142362D03*
X0239273Y0142432D03*
X0239273Y0142572D03*
X0239273Y0142712D03*
X0239273Y0142782D03*
X0239273Y0142922D03*
X0239273Y0143062D03*
X0239273Y0143132D03*
X0239273Y0143272D03*
X0239273Y0143412D03*
X0239273Y0143482D03*
X0239273Y0143622D03*
X0233233Y0135782D03*
X0208403Y0134312D03*
X0200563Y0138022D03*
X0198113Y0134662D03*
D12*
X0200563Y0138092D03*
X0208403Y0134242D03*
X0226883Y0134942D03*
X0239273Y0134942D03*
X0239273Y0134802D03*
X0239273Y0134592D03*
X0239273Y0134452D03*
X0239273Y0134242D03*
X0239273Y0134102D03*
X0239273Y0133892D03*
X0239273Y0133752D03*
X0239273Y0133542D03*
X0239273Y0133402D03*
X0239273Y0133192D03*
X0239273Y0133052D03*
X0239273Y0132842D03*
X0239273Y0132702D03*
X0239273Y0132492D03*
X0239273Y0132352D03*
X0239273Y0132142D03*
X0239273Y0132002D03*
X0239273Y0131792D03*
X0239273Y0131652D03*
X0239273Y0131442D03*
X0239273Y0131302D03*
X0239273Y0131092D03*
X0239273Y0130952D03*
X0239273Y0130742D03*
X0239273Y0130602D03*
X0239273Y0130392D03*
X0239273Y0130252D03*
X0239273Y0130042D03*
X0239273Y0129902D03*
X0239273Y0129692D03*
X0239273Y0129552D03*
X0239273Y0129342D03*
X0239273Y0129202D03*
X0239273Y0128992D03*
X0239273Y0135152D03*
X0239273Y0135292D03*
X0239273Y0135502D03*
X0239273Y0135642D03*
X0239273Y0135852D03*
X0239273Y0135992D03*
X0239273Y0136202D03*
X0239273Y0136342D03*
X0239273Y0136552D03*
X0239273Y0136692D03*
X0239273Y0136902D03*
X0239273Y0137042D03*
X0239273Y0137252D03*
X0239273Y0137392D03*
X0239273Y0137602D03*
X0239273Y0137742D03*
X0239273Y0137952D03*
X0239273Y0138092D03*
X0239273Y0138302D03*
X0239273Y0138442D03*
X0239273Y0138652D03*
X0239273Y0138792D03*
X0239273Y0139002D03*
X0239273Y0139142D03*
X0239273Y0139352D03*
X0239273Y0139492D03*
X0239273Y0139702D03*
X0239273Y0139842D03*
X0239273Y0140052D03*
X0239273Y0140192D03*
X0239273Y0140402D03*
X0239273Y0140542D03*
X0239273Y0140752D03*
X0239273Y0140892D03*
X0239273Y0141102D03*
X0239273Y0141242D03*
X0239273Y0141452D03*
X0239273Y0141592D03*
X0239273Y0141802D03*
X0239273Y0141942D03*
X0239273Y0142152D03*
X0239273Y0142292D03*
X0239273Y0142502D03*
X0239273Y0142642D03*
X0239273Y0142852D03*
X0239273Y0142992D03*
X0239273Y0143202D03*
X0239273Y0143342D03*
X0239273Y0143552D03*
D13*
X0228038Y0133822D03*
X0213058Y0133822D03*
D14*
X0213058Y0133892D03*
X0200668Y0138442D03*
X0198008Y0134242D03*
X0231168Y0137952D03*
X0231378Y0137742D03*
D15*
X0230888Y0138302D03*
X0228038Y0133892D03*
D16*
X0229368Y0135222D03*
X0229438Y0135362D03*
X0229438Y0135432D03*
X0226638Y0135432D03*
X0226638Y0135362D03*
X0222928Y0135082D03*
X0218868Y0135082D03*
X0218868Y0135782D03*
X0214458Y0135362D03*
X0211728Y0135222D03*
X0211658Y0135572D03*
X0207038Y0138162D03*
X0205148Y0137532D03*
X0205148Y0135782D03*
X0205148Y0135082D03*
X0197938Y0134032D03*
X0197938Y0133962D03*
X0233408Y0135432D03*
X0233408Y0137112D03*
D17*
X0214528Y0137112D03*
X0214528Y0137182D03*
X0214528Y0137322D03*
X0214528Y0137462D03*
X0214528Y0137532D03*
X0214528Y0137672D03*
X0214528Y0137812D03*
X0214528Y0137882D03*
X0214528Y0138022D03*
X0214528Y0138162D03*
X0214528Y0138232D03*
X0214528Y0138372D03*
X0214528Y0138512D03*
X0214528Y0138582D03*
X0214528Y0136972D03*
X0214528Y0136832D03*
X0214528Y0136762D03*
X0214528Y0136622D03*
X0214528Y0136482D03*
X0214528Y0136412D03*
X0214528Y0136272D03*
X0214528Y0136132D03*
X0214528Y0136062D03*
X0214528Y0135922D03*
X0209488Y0137112D03*
X0209488Y0137182D03*
X0209418Y0136972D03*
X0209418Y0136832D03*
X0209348Y0136622D03*
X0209278Y0136482D03*
X0209278Y0136412D03*
X0209208Y0136132D03*
X0209208Y0136062D03*
X0209138Y0135922D03*
X0207738Y0135782D03*
X0207668Y0135922D03*
X0207598Y0136132D03*
X0207528Y0136412D03*
X0207528Y0136482D03*
X0207458Y0136622D03*
X0207458Y0136762D03*
X0207388Y0136832D03*
X0207388Y0136972D03*
X0207318Y0137112D03*
X0207318Y0137182D03*
X0207248Y0137462D03*
X0207178Y0137672D03*
X0209558Y0137462D03*
X0209628Y0137672D03*
X0209768Y0138162D03*
X0200808Y0136482D03*
X0200808Y0136412D03*
X0200808Y0136272D03*
X0200808Y0136132D03*
X0200808Y0136062D03*
X0200808Y0135922D03*
X0200808Y0135782D03*
X0200808Y0135712D03*
X0200808Y0135572D03*
X0200808Y0135432D03*
X0200808Y0135362D03*
X0200808Y0135222D03*
X0200808Y0135082D03*
X0200808Y0135012D03*
X0200808Y0134872D03*
X0200808Y0134732D03*
X0200808Y0134662D03*
X0200808Y0134522D03*
X0200808Y0134382D03*
X0200808Y0134312D03*
X0200808Y0134172D03*
X0200808Y0134032D03*
X0200808Y0133962D03*
X0197868Y0136272D03*
X0197868Y0136412D03*
X0197868Y0136482D03*
X0197868Y0136622D03*
X0197868Y0136762D03*
X0197868Y0136832D03*
X0197868Y0136972D03*
X0197868Y0137112D03*
X0197868Y0137182D03*
X0197868Y0137322D03*
X0197868Y0137462D03*
X0197868Y0137532D03*
X0197868Y0137672D03*
X0197868Y0137812D03*
X0197868Y0137882D03*
X0197868Y0138022D03*
X0197868Y0138162D03*
X0197868Y0138232D03*
X0197868Y0138372D03*
X0197868Y0138512D03*
X0197868Y0138582D03*
D18*
X0203923Y0135012D03*
X0203923Y0134872D03*
X0203923Y0134732D03*
X0203923Y0134662D03*
X0203923Y0134522D03*
X0203923Y0134382D03*
X0203923Y0134312D03*
X0203923Y0134172D03*
X0203923Y0134032D03*
X0203923Y0133962D03*
X0213093Y0134732D03*
X0217643Y0134732D03*
X0217643Y0134662D03*
X0217643Y0134522D03*
X0217643Y0134382D03*
X0217643Y0134312D03*
X0217643Y0134172D03*
X0217643Y0134032D03*
X0217643Y0133962D03*
X0217643Y0134872D03*
X0217643Y0135012D03*
D19*
X0208438Y0133962D03*
X0231238Y0137882D03*
X0231588Y0137462D03*
X0233338Y0135572D03*
D20*
X0213093Y0133962D03*
X0208403Y0134732D03*
X0200423Y0137532D03*
X0198253Y0135222D03*
D21*
X0213093Y0134382D03*
X0221913Y0134382D03*
X0221913Y0134312D03*
X0221913Y0134172D03*
X0221913Y0134032D03*
X0221913Y0133962D03*
X0221913Y0134522D03*
X0221913Y0134662D03*
X0221913Y0134732D03*
X0221913Y0134872D03*
X0221913Y0135012D03*
D22*
X0228038Y0133962D03*
X0208438Y0134872D03*
X0200388Y0137462D03*
X0198288Y0135362D03*
D23*
X0198078Y0134522D03*
X0200598Y0138162D03*
X0200598Y0138232D03*
X0208438Y0134172D03*
X0230258Y0133962D03*
X0230328Y0134032D03*
X0230398Y0134172D03*
X0230538Y0134382D03*
X0233268Y0135712D03*
D24*
X0233443Y0135362D03*
X0233443Y0135222D03*
X0233443Y0135082D03*
X0233443Y0135012D03*
X0233443Y0134872D03*
X0233443Y0134732D03*
X0233443Y0134662D03*
X0233443Y0134522D03*
X0233443Y0134382D03*
X0233443Y0134312D03*
X0233443Y0134172D03*
X0233443Y0134032D03*
X0233443Y0133962D03*
X0233443Y0137182D03*
X0233443Y0137322D03*
X0233443Y0137462D03*
X0233443Y0137532D03*
X0233443Y0137672D03*
X0233443Y0137812D03*
X0233443Y0137882D03*
X0233443Y0138022D03*
X0233443Y0138162D03*
X0233443Y0138232D03*
X0233443Y0138372D03*
X0233443Y0138512D03*
X0233443Y0138582D03*
X0229473Y0138582D03*
X0229473Y0138512D03*
X0229473Y0138372D03*
X0229473Y0138232D03*
X0229473Y0138162D03*
X0229473Y0138022D03*
X0229473Y0137882D03*
X0229473Y0137812D03*
X0229473Y0137672D03*
X0229473Y0137532D03*
X0229473Y0137462D03*
X0229473Y0137322D03*
X0229473Y0137182D03*
X0229473Y0137112D03*
X0229473Y0136972D03*
X0229473Y0136832D03*
X0229473Y0136762D03*
X0229473Y0136622D03*
X0229473Y0136482D03*
X0229473Y0136412D03*
X0229473Y0136272D03*
X0229473Y0136132D03*
X0229473Y0136062D03*
X0229473Y0135922D03*
X0229473Y0135782D03*
X0229473Y0135712D03*
X0229473Y0135572D03*
X0226603Y0135572D03*
X0226603Y0135712D03*
X0226603Y0135782D03*
X0226603Y0135922D03*
X0226603Y0136062D03*
X0226603Y0136132D03*
X0226603Y0136272D03*
X0226603Y0136412D03*
X0226603Y0136482D03*
X0226603Y0136622D03*
X0226603Y0136762D03*
X0226603Y0136832D03*
X0226603Y0136972D03*
X0226603Y0137112D03*
X0226603Y0137182D03*
X0226603Y0137322D03*
X0226603Y0137462D03*
X0226603Y0137532D03*
X0226603Y0137672D03*
X0226603Y0137812D03*
X0226603Y0137882D03*
X0226603Y0138022D03*
X0226603Y0138162D03*
X0226603Y0138232D03*
X0226603Y0138372D03*
X0226603Y0138512D03*
X0226603Y0138582D03*
X0222963Y0138582D03*
X0222963Y0138512D03*
X0222963Y0138372D03*
X0222963Y0138232D03*
X0222963Y0138162D03*
X0222963Y0138022D03*
X0222963Y0137882D03*
X0222963Y0137812D03*
X0222963Y0137672D03*
X0222963Y0137532D03*
X0222963Y0137462D03*
X0222963Y0137322D03*
X0222963Y0137182D03*
X0222963Y0137112D03*
X0222963Y0136972D03*
X0222963Y0136832D03*
X0222963Y0136762D03*
X0222963Y0136622D03*
X0222963Y0136482D03*
X0222963Y0136412D03*
X0222963Y0136272D03*
X0222963Y0136132D03*
X0222963Y0136062D03*
X0222963Y0135922D03*
X0222963Y0135782D03*
X0222963Y0135712D03*
X0222963Y0135572D03*
X0222963Y0135432D03*
X0222963Y0135362D03*
X0222963Y0135222D03*
X0218903Y0135222D03*
X0218903Y0135362D03*
X0218903Y0135432D03*
X0218903Y0135572D03*
X0218903Y0135712D03*
X0218903Y0136972D03*
X0218903Y0137112D03*
X0218903Y0137182D03*
X0218903Y0137322D03*
X0218903Y0137462D03*
X0218903Y0137532D03*
X0214493Y0135782D03*
X0214493Y0135712D03*
X0214493Y0135572D03*
X0214493Y0135432D03*
X0211693Y0135432D03*
X0211693Y0135362D03*
X0211623Y0135712D03*
X0211623Y0135782D03*
X0211623Y0135922D03*
X0211623Y0136062D03*
X0211623Y0136132D03*
X0211623Y0136272D03*
X0211623Y0136412D03*
X0211623Y0136482D03*
X0211623Y0136622D03*
X0211623Y0136762D03*
X0211623Y0136832D03*
X0211623Y0136972D03*
X0211623Y0137112D03*
X0211623Y0137182D03*
X0211623Y0137322D03*
X0211623Y0137462D03*
X0211623Y0137532D03*
X0211623Y0137672D03*
X0211623Y0137812D03*
X0211623Y0137882D03*
X0211623Y0138022D03*
X0211623Y0138162D03*
X0211623Y0138232D03*
X0211623Y0138372D03*
X0211623Y0138512D03*
X0211623Y0138582D03*
X0209873Y0138582D03*
X0209873Y0138512D03*
X0209803Y0138372D03*
X0209803Y0138232D03*
X0209733Y0138022D03*
X0209663Y0137882D03*
X0209663Y0137812D03*
X0209593Y0137532D03*
X0209523Y0137322D03*
X0209383Y0136762D03*
X0209243Y0136272D03*
X0209103Y0135782D03*
X0207283Y0137322D03*
X0207213Y0137532D03*
X0207143Y0137812D03*
X0207143Y0137882D03*
X0207073Y0138022D03*
X0207003Y0138232D03*
X0207003Y0138372D03*
X0206933Y0138512D03*
X0206933Y0138582D03*
X0205183Y0137462D03*
X0205183Y0137322D03*
X0205183Y0137182D03*
X0205183Y0137112D03*
X0205183Y0136972D03*
X0205183Y0135712D03*
X0205183Y0135572D03*
X0205183Y0135432D03*
X0205183Y0135362D03*
X0205183Y0135222D03*
X0197903Y0136132D03*
D25*
X0198043Y0134382D03*
X0200633Y0138372D03*
X0208403Y0134032D03*
X0214283Y0135012D03*
X0226813Y0135012D03*
X0229263Y0135012D03*
X0230503Y0134312D03*
X0230643Y0134522D03*
X0230713Y0134662D03*
X0230783Y0134732D03*
X0230853Y0134872D03*
X0230923Y0135012D03*
X0230993Y0135082D03*
X0231063Y0135222D03*
X0231203Y0135362D03*
X0231203Y0135432D03*
X0231413Y0135712D03*
X0231483Y0135782D03*
X0231133Y0138022D03*
X0230993Y0138162D03*
X0230923Y0138232D03*
X0230853Y0138372D03*
X0230713Y0138512D03*
X0230643Y0138582D03*
D26*
X0213093Y0134032D03*
X0208403Y0135432D03*
X0200213Y0136762D03*
X0198463Y0135922D03*
D27*
X0198428Y0135782D03*
X0200248Y0136832D03*
X0208438Y0135362D03*
X0228038Y0134032D03*
D28*
X0229403Y0135292D03*
X0231623Y0137392D03*
X0231763Y0137252D03*
X0233373Y0135502D03*
X0214423Y0135152D03*
X0211763Y0135152D03*
X0205113Y0137602D03*
X0200703Y0138652D03*
X0197973Y0134102D03*
D29*
X0197868Y0136202D03*
X0197868Y0136342D03*
X0197868Y0136552D03*
X0197868Y0136692D03*
X0197868Y0136902D03*
X0197868Y0137042D03*
X0197868Y0137252D03*
X0197868Y0137392D03*
X0197868Y0137602D03*
X0197868Y0137742D03*
X0197868Y0137952D03*
X0197868Y0138092D03*
X0197868Y0138302D03*
X0197868Y0138442D03*
X0197868Y0138652D03*
X0200808Y0136342D03*
X0200808Y0136202D03*
X0200808Y0135992D03*
X0200808Y0135852D03*
X0200808Y0135642D03*
X0200808Y0135502D03*
X0200808Y0135292D03*
X0200808Y0135152D03*
X0200808Y0134942D03*
X0200808Y0134802D03*
X0200808Y0134592D03*
X0200808Y0134452D03*
X0200808Y0134242D03*
X0200808Y0134102D03*
X0207388Y0136902D03*
X0207458Y0136692D03*
X0207458Y0136552D03*
X0207528Y0136342D03*
X0207598Y0136202D03*
X0207668Y0135992D03*
X0207668Y0135852D03*
X0209138Y0135852D03*
X0209138Y0135992D03*
X0209208Y0136202D03*
X0209278Y0136342D03*
X0209348Y0136552D03*
X0209348Y0136692D03*
X0209418Y0136902D03*
X0209558Y0137392D03*
X0209698Y0137952D03*
X0207248Y0137392D03*
X0214528Y0137392D03*
X0214528Y0137252D03*
X0214528Y0137042D03*
X0214528Y0136902D03*
X0214528Y0136692D03*
X0214528Y0136552D03*
X0214528Y0136342D03*
X0214528Y0136202D03*
X0214528Y0135992D03*
X0214528Y0137602D03*
X0214528Y0137742D03*
X0214528Y0137952D03*
X0214528Y0138092D03*
X0214528Y0138302D03*
X0214528Y0138442D03*
X0214528Y0138652D03*
D30*
X0213093Y0134802D03*
X0217643Y0134802D03*
X0217643Y0134942D03*
X0217643Y0134592D03*
X0217643Y0134452D03*
X0217643Y0134242D03*
X0217643Y0134102D03*
X0203923Y0134102D03*
X0203923Y0134242D03*
X0203923Y0134452D03*
X0203923Y0134592D03*
X0203923Y0134802D03*
X0203923Y0134942D03*
D31*
X0208438Y0134102D03*
X0211938Y0134942D03*
X0214248Y0134942D03*
X0229158Y0134942D03*
X0230468Y0134242D03*
X0230608Y0134452D03*
X0230678Y0134592D03*
X0230818Y0134802D03*
X0230608Y0138652D03*
X0198078Y0134592D03*
D32*
X0213093Y0134102D03*
X0228003Y0134102D03*
X0232743Y0136902D03*
D33*
X0232393Y0135852D03*
X0221913Y0134942D03*
X0221913Y0134802D03*
X0221913Y0134592D03*
X0221913Y0134452D03*
X0221913Y0134242D03*
X0221913Y0134102D03*
D34*
X0230363Y0134102D03*
X0230923Y0134942D03*
X0231063Y0135152D03*
X0231133Y0135292D03*
X0231273Y0135502D03*
X0231343Y0135642D03*
X0233303Y0135642D03*
X0231063Y0138092D03*
X0230783Y0138442D03*
X0200633Y0138302D03*
X0198043Y0134452D03*
D35*
X0200773Y0136552D03*
X0205183Y0137042D03*
X0205183Y0137252D03*
X0205183Y0137392D03*
X0205183Y0135642D03*
X0205183Y0135502D03*
X0205183Y0135292D03*
X0205183Y0135152D03*
X0207353Y0137042D03*
X0207283Y0137252D03*
X0207213Y0137602D03*
X0207143Y0137742D03*
X0207073Y0137952D03*
X0207073Y0138092D03*
X0207003Y0138302D03*
X0209593Y0137602D03*
X0209663Y0137742D03*
X0209733Y0138092D03*
X0209803Y0138302D03*
X0209873Y0138442D03*
X0209873Y0138652D03*
X0209523Y0137252D03*
X0209453Y0137042D03*
X0211623Y0137042D03*
X0211623Y0136902D03*
X0211623Y0136692D03*
X0211623Y0136552D03*
X0211623Y0136342D03*
X0211623Y0136202D03*
X0211623Y0135992D03*
X0211623Y0135852D03*
X0211623Y0135642D03*
X0211623Y0137252D03*
X0211623Y0137392D03*
X0211623Y0137602D03*
X0211623Y0137742D03*
X0211623Y0137952D03*
X0211623Y0138092D03*
X0211623Y0138302D03*
X0211623Y0138442D03*
X0211623Y0138652D03*
X0214493Y0135852D03*
X0214493Y0135642D03*
X0214493Y0135502D03*
X0218903Y0135502D03*
X0218903Y0135642D03*
X0218903Y0135292D03*
X0218903Y0135152D03*
X0218903Y0137042D03*
X0218903Y0137252D03*
X0218903Y0137392D03*
X0222963Y0137392D03*
X0222963Y0137252D03*
X0222963Y0137042D03*
X0222963Y0136902D03*
X0222963Y0136692D03*
X0222963Y0136552D03*
X0222963Y0136342D03*
X0222963Y0136202D03*
X0222963Y0135992D03*
X0222963Y0135852D03*
X0222963Y0135642D03*
X0222963Y0135502D03*
X0222963Y0135292D03*
X0222963Y0135152D03*
X0222963Y0137602D03*
X0222963Y0137742D03*
X0222963Y0137952D03*
X0222963Y0138092D03*
X0222963Y0138302D03*
X0222963Y0138442D03*
X0222963Y0138652D03*
X0226603Y0138652D03*
X0226603Y0138442D03*
X0226603Y0138302D03*
X0226603Y0138092D03*
X0226603Y0137952D03*
X0226603Y0137742D03*
X0226603Y0137602D03*
X0226603Y0137392D03*
X0226603Y0137252D03*
X0226603Y0137042D03*
X0226603Y0136902D03*
X0226603Y0136692D03*
X0226603Y0136552D03*
X0226603Y0136342D03*
X0226603Y0136202D03*
X0226603Y0135992D03*
X0226603Y0135852D03*
X0226603Y0135642D03*
X0226603Y0135502D03*
X0229473Y0135642D03*
X0229473Y0135852D03*
X0229473Y0135992D03*
X0229473Y0136202D03*
X0229473Y0136342D03*
X0229473Y0136552D03*
X0229473Y0136692D03*
X0229473Y0136902D03*
X0229473Y0137042D03*
X0229473Y0137252D03*
X0229473Y0137392D03*
X0229473Y0137602D03*
X0229473Y0137742D03*
X0229473Y0137952D03*
X0229473Y0138092D03*
X0229473Y0138302D03*
X0229473Y0138442D03*
X0229473Y0138652D03*
X0233443Y0138652D03*
X0233443Y0138442D03*
X0233443Y0138302D03*
X0233443Y0138092D03*
X0233443Y0137952D03*
X0233443Y0137742D03*
X0233443Y0137602D03*
X0233443Y0137392D03*
X0233443Y0137252D03*
X0233443Y0135292D03*
X0233443Y0135152D03*
X0233443Y0134942D03*
X0233443Y0134802D03*
X0233443Y0134592D03*
X0233443Y0134452D03*
X0233443Y0134242D03*
X0233443Y0134102D03*
D36*
X0231903Y0137112D03*
X0231413Y0137672D03*
X0226673Y0135222D03*
X0214423Y0135222D03*
X0214353Y0135082D03*
X0200703Y0138582D03*
X0197973Y0134172D03*
D37*
X0213093Y0134172D03*
D38*
X0228038Y0134172D03*
D39*
X0228038Y0134242D03*
X0232568Y0136342D03*
X0213058Y0134242D03*
D40*
X0211868Y0135012D03*
X0211798Y0135082D03*
X0200668Y0138512D03*
X0198008Y0134312D03*
X0226778Y0135082D03*
X0229298Y0135082D03*
X0231308Y0135572D03*
X0231518Y0137532D03*
X0231308Y0137812D03*
D41*
X0213093Y0134312D03*
D42*
X0228038Y0134312D03*
X0232498Y0136132D03*
D43*
X0208438Y0134382D03*
X0200528Y0137882D03*
X0198148Y0134732D03*
D44*
X0228038Y0134382D03*
X0232428Y0135922D03*
D45*
X0208438Y0134452D03*
X0200528Y0137952D03*
X0198148Y0134802D03*
D46*
X0213058Y0134452D03*
X0228038Y0134452D03*
D47*
X0208403Y0134522D03*
X0200493Y0137812D03*
X0198183Y0134872D03*
D48*
X0213093Y0134522D03*
X0217783Y0135922D03*
X0217783Y0136062D03*
X0217783Y0136132D03*
X0217783Y0136272D03*
X0217783Y0136412D03*
X0217783Y0136482D03*
X0217783Y0136622D03*
X0217783Y0136762D03*
X0217783Y0136832D03*
D49*
X0228038Y0134522D03*
D50*
X0208438Y0134592D03*
X0200458Y0137742D03*
D51*
X0213093Y0134592D03*
D52*
X0228038Y0134592D03*
D53*
X0208438Y0134662D03*
X0200458Y0137672D03*
X0198218Y0135082D03*
X0198218Y0135012D03*
D54*
X0213093Y0134662D03*
D55*
X0217678Y0137672D03*
X0217678Y0137812D03*
X0217678Y0137882D03*
X0217678Y0138022D03*
X0217678Y0138162D03*
X0217678Y0138232D03*
X0217678Y0138372D03*
X0217678Y0138512D03*
X0217678Y0138582D03*
X0228038Y0134732D03*
X0228038Y0134662D03*
X0203958Y0137672D03*
X0203958Y0137812D03*
X0203958Y0137882D03*
X0203958Y0138022D03*
X0203958Y0138162D03*
X0203958Y0138232D03*
X0203958Y0138372D03*
X0203958Y0138512D03*
X0203958Y0138582D03*
D56*
X0200423Y0137602D03*
X0198253Y0135152D03*
X0208403Y0134802D03*
D57*
X0228038Y0134802D03*
D58*
X0213093Y0134872D03*
D59*
X0228038Y0134872D03*
D60*
X0198183Y0134942D03*
D61*
X0200353Y0137252D03*
X0208403Y0134942D03*
D62*
X0208403Y0135012D03*
X0200353Y0137322D03*
X0198323Y0135432D03*
D63*
X0208438Y0135082D03*
D64*
X0208403Y0135152D03*
X0200283Y0137042D03*
X0198393Y0135642D03*
D65*
X0226743Y0135152D03*
X0229333Y0135152D03*
X0231483Y0137602D03*
D66*
X0208403Y0135222D03*
X0200283Y0136972D03*
X0198393Y0135712D03*
D67*
X0198288Y0135292D03*
X0200388Y0137392D03*
D68*
X0200248Y0136902D03*
X0198428Y0135852D03*
X0208438Y0135292D03*
D69*
X0211658Y0135502D03*
X0211728Y0135292D03*
X0214458Y0135292D03*
X0218868Y0136902D03*
X0218868Y0137602D03*
X0226638Y0135292D03*
X0229438Y0135502D03*
X0206968Y0138442D03*
X0206898Y0138652D03*
X0205148Y0136902D03*
D70*
X0198358Y0135502D03*
D71*
X0198463Y0135992D03*
X0200213Y0136692D03*
X0208403Y0135502D03*
D72*
X0200318Y0137112D03*
X0200318Y0137182D03*
X0198358Y0135572D03*
D73*
X0198498Y0136062D03*
X0200178Y0136622D03*
X0208438Y0135572D03*
D74*
X0208403Y0135642D03*
D75*
X0208403Y0135712D03*
D76*
X0204063Y0135852D03*
X0204063Y0135992D03*
X0204063Y0136202D03*
X0204063Y0136342D03*
X0204063Y0136552D03*
X0204063Y0136692D03*
D77*
X0217783Y0136692D03*
X0217783Y0136552D03*
X0217783Y0136342D03*
X0217783Y0136202D03*
X0217783Y0135992D03*
X0217783Y0135852D03*
D78*
X0204063Y0135922D03*
X0204063Y0136062D03*
X0204063Y0136132D03*
X0204063Y0136272D03*
X0204063Y0136412D03*
X0204063Y0136482D03*
X0204063Y0136622D03*
X0204063Y0136762D03*
X0204063Y0136832D03*
D79*
X0232463Y0135992D03*
D80*
X0207633Y0136062D03*
X0199373Y0136412D03*
X0199303Y0136272D03*
D81*
X0232463Y0136062D03*
D82*
X0199198Y0136132D03*
D83*
X0199268Y0136202D03*
D84*
X0232533Y0136202D03*
D85*
X0207563Y0136272D03*
D86*
X0232533Y0136272D03*
D87*
X0199478Y0136552D03*
X0199338Y0136342D03*
D88*
X0232603Y0136412D03*
X0232603Y0136482D03*
D89*
X0199408Y0136482D03*
D90*
X0232638Y0136552D03*
D91*
X0232673Y0136622D03*
D92*
X0232673Y0136692D03*
X0232673Y0137042D03*
D93*
X0232708Y0136972D03*
X0232708Y0136762D03*
D94*
X0232743Y0136832D03*
D95*
X0231833Y0137182D03*
X0231693Y0137322D03*
D96*
X0217678Y0137742D03*
X0217678Y0137952D03*
X0217678Y0138092D03*
X0217678Y0138302D03*
X0217678Y0138442D03*
X0217678Y0138652D03*
X0203958Y0138652D03*
X0203958Y0138442D03*
X0203958Y0138302D03*
X0203958Y0138092D03*
X0203958Y0137952D03*
X0203958Y0137742D03*
D97*
X0217013Y0143692D03*
X0217013Y0143902D03*
X0217013Y0144042D03*
X0217013Y0144252D03*
X0217013Y0144392D03*
X0217013Y0144602D03*
X0217013Y0144742D03*
X0217013Y0144952D03*
X0217013Y0145092D03*
X0217013Y0145302D03*
D98*
X0217013Y0145232D03*
X0217013Y0145162D03*
X0217013Y0145022D03*
X0217013Y0144882D03*
X0217013Y0144812D03*
X0217013Y0144672D03*
X0217013Y0144532D03*
X0217013Y0144462D03*
X0217013Y0144322D03*
X0217013Y0144182D03*
X0217013Y0144112D03*
X0217013Y0143972D03*
X0217013Y0143832D03*
X0217013Y0143762D03*
X0217013Y0145372D03*
D99*
X0212866Y0112453D03*
X0213676Y0108613D03*
X0214876Y0109003D03*
X0214876Y0109033D03*
X0217486Y0106213D03*
X0217486Y0106183D03*
X0220066Y0108913D03*
X0221326Y0108643D03*
X0221326Y0108613D03*
X0220666Y0111193D03*
X0220666Y0111223D03*
X0225766Y0106363D03*
X0225736Y0106243D03*
X0225676Y0106063D03*
X0225676Y0106033D03*
X0225616Y0105853D03*
X0225616Y0105823D03*
X0225586Y0105763D03*
X0225586Y0105733D03*
X0225526Y0105583D03*
X0225526Y0105553D03*
X0225466Y0105403D03*
X0225436Y0105343D03*
X0225436Y0105313D03*
X0225376Y0105193D03*
X0225376Y0105163D03*
X0225316Y0105043D03*
X0225316Y0105013D03*
X0225286Y0104983D03*
X0225286Y0104953D03*
X0225226Y0104833D03*
X0217516Y0099493D03*
X0209866Y0104653D03*
X0209836Y0104713D03*
X0209776Y0104803D03*
X0209776Y0104833D03*
X0209716Y0104953D03*
X0209686Y0105013D03*
D100*
X0211156Y0107653D03*
X0211156Y0107683D03*
X0211156Y0107713D03*
X0213796Y0107563D03*
X0213796Y0107533D03*
X0217486Y0107653D03*
X0217486Y0107683D03*
X0217486Y0107713D03*
X0217516Y0099523D03*
D101*
X0217501Y0099553D03*
X0221101Y0106843D03*
X0221101Y0106873D03*
X0223831Y0108703D03*
X0223831Y0108733D03*
X0223831Y0108763D03*
X0223831Y0108793D03*
X0223831Y0112033D03*
X0217501Y0108763D03*
X0217501Y0108733D03*
X0213871Y0106873D03*
X0211141Y0108733D03*
X0211141Y0108763D03*
X0212641Y0112993D03*
D102*
X0211141Y0109633D03*
X0213961Y0106363D03*
X0217501Y0109633D03*
X0221041Y0106363D03*
X0221041Y0106333D03*
X0223831Y0109573D03*
X0223831Y0109603D03*
X0223831Y0109633D03*
X0223831Y0109663D03*
X0223831Y0111733D03*
X0223831Y0111763D03*
X0217501Y0117403D03*
X0217501Y0099583D03*
D103*
X0217501Y0099613D03*
X0217501Y0110353D03*
X0217501Y0117373D03*
D104*
X0217501Y0117343D03*
X0217501Y0111013D03*
X0223831Y0111013D03*
X0223831Y0110983D03*
X0223831Y0111043D03*
X0223831Y0111073D03*
X0223831Y0111163D03*
X0223831Y0111193D03*
X0220921Y0105583D03*
X0217501Y0099643D03*
X0214081Y0105583D03*
X0211141Y0111013D03*
D105*
X0217501Y0111523D03*
X0220861Y0105313D03*
X0217501Y0099673D03*
X0214111Y0105313D03*
D106*
X0217501Y0099703D03*
X0217501Y0111883D03*
X0217501Y0117283D03*
D107*
X0217486Y0112243D03*
X0214216Y0104923D03*
X0217516Y0099733D03*
X0220786Y0104923D03*
D108*
X0217516Y0099763D03*
X0214246Y0104773D03*
X0217486Y0112483D03*
X0217486Y0112513D03*
D109*
X0217501Y0112693D03*
X0217501Y0117193D03*
X0217501Y0099793D03*
D110*
X0217501Y0099823D03*
X0214321Y0104563D03*
D111*
X0217516Y0099853D03*
X0220666Y0104473D03*
D112*
X0217516Y0099883D03*
D113*
X0217501Y0099913D03*
X0214321Y0104353D03*
D114*
X0214321Y0104323D03*
X0217501Y0099943D03*
X0220651Y0104323D03*
D115*
X0217501Y0099973D03*
X0217501Y0117013D03*
D116*
X0217501Y0100003D03*
D117*
X0217501Y0100033D03*
X0217501Y0116953D03*
D118*
X0217501Y0116923D03*
X0217501Y0100063D03*
D119*
X0217501Y0100093D03*
D120*
X0217501Y0100123D03*
X0217501Y0116863D03*
D121*
X0217501Y0100153D03*
D122*
X0217501Y0100183D03*
X0217501Y0116803D03*
D123*
X0217516Y0100213D03*
D124*
X0217501Y0100243D03*
D125*
X0217501Y0100273D03*
X0217501Y0116713D03*
D126*
X0217501Y0116683D03*
X0217501Y0100303D03*
D127*
X0217501Y0100333D03*
X0217501Y0116653D03*
D128*
X0217501Y0116623D03*
X0217501Y0100363D03*
D129*
X0217516Y0100393D03*
D130*
X0217516Y0100423D03*
D131*
X0217516Y0100453D03*
D132*
X0217516Y0100483D03*
D133*
X0217501Y0100513D03*
X0217501Y0116473D03*
D134*
X0217501Y0116443D03*
X0217501Y0100543D03*
D135*
X0217501Y0100573D03*
X0217501Y0116413D03*
D136*
X0217501Y0116383D03*
X0217501Y0100603D03*
D137*
X0217501Y0100633D03*
D138*
X0217501Y0100663D03*
X0217501Y0116323D03*
D139*
X0217501Y0116293D03*
X0217501Y0100693D03*
D140*
X0217501Y0100723D03*
X0217501Y0116263D03*
D141*
X0217501Y0100753D03*
D142*
X0217501Y0100783D03*
X0217501Y0116203D03*
D143*
X0217501Y0116173D03*
X0217501Y0100813D03*
D144*
X0217516Y0100843D03*
D145*
X0217501Y0100873D03*
X0217501Y0116113D03*
D146*
X0217501Y0100903D03*
D147*
X0217501Y0100933D03*
X0217501Y0116053D03*
D148*
X0217501Y0100963D03*
D149*
X0217501Y0100993D03*
X0217501Y0115993D03*
D150*
X0217501Y0115963D03*
X0217501Y0101023D03*
D151*
X0217501Y0101053D03*
X0217501Y0115933D03*
D152*
X0217501Y0101083D03*
D153*
X0217501Y0101113D03*
X0217501Y0115873D03*
D154*
X0217516Y0101143D03*
D155*
X0217501Y0101173D03*
X0217501Y0115813D03*
D156*
X0217501Y0115783D03*
X0217501Y0101203D03*
D157*
X0217501Y0101233D03*
D158*
X0217501Y0101263D03*
X0217501Y0115723D03*
D159*
X0217501Y0115693D03*
X0217501Y0101293D03*
D160*
X0217501Y0101323D03*
D161*
X0217501Y0101353D03*
X0217501Y0115633D03*
D162*
X0217501Y0115603D03*
X0217501Y0101383D03*
D163*
X0217516Y0101413D03*
D164*
X0217501Y0101443D03*
X0217501Y0115543D03*
D165*
X0217501Y0115513D03*
X0217501Y0101473D03*
D166*
X0217501Y0101503D03*
X0217501Y0115483D03*
D167*
X0217501Y0115453D03*
X0217501Y0101533D03*
D168*
X0217501Y0101563D03*
D169*
X0217501Y0101593D03*
X0217501Y0115393D03*
D170*
X0217501Y0115363D03*
X0217501Y0101623D03*
D171*
X0217501Y0101653D03*
X0217501Y0115333D03*
D172*
X0217501Y0115303D03*
X0217501Y0101683D03*
D173*
X0217501Y0101713D03*
X0217501Y0115243D03*
D174*
X0217501Y0101743D03*
D175*
X0217501Y0101773D03*
X0217501Y0115213D03*
D176*
X0217501Y0115183D03*
X0217501Y0101803D03*
D177*
X0217501Y0101833D03*
X0217501Y0115153D03*
D178*
X0217501Y0115123D03*
X0217501Y0101863D03*
D179*
X0217501Y0101893D03*
X0217501Y0115093D03*
D180*
X0217501Y0115063D03*
X0217501Y0101923D03*
D181*
X0217501Y0101953D03*
X0217501Y0115033D03*
D182*
X0217501Y0115003D03*
X0217501Y0101983D03*
D183*
X0217501Y0102013D03*
X0217501Y0114973D03*
D184*
X0217501Y0114943D03*
X0217501Y0102043D03*
D185*
X0217501Y0102073D03*
X0217501Y0114913D03*
D186*
X0217501Y0114883D03*
X0217501Y0102103D03*
D187*
X0217501Y0102133D03*
X0217501Y0114853D03*
D188*
X0217501Y0114823D03*
X0217501Y0102163D03*
D189*
X0217501Y0102193D03*
X0217501Y0114793D03*
D190*
X0217501Y0114763D03*
X0217501Y0102223D03*
D191*
X0217501Y0102253D03*
X0217501Y0114733D03*
D192*
X0217501Y0114703D03*
X0217501Y0102283D03*
D193*
X0217501Y0102313D03*
X0217501Y0114673D03*
D194*
X0217501Y0114643D03*
X0217501Y0102343D03*
D195*
X0217501Y0102373D03*
X0217501Y0114613D03*
D196*
X0217501Y0114583D03*
X0217501Y0102403D03*
D197*
X0217501Y0102433D03*
X0217501Y0114553D03*
D198*
X0217501Y0114523D03*
X0217501Y0102463D03*
D199*
X0217501Y0102493D03*
X0217501Y0114463D03*
X0217501Y0114493D03*
D200*
X0217501Y0114433D03*
X0217501Y0102523D03*
D201*
X0217501Y0102553D03*
X0217501Y0102583D03*
X0217501Y0114403D03*
D202*
X0217501Y0114373D03*
X0217501Y0102613D03*
D203*
X0217501Y0102643D03*
X0217501Y0114343D03*
D204*
X0217501Y0114313D03*
X0217501Y0102673D03*
D205*
X0217501Y0102703D03*
X0217501Y0114253D03*
X0217501Y0114283D03*
D206*
X0217501Y0114223D03*
X0217501Y0102763D03*
X0217501Y0102733D03*
D207*
X0217501Y0102793D03*
X0217501Y0114193D03*
D208*
X0217501Y0114163D03*
X0217501Y0102823D03*
D209*
X0217501Y0102853D03*
X0217501Y0114133D03*
D210*
X0217501Y0114073D03*
X0217501Y0102883D03*
D211*
X0217516Y0102913D03*
D212*
X0217501Y0102943D03*
X0217501Y0114043D03*
D213*
X0217501Y0114013D03*
X0217501Y0102973D03*
D214*
X0217501Y0103003D03*
X0217501Y0113953D03*
X0217501Y0113983D03*
D215*
X0217501Y0113923D03*
X0217501Y0103063D03*
X0217501Y0103033D03*
D216*
X0217501Y0103093D03*
X0217501Y0113893D03*
D217*
X0217501Y0113863D03*
X0217501Y0113833D03*
X0217501Y0103123D03*
D218*
X0217501Y0103153D03*
X0217501Y0103183D03*
X0217501Y0113803D03*
D219*
X0217501Y0113773D03*
X0217501Y0103213D03*
D220*
X0217501Y0103243D03*
X0217501Y0113713D03*
X0217501Y0113743D03*
D221*
X0217516Y0103273D03*
D222*
X0217501Y0103303D03*
X0217501Y0113683D03*
D223*
X0217501Y0113653D03*
X0217501Y0113623D03*
X0217501Y0103333D03*
D224*
X0217501Y0103363D03*
X0217501Y0103393D03*
X0217501Y0113593D03*
D225*
X0217501Y0113563D03*
X0217501Y0113533D03*
X0217501Y0103423D03*
D226*
X0217501Y0103453D03*
X0217501Y0103483D03*
X0217501Y0113503D03*
D227*
X0217501Y0113473D03*
X0217501Y0113443D03*
X0217501Y0103513D03*
D228*
X0217501Y0103543D03*
X0217501Y0103573D03*
X0217501Y0113413D03*
D229*
X0217501Y0113383D03*
X0217501Y0113353D03*
X0217501Y0103603D03*
D230*
X0217501Y0103633D03*
X0217501Y0103663D03*
X0217501Y0113323D03*
D231*
X0217501Y0113293D03*
X0217501Y0113263D03*
X0217501Y0103723D03*
X0217501Y0103693D03*
D232*
X0217501Y0103753D03*
X0217501Y0113233D03*
D233*
X0217501Y0113173D03*
X0217501Y0103813D03*
X0217501Y0103783D03*
D234*
X0217501Y0103843D03*
X0217501Y0113143D03*
D235*
X0217501Y0103903D03*
X0217501Y0103873D03*
D236*
X0217501Y0103933D03*
X0217501Y0103963D03*
D237*
X0217501Y0103993D03*
X0217501Y0104023D03*
D238*
X0217501Y0104053D03*
D239*
X0217501Y0104083D03*
X0217501Y0104113D03*
D240*
X0217501Y0104143D03*
X0217501Y0104173D03*
D241*
X0217501Y0104203D03*
X0217501Y0104233D03*
D242*
X0217501Y0104263D03*
D243*
X0223831Y0106993D03*
X0223831Y0107023D03*
X0223831Y0107053D03*
X0223831Y0107083D03*
X0223831Y0112513D03*
X0210271Y0104293D03*
D244*
X0214321Y0104293D03*
D245*
X0220666Y0104293D03*
D246*
X0221236Y0107923D03*
X0221236Y0107953D03*
X0217486Y0107113D03*
X0217486Y0107083D03*
X0217486Y0107053D03*
X0213736Y0107953D03*
X0211156Y0107113D03*
X0211156Y0107083D03*
X0211156Y0107053D03*
X0222196Y0112723D03*
X0224716Y0104293D03*
D247*
X0224821Y0104323D03*
X0223831Y0106753D03*
X0223831Y0106783D03*
X0223831Y0106813D03*
X0223831Y0106843D03*
X0220561Y0110263D03*
X0220591Y0110323D03*
X0220591Y0110353D03*
X0220621Y0110413D03*
X0220651Y0110623D03*
X0222181Y0112663D03*
X0223831Y0112573D03*
X0217501Y0106813D03*
X0217501Y0106783D03*
X0213721Y0108133D03*
X0213721Y0108163D03*
X0214411Y0110293D03*
X0214411Y0110323D03*
X0214381Y0110353D03*
X0214381Y0110383D03*
X0214321Y0110593D03*
X0214321Y0110623D03*
X0214321Y0110653D03*
X0211141Y0106813D03*
X0211141Y0106783D03*
X0210181Y0104323D03*
D248*
X0210136Y0104353D03*
X0211156Y0106603D03*
X0211156Y0106633D03*
X0211156Y0106663D03*
X0213706Y0108253D03*
X0213706Y0108283D03*
X0213706Y0108313D03*
X0214546Y0109933D03*
X0214546Y0109963D03*
X0214516Y0109993D03*
X0214516Y0110023D03*
X0212836Y0112603D03*
X0211156Y0112603D03*
X0210346Y0113023D03*
X0217486Y0106663D03*
X0217486Y0106633D03*
X0217486Y0106603D03*
X0220426Y0109903D03*
X0220426Y0109933D03*
X0220456Y0109963D03*
X0220456Y0109993D03*
X0220666Y0110773D03*
X0220666Y0110803D03*
X0222166Y0112603D03*
X0224656Y0113023D03*
X0224866Y0104353D03*
D249*
X0220666Y0104353D03*
X0217516Y0117073D03*
D250*
X0212836Y0112573D03*
X0214606Y0109783D03*
X0214606Y0109753D03*
X0214636Y0109723D03*
X0214636Y0109693D03*
X0213706Y0108373D03*
X0213706Y0108343D03*
X0211156Y0106543D03*
X0211156Y0106513D03*
X0210076Y0104383D03*
X0217486Y0106513D03*
X0217486Y0106543D03*
X0221296Y0108343D03*
X0221296Y0108373D03*
X0221296Y0108403D03*
X0220336Y0109663D03*
X0220366Y0109723D03*
X0220366Y0109753D03*
X0220666Y0110863D03*
X0220666Y0110893D03*
X0220666Y0110923D03*
X0224956Y0104413D03*
D251*
X0214321Y0104383D03*
D252*
X0220666Y0104383D03*
D253*
X0223831Y0106543D03*
X0223831Y0106573D03*
X0223831Y0106603D03*
X0224911Y0104383D03*
X0221281Y0108283D03*
X0221281Y0108313D03*
X0220381Y0109783D03*
X0220381Y0109813D03*
X0220411Y0109843D03*
X0220411Y0109873D03*
X0220651Y0110833D03*
X0222151Y0112573D03*
X0223831Y0112603D03*
X0217501Y0106573D03*
X0214591Y0109813D03*
X0214591Y0109843D03*
X0214561Y0109873D03*
X0214561Y0109903D03*
X0214321Y0110803D03*
X0214321Y0110833D03*
X0214321Y0110863D03*
X0214321Y0110893D03*
X0211141Y0106573D03*
D254*
X0211141Y0106483D03*
X0211141Y0106453D03*
X0210061Y0104413D03*
X0213691Y0108403D03*
X0213691Y0108433D03*
X0214651Y0109633D03*
X0214651Y0109663D03*
X0212851Y0112543D03*
X0211141Y0112633D03*
X0217501Y0106483D03*
X0217501Y0106453D03*
X0220291Y0109543D03*
X0220351Y0109693D03*
X0220651Y0110953D03*
X0222151Y0112543D03*
D255*
X0217501Y0117103D03*
X0214321Y0104413D03*
D256*
X0220666Y0104413D03*
D257*
X0217486Y0106393D03*
X0217486Y0106423D03*
X0220246Y0109423D03*
X0220306Y0109573D03*
X0220666Y0110983D03*
X0220666Y0111013D03*
X0222136Y0112513D03*
X0224746Y0112993D03*
X0221296Y0108463D03*
X0221296Y0108433D03*
X0225016Y0104473D03*
X0214696Y0109513D03*
X0214696Y0109543D03*
X0211156Y0106423D03*
X0211156Y0106393D03*
X0210016Y0104443D03*
D258*
X0214336Y0104443D03*
X0220666Y0104443D03*
D259*
X0223831Y0106423D03*
X0223831Y0106453D03*
X0223831Y0106483D03*
X0223831Y0106513D03*
X0224971Y0104443D03*
X0220321Y0109603D03*
X0220321Y0109633D03*
X0223831Y0112633D03*
X0214681Y0109603D03*
X0214681Y0109573D03*
X0214321Y0110923D03*
X0214321Y0110953D03*
X0214321Y0110983D03*
D260*
X0214321Y0111013D03*
X0214321Y0111043D03*
X0214321Y0111073D03*
X0214321Y0111103D03*
X0214741Y0109423D03*
X0214741Y0109393D03*
X0214771Y0109363D03*
X0214771Y0109333D03*
X0214771Y0109303D03*
X0213691Y0108493D03*
X0211141Y0106363D03*
X0209971Y0104503D03*
X0210001Y0104473D03*
X0217501Y0106363D03*
X0220201Y0109303D03*
X0220231Y0109363D03*
X0220231Y0109393D03*
X0220261Y0109453D03*
X0221311Y0108523D03*
X0221311Y0108493D03*
X0220651Y0111043D03*
X0223831Y0112663D03*
X0223831Y0106393D03*
X0223831Y0106363D03*
X0223831Y0106333D03*
X0225061Y0104533D03*
X0225031Y0104503D03*
X0212851Y0112513D03*
X0210241Y0112993D03*
D261*
X0217501Y0117133D03*
X0214321Y0104473D03*
D262*
X0214321Y0104503D03*
D263*
X0220651Y0104503D03*
D264*
X0217486Y0106303D03*
X0217486Y0106333D03*
X0220156Y0109153D03*
X0220156Y0109183D03*
X0220186Y0109213D03*
X0220186Y0109243D03*
X0220186Y0109273D03*
X0220216Y0109333D03*
X0220666Y0111073D03*
X0220666Y0111103D03*
X0220666Y0111133D03*
X0222136Y0112483D03*
X0214816Y0109213D03*
X0214816Y0109183D03*
X0214786Y0109243D03*
X0214786Y0109273D03*
X0213676Y0108553D03*
X0213676Y0108523D03*
X0211156Y0106333D03*
X0211156Y0106303D03*
X0209926Y0104563D03*
X0209956Y0104533D03*
X0211156Y0112663D03*
X0212866Y0112483D03*
X0225076Y0104593D03*
X0225076Y0104563D03*
X0225106Y0104623D03*
D265*
X0220651Y0104533D03*
X0214321Y0104533D03*
D266*
X0220666Y0104563D03*
X0217486Y0112873D03*
D267*
X0214321Y0111193D03*
X0214321Y0111163D03*
X0214321Y0111133D03*
X0214831Y0109153D03*
X0214831Y0109123D03*
X0214861Y0109093D03*
X0214861Y0109063D03*
X0213661Y0108583D03*
X0211141Y0106273D03*
X0211141Y0106243D03*
X0209851Y0104683D03*
X0209881Y0104623D03*
X0209911Y0104593D03*
X0217501Y0106243D03*
X0217501Y0106273D03*
X0220111Y0109033D03*
X0220111Y0109063D03*
X0220141Y0109093D03*
X0220141Y0109123D03*
X0221311Y0108583D03*
X0221311Y0108553D03*
X0220651Y0111163D03*
X0222121Y0112453D03*
X0224791Y0112963D03*
X0223831Y0106303D03*
X0223831Y0106273D03*
X0223831Y0106243D03*
X0223831Y0106213D03*
X0225241Y0104863D03*
X0225211Y0104803D03*
X0225181Y0104743D03*
X0225151Y0104713D03*
X0225151Y0104683D03*
X0225121Y0104653D03*
D268*
X0220681Y0104593D03*
X0214321Y0104593D03*
D269*
X0214291Y0104623D03*
X0217501Y0112783D03*
D270*
X0217486Y0112753D03*
X0220696Y0104623D03*
D271*
X0214291Y0104653D03*
D272*
X0220696Y0104653D03*
X0217486Y0112723D03*
D273*
X0217486Y0112663D03*
X0214276Y0104683D03*
X0220696Y0104683D03*
D274*
X0220726Y0104713D03*
X0214276Y0104713D03*
X0217486Y0112603D03*
D275*
X0220096Y0109003D03*
X0220096Y0108973D03*
X0214906Y0108973D03*
X0214906Y0108943D03*
X0211156Y0106213D03*
X0211156Y0106183D03*
X0209506Y0105463D03*
X0209596Y0105223D03*
X0209656Y0105073D03*
X0209746Y0104893D03*
X0209746Y0104863D03*
X0209806Y0104773D03*
X0209806Y0104743D03*
X0211156Y0112693D03*
X0210196Y0112963D03*
X0225706Y0106153D03*
X0225646Y0105943D03*
X0225556Y0105673D03*
X0225556Y0105643D03*
X0225496Y0105493D03*
X0225496Y0105463D03*
X0225406Y0105253D03*
X0225406Y0105223D03*
X0225346Y0105103D03*
X0225346Y0105073D03*
X0225256Y0104923D03*
X0225256Y0104893D03*
X0225196Y0104773D03*
D276*
X0214261Y0104743D03*
D277*
X0220726Y0104743D03*
X0217486Y0112543D03*
X0217486Y0112573D03*
D278*
X0220741Y0104773D03*
D279*
X0214231Y0104803D03*
D280*
X0220756Y0104803D03*
X0217486Y0112423D03*
X0217486Y0112453D03*
D281*
X0214231Y0104833D03*
D282*
X0220756Y0104833D03*
X0217486Y0112363D03*
X0217486Y0112393D03*
D283*
X0217501Y0112333D03*
X0214231Y0104863D03*
X0220771Y0104863D03*
D284*
X0218641Y0105403D03*
X0218611Y0105343D03*
X0217501Y0104893D03*
X0216361Y0105373D03*
X0213511Y0109963D03*
X0213511Y0109993D03*
X0213031Y0111583D03*
X0214321Y0112513D03*
X0209281Y0111583D03*
X0208801Y0109993D03*
X0208801Y0109963D03*
X0211141Y0104893D03*
X0221491Y0109993D03*
X0221941Y0111583D03*
X0225721Y0111583D03*
X0226171Y0109993D03*
X0223831Y0104893D03*
D285*
X0223066Y0113113D03*
X0217486Y0112303D03*
X0211936Y0113113D03*
X0214216Y0104893D03*
D286*
X0220771Y0104893D03*
D287*
X0223831Y0106123D03*
X0223831Y0106153D03*
X0223831Y0106183D03*
X0225541Y0105613D03*
X0225511Y0105523D03*
X0225481Y0105433D03*
X0225421Y0105283D03*
X0225361Y0105133D03*
X0225571Y0105703D03*
X0225631Y0105883D03*
X0225631Y0105913D03*
X0225661Y0105973D03*
X0225661Y0106003D03*
X0225691Y0106093D03*
X0225691Y0106123D03*
X0225721Y0106183D03*
X0225721Y0106213D03*
X0225781Y0106393D03*
X0225781Y0106423D03*
X0225781Y0106453D03*
X0225811Y0106513D03*
X0225811Y0106543D03*
X0225811Y0106573D03*
X0225841Y0106633D03*
X0225841Y0106663D03*
X0225841Y0106693D03*
X0225871Y0106783D03*
X0223831Y0112693D03*
X0222121Y0112423D03*
X0220081Y0108943D03*
X0220021Y0108793D03*
X0214921Y0108883D03*
X0214921Y0108913D03*
X0213661Y0108673D03*
X0213661Y0108643D03*
X0214321Y0111223D03*
X0214321Y0111253D03*
X0214321Y0111283D03*
X0212881Y0112423D03*
X0209161Y0106633D03*
X0209191Y0106513D03*
X0209221Y0106393D03*
X0209281Y0106183D03*
X0209281Y0106153D03*
X0209311Y0106093D03*
X0209311Y0106063D03*
X0209311Y0106033D03*
X0209341Y0106003D03*
X0209341Y0105973D03*
X0209341Y0105943D03*
X0209371Y0105883D03*
X0209371Y0105853D03*
X0209371Y0105823D03*
X0209431Y0105703D03*
X0209431Y0105673D03*
X0209431Y0105643D03*
X0209461Y0105613D03*
X0209461Y0105583D03*
X0209461Y0105553D03*
X0209491Y0105523D03*
X0209491Y0105493D03*
X0209521Y0105433D03*
X0209521Y0105403D03*
X0209581Y0105283D03*
X0209581Y0105253D03*
X0209611Y0105193D03*
X0209611Y0105163D03*
X0209641Y0105133D03*
X0209641Y0105103D03*
X0209671Y0105043D03*
X0209731Y0104923D03*
X0211141Y0106153D03*
D288*
X0211156Y0104923D03*
X0216286Y0105493D03*
X0216316Y0105463D03*
X0216316Y0105433D03*
X0216346Y0105403D03*
X0217486Y0104923D03*
X0218626Y0105373D03*
X0218656Y0105433D03*
X0218686Y0105463D03*
X0223816Y0104923D03*
X0221476Y0109933D03*
X0221476Y0109963D03*
X0221956Y0111613D03*
X0220666Y0112483D03*
X0220666Y0112513D03*
X0225706Y0111613D03*
X0226186Y0109963D03*
X0226186Y0109933D03*
X0213016Y0111613D03*
X0209266Y0111613D03*
D289*
X0209281Y0111643D03*
X0213031Y0111643D03*
X0214321Y0112453D03*
X0214321Y0112483D03*
X0213511Y0109933D03*
X0213511Y0109903D03*
X0216241Y0105583D03*
X0216271Y0105523D03*
X0218731Y0105553D03*
X0223831Y0104953D03*
X0221971Y0111643D03*
X0225691Y0111643D03*
X0211141Y0104953D03*
D290*
X0214201Y0104953D03*
X0217501Y0112213D03*
X0217501Y0117253D03*
X0211861Y0113083D03*
X0223141Y0113083D03*
D291*
X0226201Y0109903D03*
X0218701Y0105523D03*
X0218701Y0105493D03*
X0217501Y0104953D03*
X0208801Y0109903D03*
X0208801Y0109933D03*
D292*
X0217486Y0112153D03*
X0217486Y0112183D03*
X0220786Y0104953D03*
D293*
X0217501Y0106153D03*
X0214951Y0108823D03*
X0214951Y0108853D03*
X0220051Y0108853D03*
X0220051Y0108883D03*
X0220651Y0111253D03*
X0224851Y0112933D03*
X0225751Y0106333D03*
X0225751Y0106303D03*
X0225751Y0106273D03*
X0225601Y0105793D03*
X0225451Y0105373D03*
X0217501Y0117493D03*
X0209251Y0106303D03*
X0209251Y0106273D03*
X0209401Y0105793D03*
X0209401Y0105763D03*
X0209401Y0105733D03*
X0209551Y0105373D03*
X0209551Y0105343D03*
X0209551Y0105313D03*
X0209701Y0104983D03*
D294*
X0211156Y0104983D03*
X0216196Y0105673D03*
X0216256Y0105553D03*
X0218746Y0105583D03*
X0221956Y0111673D03*
X0225706Y0111673D03*
X0209296Y0111673D03*
D295*
X0211801Y0113053D03*
X0217501Y0112123D03*
X0214201Y0104983D03*
X0220801Y0104983D03*
D296*
X0218776Y0105643D03*
X0217486Y0104983D03*
X0216226Y0105613D03*
X0213526Y0109843D03*
X0213526Y0109873D03*
X0213016Y0111673D03*
X0208786Y0109873D03*
X0208786Y0109843D03*
X0220666Y0112423D03*
X0220666Y0112453D03*
X0221476Y0109903D03*
X0221476Y0109873D03*
X0226186Y0109873D03*
D297*
X0226201Y0109843D03*
X0226201Y0109813D03*
X0225691Y0111703D03*
X0225691Y0111733D03*
X0221971Y0111703D03*
X0221461Y0109843D03*
X0221461Y0109813D03*
X0218821Y0105733D03*
X0218791Y0105673D03*
X0218761Y0105613D03*
X0217501Y0105013D03*
X0216211Y0105643D03*
X0216181Y0105703D03*
X0216151Y0105763D03*
X0223831Y0105013D03*
X0223831Y0104983D03*
X0214321Y0112393D03*
X0214321Y0112423D03*
X0213001Y0111703D03*
X0209281Y0111703D03*
X0211141Y0105013D03*
D298*
X0214186Y0105013D03*
X0217486Y0112093D03*
D299*
X0217501Y0112063D03*
X0214171Y0105043D03*
X0220801Y0105013D03*
D300*
X0218866Y0105823D03*
X0218836Y0105763D03*
X0218806Y0105703D03*
X0217486Y0105043D03*
X0216166Y0105733D03*
X0216136Y0105793D03*
X0216106Y0105853D03*
X0213526Y0109783D03*
X0213526Y0109813D03*
X0213016Y0111733D03*
X0209296Y0111733D03*
X0208786Y0109813D03*
X0208786Y0109783D03*
X0211156Y0105043D03*
X0220666Y0112363D03*
X0220666Y0112393D03*
X0221986Y0111733D03*
X0226216Y0109783D03*
D301*
X0220816Y0105043D03*
X0217486Y0112003D03*
X0217486Y0112033D03*
D302*
X0214321Y0112333D03*
X0214321Y0112363D03*
X0213001Y0111763D03*
X0213541Y0109753D03*
X0213541Y0109723D03*
X0216091Y0105883D03*
X0216121Y0105823D03*
X0217501Y0105073D03*
X0218851Y0105793D03*
X0218881Y0105853D03*
X0218911Y0105913D03*
X0221461Y0109723D03*
X0221461Y0109753D03*
X0221461Y0109783D03*
X0221971Y0111763D03*
X0225691Y0111763D03*
X0226201Y0109753D03*
X0223831Y0105103D03*
X0223831Y0105073D03*
X0223831Y0105043D03*
X0211141Y0105073D03*
X0208771Y0109723D03*
X0208771Y0109753D03*
X0209311Y0111763D03*
D303*
X0217501Y0111973D03*
X0214171Y0105073D03*
D304*
X0220816Y0105073D03*
X0217486Y0111913D03*
X0217486Y0111943D03*
D305*
X0220666Y0112303D03*
X0220666Y0112333D03*
X0221986Y0111793D03*
X0221446Y0109693D03*
X0218956Y0106003D03*
X0218896Y0105883D03*
X0217486Y0105103D03*
X0216046Y0105973D03*
X0211156Y0105103D03*
X0212986Y0111793D03*
X0211156Y0112873D03*
X0209296Y0111793D03*
X0226216Y0109723D03*
X0226216Y0109693D03*
D306*
X0214156Y0105103D03*
D307*
X0220831Y0105103D03*
X0220831Y0105133D03*
D308*
X0219001Y0106123D03*
X0217501Y0105133D03*
X0216001Y0106063D03*
X0216001Y0106093D03*
X0213541Y0109663D03*
X0213541Y0109693D03*
X0213001Y0111823D03*
X0209311Y0111823D03*
X0211141Y0105133D03*
X0221461Y0109663D03*
X0222001Y0111823D03*
X0220651Y0112273D03*
X0225661Y0111823D03*
D309*
X0217486Y0111823D03*
X0217486Y0111853D03*
X0214156Y0105133D03*
D310*
X0216031Y0106003D03*
X0216031Y0106033D03*
X0218971Y0106033D03*
X0218971Y0106063D03*
X0223831Y0105163D03*
X0223831Y0105133D03*
X0226231Y0109663D03*
X0223831Y0112873D03*
X0214321Y0112303D03*
X0214321Y0112273D03*
X0208771Y0109693D03*
X0208771Y0109663D03*
D311*
X0208756Y0109633D03*
X0208756Y0109603D03*
X0209326Y0111853D03*
X0212986Y0111853D03*
X0213556Y0109633D03*
X0213556Y0109603D03*
X0215926Y0106243D03*
X0215956Y0106183D03*
X0215956Y0106153D03*
X0215986Y0106123D03*
X0217486Y0105193D03*
X0217486Y0105163D03*
X0218986Y0106093D03*
X0219016Y0106153D03*
X0219046Y0106213D03*
X0221446Y0109603D03*
X0221446Y0109633D03*
X0221986Y0111853D03*
X0220666Y0112243D03*
X0225676Y0111853D03*
X0226216Y0109633D03*
X0211156Y0105193D03*
X0211156Y0105163D03*
D312*
X0214141Y0105163D03*
X0220831Y0105163D03*
X0217501Y0111793D03*
D313*
X0217486Y0111763D03*
X0217486Y0111733D03*
X0214156Y0105193D03*
X0220846Y0105193D03*
D314*
X0219031Y0106183D03*
X0219061Y0106243D03*
X0219061Y0106273D03*
X0219091Y0106303D03*
X0215941Y0106213D03*
X0215911Y0106273D03*
X0213541Y0109573D03*
X0212971Y0111883D03*
X0214321Y0112183D03*
X0214321Y0112213D03*
X0214321Y0112243D03*
X0209371Y0111973D03*
X0209341Y0111913D03*
X0209311Y0111883D03*
X0208741Y0109573D03*
X0220651Y0112213D03*
X0222001Y0111883D03*
X0221431Y0109573D03*
X0221431Y0109543D03*
X0226231Y0109573D03*
X0226231Y0109603D03*
X0225661Y0111883D03*
X0223831Y0105223D03*
X0223831Y0105193D03*
D315*
X0219136Y0106423D03*
X0219106Y0106363D03*
X0219106Y0106333D03*
X0217486Y0105253D03*
X0217486Y0105223D03*
X0215896Y0106303D03*
X0215896Y0106333D03*
X0215866Y0106363D03*
X0215866Y0106393D03*
X0213556Y0109513D03*
X0213556Y0109543D03*
X0212986Y0111913D03*
X0209386Y0112003D03*
X0209356Y0111943D03*
X0208756Y0109543D03*
X0211156Y0105253D03*
X0211156Y0105223D03*
X0220666Y0112153D03*
X0220666Y0112183D03*
X0222016Y0111913D03*
X0225616Y0111973D03*
X0225646Y0111943D03*
X0225646Y0111913D03*
X0226246Y0109543D03*
D316*
X0217501Y0111703D03*
X0214141Y0105223D03*
D317*
X0220846Y0105223D03*
X0217486Y0111643D03*
X0217486Y0111673D03*
D318*
X0214126Y0105253D03*
D319*
X0220861Y0105253D03*
X0217501Y0111613D03*
D320*
X0214321Y0112123D03*
X0214321Y0112153D03*
X0212971Y0111943D03*
X0213571Y0109483D03*
X0215821Y0106483D03*
X0219121Y0106393D03*
X0221431Y0109483D03*
X0221431Y0109513D03*
X0226231Y0109513D03*
X0225571Y0112063D03*
X0223831Y0105313D03*
X0223831Y0105283D03*
X0223831Y0105253D03*
X0211141Y0105283D03*
X0208741Y0109453D03*
X0208741Y0109483D03*
X0208741Y0109513D03*
X0209431Y0112063D03*
X0209461Y0112123D03*
D321*
X0217486Y0111583D03*
X0217486Y0111553D03*
X0214126Y0105283D03*
X0220876Y0105283D03*
D322*
X0219151Y0106453D03*
X0219151Y0106483D03*
X0217501Y0105283D03*
X0215851Y0106423D03*
X0215851Y0106453D03*
X0209401Y0112033D03*
X0222001Y0111943D03*
X0225601Y0112003D03*
D323*
X0225556Y0112093D03*
X0226246Y0109483D03*
X0226246Y0109453D03*
X0226246Y0109423D03*
X0219196Y0106573D03*
X0219196Y0106543D03*
X0215806Y0106543D03*
X0215806Y0106513D03*
X0213556Y0109453D03*
X0212956Y0111973D03*
X0209506Y0112183D03*
X0209446Y0112093D03*
X0208756Y0109423D03*
X0208756Y0109393D03*
X0208756Y0109363D03*
X0211156Y0105313D03*
D324*
X0215776Y0106573D03*
X0215776Y0106603D03*
X0217486Y0105313D03*
X0219166Y0106513D03*
X0219226Y0106633D03*
X0221416Y0109423D03*
X0221416Y0109453D03*
X0222016Y0111973D03*
X0220666Y0112093D03*
X0220666Y0112123D03*
X0225526Y0112123D03*
X0225586Y0112033D03*
X0209476Y0112153D03*
D325*
X0209521Y0112213D03*
X0209551Y0112273D03*
X0211141Y0112843D03*
X0214321Y0112093D03*
X0214321Y0112063D03*
X0214321Y0112033D03*
X0213571Y0109423D03*
X0213571Y0109393D03*
X0215731Y0106723D03*
X0215731Y0106693D03*
X0215761Y0106663D03*
X0215761Y0106633D03*
X0217501Y0105343D03*
X0219211Y0106603D03*
X0219241Y0106663D03*
X0219241Y0106693D03*
X0219271Y0106753D03*
X0223831Y0105373D03*
X0223831Y0105343D03*
X0226231Y0109333D03*
X0226231Y0109363D03*
X0226231Y0109393D03*
X0225511Y0112153D03*
X0225481Y0112183D03*
X0225481Y0112213D03*
X0223831Y0112843D03*
X0222031Y0112003D03*
X0220651Y0112063D03*
X0211141Y0105343D03*
X0208741Y0109333D03*
D326*
X0214126Y0105343D03*
X0220876Y0105343D03*
X0217486Y0111463D03*
X0217486Y0111493D03*
X0217516Y0117313D03*
D327*
X0220666Y0112033D03*
X0220666Y0112003D03*
X0221416Y0109393D03*
X0221416Y0109363D03*
X0219316Y0106873D03*
X0219286Y0106813D03*
X0219286Y0106783D03*
X0219256Y0106723D03*
X0217486Y0105403D03*
X0217486Y0105373D03*
X0215716Y0106753D03*
X0215716Y0106783D03*
X0215686Y0106813D03*
X0215686Y0106843D03*
X0213586Y0109363D03*
X0212956Y0112003D03*
X0212956Y0112033D03*
X0209596Y0112333D03*
X0209566Y0112303D03*
X0209536Y0112243D03*
X0208756Y0109303D03*
X0208756Y0109273D03*
X0208756Y0109243D03*
X0208756Y0109213D03*
X0211156Y0105403D03*
X0211156Y0105373D03*
X0226246Y0109303D03*
X0225466Y0112243D03*
X0225436Y0112273D03*
D328*
X0214111Y0105373D03*
D329*
X0214096Y0105403D03*
X0220876Y0105373D03*
X0217486Y0111373D03*
X0217486Y0111403D03*
D330*
X0217501Y0111343D03*
X0220891Y0105433D03*
X0220891Y0105403D03*
D331*
X0219301Y0106843D03*
X0219331Y0106903D03*
X0217501Y0105433D03*
X0215671Y0106873D03*
X0215641Y0106903D03*
X0215641Y0106933D03*
X0213571Y0109333D03*
X0214321Y0111973D03*
X0214321Y0112003D03*
X0209641Y0112393D03*
X0209611Y0112363D03*
X0208771Y0109183D03*
X0208771Y0109153D03*
X0208771Y0109123D03*
X0208771Y0109093D03*
X0211141Y0105433D03*
X0221401Y0109303D03*
X0221401Y0109333D03*
X0222031Y0112033D03*
X0222031Y0112063D03*
X0225391Y0112333D03*
X0225421Y0112303D03*
X0226231Y0109273D03*
X0226231Y0109243D03*
X0226231Y0109213D03*
X0226231Y0109183D03*
X0226231Y0109153D03*
X0223831Y0105463D03*
X0223831Y0105433D03*
X0223831Y0105403D03*
D332*
X0217486Y0111253D03*
X0217486Y0111283D03*
X0217486Y0111313D03*
X0214096Y0105463D03*
X0214096Y0105433D03*
D333*
X0215596Y0107023D03*
X0215596Y0107053D03*
X0217486Y0105493D03*
X0217486Y0105463D03*
X0219346Y0106933D03*
X0219346Y0106963D03*
X0219406Y0107083D03*
X0220666Y0111943D03*
X0220666Y0111973D03*
X0225316Y0112453D03*
X0225346Y0112393D03*
X0226216Y0109123D03*
X0226216Y0109093D03*
X0226216Y0109063D03*
X0226216Y0109033D03*
X0213586Y0109273D03*
X0213586Y0109303D03*
X0212956Y0112063D03*
X0209686Y0112453D03*
X0209656Y0112423D03*
X0208786Y0109063D03*
X0208786Y0109033D03*
X0208786Y0109003D03*
X0208786Y0108973D03*
X0211156Y0105493D03*
X0211156Y0105463D03*
D334*
X0217501Y0111223D03*
X0220891Y0105463D03*
D335*
X0220906Y0105493D03*
X0217486Y0111163D03*
X0217486Y0111193D03*
X0214096Y0105493D03*
D336*
X0215581Y0107083D03*
X0215581Y0107113D03*
X0219421Y0107113D03*
X0219421Y0107143D03*
X0223831Y0105553D03*
X0223831Y0105523D03*
X0223831Y0105493D03*
X0222031Y0112093D03*
X0223831Y0112813D03*
X0225271Y0112513D03*
X0225331Y0112423D03*
X0214321Y0111943D03*
X0214321Y0111913D03*
X0214321Y0111883D03*
X0209731Y0112513D03*
D337*
X0209701Y0112483D03*
X0212941Y0112093D03*
X0213601Y0109243D03*
X0215551Y0107173D03*
X0215551Y0107143D03*
X0217501Y0105523D03*
X0219391Y0107053D03*
X0219451Y0107203D03*
X0221401Y0109243D03*
X0221401Y0109273D03*
X0220651Y0111913D03*
X0225301Y0112483D03*
X0226201Y0109003D03*
X0226201Y0108973D03*
X0226201Y0108943D03*
X0211141Y0105523D03*
D338*
X0214081Y0105523D03*
X0211141Y0111133D03*
X0217501Y0111133D03*
X0223831Y0111133D03*
X0223831Y0111103D03*
X0220921Y0105523D03*
D339*
X0219436Y0107173D03*
X0219466Y0107233D03*
X0219466Y0107263D03*
X0219496Y0107323D03*
X0221386Y0109183D03*
X0221386Y0109213D03*
X0220666Y0111853D03*
X0220666Y0111883D03*
X0222046Y0112123D03*
X0226216Y0108913D03*
X0217486Y0105553D03*
X0215536Y0107203D03*
X0215536Y0107233D03*
X0215506Y0107263D03*
X0215506Y0107293D03*
X0213586Y0109213D03*
X0212926Y0112123D03*
X0211156Y0112813D03*
X0209776Y0112573D03*
X0209746Y0112543D03*
X0208786Y0108943D03*
X0208786Y0108913D03*
X0208786Y0108883D03*
X0208786Y0108853D03*
X0208786Y0108823D03*
X0211156Y0105583D03*
X0211156Y0105553D03*
D340*
X0214066Y0105553D03*
X0211156Y0111043D03*
X0211156Y0111073D03*
X0211156Y0111103D03*
X0211156Y0111163D03*
X0217486Y0111103D03*
X0217486Y0111073D03*
X0217486Y0111043D03*
X0220906Y0105553D03*
D341*
X0219481Y0107293D03*
X0219511Y0107353D03*
X0219511Y0107383D03*
X0219541Y0107443D03*
X0217501Y0105583D03*
X0215491Y0107323D03*
X0215491Y0107353D03*
X0215461Y0107383D03*
X0215461Y0107413D03*
X0213601Y0109153D03*
X0213601Y0109183D03*
X0214321Y0111793D03*
X0214321Y0111823D03*
X0214321Y0111853D03*
X0212941Y0112153D03*
X0209821Y0112633D03*
X0209791Y0112603D03*
X0208801Y0108793D03*
X0208801Y0108763D03*
X0208801Y0108733D03*
X0208801Y0108703D03*
X0220651Y0111823D03*
X0222061Y0112153D03*
X0225211Y0112573D03*
X0225241Y0112543D03*
X0226201Y0108883D03*
X0226201Y0108853D03*
X0226201Y0108823D03*
X0226201Y0108793D03*
X0223831Y0105613D03*
X0223831Y0105583D03*
D342*
X0226186Y0108673D03*
X0226186Y0108703D03*
X0226186Y0108733D03*
X0226186Y0108763D03*
X0225196Y0112603D03*
X0225166Y0112633D03*
X0220666Y0111793D03*
X0220666Y0111763D03*
X0221386Y0109153D03*
X0221386Y0109123D03*
X0219586Y0107563D03*
X0219556Y0107503D03*
X0219556Y0107473D03*
X0219526Y0107413D03*
X0217486Y0105643D03*
X0217486Y0105613D03*
X0215446Y0107443D03*
X0215446Y0107473D03*
X0215416Y0107503D03*
X0215416Y0107533D03*
X0213616Y0109123D03*
X0212926Y0112183D03*
X0209836Y0112663D03*
X0208816Y0108673D03*
X0208816Y0108643D03*
X0208816Y0108613D03*
X0208816Y0108583D03*
X0211156Y0105643D03*
X0211156Y0105613D03*
D343*
X0214066Y0105613D03*
X0217486Y0110953D03*
X0217486Y0110983D03*
D344*
X0223831Y0110953D03*
X0223831Y0110923D03*
X0223831Y0110893D03*
X0223831Y0111223D03*
X0223831Y0111253D03*
X0220921Y0105643D03*
X0220921Y0105613D03*
X0211141Y0110923D03*
D345*
X0214051Y0105643D03*
X0217501Y0110923D03*
D346*
X0214321Y0111703D03*
X0214321Y0111733D03*
X0214321Y0111763D03*
X0212911Y0112213D03*
X0209881Y0112693D03*
X0208831Y0108553D03*
X0208831Y0108523D03*
X0208831Y0108493D03*
X0208831Y0108463D03*
X0211141Y0105673D03*
X0215371Y0107623D03*
X0215371Y0107653D03*
X0219571Y0107533D03*
X0221371Y0109063D03*
X0221371Y0109093D03*
X0222061Y0112183D03*
X0222061Y0112213D03*
X0223831Y0112783D03*
X0225121Y0112693D03*
X0226171Y0108643D03*
X0226171Y0108613D03*
X0226171Y0108583D03*
X0226171Y0108553D03*
X0226171Y0108523D03*
X0223831Y0105703D03*
X0223831Y0105673D03*
X0223831Y0105643D03*
D347*
X0220936Y0105673D03*
X0223816Y0110863D03*
X0217486Y0110863D03*
X0217486Y0110833D03*
X0217486Y0110893D03*
X0214066Y0105673D03*
X0211156Y0110833D03*
X0211156Y0110863D03*
X0211156Y0110893D03*
X0211156Y0111253D03*
D348*
X0213601Y0109093D03*
X0215401Y0107593D03*
X0215401Y0107563D03*
X0217501Y0105673D03*
X0219601Y0107593D03*
X0219601Y0107623D03*
X0220651Y0111733D03*
X0225151Y0112663D03*
D349*
X0226156Y0108493D03*
X0226156Y0108463D03*
X0226156Y0108433D03*
X0226156Y0108403D03*
X0219646Y0107743D03*
X0219646Y0107713D03*
X0215356Y0107713D03*
X0215356Y0107683D03*
X0211156Y0105733D03*
X0211156Y0105703D03*
X0208846Y0108343D03*
X0208846Y0108373D03*
X0208846Y0108403D03*
X0208846Y0108433D03*
X0209896Y0112723D03*
X0211156Y0112783D03*
D350*
X0211141Y0111283D03*
X0211141Y0110803D03*
X0214051Y0105703D03*
X0217501Y0110803D03*
X0223831Y0110803D03*
X0223831Y0110773D03*
X0223831Y0110833D03*
X0223831Y0111283D03*
D351*
X0220666Y0111673D03*
X0220666Y0111703D03*
X0219616Y0107683D03*
X0219616Y0107653D03*
X0217486Y0105733D03*
X0217486Y0105703D03*
X0215326Y0107743D03*
X0215326Y0107773D03*
X0213616Y0109033D03*
X0213616Y0109063D03*
D352*
X0211156Y0110713D03*
X0211156Y0110743D03*
X0211156Y0110773D03*
X0211156Y0111313D03*
X0214036Y0105733D03*
X0217486Y0110743D03*
X0217486Y0110773D03*
X0220936Y0105733D03*
X0220936Y0105703D03*
D353*
X0219661Y0107773D03*
X0219661Y0107803D03*
X0219691Y0107833D03*
X0219691Y0107863D03*
X0219721Y0107953D03*
X0221371Y0108973D03*
X0221371Y0109003D03*
X0221371Y0109033D03*
X0220651Y0111643D03*
X0222061Y0112243D03*
X0225061Y0112753D03*
X0225091Y0112723D03*
X0226141Y0108373D03*
X0226141Y0108343D03*
X0226141Y0108313D03*
X0226141Y0108283D03*
X0223831Y0105793D03*
X0223831Y0105763D03*
X0223831Y0105733D03*
X0217501Y0105763D03*
X0215311Y0107803D03*
X0215311Y0107833D03*
X0215281Y0107863D03*
X0215281Y0107893D03*
X0213631Y0108973D03*
X0213631Y0109003D03*
X0214321Y0111613D03*
X0214321Y0111643D03*
X0214321Y0111673D03*
X0212911Y0112243D03*
X0209941Y0112753D03*
X0208861Y0108313D03*
X0208861Y0108283D03*
X0208861Y0108253D03*
X0208861Y0108223D03*
X0208861Y0108193D03*
X0211141Y0105763D03*
D354*
X0214051Y0105763D03*
X0211141Y0110683D03*
X0217501Y0110683D03*
X0217501Y0110713D03*
X0220951Y0105763D03*
D355*
X0219706Y0107893D03*
X0219706Y0107923D03*
X0219736Y0107983D03*
X0219736Y0108013D03*
X0219766Y0108073D03*
X0221356Y0108943D03*
X0220666Y0111583D03*
X0220666Y0111613D03*
X0222076Y0112273D03*
X0226126Y0108253D03*
X0226126Y0108223D03*
X0226126Y0108193D03*
X0226126Y0108163D03*
X0217486Y0105823D03*
X0217486Y0105793D03*
X0215266Y0107923D03*
X0215266Y0107953D03*
X0215236Y0107983D03*
X0215236Y0108013D03*
X0211156Y0105823D03*
X0211156Y0105793D03*
X0208906Y0107953D03*
X0208876Y0108073D03*
X0208876Y0108103D03*
X0208876Y0108133D03*
X0208876Y0108163D03*
X0209956Y0112783D03*
X0212896Y0112273D03*
D356*
X0211156Y0111373D03*
X0211156Y0111343D03*
X0211156Y0110653D03*
X0211156Y0110623D03*
X0214036Y0105793D03*
X0217486Y0110623D03*
X0217486Y0110653D03*
D357*
X0217501Y0110593D03*
X0223831Y0110593D03*
X0223831Y0110563D03*
X0223831Y0110533D03*
X0223831Y0110623D03*
X0223831Y0111373D03*
X0223831Y0111403D03*
X0220951Y0105823D03*
X0220951Y0105793D03*
X0214021Y0105823D03*
X0211141Y0110563D03*
X0211141Y0110593D03*
D358*
X0211141Y0112753D03*
X0210001Y0112813D03*
X0214321Y0111583D03*
X0214321Y0111553D03*
X0214321Y0111523D03*
X0213631Y0108943D03*
X0213631Y0108913D03*
X0215191Y0108163D03*
X0215191Y0108133D03*
X0215221Y0108103D03*
X0215221Y0108073D03*
X0215221Y0108043D03*
X0217501Y0105883D03*
X0217501Y0105853D03*
X0219751Y0108043D03*
X0219781Y0108103D03*
X0219781Y0108133D03*
X0219811Y0108193D03*
X0221371Y0108913D03*
X0220651Y0111553D03*
X0222091Y0112303D03*
X0223831Y0112753D03*
X0225001Y0112813D03*
X0225031Y0112783D03*
X0226111Y0108133D03*
X0226111Y0108103D03*
X0226111Y0108073D03*
X0226111Y0108043D03*
X0226081Y0107953D03*
X0226081Y0107923D03*
X0226081Y0107893D03*
X0223831Y0105883D03*
X0223831Y0105853D03*
X0223831Y0105823D03*
X0211141Y0105853D03*
X0208921Y0107833D03*
X0208921Y0107863D03*
X0208921Y0107893D03*
X0208921Y0107923D03*
X0208891Y0107983D03*
X0208891Y0108013D03*
X0208891Y0108043D03*
D359*
X0211156Y0110503D03*
X0211156Y0110533D03*
X0211156Y0111403D03*
X0214036Y0105853D03*
X0217486Y0110503D03*
X0217486Y0110533D03*
X0217486Y0110563D03*
X0220966Y0105853D03*
D360*
X0219796Y0108163D03*
X0219856Y0108313D03*
X0221356Y0108853D03*
X0221356Y0108883D03*
X0220666Y0111493D03*
X0220666Y0111523D03*
X0224956Y0112843D03*
X0226096Y0108013D03*
X0226096Y0107983D03*
X0226066Y0107863D03*
X0226066Y0107833D03*
X0226066Y0107803D03*
X0226066Y0107773D03*
X0223816Y0105913D03*
X0217486Y0105913D03*
X0215146Y0108253D03*
X0215146Y0108283D03*
X0213646Y0108853D03*
X0213646Y0108883D03*
X0212896Y0112303D03*
X0212896Y0112333D03*
X0210016Y0112843D03*
X0208936Y0107803D03*
X0208936Y0107773D03*
X0208936Y0107743D03*
X0208936Y0107713D03*
X0211156Y0105943D03*
X0211156Y0105913D03*
X0211156Y0105883D03*
D361*
X0214021Y0105883D03*
X0211141Y0110473D03*
X0211141Y0111433D03*
X0217501Y0110473D03*
X0223831Y0110473D03*
X0223831Y0110443D03*
X0223831Y0110413D03*
X0223831Y0110503D03*
X0223831Y0111433D03*
D362*
X0217486Y0110443D03*
X0217486Y0110413D03*
X0217486Y0110383D03*
X0220966Y0105913D03*
X0220966Y0105883D03*
D363*
X0221326Y0108673D03*
X0221326Y0108703D03*
X0220036Y0108823D03*
X0220006Y0108763D03*
X0220006Y0108733D03*
X0219976Y0108673D03*
X0220666Y0111283D03*
X0220666Y0111313D03*
X0220666Y0111343D03*
X0222106Y0112393D03*
X0225946Y0107143D03*
X0225916Y0107023D03*
X0225916Y0106993D03*
X0225916Y0106963D03*
X0225886Y0106903D03*
X0225886Y0106873D03*
X0225886Y0106843D03*
X0225886Y0106813D03*
X0225856Y0106753D03*
X0225856Y0106723D03*
X0225826Y0106603D03*
X0225796Y0106483D03*
X0217486Y0106123D03*
X0217486Y0106093D03*
X0214996Y0108673D03*
X0214996Y0108703D03*
X0214996Y0108733D03*
X0214966Y0108763D03*
X0214966Y0108793D03*
X0213646Y0108703D03*
X0214336Y0111313D03*
X0210136Y0112933D03*
X0209086Y0106963D03*
X0209116Y0106843D03*
X0209116Y0106813D03*
X0209116Y0106783D03*
X0209146Y0106723D03*
X0209146Y0106693D03*
X0209146Y0106663D03*
X0209176Y0106603D03*
X0209176Y0106573D03*
X0209176Y0106543D03*
X0209206Y0106483D03*
X0209206Y0106453D03*
X0209206Y0106423D03*
X0209236Y0106363D03*
X0209236Y0106333D03*
X0209266Y0106243D03*
X0209266Y0106213D03*
X0209296Y0106123D03*
X0209356Y0105913D03*
X0211156Y0106093D03*
X0211156Y0106123D03*
D364*
X0214006Y0105913D03*
X0211156Y0110383D03*
X0211156Y0110413D03*
X0211156Y0110443D03*
X0211156Y0111463D03*
D365*
X0216076Y0105943D03*
X0216076Y0105913D03*
X0218926Y0105943D03*
X0218926Y0105973D03*
X0225676Y0111793D03*
D366*
X0223831Y0111493D03*
X0223831Y0111463D03*
X0223831Y0110383D03*
X0223831Y0110353D03*
X0223831Y0110323D03*
X0220981Y0105973D03*
X0220981Y0105943D03*
X0214021Y0105943D03*
X0211141Y0110353D03*
D367*
X0210061Y0112873D03*
X0208951Y0107683D03*
X0208951Y0107653D03*
X0208951Y0107623D03*
X0208951Y0107593D03*
X0211141Y0105973D03*
X0215101Y0108373D03*
X0215101Y0108403D03*
X0217501Y0105973D03*
X0217501Y0105943D03*
X0219841Y0108283D03*
X0221341Y0108793D03*
X0221341Y0108823D03*
X0220651Y0111463D03*
X0222091Y0112333D03*
X0226051Y0107743D03*
X0226051Y0107713D03*
X0226051Y0107683D03*
X0226051Y0107653D03*
D368*
X0226021Y0107563D03*
X0226021Y0107533D03*
X0223831Y0106003D03*
X0223831Y0105973D03*
X0223831Y0105943D03*
X0219871Y0108343D03*
X0219871Y0108373D03*
X0215131Y0108343D03*
X0215131Y0108313D03*
X0213631Y0108823D03*
X0214321Y0111433D03*
X0214321Y0111463D03*
X0214321Y0111493D03*
X0208981Y0107563D03*
X0208981Y0107533D03*
X0208981Y0107503D03*
X0208981Y0107473D03*
D369*
X0211156Y0110263D03*
X0211156Y0110293D03*
X0211156Y0110323D03*
X0211156Y0111493D03*
X0214006Y0106003D03*
X0214006Y0105973D03*
X0217486Y0110263D03*
X0217486Y0110293D03*
X0217486Y0110323D03*
D370*
X0215056Y0108523D03*
X0215056Y0108493D03*
X0215086Y0108463D03*
X0215086Y0108433D03*
X0213646Y0108763D03*
X0213646Y0108793D03*
X0212896Y0112363D03*
X0211156Y0112723D03*
X0210106Y0112903D03*
X0208996Y0107443D03*
X0208996Y0107413D03*
X0208996Y0107383D03*
X0208996Y0107353D03*
X0209026Y0107323D03*
X0209026Y0107293D03*
X0209026Y0107263D03*
X0209026Y0107233D03*
X0209056Y0107113D03*
X0211156Y0106033D03*
X0211156Y0106003D03*
X0217486Y0106003D03*
X0217486Y0106033D03*
X0219886Y0108403D03*
X0219886Y0108433D03*
X0219916Y0108463D03*
X0219916Y0108493D03*
X0220666Y0111403D03*
X0220666Y0111433D03*
X0222106Y0112363D03*
X0224926Y0112873D03*
X0226036Y0107623D03*
X0226036Y0107593D03*
X0226006Y0107503D03*
X0226006Y0107473D03*
X0226006Y0107443D03*
X0226006Y0107413D03*
X0225976Y0107323D03*
X0225976Y0107293D03*
D371*
X0223831Y0110203D03*
X0223831Y0110233D03*
X0223831Y0110263D03*
X0223831Y0110293D03*
X0223831Y0111523D03*
X0217501Y0110233D03*
X0213991Y0106033D03*
X0211141Y0110233D03*
X0211141Y0111523D03*
X0220981Y0106003D03*
D372*
X0220996Y0106033D03*
X0220996Y0106063D03*
X0217486Y0110143D03*
X0217486Y0110173D03*
X0217486Y0110203D03*
X0211156Y0110203D03*
X0211156Y0110173D03*
X0211156Y0110143D03*
X0211156Y0111553D03*
D373*
X0212881Y0112393D03*
X0214321Y0111403D03*
X0214321Y0111373D03*
X0214321Y0111343D03*
X0213661Y0108733D03*
X0215011Y0108643D03*
X0215011Y0108613D03*
X0215041Y0108583D03*
X0215041Y0108553D03*
X0217501Y0106063D03*
X0219931Y0108523D03*
X0219931Y0108553D03*
X0219961Y0108583D03*
X0219961Y0108613D03*
X0219961Y0108643D03*
X0219991Y0108703D03*
X0221341Y0108733D03*
X0221341Y0108763D03*
X0220651Y0111373D03*
X0223831Y0112723D03*
X0224881Y0112903D03*
X0225991Y0107383D03*
X0225991Y0107353D03*
X0225961Y0107263D03*
X0225961Y0107233D03*
X0225961Y0107203D03*
X0225961Y0107173D03*
X0225931Y0107113D03*
X0225931Y0107083D03*
X0225931Y0107053D03*
X0225901Y0106933D03*
X0223831Y0106093D03*
X0223831Y0106063D03*
X0223831Y0106033D03*
X0211141Y0106063D03*
X0209131Y0106753D03*
X0209101Y0106873D03*
X0209101Y0106903D03*
X0209101Y0106933D03*
X0209071Y0106993D03*
X0209071Y0107023D03*
X0209071Y0107053D03*
X0209071Y0107083D03*
X0209041Y0107143D03*
X0209041Y0107173D03*
X0209041Y0107203D03*
D374*
X0211141Y0110113D03*
X0213991Y0106093D03*
X0213991Y0106063D03*
X0217501Y0110113D03*
D375*
X0217486Y0110083D03*
X0217486Y0110053D03*
X0217486Y0110023D03*
X0220996Y0106123D03*
X0220996Y0106093D03*
X0211156Y0110023D03*
X0211156Y0110053D03*
X0211156Y0110083D03*
X0211156Y0111583D03*
D376*
X0213976Y0106123D03*
D377*
X0213991Y0106153D03*
X0211141Y0109993D03*
X0211141Y0111613D03*
X0217501Y0109993D03*
X0221011Y0106153D03*
X0223831Y0109963D03*
X0223831Y0109993D03*
X0223831Y0110023D03*
X0223831Y0110053D03*
X0223831Y0111613D03*
D378*
X0223846Y0111643D03*
X0217486Y0109963D03*
X0217486Y0109933D03*
X0217486Y0109903D03*
X0213976Y0106183D03*
X0211156Y0109903D03*
X0211156Y0109933D03*
X0211156Y0109963D03*
X0211156Y0111643D03*
D379*
X0211141Y0109873D03*
X0213961Y0106213D03*
X0217501Y0109873D03*
X0221011Y0106213D03*
X0221011Y0106183D03*
X0223831Y0109843D03*
X0223831Y0109873D03*
X0223831Y0109903D03*
X0223831Y0109933D03*
X0223831Y0111673D03*
D380*
X0223816Y0109813D03*
X0221026Y0106273D03*
X0221026Y0106243D03*
X0217486Y0109783D03*
X0217486Y0109813D03*
X0217486Y0109843D03*
X0213976Y0106243D03*
D381*
X0213961Y0106273D03*
X0213961Y0106303D03*
X0211141Y0109753D03*
X0211141Y0111703D03*
X0223831Y0111703D03*
X0223831Y0109783D03*
X0223831Y0109753D03*
X0223831Y0109723D03*
X0223831Y0109693D03*
D382*
X0221026Y0106303D03*
X0217486Y0109663D03*
X0217486Y0109693D03*
X0217486Y0109723D03*
X0213946Y0106333D03*
X0211156Y0109663D03*
X0211156Y0109693D03*
X0211156Y0109723D03*
X0211156Y0111733D03*
D383*
X0211156Y0111763D03*
X0211156Y0109603D03*
X0211156Y0109573D03*
X0211156Y0109543D03*
X0213946Y0106393D03*
X0217486Y0109543D03*
X0217486Y0109573D03*
X0217486Y0109603D03*
D384*
X0217501Y0109513D03*
X0217501Y0109483D03*
X0221041Y0106423D03*
X0221041Y0106393D03*
X0211141Y0109483D03*
X0211141Y0109513D03*
X0211141Y0111793D03*
D385*
X0213931Y0106423D03*
X0223831Y0109453D03*
X0223831Y0109483D03*
X0223831Y0109513D03*
X0223831Y0109543D03*
X0223831Y0111793D03*
D386*
X0221056Y0106483D03*
X0221056Y0106453D03*
X0217486Y0109423D03*
X0217486Y0109453D03*
X0213946Y0106453D03*
X0211156Y0109423D03*
X0211156Y0109453D03*
X0211156Y0111823D03*
D387*
X0211141Y0109393D03*
X0211141Y0109363D03*
X0213931Y0106513D03*
X0213931Y0106483D03*
X0217501Y0109363D03*
X0217501Y0109393D03*
X0223831Y0109393D03*
X0223831Y0109363D03*
X0223831Y0109333D03*
X0223831Y0109423D03*
X0223831Y0111823D03*
X0223831Y0111853D03*
D388*
X0221056Y0106543D03*
X0221056Y0106513D03*
X0217486Y0109303D03*
X0217486Y0109333D03*
X0213916Y0106543D03*
X0211156Y0109273D03*
X0211156Y0109303D03*
X0211156Y0109333D03*
X0211156Y0111853D03*
D389*
X0211141Y0111883D03*
X0211141Y0109243D03*
X0213931Y0106573D03*
X0217501Y0109243D03*
X0217501Y0109273D03*
X0221071Y0106573D03*
X0223831Y0109213D03*
X0223831Y0109243D03*
X0223831Y0109273D03*
X0223831Y0109303D03*
X0223831Y0111883D03*
D390*
X0217486Y0109213D03*
X0217486Y0109183D03*
X0217486Y0109153D03*
X0213916Y0106633D03*
X0213916Y0106603D03*
D391*
X0211141Y0109123D03*
X0212581Y0113023D03*
X0222391Y0113023D03*
X0223831Y0111913D03*
X0223831Y0109183D03*
X0223831Y0109153D03*
X0223831Y0109123D03*
X0223831Y0109093D03*
X0221071Y0106633D03*
X0221071Y0106603D03*
D392*
X0221281Y0108223D03*
X0221281Y0108253D03*
X0220471Y0110023D03*
X0220471Y0110053D03*
X0223831Y0106723D03*
X0223831Y0106693D03*
X0223831Y0106663D03*
X0223831Y0106633D03*
X0214471Y0110113D03*
X0214471Y0110143D03*
X0214321Y0110683D03*
X0214321Y0110713D03*
X0214321Y0110743D03*
X0214321Y0110773D03*
X0213721Y0108223D03*
X0211141Y0106693D03*
D393*
X0213901Y0106663D03*
X0217501Y0109123D03*
D394*
X0217486Y0109093D03*
X0217486Y0109063D03*
X0217486Y0109033D03*
X0221086Y0106693D03*
X0221086Y0106663D03*
X0223846Y0111943D03*
X0211156Y0111943D03*
X0211156Y0109093D03*
X0211156Y0109063D03*
X0211156Y0109033D03*
D395*
X0211141Y0109003D03*
X0213901Y0106723D03*
X0213901Y0106693D03*
X0217501Y0109003D03*
X0223831Y0109003D03*
X0223831Y0108973D03*
X0223831Y0108943D03*
X0223831Y0109033D03*
X0223831Y0109063D03*
X0223831Y0111973D03*
D396*
X0220651Y0110743D03*
X0220501Y0110113D03*
X0220501Y0110083D03*
X0217501Y0106693D03*
X0214501Y0110053D03*
X0214501Y0110083D03*
D397*
X0214456Y0110173D03*
X0214456Y0110203D03*
X0213706Y0108193D03*
X0211156Y0106753D03*
X0211156Y0106723D03*
X0211156Y0112573D03*
X0212806Y0112633D03*
X0220546Y0110233D03*
X0220546Y0110203D03*
D398*
X0220516Y0110173D03*
X0220516Y0110143D03*
X0220576Y0110293D03*
X0220666Y0110653D03*
X0220666Y0110683D03*
X0220666Y0110713D03*
X0222166Y0112633D03*
X0221266Y0108193D03*
X0221266Y0108163D03*
X0217486Y0106753D03*
X0217486Y0106723D03*
X0214426Y0110233D03*
X0214426Y0110263D03*
D399*
X0217486Y0108973D03*
X0217486Y0108943D03*
X0217486Y0108913D03*
X0213886Y0106753D03*
X0211156Y0108913D03*
X0211156Y0108943D03*
X0211156Y0108973D03*
X0211156Y0111973D03*
X0221086Y0106753D03*
X0221086Y0106723D03*
D400*
X0221101Y0106783D03*
X0221101Y0106813D03*
X0217501Y0108853D03*
X0217501Y0108883D03*
X0213901Y0106783D03*
X0211141Y0108883D03*
X0211141Y0112003D03*
D401*
X0211156Y0112033D03*
X0211156Y0108853D03*
X0211156Y0108823D03*
X0211156Y0108793D03*
X0213886Y0106843D03*
X0213886Y0106813D03*
X0217486Y0108793D03*
X0217486Y0108823D03*
D402*
X0217486Y0106873D03*
X0217486Y0106843D03*
X0213736Y0108103D03*
X0214366Y0110413D03*
X0214366Y0110443D03*
X0214336Y0110473D03*
X0214336Y0110503D03*
X0212806Y0112663D03*
X0211156Y0112543D03*
X0211156Y0106873D03*
X0211156Y0106843D03*
X0220606Y0110383D03*
X0220636Y0110443D03*
X0220636Y0110473D03*
X0220666Y0110533D03*
X0220666Y0110563D03*
X0220666Y0110593D03*
X0221266Y0108133D03*
X0221266Y0108103D03*
D403*
X0221251Y0108073D03*
X0221251Y0108043D03*
X0220651Y0110503D03*
X0222181Y0112693D03*
X0223831Y0112543D03*
X0223831Y0106963D03*
X0223831Y0106933D03*
X0223831Y0106903D03*
X0223831Y0106873D03*
X0217501Y0106903D03*
X0217501Y0106933D03*
X0213721Y0108073D03*
X0214321Y0110533D03*
X0214321Y0110563D03*
X0212791Y0112693D03*
X0211141Y0106903D03*
D404*
X0211156Y0108643D03*
X0211156Y0108673D03*
X0211156Y0108703D03*
X0213886Y0106903D03*
X0217486Y0108673D03*
X0217486Y0108703D03*
X0221116Y0106933D03*
X0221116Y0106903D03*
X0223846Y0112063D03*
X0222346Y0112993D03*
X0217516Y0117433D03*
X0211156Y0112063D03*
D405*
X0211156Y0112513D03*
X0213736Y0108043D03*
X0213736Y0108013D03*
X0211156Y0106993D03*
X0211156Y0106963D03*
X0211156Y0106933D03*
X0217486Y0106963D03*
X0217486Y0106993D03*
D406*
X0217501Y0108613D03*
X0217501Y0108643D03*
X0213871Y0106963D03*
X0213871Y0106933D03*
X0211141Y0108613D03*
X0223831Y0108613D03*
X0223831Y0108583D03*
X0223831Y0108643D03*
X0223831Y0108673D03*
X0223831Y0112093D03*
D407*
X0225376Y0112363D03*
X0219376Y0107023D03*
X0219376Y0106993D03*
X0215626Y0106993D03*
X0215626Y0106963D03*
D408*
X0217486Y0108523D03*
X0217486Y0108553D03*
X0217486Y0108583D03*
X0221116Y0106993D03*
X0221116Y0106963D03*
D409*
X0213856Y0106993D03*
X0211156Y0108523D03*
X0211156Y0108553D03*
X0211156Y0108583D03*
X0211156Y0112093D03*
D410*
X0212791Y0112723D03*
X0213751Y0107983D03*
X0211141Y0107023D03*
X0217501Y0107023D03*
X0221251Y0107983D03*
X0221251Y0108013D03*
D411*
X0221131Y0107053D03*
X0221131Y0107023D03*
X0223831Y0108463D03*
X0223831Y0108493D03*
X0223831Y0108523D03*
X0223831Y0108553D03*
X0223831Y0112123D03*
X0213871Y0107023D03*
X0211141Y0108493D03*
X0211141Y0112123D03*
D412*
X0211156Y0108463D03*
X0211156Y0108433D03*
X0211156Y0108403D03*
X0213856Y0107083D03*
X0213856Y0107053D03*
X0217486Y0108403D03*
X0217486Y0108433D03*
X0217486Y0108463D03*
X0223816Y0108433D03*
X0222316Y0112963D03*
D413*
X0223831Y0112153D03*
X0223831Y0108403D03*
X0223831Y0108373D03*
X0223831Y0108343D03*
X0223831Y0108313D03*
X0221131Y0107113D03*
X0221131Y0107083D03*
X0217501Y0108373D03*
X0213841Y0107113D03*
X0211141Y0108373D03*
X0211141Y0112153D03*
X0212671Y0112963D03*
D414*
X0211141Y0112483D03*
X0213751Y0107923D03*
X0213751Y0107893D03*
X0211141Y0107143D03*
X0217501Y0107143D03*
X0223831Y0107143D03*
X0223831Y0107113D03*
X0223831Y0107173D03*
X0223831Y0112483D03*
X0222211Y0112753D03*
D415*
X0221146Y0107173D03*
X0221146Y0107143D03*
X0217486Y0108283D03*
X0217486Y0108313D03*
X0217486Y0108343D03*
X0213856Y0107143D03*
X0211156Y0108283D03*
X0211156Y0108313D03*
X0211156Y0108343D03*
X0211156Y0112183D03*
D416*
X0212776Y0112753D03*
X0213766Y0107863D03*
X0211156Y0107233D03*
X0211156Y0107203D03*
X0211156Y0107173D03*
X0217486Y0107173D03*
X0217486Y0107203D03*
X0217486Y0107233D03*
X0221236Y0107863D03*
X0221236Y0107893D03*
X0223816Y0107203D03*
D417*
X0217501Y0108223D03*
X0217501Y0108253D03*
X0213841Y0107203D03*
X0213841Y0107173D03*
X0211141Y0108253D03*
D418*
X0211156Y0108223D03*
X0211156Y0108193D03*
X0211156Y0108163D03*
X0211156Y0112213D03*
X0212686Y0112933D03*
X0217486Y0108193D03*
X0217486Y0108163D03*
X0221146Y0107233D03*
X0221146Y0107203D03*
X0222286Y0112933D03*
D419*
X0213826Y0107233D03*
D420*
X0211141Y0107263D03*
X0211141Y0112453D03*
X0221221Y0107833D03*
X0221221Y0107803D03*
X0223831Y0107293D03*
X0223831Y0107263D03*
X0223831Y0107233D03*
X0223831Y0112453D03*
D421*
X0223831Y0112243D03*
X0223831Y0112213D03*
X0223831Y0108163D03*
X0223831Y0108133D03*
X0223831Y0108103D03*
X0223831Y0108073D03*
X0221161Y0107263D03*
X0217501Y0108103D03*
X0217501Y0108133D03*
X0213841Y0107263D03*
X0211141Y0108103D03*
X0211141Y0108133D03*
D422*
X0213751Y0107833D03*
X0217501Y0107263D03*
D423*
X0211156Y0107293D03*
X0211156Y0107323D03*
X0211156Y0107353D03*
D424*
X0211156Y0108013D03*
X0211156Y0108043D03*
X0211156Y0108073D03*
X0213826Y0107323D03*
X0213826Y0107293D03*
X0217486Y0108043D03*
X0217486Y0108073D03*
X0221176Y0107293D03*
X0211156Y0112243D03*
D425*
X0212776Y0112783D03*
X0213766Y0107803D03*
X0213766Y0107773D03*
X0217486Y0107353D03*
X0217486Y0107323D03*
X0217486Y0107293D03*
X0222226Y0112783D03*
D426*
X0222271Y0112903D03*
X0223831Y0112273D03*
X0223831Y0108043D03*
X0223831Y0108013D03*
X0223831Y0107983D03*
X0223831Y0107953D03*
X0221161Y0107323D03*
X0217501Y0107983D03*
X0217501Y0108013D03*
X0213811Y0107353D03*
X0211141Y0107983D03*
D427*
X0211141Y0107383D03*
X0213781Y0107743D03*
X0217501Y0107383D03*
X0221221Y0107743D03*
X0221221Y0107773D03*
X0223831Y0107413D03*
X0223831Y0107383D03*
X0223831Y0107353D03*
X0223831Y0107323D03*
X0223831Y0112423D03*
X0211141Y0112423D03*
D428*
X0212716Y0112903D03*
X0213826Y0107383D03*
X0217486Y0107893D03*
X0217486Y0107923D03*
X0217486Y0107953D03*
X0221176Y0107383D03*
X0221176Y0107353D03*
D429*
X0221206Y0107683D03*
X0221206Y0107713D03*
X0217486Y0107473D03*
X0217486Y0107443D03*
X0217486Y0107413D03*
X0213766Y0107713D03*
X0211156Y0107473D03*
X0211156Y0107443D03*
X0211156Y0107413D03*
X0212746Y0112813D03*
X0222226Y0112813D03*
D430*
X0223831Y0112303D03*
X0223831Y0107923D03*
X0223831Y0107893D03*
X0223831Y0107863D03*
X0223831Y0107833D03*
X0221191Y0107413D03*
X0213811Y0107413D03*
X0213811Y0107443D03*
X0211141Y0107863D03*
D431*
X0211156Y0107833D03*
X0211156Y0107803D03*
X0211156Y0107773D03*
X0213796Y0107473D03*
X0217486Y0107773D03*
X0217486Y0107803D03*
X0217486Y0107833D03*
X0221176Y0107473D03*
X0221176Y0107443D03*
X0222256Y0112873D03*
X0211156Y0112303D03*
D432*
X0211141Y0112393D03*
X0211141Y0107503D03*
X0213781Y0107653D03*
X0213781Y0107683D03*
X0217501Y0107503D03*
X0223831Y0107503D03*
X0223831Y0107473D03*
X0223831Y0107443D03*
X0223831Y0107533D03*
X0223831Y0112393D03*
D433*
X0223831Y0112333D03*
X0223831Y0107803D03*
X0223831Y0107773D03*
X0223831Y0107743D03*
X0223831Y0107713D03*
X0221191Y0107533D03*
X0221191Y0107503D03*
X0217501Y0107743D03*
X0213811Y0107503D03*
X0211141Y0107743D03*
X0211141Y0112333D03*
X0212731Y0112873D03*
D434*
X0213796Y0107623D03*
X0211156Y0107593D03*
X0211156Y0107563D03*
X0211156Y0107533D03*
X0217486Y0107533D03*
X0217486Y0107563D03*
X0217486Y0107593D03*
X0221206Y0107623D03*
X0221206Y0107653D03*
X0223816Y0107563D03*
D435*
X0221191Y0107563D03*
X0221191Y0107593D03*
X0217501Y0107623D03*
X0222241Y0112843D03*
X0217501Y0117463D03*
X0211141Y0112363D03*
X0211141Y0107623D03*
D436*
X0213781Y0107593D03*
X0212731Y0112843D03*
X0223831Y0112363D03*
X0223831Y0107683D03*
X0223831Y0107653D03*
X0223831Y0107623D03*
X0223831Y0107593D03*
D437*
X0217501Y0107863D03*
D438*
X0211156Y0107893D03*
X0211156Y0107923D03*
X0211156Y0107953D03*
X0211156Y0112273D03*
D439*
X0215176Y0108223D03*
X0215176Y0108193D03*
X0219826Y0108223D03*
X0219826Y0108253D03*
D440*
X0223831Y0108253D03*
X0223831Y0108223D03*
X0223831Y0108193D03*
X0223831Y0108283D03*
X0223831Y0112183D03*
D441*
X0220276Y0109513D03*
X0220276Y0109483D03*
X0214726Y0109483D03*
X0214726Y0109453D03*
X0213676Y0108463D03*
D442*
X0217501Y0108493D03*
D443*
X0223831Y0108823D03*
X0223831Y0108853D03*
X0223831Y0108883D03*
X0223831Y0108913D03*
X0223831Y0112003D03*
D444*
X0211156Y0111913D03*
X0211156Y0109213D03*
X0211156Y0109183D03*
X0211156Y0109153D03*
D445*
X0217501Y0109753D03*
D446*
X0211156Y0109783D03*
X0211156Y0109813D03*
X0211156Y0109843D03*
X0211156Y0111673D03*
D447*
X0223831Y0111583D03*
X0223831Y0111553D03*
X0223831Y0110173D03*
X0223831Y0110143D03*
X0223831Y0110113D03*
X0223831Y0110083D03*
D448*
X0223831Y0110653D03*
X0223831Y0110683D03*
X0223831Y0110713D03*
X0223831Y0110743D03*
X0223831Y0111313D03*
X0223831Y0111343D03*
D449*
X0211156Y0111223D03*
X0211156Y0111193D03*
X0211156Y0110983D03*
X0211156Y0110953D03*
D450*
X0217501Y0111433D03*
D451*
X0217501Y0112273D03*
D452*
X0217501Y0112633D03*
D453*
X0217501Y0112813D03*
D454*
X0217486Y0112843D03*
X0217516Y0117163D03*
D455*
X0217486Y0112903D03*
D456*
X0217486Y0112933D03*
D457*
X0217501Y0112963D03*
D458*
X0217501Y0112993D03*
D459*
X0217501Y0113023D03*
D460*
X0217501Y0113053D03*
D461*
X0223171Y0113053D03*
D462*
X0217486Y0113083D03*
D463*
X0217486Y0113113D03*
D464*
X0217486Y0113203D03*
D465*
X0217486Y0114103D03*
D466*
X0217501Y0115273D03*
D467*
X0217501Y0115423D03*
D468*
X0217501Y0115573D03*
D469*
X0217501Y0115663D03*
D470*
X0217501Y0115753D03*
D471*
X0217501Y0115843D03*
D472*
X0217501Y0115903D03*
D473*
X0217516Y0116023D03*
D474*
X0217501Y0116083D03*
D475*
X0217501Y0116143D03*
D476*
X0217501Y0116233D03*
D477*
X0217501Y0116353D03*
D478*
X0217501Y0116503D03*
D479*
X0217501Y0116533D03*
D480*
X0217501Y0116563D03*
D481*
X0217501Y0116593D03*
D482*
X0217516Y0116743D03*
D483*
X0217501Y0116773D03*
D484*
X0217501Y0116833D03*
D485*
X0217501Y0116893D03*
D486*
X0217501Y0116983D03*
D487*
X0217516Y0117043D03*
D488*
X0217501Y0117223D03*
D489*
X0263051Y0110581D02*
X0263051Y0103781D01*
X0263053Y0103721D01*
X0263058Y0103660D01*
X0263067Y0103601D01*
X0263080Y0103542D01*
X0263096Y0103483D01*
X0263116Y0103426D01*
X0263139Y0103371D01*
X0263166Y0103316D01*
X0263195Y0103264D01*
X0263228Y0103213D01*
X0263264Y0103164D01*
X0263302Y0103118D01*
X0263344Y0103074D01*
X0263388Y0103032D01*
X0263434Y0102994D01*
X0263483Y0102958D01*
X0263534Y0102925D01*
X0263586Y0102896D01*
X0263641Y0102869D01*
X0263696Y0102846D01*
X0263753Y0102826D01*
X0263812Y0102810D01*
X0263871Y0102797D01*
X0263930Y0102788D01*
X0263991Y0102783D01*
X0264051Y0102781D01*
X0270051Y0102781D01*
X0270111Y0102783D01*
X0270172Y0102788D01*
X0270231Y0102797D01*
X0270290Y0102810D01*
X0270349Y0102826D01*
X0270406Y0102846D01*
X0270461Y0102869D01*
X0270516Y0102896D01*
X0270568Y0102925D01*
X0270619Y0102958D01*
X0270668Y0102994D01*
X0270714Y0103032D01*
X0270758Y0103074D01*
X0270800Y0103118D01*
X0270838Y0103164D01*
X0270874Y0103213D01*
X0270907Y0103264D01*
X0270936Y0103316D01*
X0270963Y0103371D01*
X0270986Y0103426D01*
X0271006Y0103483D01*
X0271022Y0103542D01*
X0271035Y0103601D01*
X0271044Y0103660D01*
X0271049Y0103721D01*
X0271051Y0103781D01*
X0271051Y0110581D01*
X0271049Y0110641D01*
X0271044Y0110702D01*
X0271035Y0110761D01*
X0271022Y0110820D01*
X0271006Y0110879D01*
X0270986Y0110936D01*
X0270963Y0110991D01*
X0270936Y0111046D01*
X0270907Y0111098D01*
X0270874Y0111149D01*
X0270838Y0111198D01*
X0270800Y0111244D01*
X0270758Y0111288D01*
X0270714Y0111330D01*
X0270668Y0111368D01*
X0270619Y0111404D01*
X0270568Y0111437D01*
X0270516Y0111466D01*
X0270461Y0111493D01*
X0270406Y0111516D01*
X0270349Y0111536D01*
X0270290Y0111552D01*
X0270231Y0111565D01*
X0270172Y0111574D01*
X0270111Y0111579D01*
X0270051Y0111581D01*
X0264051Y0111581D01*
X0263991Y0111579D01*
X0263930Y0111574D01*
X0263871Y0111565D01*
X0263812Y0111552D01*
X0263753Y0111536D01*
X0263696Y0111516D01*
X0263641Y0111493D01*
X0263586Y0111466D01*
X0263534Y0111437D01*
X0263483Y0111404D01*
X0263434Y0111368D01*
X0263388Y0111330D01*
X0263344Y0111288D01*
X0263302Y0111244D01*
X0263264Y0111198D01*
X0263228Y0111149D01*
X0263195Y0111098D01*
X0263166Y0111046D01*
X0263139Y0110991D01*
X0263116Y0110936D01*
X0263096Y0110879D01*
X0263080Y0110820D01*
X0263067Y0110761D01*
X0263058Y0110702D01*
X0263053Y0110641D01*
X0263051Y0110581D01*
X0110058Y0110896D02*
X0107790Y0110896D01*
X0108924Y0110896D02*
X0108924Y0107493D01*
X0106375Y0108060D02*
X0106375Y0109194D01*
X0105808Y0109762D01*
X0104674Y0109762D01*
X0104107Y0109194D01*
X0104107Y0108627D01*
X0106375Y0108627D01*
X0106375Y0108060D02*
X0105808Y0107493D01*
X0104674Y0107493D01*
X0102692Y0108060D02*
X0102125Y0107493D01*
X0100423Y0107493D01*
X0099009Y0107493D02*
X0099009Y0110896D01*
X0098442Y0109762D02*
X0097307Y0109762D01*
X0096740Y0109194D01*
X0096740Y0107493D01*
X0094759Y0108060D02*
X0094191Y0107493D01*
X0094759Y0108060D02*
X0094759Y0110329D01*
X0095326Y0109762D02*
X0094191Y0109762D01*
X0092870Y0109762D02*
X0092303Y0109762D01*
X0092303Y0107493D01*
X0092870Y0107493D02*
X0091736Y0107493D01*
X0090415Y0107493D02*
X0089281Y0107493D01*
X0089848Y0107493D02*
X0089848Y0110896D01*
X0090415Y0110896D01*
X0092303Y0110896D02*
X0092303Y0111463D01*
X0087959Y0109194D02*
X0087392Y0109762D01*
X0086258Y0109762D01*
X0085691Y0109194D01*
X0085691Y0108627D01*
X0087959Y0108627D01*
X0087959Y0108060D02*
X0087959Y0109194D01*
X0087959Y0108060D02*
X0087392Y0107493D01*
X0086258Y0107493D01*
X0088100Y0103762D02*
X0087532Y0103194D01*
X0087532Y0101493D01*
X0089801Y0101493D02*
X0089801Y0103762D01*
X0088100Y0103762D01*
X0091216Y0103194D02*
X0091216Y0102060D01*
X0091783Y0101493D01*
X0092917Y0101493D01*
X0093484Y0102060D01*
X0093484Y0103194D01*
X0092917Y0103762D01*
X0091783Y0103762D01*
X0091216Y0103194D01*
X0094805Y0101493D02*
X0095940Y0101493D01*
X0095372Y0101493D02*
X0095372Y0103762D01*
X0095940Y0103762D01*
X0095372Y0104896D02*
X0095372Y0105463D01*
X0097354Y0103762D02*
X0099056Y0103762D01*
X0099623Y0103194D01*
X0099056Y0102627D01*
X0097921Y0102627D01*
X0097354Y0102060D01*
X0097921Y0101493D01*
X0099623Y0101493D01*
X0100991Y0103762D02*
X0101558Y0103762D01*
X0102692Y0102627D01*
X0102692Y0101493D02*
X0102692Y0103762D01*
X0104107Y0103194D02*
X0104107Y0102627D01*
X0106375Y0102627D01*
X0106375Y0102060D02*
X0106375Y0103194D01*
X0105808Y0103762D01*
X0104674Y0103762D01*
X0104107Y0103194D01*
X0104674Y0101493D02*
X0105808Y0101493D01*
X0106375Y0102060D01*
X0107790Y0102627D02*
X0107790Y0104896D01*
X0110058Y0104896D02*
X0110058Y0102627D01*
X0108924Y0101493D01*
X0107790Y0102627D01*
X0110058Y0098896D02*
X0110058Y0095493D01*
X0108357Y0095493D01*
X0107790Y0096060D01*
X0107790Y0097194D01*
X0108357Y0097762D01*
X0110058Y0097762D01*
X0106375Y0097762D02*
X0106375Y0096060D01*
X0105808Y0095493D01*
X0104107Y0095493D01*
X0104107Y0094926D02*
X0104674Y0094359D01*
X0105241Y0094359D01*
X0104107Y0094926D02*
X0104107Y0097762D01*
X0104674Y0091762D02*
X0105241Y0091762D01*
X0106375Y0090627D01*
X0106375Y0089493D02*
X0106375Y0091762D01*
X0107790Y0091762D02*
X0109491Y0091762D01*
X0110058Y0091194D01*
X0110058Y0090060D01*
X0109491Y0089493D01*
X0107790Y0089493D01*
X0107790Y0092896D01*
X0102739Y0091762D02*
X0101604Y0091762D01*
X0101037Y0091194D01*
X0101037Y0089493D01*
X0102739Y0089493D01*
X0103306Y0090060D01*
X0102739Y0090627D01*
X0101037Y0090627D01*
X0099623Y0089493D02*
X0099623Y0091762D01*
X0099056Y0091762D01*
X0098488Y0091194D01*
X0097921Y0091762D01*
X0097354Y0091194D01*
X0097354Y0089493D01*
X0098488Y0089493D02*
X0098488Y0091194D01*
X0095940Y0091194D02*
X0095940Y0090060D01*
X0095372Y0089493D01*
X0093671Y0089493D01*
X0092256Y0090060D02*
X0091689Y0089493D01*
X0090555Y0089493D01*
X0089988Y0090060D01*
X0089988Y0091194D01*
X0090555Y0091762D01*
X0091689Y0091762D01*
X0092256Y0091194D01*
X0092256Y0090060D01*
X0093671Y0091762D02*
X0095372Y0091762D01*
X0095940Y0091194D01*
X0095326Y0095493D02*
X0094759Y0095493D01*
X0094759Y0096060D01*
X0095326Y0096060D01*
X0095326Y0095493D01*
X0096740Y0096060D02*
X0096740Y0097194D01*
X0097875Y0097194D01*
X0099009Y0096060D02*
X0098442Y0095493D01*
X0097307Y0095493D01*
X0096740Y0096060D01*
X0096740Y0098329D02*
X0097307Y0098896D01*
X0098442Y0098896D01*
X0099009Y0098329D01*
X0099009Y0096060D01*
X0089801Y0095493D02*
X0087532Y0095493D01*
X0086118Y0096060D02*
X0086118Y0097194D01*
X0085551Y0097762D01*
X0084416Y0097762D01*
X0083849Y0097194D01*
X0083849Y0096627D01*
X0086118Y0096627D01*
X0086118Y0096060D02*
X0085551Y0095493D01*
X0084416Y0095493D01*
X0082435Y0096060D02*
X0082435Y0097194D01*
X0081868Y0097762D01*
X0080733Y0097762D01*
X0080166Y0097194D01*
X0080166Y0096627D01*
X0082435Y0096627D01*
X0082435Y0096060D02*
X0081868Y0095493D01*
X0080733Y0095493D01*
X0078752Y0095493D02*
X0078752Y0097762D01*
X0077050Y0097762D01*
X0076483Y0097194D01*
X0076483Y0095493D01*
X0075068Y0096060D02*
X0075068Y0097194D01*
X0074501Y0097762D01*
X0072800Y0097762D01*
X0072800Y0098896D02*
X0072800Y0095493D01*
X0074501Y0095493D01*
X0075068Y0096060D01*
X0071385Y0096060D02*
X0071385Y0097194D01*
X0070818Y0097762D01*
X0069684Y0097762D01*
X0069117Y0097194D01*
X0069117Y0096627D01*
X0071385Y0096627D01*
X0071385Y0096060D02*
X0070818Y0095493D01*
X0069684Y0095493D01*
X0067702Y0095493D02*
X0067702Y0097762D01*
X0066568Y0097762D02*
X0066001Y0097762D01*
X0066568Y0097762D02*
X0067702Y0096627D01*
X0064633Y0097194D02*
X0064066Y0097762D01*
X0062364Y0097762D01*
X0062931Y0096627D02*
X0064066Y0096627D01*
X0064633Y0097194D01*
X0064633Y0095493D02*
X0062931Y0095493D01*
X0062364Y0096060D01*
X0062931Y0096627D01*
X0061610Y0092329D02*
X0061610Y0090060D01*
X0061043Y0089493D01*
X0059722Y0089493D02*
X0058588Y0089493D01*
X0059155Y0089493D02*
X0059155Y0091762D01*
X0059722Y0091762D01*
X0059155Y0092896D02*
X0059155Y0093463D01*
X0057267Y0092896D02*
X0056699Y0092896D01*
X0056699Y0089493D01*
X0056132Y0089493D02*
X0057267Y0089493D01*
X0054811Y0090060D02*
X0054811Y0091194D01*
X0054244Y0091762D01*
X0053110Y0091762D01*
X0052543Y0091194D01*
X0052543Y0090627D01*
X0054811Y0090627D01*
X0054811Y0090060D02*
X0054244Y0089493D01*
X0053110Y0089493D01*
X0061043Y0091762D02*
X0062177Y0091762D01*
X0063592Y0091194D02*
X0063592Y0089493D01*
X0063592Y0091194D02*
X0064159Y0091762D01*
X0065293Y0091762D01*
X0065861Y0091194D01*
X0067275Y0091762D02*
X0068977Y0091762D01*
X0069544Y0091194D01*
X0069544Y0090060D01*
X0068977Y0089493D01*
X0067275Y0089493D01*
X0065861Y0089493D02*
X0065861Y0092896D01*
X0070958Y0091194D02*
X0070958Y0090627D01*
X0073227Y0090627D01*
X0073227Y0090060D02*
X0073227Y0091194D01*
X0072660Y0091762D01*
X0071525Y0091762D01*
X0070958Y0091194D01*
X0071525Y0089493D02*
X0072660Y0089493D01*
X0073227Y0090060D01*
X0074548Y0089493D02*
X0075115Y0090060D01*
X0075115Y0092329D01*
X0075682Y0091762D02*
X0074548Y0091762D01*
X0077097Y0092896D02*
X0079365Y0089493D01*
X0080780Y0090627D02*
X0083049Y0090627D01*
X0083049Y0090060D02*
X0083049Y0091194D01*
X0082481Y0091762D01*
X0081347Y0091762D01*
X0080780Y0091194D01*
X0080780Y0090627D01*
X0081347Y0089493D02*
X0082481Y0089493D01*
X0083049Y0090060D01*
X0084463Y0090060D02*
X0084463Y0091194D01*
X0085030Y0091762D01*
X0086732Y0091762D01*
X0086732Y0092896D02*
X0086732Y0089493D01*
X0085030Y0089493D01*
X0084463Y0090060D01*
X0088006Y0090060D02*
X0088006Y0089493D01*
X0088573Y0089493D01*
X0088573Y0090060D01*
X0088006Y0090060D01*
X0089801Y0095493D02*
X0089801Y0098896D01*
X0082435Y0101493D02*
X0080166Y0101493D01*
X0081300Y0101493D02*
X0081300Y0104896D01*
X0082435Y0103762D01*
X0080593Y0107493D02*
X0080593Y0110896D01*
X0078892Y0110896D01*
X0078325Y0110329D01*
X0078325Y0109194D01*
X0078892Y0108627D01*
X0080593Y0108627D01*
X0076910Y0107493D02*
X0076910Y0110896D01*
X0076910Y0107493D02*
X0074641Y0107493D01*
X0073227Y0107493D02*
X0073227Y0110896D01*
X0073227Y0107493D02*
X0070958Y0107493D01*
X0072800Y0103194D02*
X0075068Y0103194D01*
X0067702Y0103762D02*
X0066568Y0104896D01*
X0066568Y0101493D01*
X0067702Y0101493D02*
X0065434Y0101493D01*
X0064019Y0103194D02*
X0061750Y0103194D01*
X0062318Y0101493D02*
X0062318Y0104896D01*
X0064019Y0103194D01*
X0060336Y0101493D02*
X0058067Y0104896D01*
X0056653Y0103762D02*
X0055518Y0104896D01*
X0055518Y0101493D01*
X0054384Y0101493D02*
X0056653Y0101493D01*
X0052970Y0101493D02*
X0050701Y0101493D01*
X0051835Y0101493D02*
X0051835Y0104896D01*
X0052970Y0103762D01*
X0049286Y0101493D02*
X0047018Y0104896D01*
X0045603Y0104329D02*
X0045036Y0104896D01*
X0043902Y0104896D01*
X0043335Y0104329D01*
X0043335Y0103762D01*
X0045603Y0101493D01*
X0043335Y0101493D01*
X0041920Y0102060D02*
X0041353Y0101493D01*
X0040219Y0101493D01*
X0039652Y0102060D01*
X0039652Y0102627D01*
X0040219Y0103194D01*
X0040786Y0103194D01*
X0040219Y0103194D02*
X0039652Y0103762D01*
X0039652Y0104329D01*
X0040219Y0104896D01*
X0041353Y0104896D01*
X0041920Y0104329D01*
X0098442Y0109762D02*
X0099009Y0109194D01*
X0100423Y0109762D02*
X0102125Y0109762D01*
X0102692Y0109194D01*
X0102692Y0108060D01*
X0092760Y0049055D02*
X0082760Y0049055D01*
X0082677Y0049053D01*
X0082594Y0049047D01*
X0082511Y0049038D01*
X0082429Y0049024D01*
X0082348Y0049007D01*
X0082267Y0048986D01*
X0082188Y0048962D01*
X0082110Y0048933D01*
X0082033Y0048902D01*
X0081958Y0048866D01*
X0081884Y0048828D01*
X0081812Y0048785D01*
X0081743Y0048740D01*
X0081675Y0048691D01*
X0081610Y0048640D01*
X0081547Y0048585D01*
X0081487Y0048528D01*
X0081430Y0048468D01*
X0081375Y0048405D01*
X0081324Y0048340D01*
X0081275Y0048272D01*
X0081230Y0048203D01*
X0081187Y0048131D01*
X0081149Y0048057D01*
X0081113Y0047982D01*
X0081082Y0047905D01*
X0081053Y0047827D01*
X0081029Y0047748D01*
X0081008Y0047667D01*
X0080991Y0047586D01*
X0080977Y0047504D01*
X0080968Y0047421D01*
X0080962Y0047338D01*
X0080960Y0047255D01*
X0080960Y0042855D01*
X0080962Y0042772D01*
X0080968Y0042689D01*
X0080977Y0042606D01*
X0080991Y0042524D01*
X0081008Y0042443D01*
X0081029Y0042362D01*
X0081053Y0042283D01*
X0081082Y0042205D01*
X0081113Y0042128D01*
X0081149Y0042053D01*
X0081187Y0041979D01*
X0081230Y0041907D01*
X0081275Y0041838D01*
X0081324Y0041770D01*
X0081375Y0041705D01*
X0081430Y0041642D01*
X0081487Y0041582D01*
X0081547Y0041525D01*
X0081610Y0041470D01*
X0081675Y0041419D01*
X0081743Y0041370D01*
X0081812Y0041325D01*
X0081884Y0041282D01*
X0081958Y0041244D01*
X0082033Y0041208D01*
X0082110Y0041177D01*
X0082188Y0041148D01*
X0082267Y0041124D01*
X0082348Y0041103D01*
X0082429Y0041086D01*
X0082511Y0041072D01*
X0082594Y0041063D01*
X0082677Y0041057D01*
X0082760Y0041055D01*
X0092760Y0041055D01*
X0092843Y0041057D01*
X0092926Y0041063D01*
X0093009Y0041072D01*
X0093091Y0041086D01*
X0093172Y0041103D01*
X0093253Y0041124D01*
X0093332Y0041148D01*
X0093410Y0041177D01*
X0093487Y0041208D01*
X0093562Y0041244D01*
X0093636Y0041282D01*
X0093708Y0041325D01*
X0093777Y0041370D01*
X0093845Y0041419D01*
X0093910Y0041470D01*
X0093973Y0041525D01*
X0094033Y0041582D01*
X0094090Y0041642D01*
X0094145Y0041705D01*
X0094196Y0041770D01*
X0094245Y0041838D01*
X0094290Y0041907D01*
X0094333Y0041979D01*
X0094371Y0042053D01*
X0094407Y0042128D01*
X0094438Y0042205D01*
X0094467Y0042283D01*
X0094491Y0042362D01*
X0094512Y0042443D01*
X0094529Y0042524D01*
X0094543Y0042606D01*
X0094552Y0042689D01*
X0094558Y0042772D01*
X0094560Y0042855D01*
X0094560Y0047255D01*
X0094558Y0047338D01*
X0094552Y0047421D01*
X0094543Y0047504D01*
X0094529Y0047586D01*
X0094512Y0047667D01*
X0094491Y0047748D01*
X0094467Y0047827D01*
X0094438Y0047905D01*
X0094407Y0047982D01*
X0094371Y0048057D01*
X0094333Y0048131D01*
X0094290Y0048203D01*
X0094245Y0048272D01*
X0094196Y0048340D01*
X0094145Y0048405D01*
X0094090Y0048468D01*
X0094033Y0048528D01*
X0093973Y0048585D01*
X0093910Y0048640D01*
X0093845Y0048691D01*
X0093777Y0048740D01*
X0093708Y0048785D01*
X0093636Y0048828D01*
X0093562Y0048866D01*
X0093487Y0048902D01*
X0093410Y0048933D01*
X0093332Y0048962D01*
X0093253Y0048986D01*
X0093172Y0049007D01*
X0093091Y0049024D01*
X0093009Y0049038D01*
X0092926Y0049047D01*
X0092843Y0049053D01*
X0092760Y0049055D01*
D490*
X0207602Y0078244D02*
X0210850Y0074898D01*
X0220693Y0084839D01*
X0227287Y0078244D01*
X0223843Y0074701D01*
X0214000Y0084543D01*
X0217445Y0088087D01*
X0220693Y0084839D01*
X0224138Y0081394D02*
X0214492Y0071748D01*
X0217445Y0068303D02*
X0210850Y0074898D01*
X0207602Y0078244D02*
X0210850Y0081492D01*
X0220594Y0071650D01*
X0223843Y0074701D02*
X0217445Y0068303D01*
X0210850Y0081492D02*
X0214000Y0084543D01*
X0293134Y0086581D02*
X0293134Y0107309D01*
X0292839Y0107309D02*
X0292839Y0100685D01*
X0300713Y0108559D01*
X0294089Y0108559D01*
X0293810Y0108528D01*
X0293546Y0108435D01*
X0293309Y0108286D01*
X0293111Y0108088D01*
X0292962Y0107851D01*
X0292870Y0107587D01*
X0292839Y0107309D01*
X0292900Y0107674D02*
X0299827Y0107674D01*
X0298829Y0106675D02*
X0292839Y0106675D01*
X0292839Y0105677D02*
X0297830Y0105677D01*
X0296832Y0104678D02*
X0292839Y0104678D01*
X0292839Y0103680D02*
X0295833Y0103680D01*
X0294835Y0102681D02*
X0292839Y0102681D01*
X0292839Y0101683D02*
X0293836Y0101683D01*
X0293134Y0107309D02*
X0293136Y0107377D01*
X0293141Y0107444D01*
X0293150Y0107511D01*
X0293163Y0107578D01*
X0293180Y0107643D01*
X0293199Y0107708D01*
X0293223Y0107772D01*
X0293250Y0107834D01*
X0293280Y0107895D01*
X0293313Y0107953D01*
X0293349Y0108010D01*
X0293389Y0108065D01*
X0293431Y0108118D01*
X0293477Y0108169D01*
X0293524Y0108216D01*
X0293575Y0108262D01*
X0293628Y0108304D01*
X0293683Y0108344D01*
X0293740Y0108380D01*
X0293798Y0108413D01*
X0293859Y0108443D01*
X0293921Y0108470D01*
X0293985Y0108494D01*
X0294050Y0108513D01*
X0294115Y0108530D01*
X0294182Y0108543D01*
X0294249Y0108552D01*
X0294316Y0108557D01*
X0294384Y0108559D01*
X0327022Y0108559D01*
X0327090Y0108557D01*
X0327157Y0108552D01*
X0327224Y0108543D01*
X0327291Y0108530D01*
X0327356Y0108513D01*
X0327421Y0108494D01*
X0327485Y0108470D01*
X0327547Y0108443D01*
X0327608Y0108413D01*
X0327666Y0108380D01*
X0327723Y0108344D01*
X0327778Y0108304D01*
X0327831Y0108262D01*
X0327882Y0108216D01*
X0327929Y0108169D01*
X0327975Y0108118D01*
X0328017Y0108065D01*
X0328057Y0108010D01*
X0328093Y0107953D01*
X0328126Y0107895D01*
X0328156Y0107834D01*
X0328183Y0107772D01*
X0328207Y0107708D01*
X0328226Y0107643D01*
X0328243Y0107578D01*
X0328256Y0107511D01*
X0328265Y0107444D01*
X0328270Y0107377D01*
X0328272Y0107309D01*
X0328370Y0086581D01*
X0328368Y0086513D01*
X0328363Y0086446D01*
X0328354Y0086379D01*
X0328341Y0086312D01*
X0328324Y0086247D01*
X0328305Y0086182D01*
X0328281Y0086118D01*
X0328254Y0086056D01*
X0328224Y0085995D01*
X0328191Y0085937D01*
X0328155Y0085880D01*
X0328115Y0085825D01*
X0328073Y0085772D01*
X0328027Y0085721D01*
X0327980Y0085674D01*
X0327929Y0085628D01*
X0327876Y0085586D01*
X0327821Y0085546D01*
X0327764Y0085510D01*
X0327706Y0085477D01*
X0327645Y0085447D01*
X0327583Y0085420D01*
X0327519Y0085396D01*
X0327454Y0085377D01*
X0327389Y0085360D01*
X0327322Y0085347D01*
X0327255Y0085338D01*
X0327188Y0085333D01*
X0327120Y0085331D01*
X0294384Y0085331D01*
X0294316Y0085333D01*
X0294249Y0085338D01*
X0294182Y0085347D01*
X0294115Y0085360D01*
X0294050Y0085377D01*
X0293985Y0085396D01*
X0293921Y0085420D01*
X0293859Y0085447D01*
X0293798Y0085477D01*
X0293740Y0085510D01*
X0293683Y0085546D01*
X0293628Y0085586D01*
X0293575Y0085628D01*
X0293524Y0085674D01*
X0293477Y0085721D01*
X0293431Y0085772D01*
X0293389Y0085825D01*
X0293349Y0085880D01*
X0293313Y0085937D01*
X0293280Y0085995D01*
X0293250Y0086056D01*
X0293223Y0086118D01*
X0293199Y0086182D01*
X0293180Y0086247D01*
X0293163Y0086312D01*
X0293150Y0086379D01*
X0293141Y0086446D01*
X0293136Y0086513D01*
X0293134Y0086581D01*
D491*
X0281253Y0103184D02*
X0280319Y0104118D01*
X0280319Y0105987D01*
X0279240Y0105987D02*
X0277839Y0105987D01*
X0277372Y0105520D01*
X0277372Y0103651D01*
X0277839Y0103184D01*
X0279240Y0103184D01*
X0279240Y0105987D01*
X0279240Y0107984D02*
X0277372Y0107984D01*
X0276294Y0107984D02*
X0276294Y0110787D01*
X0274893Y0110787D01*
X0274426Y0110320D01*
X0274426Y0109385D01*
X0274893Y0108918D01*
X0276294Y0108918D01*
X0275360Y0108918D02*
X0274426Y0107984D01*
X0274893Y0105987D02*
X0276294Y0105987D01*
X0276294Y0103184D01*
X0274893Y0103184D01*
X0274426Y0103651D01*
X0274426Y0105520D01*
X0274893Y0105987D01*
X0279240Y0107984D02*
X0279240Y0110787D01*
X0277372Y0110787D01*
X0278306Y0109385D02*
X0279240Y0109385D01*
X0280319Y0110787D02*
X0282187Y0110787D01*
X0282187Y0107984D01*
X0282187Y0109385D02*
X0281253Y0109385D01*
X0283265Y0110787D02*
X0285133Y0110787D01*
X0285133Y0107984D01*
X0286212Y0108451D02*
X0286212Y0110787D01*
X0285133Y0109385D02*
X0284199Y0109385D01*
X0286212Y0108451D02*
X0286679Y0107984D01*
X0287613Y0107984D01*
X0288080Y0108451D01*
X0288080Y0110787D01*
X0289158Y0110320D02*
X0289158Y0109853D01*
X0289625Y0109385D01*
X0291026Y0109385D01*
X0291026Y0107984D02*
X0289625Y0107984D01*
X0289158Y0108451D01*
X0289158Y0108918D01*
X0289625Y0109385D01*
X0289158Y0110320D02*
X0289625Y0110787D01*
X0291026Y0110787D01*
X0291026Y0107984D01*
X0282187Y0105987D02*
X0282187Y0104118D01*
X0281253Y0103184D01*
X0318248Y0112694D02*
X0318715Y0112227D01*
X0320116Y0112227D01*
X0320116Y0111293D02*
X0320116Y0114095D01*
X0318715Y0114095D01*
X0318248Y0113628D01*
X0318248Y0112694D01*
X0321194Y0112227D02*
X0321194Y0111760D01*
X0321661Y0111293D01*
X0322595Y0111293D01*
X0323062Y0111760D01*
X0322595Y0112694D02*
X0321661Y0112694D01*
X0321194Y0112227D01*
X0321194Y0113628D02*
X0321661Y0114095D01*
X0322595Y0114095D01*
X0323062Y0113628D01*
X0323062Y0113161D01*
X0322595Y0112694D01*
X0324141Y0111760D02*
X0324608Y0111293D01*
X0325542Y0111293D01*
X0326009Y0111760D01*
X0326009Y0113628D01*
X0325542Y0114095D01*
X0324608Y0114095D01*
X0324141Y0113628D01*
X0327039Y0114095D02*
X0327973Y0114095D01*
X0327506Y0114095D02*
X0327506Y0111293D01*
X0327973Y0111293D02*
X0327039Y0111293D01*
X0323446Y0065375D02*
X0322044Y0065375D01*
X0321577Y0064908D01*
X0321577Y0063974D01*
X0322044Y0063507D01*
X0323446Y0063507D01*
X0322512Y0063507D02*
X0321577Y0062572D01*
X0320499Y0062572D02*
X0320499Y0065375D01*
X0318631Y0065375D01*
X0319565Y0063974D02*
X0320499Y0063974D01*
X0323446Y0062572D02*
X0323446Y0065375D01*
X0314606Y0065375D02*
X0314606Y0062572D01*
X0313205Y0062572D01*
X0312738Y0063040D01*
X0312738Y0063507D01*
X0313205Y0063974D01*
X0314606Y0063974D01*
X0314606Y0065375D02*
X0313205Y0065375D01*
X0312738Y0064908D01*
X0312738Y0064441D01*
X0313205Y0063974D01*
X0311660Y0064908D02*
X0311660Y0063040D01*
X0311193Y0062572D01*
X0310258Y0062572D01*
X0309791Y0063040D01*
X0309791Y0064908D01*
X0310258Y0065375D01*
X0311193Y0065375D01*
X0311660Y0064908D01*
X0308713Y0064441D02*
X0308713Y0062572D01*
X0308713Y0063974D02*
X0306845Y0063974D01*
X0306845Y0064441D02*
X0306845Y0062572D01*
X0305767Y0062572D02*
X0305767Y0065375D01*
X0304365Y0065375D01*
X0303898Y0064908D01*
X0303898Y0063974D01*
X0304365Y0063507D01*
X0305767Y0063507D01*
X0304832Y0063507D02*
X0303898Y0062572D01*
X0302820Y0062572D02*
X0301419Y0062572D01*
X0300952Y0063040D01*
X0300952Y0064908D01*
X0301419Y0065375D01*
X0302820Y0065375D01*
X0302820Y0062572D01*
X0306845Y0064441D02*
X0307779Y0065375D01*
X0308713Y0064441D01*
X0164467Y0072415D02*
X0164467Y0075217D01*
X0163066Y0075217D01*
X0162599Y0074750D01*
X0162599Y0073816D01*
X0163066Y0073349D01*
X0164467Y0073349D01*
X0161521Y0072415D02*
X0161521Y0075217D01*
X0161521Y0072415D02*
X0159652Y0072415D01*
X0158574Y0072415D02*
X0156706Y0072415D01*
X0158574Y0072415D02*
X0158574Y0075217D01*
X0152681Y0074750D02*
X0152681Y0072882D01*
X0152214Y0072415D01*
X0151280Y0072415D01*
X0150813Y0072882D01*
X0150813Y0074750D01*
X0151280Y0075217D01*
X0152214Y0075217D01*
X0152681Y0074750D01*
X0149735Y0075217D02*
X0149735Y0072882D01*
X0149267Y0072415D01*
X0148333Y0072415D01*
X0147866Y0072882D01*
X0147866Y0075217D01*
X0146788Y0075217D02*
X0144920Y0075217D01*
X0145854Y0075217D02*
X0145854Y0072415D01*
X0105218Y0046576D02*
X0103817Y0046576D01*
X0103350Y0046109D01*
X0103350Y0045174D01*
X0103817Y0044707D01*
X0105218Y0044707D01*
X0105218Y0043773D02*
X0105218Y0046576D01*
X0102272Y0046576D02*
X0100871Y0046576D01*
X0100404Y0046109D01*
X0100404Y0045174D01*
X0100871Y0044707D01*
X0102272Y0044707D01*
X0102272Y0043773D02*
X0102272Y0046576D01*
X0099325Y0046109D02*
X0099325Y0045641D01*
X0098858Y0045174D01*
X0097924Y0045174D01*
X0097457Y0044707D01*
X0097457Y0044240D01*
X0097924Y0043773D01*
X0098858Y0043773D01*
X0099325Y0044240D01*
X0099325Y0046109D02*
X0098858Y0046576D01*
X0097924Y0046576D01*
X0097457Y0046109D01*
X0091842Y0051549D02*
X0091842Y0054351D01*
X0090908Y0053417D01*
X0089974Y0054351D01*
X0089974Y0051549D01*
X0088895Y0052016D02*
X0088428Y0051549D01*
X0087494Y0051549D01*
X0087027Y0052016D01*
X0087027Y0054351D01*
X0085949Y0054351D02*
X0084081Y0051549D01*
X0085949Y0051549D02*
X0084081Y0054351D01*
X0088895Y0054351D02*
X0088895Y0052016D01*
X0078662Y0046477D02*
X0077728Y0045543D01*
X0076794Y0046477D01*
X0076794Y0043675D01*
X0075716Y0043675D02*
X0074782Y0043675D01*
X0075249Y0043675D02*
X0075249Y0046477D01*
X0075716Y0046477D02*
X0074782Y0046477D01*
X0073751Y0046010D02*
X0073751Y0045543D01*
X0073284Y0045076D01*
X0072350Y0045076D01*
X0071883Y0044609D01*
X0071883Y0044142D01*
X0072350Y0043675D01*
X0073284Y0043675D01*
X0073751Y0044142D01*
X0073751Y0046010D02*
X0073284Y0046477D01*
X0072350Y0046477D01*
X0071883Y0046010D01*
X0070805Y0046010D02*
X0070805Y0044142D01*
X0070338Y0043675D01*
X0069404Y0043675D01*
X0068937Y0044142D01*
X0068937Y0046010D01*
X0069404Y0046477D01*
X0070338Y0046477D01*
X0070805Y0046010D01*
X0078662Y0046477D02*
X0078662Y0043675D01*
D492*
X0140083Y0088283D02*
X0140083Y0098520D01*
X0149138Y0107575D02*
X0159374Y0107575D01*
X0168429Y0098520D02*
X0168429Y0088283D01*
X0159374Y0079228D02*
X0149138Y0079228D01*
X0272957Y0060173D02*
X0272957Y0039701D01*
X0323744Y0039701D01*
X0323744Y0060173D01*
X0272957Y0060173D01*
X0312956Y0044937D02*
X0312958Y0044976D01*
X0312964Y0045015D01*
X0312974Y0045053D01*
X0312987Y0045090D01*
X0313004Y0045125D01*
X0313024Y0045159D01*
X0313048Y0045190D01*
X0313075Y0045219D01*
X0313104Y0045245D01*
X0313136Y0045268D01*
X0313170Y0045288D01*
X0313206Y0045304D01*
X0313243Y0045316D01*
X0313282Y0045325D01*
X0313321Y0045330D01*
X0313360Y0045331D01*
X0313399Y0045328D01*
X0313438Y0045321D01*
X0313475Y0045310D01*
X0313512Y0045296D01*
X0313547Y0045278D01*
X0313580Y0045257D01*
X0313611Y0045232D01*
X0313639Y0045205D01*
X0313664Y0045175D01*
X0313686Y0045142D01*
X0313705Y0045108D01*
X0313720Y0045072D01*
X0313732Y0045034D01*
X0313740Y0044996D01*
X0313744Y0044957D01*
X0313744Y0044917D01*
X0313740Y0044878D01*
X0313732Y0044840D01*
X0313720Y0044802D01*
X0313705Y0044766D01*
X0313686Y0044732D01*
X0313664Y0044699D01*
X0313639Y0044669D01*
X0313611Y0044642D01*
X0313580Y0044617D01*
X0313547Y0044596D01*
X0313512Y0044578D01*
X0313475Y0044564D01*
X0313438Y0044553D01*
X0313399Y0044546D01*
X0313360Y0044543D01*
X0313321Y0044544D01*
X0313282Y0044549D01*
X0313243Y0044558D01*
X0313206Y0044570D01*
X0313170Y0044586D01*
X0313136Y0044606D01*
X0313104Y0044629D01*
X0313075Y0044655D01*
X0313048Y0044684D01*
X0313024Y0044715D01*
X0313004Y0044749D01*
X0312987Y0044784D01*
X0312974Y0044821D01*
X0312964Y0044859D01*
X0312958Y0044898D01*
X0312956Y0044937D01*
M02*
