G75*
%MOIN*%
%OFA0B0*%
%FSLAX25Y25*%
%IPPOS*%
%LPD*%
%AMOC8*
5,1,8,0,0,1.08239X$1,22.5*
%
%ADD10C,0.00000*%
D10*
X0013469Y0037693D02*
X0418665Y0037693D01*
X0418907Y0037696D01*
X0419148Y0037705D01*
X0419389Y0037719D01*
X0419630Y0037740D01*
X0419870Y0037766D01*
X0420110Y0037798D01*
X0420349Y0037836D01*
X0420586Y0037879D01*
X0420823Y0037929D01*
X0421058Y0037984D01*
X0421292Y0038044D01*
X0421524Y0038111D01*
X0421755Y0038182D01*
X0421984Y0038260D01*
X0422211Y0038343D01*
X0422436Y0038431D01*
X0422659Y0038525D01*
X0422879Y0038624D01*
X0423097Y0038729D01*
X0423312Y0038838D01*
X0423525Y0038953D01*
X0423735Y0039073D01*
X0423941Y0039198D01*
X0424145Y0039328D01*
X0424346Y0039463D01*
X0424543Y0039603D01*
X0424737Y0039747D01*
X0424927Y0039896D01*
X0425113Y0040050D01*
X0425296Y0040208D01*
X0425475Y0040370D01*
X0425650Y0040537D01*
X0425821Y0040708D01*
X0425988Y0040883D01*
X0426150Y0041062D01*
X0426308Y0041245D01*
X0426462Y0041431D01*
X0426611Y0041621D01*
X0426755Y0041815D01*
X0426895Y0042012D01*
X0427030Y0042213D01*
X0427160Y0042417D01*
X0427285Y0042623D01*
X0427405Y0042833D01*
X0427520Y0043046D01*
X0427629Y0043261D01*
X0427734Y0043479D01*
X0427833Y0043699D01*
X0427927Y0043922D01*
X0428015Y0044147D01*
X0428098Y0044374D01*
X0428176Y0044603D01*
X0428247Y0044834D01*
X0428314Y0045066D01*
X0428374Y0045300D01*
X0428429Y0045535D01*
X0428479Y0045772D01*
X0428522Y0046009D01*
X0428560Y0046248D01*
X0428592Y0046488D01*
X0428618Y0046728D01*
X0428639Y0046969D01*
X0428653Y0047210D01*
X0428662Y0047451D01*
X0428665Y0047693D01*
X0428665Y0149740D01*
X0428662Y0149982D01*
X0428653Y0150223D01*
X0428639Y0150464D01*
X0428618Y0150705D01*
X0428592Y0150945D01*
X0428560Y0151185D01*
X0428522Y0151424D01*
X0428479Y0151661D01*
X0428429Y0151898D01*
X0428374Y0152133D01*
X0428314Y0152367D01*
X0428247Y0152599D01*
X0428176Y0152830D01*
X0428098Y0153059D01*
X0428015Y0153286D01*
X0427927Y0153511D01*
X0427833Y0153734D01*
X0427734Y0153954D01*
X0427629Y0154172D01*
X0427520Y0154387D01*
X0427405Y0154600D01*
X0427285Y0154810D01*
X0427160Y0155016D01*
X0427030Y0155220D01*
X0426895Y0155421D01*
X0426755Y0155618D01*
X0426611Y0155812D01*
X0426462Y0156002D01*
X0426308Y0156188D01*
X0426150Y0156371D01*
X0425988Y0156550D01*
X0425821Y0156725D01*
X0425650Y0156896D01*
X0425475Y0157063D01*
X0425296Y0157225D01*
X0425113Y0157383D01*
X0424927Y0157537D01*
X0424737Y0157686D01*
X0424543Y0157830D01*
X0424346Y0157970D01*
X0424145Y0158105D01*
X0423941Y0158235D01*
X0423735Y0158360D01*
X0423525Y0158480D01*
X0423312Y0158595D01*
X0423097Y0158704D01*
X0422879Y0158809D01*
X0422659Y0158908D01*
X0422436Y0159002D01*
X0422211Y0159090D01*
X0421984Y0159173D01*
X0421755Y0159251D01*
X0421524Y0159322D01*
X0421292Y0159389D01*
X0421058Y0159449D01*
X0420823Y0159504D01*
X0420586Y0159554D01*
X0420349Y0159597D01*
X0420110Y0159635D01*
X0419870Y0159667D01*
X0419630Y0159693D01*
X0419389Y0159714D01*
X0419148Y0159728D01*
X0418907Y0159737D01*
X0418665Y0159740D01*
X0338272Y0159740D01*
X0338030Y0159743D01*
X0337789Y0159752D01*
X0337548Y0159766D01*
X0337307Y0159787D01*
X0337067Y0159813D01*
X0336827Y0159845D01*
X0336588Y0159883D01*
X0336351Y0159926D01*
X0336114Y0159976D01*
X0335879Y0160031D01*
X0335645Y0160091D01*
X0335413Y0160158D01*
X0335182Y0160229D01*
X0334953Y0160307D01*
X0334726Y0160390D01*
X0334501Y0160478D01*
X0334278Y0160572D01*
X0334058Y0160671D01*
X0333840Y0160776D01*
X0333625Y0160885D01*
X0333412Y0161000D01*
X0333202Y0161120D01*
X0332996Y0161245D01*
X0332792Y0161375D01*
X0332591Y0161510D01*
X0332394Y0161650D01*
X0332200Y0161794D01*
X0332010Y0161943D01*
X0331824Y0162097D01*
X0331641Y0162255D01*
X0331462Y0162417D01*
X0331287Y0162584D01*
X0331116Y0162755D01*
X0330949Y0162930D01*
X0330787Y0163109D01*
X0330629Y0163292D01*
X0330475Y0163478D01*
X0330326Y0163668D01*
X0330182Y0163862D01*
X0330042Y0164059D01*
X0329907Y0164260D01*
X0329777Y0164464D01*
X0329652Y0164670D01*
X0329532Y0164880D01*
X0329417Y0165093D01*
X0329308Y0165308D01*
X0329203Y0165526D01*
X0329104Y0165746D01*
X0329010Y0165969D01*
X0328922Y0166194D01*
X0328839Y0166421D01*
X0328761Y0166650D01*
X0328690Y0166881D01*
X0328623Y0167113D01*
X0328563Y0167347D01*
X0328508Y0167582D01*
X0328458Y0167819D01*
X0328415Y0168056D01*
X0328377Y0168295D01*
X0328345Y0168535D01*
X0328319Y0168775D01*
X0328298Y0169016D01*
X0328284Y0169257D01*
X0328275Y0169498D01*
X0328272Y0169740D01*
X0328272Y0346591D01*
X0328269Y0346833D01*
X0328260Y0347074D01*
X0328246Y0347315D01*
X0328225Y0347556D01*
X0328199Y0347796D01*
X0328167Y0348036D01*
X0328129Y0348275D01*
X0328086Y0348512D01*
X0328036Y0348749D01*
X0327981Y0348984D01*
X0327921Y0349218D01*
X0327854Y0349450D01*
X0327783Y0349681D01*
X0327705Y0349910D01*
X0327622Y0350137D01*
X0327534Y0350362D01*
X0327440Y0350585D01*
X0327341Y0350805D01*
X0327236Y0351023D01*
X0327127Y0351238D01*
X0327012Y0351451D01*
X0326892Y0351661D01*
X0326767Y0351867D01*
X0326637Y0352071D01*
X0326502Y0352272D01*
X0326362Y0352469D01*
X0326218Y0352663D01*
X0326069Y0352853D01*
X0325915Y0353039D01*
X0325757Y0353222D01*
X0325595Y0353401D01*
X0325428Y0353576D01*
X0325257Y0353747D01*
X0325082Y0353914D01*
X0324903Y0354076D01*
X0324720Y0354234D01*
X0324534Y0354388D01*
X0324344Y0354537D01*
X0324150Y0354681D01*
X0323953Y0354821D01*
X0323752Y0354956D01*
X0323548Y0355086D01*
X0323342Y0355211D01*
X0323132Y0355331D01*
X0322919Y0355446D01*
X0322704Y0355555D01*
X0322486Y0355660D01*
X0322266Y0355759D01*
X0322043Y0355853D01*
X0321818Y0355941D01*
X0321591Y0356024D01*
X0321362Y0356102D01*
X0321131Y0356173D01*
X0320899Y0356240D01*
X0320665Y0356300D01*
X0320430Y0356355D01*
X0320193Y0356405D01*
X0319956Y0356448D01*
X0319717Y0356486D01*
X0319477Y0356518D01*
X0319237Y0356544D01*
X0318996Y0356565D01*
X0318755Y0356579D01*
X0318514Y0356588D01*
X0318272Y0356591D01*
X0277248Y0356591D01*
X0277006Y0356588D01*
X0276765Y0356579D01*
X0276524Y0356565D01*
X0276283Y0356544D01*
X0276043Y0356518D01*
X0275803Y0356486D01*
X0275564Y0356448D01*
X0275327Y0356405D01*
X0275090Y0356355D01*
X0274855Y0356300D01*
X0274621Y0356240D01*
X0274389Y0356173D01*
X0274158Y0356102D01*
X0273929Y0356024D01*
X0273702Y0355941D01*
X0273477Y0355853D01*
X0273254Y0355759D01*
X0273034Y0355660D01*
X0272816Y0355555D01*
X0272601Y0355446D01*
X0272388Y0355331D01*
X0272178Y0355211D01*
X0271972Y0355086D01*
X0271768Y0354956D01*
X0271567Y0354821D01*
X0271370Y0354681D01*
X0271176Y0354537D01*
X0270986Y0354388D01*
X0270800Y0354234D01*
X0270617Y0354076D01*
X0270438Y0353914D01*
X0270263Y0353747D01*
X0270092Y0353576D01*
X0269925Y0353401D01*
X0269763Y0353222D01*
X0269605Y0353039D01*
X0269451Y0352853D01*
X0269302Y0352663D01*
X0269158Y0352469D01*
X0269018Y0352272D01*
X0268883Y0352071D01*
X0268753Y0351867D01*
X0268628Y0351661D01*
X0268508Y0351451D01*
X0268393Y0351238D01*
X0268284Y0351023D01*
X0268179Y0350805D01*
X0268080Y0350585D01*
X0267986Y0350362D01*
X0267898Y0350137D01*
X0267815Y0349910D01*
X0267737Y0349681D01*
X0267666Y0349450D01*
X0267599Y0349218D01*
X0267539Y0348984D01*
X0267484Y0348749D01*
X0267434Y0348512D01*
X0267391Y0348275D01*
X0267353Y0348036D01*
X0267321Y0347796D01*
X0267295Y0347556D01*
X0267274Y0347315D01*
X0267260Y0347074D01*
X0267251Y0346833D01*
X0267248Y0346591D01*
X0267248Y0169740D01*
X0267245Y0169498D01*
X0267236Y0169257D01*
X0267222Y0169016D01*
X0267201Y0168775D01*
X0267175Y0168535D01*
X0267143Y0168295D01*
X0267105Y0168056D01*
X0267062Y0167819D01*
X0267012Y0167582D01*
X0266957Y0167347D01*
X0266897Y0167113D01*
X0266830Y0166881D01*
X0266759Y0166650D01*
X0266681Y0166421D01*
X0266598Y0166194D01*
X0266510Y0165969D01*
X0266416Y0165746D01*
X0266317Y0165526D01*
X0266212Y0165308D01*
X0266103Y0165093D01*
X0265988Y0164880D01*
X0265868Y0164670D01*
X0265743Y0164464D01*
X0265613Y0164260D01*
X0265478Y0164059D01*
X0265338Y0163862D01*
X0265194Y0163668D01*
X0265045Y0163478D01*
X0264891Y0163292D01*
X0264733Y0163109D01*
X0264571Y0162930D01*
X0264404Y0162755D01*
X0264233Y0162584D01*
X0264058Y0162417D01*
X0263879Y0162255D01*
X0263696Y0162097D01*
X0263510Y0161943D01*
X0263320Y0161794D01*
X0263126Y0161650D01*
X0262929Y0161510D01*
X0262728Y0161375D01*
X0262524Y0161245D01*
X0262318Y0161120D01*
X0262108Y0161000D01*
X0261895Y0160885D01*
X0261680Y0160776D01*
X0261462Y0160671D01*
X0261242Y0160572D01*
X0261019Y0160478D01*
X0260794Y0160390D01*
X0260567Y0160307D01*
X0260338Y0160229D01*
X0260107Y0160158D01*
X0259875Y0160091D01*
X0259641Y0160031D01*
X0259406Y0159976D01*
X0259169Y0159926D01*
X0258932Y0159883D01*
X0258693Y0159845D01*
X0258453Y0159813D01*
X0258213Y0159787D01*
X0257972Y0159766D01*
X0257731Y0159752D01*
X0257490Y0159743D01*
X0257248Y0159740D01*
X0194571Y0159740D01*
X0194329Y0159743D01*
X0194088Y0159752D01*
X0193847Y0159766D01*
X0193606Y0159787D01*
X0193366Y0159813D01*
X0193126Y0159845D01*
X0192887Y0159883D01*
X0192650Y0159926D01*
X0192413Y0159976D01*
X0192178Y0160031D01*
X0191944Y0160091D01*
X0191712Y0160158D01*
X0191481Y0160229D01*
X0191252Y0160307D01*
X0191025Y0160390D01*
X0190800Y0160478D01*
X0190577Y0160572D01*
X0190357Y0160671D01*
X0190139Y0160776D01*
X0189924Y0160885D01*
X0189711Y0161000D01*
X0189501Y0161120D01*
X0189295Y0161245D01*
X0189091Y0161375D01*
X0188890Y0161510D01*
X0188693Y0161650D01*
X0188499Y0161794D01*
X0188309Y0161943D01*
X0188123Y0162097D01*
X0187940Y0162255D01*
X0187761Y0162417D01*
X0187586Y0162584D01*
X0187415Y0162755D01*
X0187248Y0162930D01*
X0187086Y0163109D01*
X0186928Y0163292D01*
X0186774Y0163478D01*
X0186625Y0163668D01*
X0186481Y0163862D01*
X0186341Y0164059D01*
X0186206Y0164260D01*
X0186076Y0164464D01*
X0185951Y0164670D01*
X0185831Y0164880D01*
X0185716Y0165093D01*
X0185607Y0165308D01*
X0185502Y0165526D01*
X0185403Y0165746D01*
X0185309Y0165969D01*
X0185221Y0166194D01*
X0185138Y0166421D01*
X0185060Y0166650D01*
X0184989Y0166881D01*
X0184922Y0167113D01*
X0184862Y0167347D01*
X0184807Y0167582D01*
X0184757Y0167819D01*
X0184714Y0168056D01*
X0184676Y0168295D01*
X0184644Y0168535D01*
X0184618Y0168775D01*
X0184597Y0169016D01*
X0184583Y0169257D01*
X0184574Y0169498D01*
X0184571Y0169740D01*
X0184571Y0346748D01*
X0184568Y0346986D01*
X0184560Y0347224D01*
X0184545Y0347461D01*
X0184525Y0347698D01*
X0184499Y0347934D01*
X0184468Y0348170D01*
X0184431Y0348405D01*
X0184388Y0348639D01*
X0184339Y0348872D01*
X0184285Y0349104D01*
X0184225Y0349334D01*
X0184160Y0349563D01*
X0184089Y0349790D01*
X0184013Y0350015D01*
X0183931Y0350238D01*
X0183844Y0350460D01*
X0183752Y0350679D01*
X0183654Y0350896D01*
X0183552Y0351110D01*
X0183444Y0351322D01*
X0183330Y0351532D01*
X0183212Y0351738D01*
X0183089Y0351942D01*
X0182961Y0352142D01*
X0182829Y0352339D01*
X0182691Y0352534D01*
X0182549Y0352724D01*
X0182402Y0352912D01*
X0182251Y0353095D01*
X0182096Y0353275D01*
X0181936Y0353451D01*
X0181772Y0353623D01*
X0181603Y0353792D01*
X0181431Y0353956D01*
X0181255Y0354116D01*
X0181075Y0354271D01*
X0180892Y0354422D01*
X0180704Y0354569D01*
X0180514Y0354711D01*
X0180319Y0354849D01*
X0180122Y0354981D01*
X0179922Y0355109D01*
X0179718Y0355232D01*
X0179512Y0355350D01*
X0179302Y0355464D01*
X0179090Y0355572D01*
X0178876Y0355674D01*
X0178659Y0355772D01*
X0178440Y0355864D01*
X0178218Y0355951D01*
X0177995Y0356033D01*
X0177770Y0356109D01*
X0177543Y0356180D01*
X0177314Y0356245D01*
X0177084Y0356305D01*
X0176852Y0356359D01*
X0176619Y0356408D01*
X0176385Y0356451D01*
X0176150Y0356488D01*
X0175914Y0356519D01*
X0175678Y0356545D01*
X0175441Y0356565D01*
X0175204Y0356580D01*
X0174966Y0356588D01*
X0174728Y0356591D01*
X0132406Y0356591D01*
X0132168Y0356588D01*
X0131930Y0356580D01*
X0131693Y0356565D01*
X0131456Y0356545D01*
X0131220Y0356519D01*
X0130984Y0356488D01*
X0130749Y0356451D01*
X0130515Y0356408D01*
X0130282Y0356359D01*
X0130050Y0356305D01*
X0129820Y0356245D01*
X0129591Y0356180D01*
X0129364Y0356109D01*
X0129139Y0356033D01*
X0128916Y0355951D01*
X0128694Y0355864D01*
X0128475Y0355772D01*
X0128258Y0355674D01*
X0128044Y0355572D01*
X0127832Y0355464D01*
X0127622Y0355350D01*
X0127416Y0355232D01*
X0127212Y0355109D01*
X0127012Y0354981D01*
X0126815Y0354849D01*
X0126620Y0354711D01*
X0126430Y0354569D01*
X0126242Y0354422D01*
X0126059Y0354271D01*
X0125879Y0354116D01*
X0125703Y0353956D01*
X0125531Y0353792D01*
X0125362Y0353623D01*
X0125198Y0353451D01*
X0125038Y0353275D01*
X0124883Y0353095D01*
X0124732Y0352912D01*
X0124585Y0352724D01*
X0124443Y0352534D01*
X0124305Y0352339D01*
X0124173Y0352142D01*
X0124045Y0351942D01*
X0123922Y0351738D01*
X0123804Y0351532D01*
X0123690Y0351322D01*
X0123582Y0351110D01*
X0123480Y0350896D01*
X0123382Y0350679D01*
X0123290Y0350460D01*
X0123203Y0350238D01*
X0123121Y0350015D01*
X0123045Y0349790D01*
X0122974Y0349563D01*
X0122909Y0349334D01*
X0122849Y0349104D01*
X0122795Y0348872D01*
X0122746Y0348639D01*
X0122703Y0348405D01*
X0122666Y0348170D01*
X0122635Y0347934D01*
X0122609Y0347698D01*
X0122589Y0347461D01*
X0122574Y0347224D01*
X0122566Y0346986D01*
X0122563Y0346748D01*
X0122563Y0169740D01*
X0122560Y0169498D01*
X0122551Y0169257D01*
X0122537Y0169016D01*
X0122516Y0168775D01*
X0122490Y0168535D01*
X0122458Y0168295D01*
X0122420Y0168056D01*
X0122377Y0167819D01*
X0122327Y0167582D01*
X0122272Y0167347D01*
X0122212Y0167113D01*
X0122145Y0166881D01*
X0122074Y0166650D01*
X0121996Y0166421D01*
X0121913Y0166194D01*
X0121825Y0165969D01*
X0121731Y0165746D01*
X0121632Y0165526D01*
X0121527Y0165308D01*
X0121418Y0165093D01*
X0121303Y0164880D01*
X0121183Y0164670D01*
X0121058Y0164464D01*
X0120928Y0164260D01*
X0120793Y0164059D01*
X0120653Y0163862D01*
X0120509Y0163668D01*
X0120360Y0163478D01*
X0120206Y0163292D01*
X0120048Y0163109D01*
X0119886Y0162930D01*
X0119719Y0162755D01*
X0119548Y0162584D01*
X0119373Y0162417D01*
X0119194Y0162255D01*
X0119011Y0162097D01*
X0118825Y0161943D01*
X0118635Y0161794D01*
X0118441Y0161650D01*
X0118244Y0161510D01*
X0118043Y0161375D01*
X0117839Y0161245D01*
X0117633Y0161120D01*
X0117423Y0161000D01*
X0117210Y0160885D01*
X0116995Y0160776D01*
X0116777Y0160671D01*
X0116557Y0160572D01*
X0116334Y0160478D01*
X0116109Y0160390D01*
X0115882Y0160307D01*
X0115653Y0160229D01*
X0115422Y0160158D01*
X0115190Y0160091D01*
X0114956Y0160031D01*
X0114721Y0159976D01*
X0114484Y0159926D01*
X0114247Y0159883D01*
X0114008Y0159845D01*
X0113768Y0159813D01*
X0113528Y0159787D01*
X0113287Y0159766D01*
X0113046Y0159752D01*
X0112805Y0159743D01*
X0112563Y0159740D01*
X0013469Y0159740D01*
X0013227Y0159737D01*
X0012986Y0159728D01*
X0012745Y0159714D01*
X0012504Y0159693D01*
X0012264Y0159667D01*
X0012024Y0159635D01*
X0011785Y0159597D01*
X0011548Y0159554D01*
X0011311Y0159504D01*
X0011076Y0159449D01*
X0010842Y0159389D01*
X0010610Y0159322D01*
X0010379Y0159251D01*
X0010150Y0159173D01*
X0009923Y0159090D01*
X0009698Y0159002D01*
X0009475Y0158908D01*
X0009255Y0158809D01*
X0009037Y0158704D01*
X0008822Y0158595D01*
X0008609Y0158480D01*
X0008399Y0158360D01*
X0008193Y0158235D01*
X0007989Y0158105D01*
X0007788Y0157970D01*
X0007591Y0157830D01*
X0007397Y0157686D01*
X0007207Y0157537D01*
X0007021Y0157383D01*
X0006838Y0157225D01*
X0006659Y0157063D01*
X0006484Y0156896D01*
X0006313Y0156725D01*
X0006146Y0156550D01*
X0005984Y0156371D01*
X0005826Y0156188D01*
X0005672Y0156002D01*
X0005523Y0155812D01*
X0005379Y0155618D01*
X0005239Y0155421D01*
X0005104Y0155220D01*
X0004974Y0155016D01*
X0004849Y0154810D01*
X0004729Y0154600D01*
X0004614Y0154387D01*
X0004505Y0154172D01*
X0004400Y0153954D01*
X0004301Y0153734D01*
X0004207Y0153511D01*
X0004119Y0153286D01*
X0004036Y0153059D01*
X0003958Y0152830D01*
X0003887Y0152599D01*
X0003820Y0152367D01*
X0003760Y0152133D01*
X0003705Y0151898D01*
X0003655Y0151661D01*
X0003612Y0151424D01*
X0003574Y0151185D01*
X0003542Y0150945D01*
X0003516Y0150705D01*
X0003495Y0150464D01*
X0003481Y0150223D01*
X0003472Y0149982D01*
X0003469Y0149740D01*
X0003469Y0047693D01*
X0003472Y0047451D01*
X0003481Y0047210D01*
X0003495Y0046969D01*
X0003516Y0046728D01*
X0003542Y0046488D01*
X0003574Y0046248D01*
X0003612Y0046009D01*
X0003655Y0045772D01*
X0003705Y0045535D01*
X0003760Y0045300D01*
X0003820Y0045066D01*
X0003887Y0044834D01*
X0003958Y0044603D01*
X0004036Y0044374D01*
X0004119Y0044147D01*
X0004207Y0043922D01*
X0004301Y0043699D01*
X0004400Y0043479D01*
X0004505Y0043261D01*
X0004614Y0043046D01*
X0004729Y0042833D01*
X0004849Y0042623D01*
X0004974Y0042417D01*
X0005104Y0042213D01*
X0005239Y0042012D01*
X0005379Y0041815D01*
X0005523Y0041621D01*
X0005672Y0041431D01*
X0005826Y0041245D01*
X0005984Y0041062D01*
X0006146Y0040883D01*
X0006313Y0040708D01*
X0006484Y0040537D01*
X0006659Y0040370D01*
X0006838Y0040208D01*
X0007021Y0040050D01*
X0007207Y0039896D01*
X0007397Y0039747D01*
X0007591Y0039603D01*
X0007788Y0039463D01*
X0007989Y0039328D01*
X0008193Y0039198D01*
X0008399Y0039073D01*
X0008609Y0038953D01*
X0008822Y0038838D01*
X0009037Y0038729D01*
X0009255Y0038624D01*
X0009475Y0038525D01*
X0009698Y0038431D01*
X0009923Y0038343D01*
X0010150Y0038260D01*
X0010379Y0038182D01*
X0010610Y0038111D01*
X0010842Y0038044D01*
X0011076Y0037984D01*
X0011311Y0037929D01*
X0011548Y0037879D01*
X0011785Y0037836D01*
X0012024Y0037798D01*
X0012264Y0037766D01*
X0012504Y0037740D01*
X0012745Y0037719D01*
X0012986Y0037705D01*
X0013227Y0037696D01*
X0013469Y0037693D01*
X0012918Y0053441D02*
X0012920Y0053599D01*
X0012926Y0053757D01*
X0012936Y0053915D01*
X0012950Y0054073D01*
X0012968Y0054230D01*
X0012989Y0054387D01*
X0013015Y0054543D01*
X0013045Y0054699D01*
X0013078Y0054854D01*
X0013116Y0055007D01*
X0013157Y0055160D01*
X0013202Y0055312D01*
X0013251Y0055463D01*
X0013304Y0055612D01*
X0013360Y0055760D01*
X0013420Y0055906D01*
X0013484Y0056051D01*
X0013552Y0056194D01*
X0013623Y0056336D01*
X0013697Y0056476D01*
X0013775Y0056613D01*
X0013857Y0056749D01*
X0013941Y0056883D01*
X0014030Y0057014D01*
X0014121Y0057143D01*
X0014216Y0057270D01*
X0014313Y0057395D01*
X0014414Y0057517D01*
X0014518Y0057636D01*
X0014625Y0057753D01*
X0014735Y0057867D01*
X0014848Y0057978D01*
X0014963Y0058087D01*
X0015081Y0058192D01*
X0015202Y0058294D01*
X0015325Y0058394D01*
X0015451Y0058490D01*
X0015579Y0058583D01*
X0015709Y0058673D01*
X0015842Y0058759D01*
X0015977Y0058843D01*
X0016113Y0058922D01*
X0016252Y0058999D01*
X0016393Y0059071D01*
X0016535Y0059141D01*
X0016679Y0059206D01*
X0016825Y0059268D01*
X0016972Y0059326D01*
X0017121Y0059381D01*
X0017271Y0059432D01*
X0017422Y0059479D01*
X0017574Y0059522D01*
X0017727Y0059561D01*
X0017882Y0059597D01*
X0018037Y0059628D01*
X0018193Y0059656D01*
X0018349Y0059680D01*
X0018506Y0059700D01*
X0018664Y0059716D01*
X0018821Y0059728D01*
X0018980Y0059736D01*
X0019138Y0059740D01*
X0019296Y0059740D01*
X0019454Y0059736D01*
X0019613Y0059728D01*
X0019770Y0059716D01*
X0019928Y0059700D01*
X0020085Y0059680D01*
X0020241Y0059656D01*
X0020397Y0059628D01*
X0020552Y0059597D01*
X0020707Y0059561D01*
X0020860Y0059522D01*
X0021012Y0059479D01*
X0021163Y0059432D01*
X0021313Y0059381D01*
X0021462Y0059326D01*
X0021609Y0059268D01*
X0021755Y0059206D01*
X0021899Y0059141D01*
X0022041Y0059071D01*
X0022182Y0058999D01*
X0022321Y0058922D01*
X0022457Y0058843D01*
X0022592Y0058759D01*
X0022725Y0058673D01*
X0022855Y0058583D01*
X0022983Y0058490D01*
X0023109Y0058394D01*
X0023232Y0058294D01*
X0023353Y0058192D01*
X0023471Y0058087D01*
X0023586Y0057978D01*
X0023699Y0057867D01*
X0023809Y0057753D01*
X0023916Y0057636D01*
X0024020Y0057517D01*
X0024121Y0057395D01*
X0024218Y0057270D01*
X0024313Y0057143D01*
X0024404Y0057014D01*
X0024493Y0056883D01*
X0024577Y0056749D01*
X0024659Y0056613D01*
X0024737Y0056476D01*
X0024811Y0056336D01*
X0024882Y0056194D01*
X0024950Y0056051D01*
X0025014Y0055906D01*
X0025074Y0055760D01*
X0025130Y0055612D01*
X0025183Y0055463D01*
X0025232Y0055312D01*
X0025277Y0055160D01*
X0025318Y0055007D01*
X0025356Y0054854D01*
X0025389Y0054699D01*
X0025419Y0054543D01*
X0025445Y0054387D01*
X0025466Y0054230D01*
X0025484Y0054073D01*
X0025498Y0053915D01*
X0025508Y0053757D01*
X0025514Y0053599D01*
X0025516Y0053441D01*
X0025514Y0053283D01*
X0025508Y0053125D01*
X0025498Y0052967D01*
X0025484Y0052809D01*
X0025466Y0052652D01*
X0025445Y0052495D01*
X0025419Y0052339D01*
X0025389Y0052183D01*
X0025356Y0052028D01*
X0025318Y0051875D01*
X0025277Y0051722D01*
X0025232Y0051570D01*
X0025183Y0051419D01*
X0025130Y0051270D01*
X0025074Y0051122D01*
X0025014Y0050976D01*
X0024950Y0050831D01*
X0024882Y0050688D01*
X0024811Y0050546D01*
X0024737Y0050406D01*
X0024659Y0050269D01*
X0024577Y0050133D01*
X0024493Y0049999D01*
X0024404Y0049868D01*
X0024313Y0049739D01*
X0024218Y0049612D01*
X0024121Y0049487D01*
X0024020Y0049365D01*
X0023916Y0049246D01*
X0023809Y0049129D01*
X0023699Y0049015D01*
X0023586Y0048904D01*
X0023471Y0048795D01*
X0023353Y0048690D01*
X0023232Y0048588D01*
X0023109Y0048488D01*
X0022983Y0048392D01*
X0022855Y0048299D01*
X0022725Y0048209D01*
X0022592Y0048123D01*
X0022457Y0048039D01*
X0022321Y0047960D01*
X0022182Y0047883D01*
X0022041Y0047811D01*
X0021899Y0047741D01*
X0021755Y0047676D01*
X0021609Y0047614D01*
X0021462Y0047556D01*
X0021313Y0047501D01*
X0021163Y0047450D01*
X0021012Y0047403D01*
X0020860Y0047360D01*
X0020707Y0047321D01*
X0020552Y0047285D01*
X0020397Y0047254D01*
X0020241Y0047226D01*
X0020085Y0047202D01*
X0019928Y0047182D01*
X0019770Y0047166D01*
X0019613Y0047154D01*
X0019454Y0047146D01*
X0019296Y0047142D01*
X0019138Y0047142D01*
X0018980Y0047146D01*
X0018821Y0047154D01*
X0018664Y0047166D01*
X0018506Y0047182D01*
X0018349Y0047202D01*
X0018193Y0047226D01*
X0018037Y0047254D01*
X0017882Y0047285D01*
X0017727Y0047321D01*
X0017574Y0047360D01*
X0017422Y0047403D01*
X0017271Y0047450D01*
X0017121Y0047501D01*
X0016972Y0047556D01*
X0016825Y0047614D01*
X0016679Y0047676D01*
X0016535Y0047741D01*
X0016393Y0047811D01*
X0016252Y0047883D01*
X0016113Y0047960D01*
X0015977Y0048039D01*
X0015842Y0048123D01*
X0015709Y0048209D01*
X0015579Y0048299D01*
X0015451Y0048392D01*
X0015325Y0048488D01*
X0015202Y0048588D01*
X0015081Y0048690D01*
X0014963Y0048795D01*
X0014848Y0048904D01*
X0014735Y0049015D01*
X0014625Y0049129D01*
X0014518Y0049246D01*
X0014414Y0049365D01*
X0014313Y0049487D01*
X0014216Y0049612D01*
X0014121Y0049739D01*
X0014030Y0049868D01*
X0013941Y0049999D01*
X0013857Y0050133D01*
X0013775Y0050269D01*
X0013697Y0050406D01*
X0013623Y0050546D01*
X0013552Y0050688D01*
X0013484Y0050831D01*
X0013420Y0050976D01*
X0013360Y0051122D01*
X0013304Y0051270D01*
X0013251Y0051419D01*
X0013202Y0051570D01*
X0013157Y0051722D01*
X0013116Y0051875D01*
X0013078Y0052028D01*
X0013045Y0052183D01*
X0013015Y0052339D01*
X0012989Y0052495D01*
X0012968Y0052652D01*
X0012950Y0052809D01*
X0012936Y0052967D01*
X0012926Y0053125D01*
X0012920Y0053283D01*
X0012918Y0053441D01*
X0012918Y0143992D02*
X0012920Y0144150D01*
X0012926Y0144308D01*
X0012936Y0144466D01*
X0012950Y0144624D01*
X0012968Y0144781D01*
X0012989Y0144938D01*
X0013015Y0145094D01*
X0013045Y0145250D01*
X0013078Y0145405D01*
X0013116Y0145558D01*
X0013157Y0145711D01*
X0013202Y0145863D01*
X0013251Y0146014D01*
X0013304Y0146163D01*
X0013360Y0146311D01*
X0013420Y0146457D01*
X0013484Y0146602D01*
X0013552Y0146745D01*
X0013623Y0146887D01*
X0013697Y0147027D01*
X0013775Y0147164D01*
X0013857Y0147300D01*
X0013941Y0147434D01*
X0014030Y0147565D01*
X0014121Y0147694D01*
X0014216Y0147821D01*
X0014313Y0147946D01*
X0014414Y0148068D01*
X0014518Y0148187D01*
X0014625Y0148304D01*
X0014735Y0148418D01*
X0014848Y0148529D01*
X0014963Y0148638D01*
X0015081Y0148743D01*
X0015202Y0148845D01*
X0015325Y0148945D01*
X0015451Y0149041D01*
X0015579Y0149134D01*
X0015709Y0149224D01*
X0015842Y0149310D01*
X0015977Y0149394D01*
X0016113Y0149473D01*
X0016252Y0149550D01*
X0016393Y0149622D01*
X0016535Y0149692D01*
X0016679Y0149757D01*
X0016825Y0149819D01*
X0016972Y0149877D01*
X0017121Y0149932D01*
X0017271Y0149983D01*
X0017422Y0150030D01*
X0017574Y0150073D01*
X0017727Y0150112D01*
X0017882Y0150148D01*
X0018037Y0150179D01*
X0018193Y0150207D01*
X0018349Y0150231D01*
X0018506Y0150251D01*
X0018664Y0150267D01*
X0018821Y0150279D01*
X0018980Y0150287D01*
X0019138Y0150291D01*
X0019296Y0150291D01*
X0019454Y0150287D01*
X0019613Y0150279D01*
X0019770Y0150267D01*
X0019928Y0150251D01*
X0020085Y0150231D01*
X0020241Y0150207D01*
X0020397Y0150179D01*
X0020552Y0150148D01*
X0020707Y0150112D01*
X0020860Y0150073D01*
X0021012Y0150030D01*
X0021163Y0149983D01*
X0021313Y0149932D01*
X0021462Y0149877D01*
X0021609Y0149819D01*
X0021755Y0149757D01*
X0021899Y0149692D01*
X0022041Y0149622D01*
X0022182Y0149550D01*
X0022321Y0149473D01*
X0022457Y0149394D01*
X0022592Y0149310D01*
X0022725Y0149224D01*
X0022855Y0149134D01*
X0022983Y0149041D01*
X0023109Y0148945D01*
X0023232Y0148845D01*
X0023353Y0148743D01*
X0023471Y0148638D01*
X0023586Y0148529D01*
X0023699Y0148418D01*
X0023809Y0148304D01*
X0023916Y0148187D01*
X0024020Y0148068D01*
X0024121Y0147946D01*
X0024218Y0147821D01*
X0024313Y0147694D01*
X0024404Y0147565D01*
X0024493Y0147434D01*
X0024577Y0147300D01*
X0024659Y0147164D01*
X0024737Y0147027D01*
X0024811Y0146887D01*
X0024882Y0146745D01*
X0024950Y0146602D01*
X0025014Y0146457D01*
X0025074Y0146311D01*
X0025130Y0146163D01*
X0025183Y0146014D01*
X0025232Y0145863D01*
X0025277Y0145711D01*
X0025318Y0145558D01*
X0025356Y0145405D01*
X0025389Y0145250D01*
X0025419Y0145094D01*
X0025445Y0144938D01*
X0025466Y0144781D01*
X0025484Y0144624D01*
X0025498Y0144466D01*
X0025508Y0144308D01*
X0025514Y0144150D01*
X0025516Y0143992D01*
X0025514Y0143834D01*
X0025508Y0143676D01*
X0025498Y0143518D01*
X0025484Y0143360D01*
X0025466Y0143203D01*
X0025445Y0143046D01*
X0025419Y0142890D01*
X0025389Y0142734D01*
X0025356Y0142579D01*
X0025318Y0142426D01*
X0025277Y0142273D01*
X0025232Y0142121D01*
X0025183Y0141970D01*
X0025130Y0141821D01*
X0025074Y0141673D01*
X0025014Y0141527D01*
X0024950Y0141382D01*
X0024882Y0141239D01*
X0024811Y0141097D01*
X0024737Y0140957D01*
X0024659Y0140820D01*
X0024577Y0140684D01*
X0024493Y0140550D01*
X0024404Y0140419D01*
X0024313Y0140290D01*
X0024218Y0140163D01*
X0024121Y0140038D01*
X0024020Y0139916D01*
X0023916Y0139797D01*
X0023809Y0139680D01*
X0023699Y0139566D01*
X0023586Y0139455D01*
X0023471Y0139346D01*
X0023353Y0139241D01*
X0023232Y0139139D01*
X0023109Y0139039D01*
X0022983Y0138943D01*
X0022855Y0138850D01*
X0022725Y0138760D01*
X0022592Y0138674D01*
X0022457Y0138590D01*
X0022321Y0138511D01*
X0022182Y0138434D01*
X0022041Y0138362D01*
X0021899Y0138292D01*
X0021755Y0138227D01*
X0021609Y0138165D01*
X0021462Y0138107D01*
X0021313Y0138052D01*
X0021163Y0138001D01*
X0021012Y0137954D01*
X0020860Y0137911D01*
X0020707Y0137872D01*
X0020552Y0137836D01*
X0020397Y0137805D01*
X0020241Y0137777D01*
X0020085Y0137753D01*
X0019928Y0137733D01*
X0019770Y0137717D01*
X0019613Y0137705D01*
X0019454Y0137697D01*
X0019296Y0137693D01*
X0019138Y0137693D01*
X0018980Y0137697D01*
X0018821Y0137705D01*
X0018664Y0137717D01*
X0018506Y0137733D01*
X0018349Y0137753D01*
X0018193Y0137777D01*
X0018037Y0137805D01*
X0017882Y0137836D01*
X0017727Y0137872D01*
X0017574Y0137911D01*
X0017422Y0137954D01*
X0017271Y0138001D01*
X0017121Y0138052D01*
X0016972Y0138107D01*
X0016825Y0138165D01*
X0016679Y0138227D01*
X0016535Y0138292D01*
X0016393Y0138362D01*
X0016252Y0138434D01*
X0016113Y0138511D01*
X0015977Y0138590D01*
X0015842Y0138674D01*
X0015709Y0138760D01*
X0015579Y0138850D01*
X0015451Y0138943D01*
X0015325Y0139039D01*
X0015202Y0139139D01*
X0015081Y0139241D01*
X0014963Y0139346D01*
X0014848Y0139455D01*
X0014735Y0139566D01*
X0014625Y0139680D01*
X0014518Y0139797D01*
X0014414Y0139916D01*
X0014313Y0140038D01*
X0014216Y0140163D01*
X0014121Y0140290D01*
X0014030Y0140419D01*
X0013941Y0140550D01*
X0013857Y0140684D01*
X0013775Y0140820D01*
X0013697Y0140957D01*
X0013623Y0141097D01*
X0013552Y0141239D01*
X0013484Y0141382D01*
X0013420Y0141527D01*
X0013360Y0141673D01*
X0013304Y0141821D01*
X0013251Y0141970D01*
X0013202Y0142121D01*
X0013157Y0142273D01*
X0013116Y0142426D01*
X0013078Y0142579D01*
X0013045Y0142734D01*
X0013015Y0142890D01*
X0012989Y0143046D01*
X0012968Y0143203D01*
X0012950Y0143360D01*
X0012936Y0143518D01*
X0012926Y0143676D01*
X0012920Y0143834D01*
X0012918Y0143992D01*
X0406618Y0143992D02*
X0406620Y0144150D01*
X0406626Y0144308D01*
X0406636Y0144466D01*
X0406650Y0144624D01*
X0406668Y0144781D01*
X0406689Y0144938D01*
X0406715Y0145094D01*
X0406745Y0145250D01*
X0406778Y0145405D01*
X0406816Y0145558D01*
X0406857Y0145711D01*
X0406902Y0145863D01*
X0406951Y0146014D01*
X0407004Y0146163D01*
X0407060Y0146311D01*
X0407120Y0146457D01*
X0407184Y0146602D01*
X0407252Y0146745D01*
X0407323Y0146887D01*
X0407397Y0147027D01*
X0407475Y0147164D01*
X0407557Y0147300D01*
X0407641Y0147434D01*
X0407730Y0147565D01*
X0407821Y0147694D01*
X0407916Y0147821D01*
X0408013Y0147946D01*
X0408114Y0148068D01*
X0408218Y0148187D01*
X0408325Y0148304D01*
X0408435Y0148418D01*
X0408548Y0148529D01*
X0408663Y0148638D01*
X0408781Y0148743D01*
X0408902Y0148845D01*
X0409025Y0148945D01*
X0409151Y0149041D01*
X0409279Y0149134D01*
X0409409Y0149224D01*
X0409542Y0149310D01*
X0409677Y0149394D01*
X0409813Y0149473D01*
X0409952Y0149550D01*
X0410093Y0149622D01*
X0410235Y0149692D01*
X0410379Y0149757D01*
X0410525Y0149819D01*
X0410672Y0149877D01*
X0410821Y0149932D01*
X0410971Y0149983D01*
X0411122Y0150030D01*
X0411274Y0150073D01*
X0411427Y0150112D01*
X0411582Y0150148D01*
X0411737Y0150179D01*
X0411893Y0150207D01*
X0412049Y0150231D01*
X0412206Y0150251D01*
X0412364Y0150267D01*
X0412521Y0150279D01*
X0412680Y0150287D01*
X0412838Y0150291D01*
X0412996Y0150291D01*
X0413154Y0150287D01*
X0413313Y0150279D01*
X0413470Y0150267D01*
X0413628Y0150251D01*
X0413785Y0150231D01*
X0413941Y0150207D01*
X0414097Y0150179D01*
X0414252Y0150148D01*
X0414407Y0150112D01*
X0414560Y0150073D01*
X0414712Y0150030D01*
X0414863Y0149983D01*
X0415013Y0149932D01*
X0415162Y0149877D01*
X0415309Y0149819D01*
X0415455Y0149757D01*
X0415599Y0149692D01*
X0415741Y0149622D01*
X0415882Y0149550D01*
X0416021Y0149473D01*
X0416157Y0149394D01*
X0416292Y0149310D01*
X0416425Y0149224D01*
X0416555Y0149134D01*
X0416683Y0149041D01*
X0416809Y0148945D01*
X0416932Y0148845D01*
X0417053Y0148743D01*
X0417171Y0148638D01*
X0417286Y0148529D01*
X0417399Y0148418D01*
X0417509Y0148304D01*
X0417616Y0148187D01*
X0417720Y0148068D01*
X0417821Y0147946D01*
X0417918Y0147821D01*
X0418013Y0147694D01*
X0418104Y0147565D01*
X0418193Y0147434D01*
X0418277Y0147300D01*
X0418359Y0147164D01*
X0418437Y0147027D01*
X0418511Y0146887D01*
X0418582Y0146745D01*
X0418650Y0146602D01*
X0418714Y0146457D01*
X0418774Y0146311D01*
X0418830Y0146163D01*
X0418883Y0146014D01*
X0418932Y0145863D01*
X0418977Y0145711D01*
X0419018Y0145558D01*
X0419056Y0145405D01*
X0419089Y0145250D01*
X0419119Y0145094D01*
X0419145Y0144938D01*
X0419166Y0144781D01*
X0419184Y0144624D01*
X0419198Y0144466D01*
X0419208Y0144308D01*
X0419214Y0144150D01*
X0419216Y0143992D01*
X0419214Y0143834D01*
X0419208Y0143676D01*
X0419198Y0143518D01*
X0419184Y0143360D01*
X0419166Y0143203D01*
X0419145Y0143046D01*
X0419119Y0142890D01*
X0419089Y0142734D01*
X0419056Y0142579D01*
X0419018Y0142426D01*
X0418977Y0142273D01*
X0418932Y0142121D01*
X0418883Y0141970D01*
X0418830Y0141821D01*
X0418774Y0141673D01*
X0418714Y0141527D01*
X0418650Y0141382D01*
X0418582Y0141239D01*
X0418511Y0141097D01*
X0418437Y0140957D01*
X0418359Y0140820D01*
X0418277Y0140684D01*
X0418193Y0140550D01*
X0418104Y0140419D01*
X0418013Y0140290D01*
X0417918Y0140163D01*
X0417821Y0140038D01*
X0417720Y0139916D01*
X0417616Y0139797D01*
X0417509Y0139680D01*
X0417399Y0139566D01*
X0417286Y0139455D01*
X0417171Y0139346D01*
X0417053Y0139241D01*
X0416932Y0139139D01*
X0416809Y0139039D01*
X0416683Y0138943D01*
X0416555Y0138850D01*
X0416425Y0138760D01*
X0416292Y0138674D01*
X0416157Y0138590D01*
X0416021Y0138511D01*
X0415882Y0138434D01*
X0415741Y0138362D01*
X0415599Y0138292D01*
X0415455Y0138227D01*
X0415309Y0138165D01*
X0415162Y0138107D01*
X0415013Y0138052D01*
X0414863Y0138001D01*
X0414712Y0137954D01*
X0414560Y0137911D01*
X0414407Y0137872D01*
X0414252Y0137836D01*
X0414097Y0137805D01*
X0413941Y0137777D01*
X0413785Y0137753D01*
X0413628Y0137733D01*
X0413470Y0137717D01*
X0413313Y0137705D01*
X0413154Y0137697D01*
X0412996Y0137693D01*
X0412838Y0137693D01*
X0412680Y0137697D01*
X0412521Y0137705D01*
X0412364Y0137717D01*
X0412206Y0137733D01*
X0412049Y0137753D01*
X0411893Y0137777D01*
X0411737Y0137805D01*
X0411582Y0137836D01*
X0411427Y0137872D01*
X0411274Y0137911D01*
X0411122Y0137954D01*
X0410971Y0138001D01*
X0410821Y0138052D01*
X0410672Y0138107D01*
X0410525Y0138165D01*
X0410379Y0138227D01*
X0410235Y0138292D01*
X0410093Y0138362D01*
X0409952Y0138434D01*
X0409813Y0138511D01*
X0409677Y0138590D01*
X0409542Y0138674D01*
X0409409Y0138760D01*
X0409279Y0138850D01*
X0409151Y0138943D01*
X0409025Y0139039D01*
X0408902Y0139139D01*
X0408781Y0139241D01*
X0408663Y0139346D01*
X0408548Y0139455D01*
X0408435Y0139566D01*
X0408325Y0139680D01*
X0408218Y0139797D01*
X0408114Y0139916D01*
X0408013Y0140038D01*
X0407916Y0140163D01*
X0407821Y0140290D01*
X0407730Y0140419D01*
X0407641Y0140550D01*
X0407557Y0140684D01*
X0407475Y0140820D01*
X0407397Y0140957D01*
X0407323Y0141097D01*
X0407252Y0141239D01*
X0407184Y0141382D01*
X0407120Y0141527D01*
X0407060Y0141673D01*
X0407004Y0141821D01*
X0406951Y0141970D01*
X0406902Y0142121D01*
X0406857Y0142273D01*
X0406816Y0142426D01*
X0406778Y0142579D01*
X0406745Y0142734D01*
X0406715Y0142890D01*
X0406689Y0143046D01*
X0406668Y0143203D01*
X0406650Y0143360D01*
X0406636Y0143518D01*
X0406626Y0143676D01*
X0406620Y0143834D01*
X0406618Y0143992D01*
X0406618Y0053441D02*
X0406620Y0053599D01*
X0406626Y0053757D01*
X0406636Y0053915D01*
X0406650Y0054073D01*
X0406668Y0054230D01*
X0406689Y0054387D01*
X0406715Y0054543D01*
X0406745Y0054699D01*
X0406778Y0054854D01*
X0406816Y0055007D01*
X0406857Y0055160D01*
X0406902Y0055312D01*
X0406951Y0055463D01*
X0407004Y0055612D01*
X0407060Y0055760D01*
X0407120Y0055906D01*
X0407184Y0056051D01*
X0407252Y0056194D01*
X0407323Y0056336D01*
X0407397Y0056476D01*
X0407475Y0056613D01*
X0407557Y0056749D01*
X0407641Y0056883D01*
X0407730Y0057014D01*
X0407821Y0057143D01*
X0407916Y0057270D01*
X0408013Y0057395D01*
X0408114Y0057517D01*
X0408218Y0057636D01*
X0408325Y0057753D01*
X0408435Y0057867D01*
X0408548Y0057978D01*
X0408663Y0058087D01*
X0408781Y0058192D01*
X0408902Y0058294D01*
X0409025Y0058394D01*
X0409151Y0058490D01*
X0409279Y0058583D01*
X0409409Y0058673D01*
X0409542Y0058759D01*
X0409677Y0058843D01*
X0409813Y0058922D01*
X0409952Y0058999D01*
X0410093Y0059071D01*
X0410235Y0059141D01*
X0410379Y0059206D01*
X0410525Y0059268D01*
X0410672Y0059326D01*
X0410821Y0059381D01*
X0410971Y0059432D01*
X0411122Y0059479D01*
X0411274Y0059522D01*
X0411427Y0059561D01*
X0411582Y0059597D01*
X0411737Y0059628D01*
X0411893Y0059656D01*
X0412049Y0059680D01*
X0412206Y0059700D01*
X0412364Y0059716D01*
X0412521Y0059728D01*
X0412680Y0059736D01*
X0412838Y0059740D01*
X0412996Y0059740D01*
X0413154Y0059736D01*
X0413313Y0059728D01*
X0413470Y0059716D01*
X0413628Y0059700D01*
X0413785Y0059680D01*
X0413941Y0059656D01*
X0414097Y0059628D01*
X0414252Y0059597D01*
X0414407Y0059561D01*
X0414560Y0059522D01*
X0414712Y0059479D01*
X0414863Y0059432D01*
X0415013Y0059381D01*
X0415162Y0059326D01*
X0415309Y0059268D01*
X0415455Y0059206D01*
X0415599Y0059141D01*
X0415741Y0059071D01*
X0415882Y0058999D01*
X0416021Y0058922D01*
X0416157Y0058843D01*
X0416292Y0058759D01*
X0416425Y0058673D01*
X0416555Y0058583D01*
X0416683Y0058490D01*
X0416809Y0058394D01*
X0416932Y0058294D01*
X0417053Y0058192D01*
X0417171Y0058087D01*
X0417286Y0057978D01*
X0417399Y0057867D01*
X0417509Y0057753D01*
X0417616Y0057636D01*
X0417720Y0057517D01*
X0417821Y0057395D01*
X0417918Y0057270D01*
X0418013Y0057143D01*
X0418104Y0057014D01*
X0418193Y0056883D01*
X0418277Y0056749D01*
X0418359Y0056613D01*
X0418437Y0056476D01*
X0418511Y0056336D01*
X0418582Y0056194D01*
X0418650Y0056051D01*
X0418714Y0055906D01*
X0418774Y0055760D01*
X0418830Y0055612D01*
X0418883Y0055463D01*
X0418932Y0055312D01*
X0418977Y0055160D01*
X0419018Y0055007D01*
X0419056Y0054854D01*
X0419089Y0054699D01*
X0419119Y0054543D01*
X0419145Y0054387D01*
X0419166Y0054230D01*
X0419184Y0054073D01*
X0419198Y0053915D01*
X0419208Y0053757D01*
X0419214Y0053599D01*
X0419216Y0053441D01*
X0419214Y0053283D01*
X0419208Y0053125D01*
X0419198Y0052967D01*
X0419184Y0052809D01*
X0419166Y0052652D01*
X0419145Y0052495D01*
X0419119Y0052339D01*
X0419089Y0052183D01*
X0419056Y0052028D01*
X0419018Y0051875D01*
X0418977Y0051722D01*
X0418932Y0051570D01*
X0418883Y0051419D01*
X0418830Y0051270D01*
X0418774Y0051122D01*
X0418714Y0050976D01*
X0418650Y0050831D01*
X0418582Y0050688D01*
X0418511Y0050546D01*
X0418437Y0050406D01*
X0418359Y0050269D01*
X0418277Y0050133D01*
X0418193Y0049999D01*
X0418104Y0049868D01*
X0418013Y0049739D01*
X0417918Y0049612D01*
X0417821Y0049487D01*
X0417720Y0049365D01*
X0417616Y0049246D01*
X0417509Y0049129D01*
X0417399Y0049015D01*
X0417286Y0048904D01*
X0417171Y0048795D01*
X0417053Y0048690D01*
X0416932Y0048588D01*
X0416809Y0048488D01*
X0416683Y0048392D01*
X0416555Y0048299D01*
X0416425Y0048209D01*
X0416292Y0048123D01*
X0416157Y0048039D01*
X0416021Y0047960D01*
X0415882Y0047883D01*
X0415741Y0047811D01*
X0415599Y0047741D01*
X0415455Y0047676D01*
X0415309Y0047614D01*
X0415162Y0047556D01*
X0415013Y0047501D01*
X0414863Y0047450D01*
X0414712Y0047403D01*
X0414560Y0047360D01*
X0414407Y0047321D01*
X0414252Y0047285D01*
X0414097Y0047254D01*
X0413941Y0047226D01*
X0413785Y0047202D01*
X0413628Y0047182D01*
X0413470Y0047166D01*
X0413313Y0047154D01*
X0413154Y0047146D01*
X0412996Y0047142D01*
X0412838Y0047142D01*
X0412680Y0047146D01*
X0412521Y0047154D01*
X0412364Y0047166D01*
X0412206Y0047182D01*
X0412049Y0047202D01*
X0411893Y0047226D01*
X0411737Y0047254D01*
X0411582Y0047285D01*
X0411427Y0047321D01*
X0411274Y0047360D01*
X0411122Y0047403D01*
X0410971Y0047450D01*
X0410821Y0047501D01*
X0410672Y0047556D01*
X0410525Y0047614D01*
X0410379Y0047676D01*
X0410235Y0047741D01*
X0410093Y0047811D01*
X0409952Y0047883D01*
X0409813Y0047960D01*
X0409677Y0048039D01*
X0409542Y0048123D01*
X0409409Y0048209D01*
X0409279Y0048299D01*
X0409151Y0048392D01*
X0409025Y0048488D01*
X0408902Y0048588D01*
X0408781Y0048690D01*
X0408663Y0048795D01*
X0408548Y0048904D01*
X0408435Y0049015D01*
X0408325Y0049129D01*
X0408218Y0049246D01*
X0408114Y0049365D01*
X0408013Y0049487D01*
X0407916Y0049612D01*
X0407821Y0049739D01*
X0407730Y0049868D01*
X0407641Y0049999D01*
X0407557Y0050133D01*
X0407475Y0050269D01*
X0407397Y0050406D01*
X0407323Y0050546D01*
X0407252Y0050688D01*
X0407184Y0050831D01*
X0407120Y0050976D01*
X0407060Y0051122D01*
X0407004Y0051270D01*
X0406951Y0051419D01*
X0406902Y0051570D01*
X0406857Y0051722D01*
X0406816Y0051875D01*
X0406778Y0052028D01*
X0406745Y0052183D01*
X0406715Y0052339D01*
X0406689Y0052495D01*
X0406668Y0052652D01*
X0406650Y0052809D01*
X0406636Y0052967D01*
X0406626Y0053125D01*
X0406620Y0053283D01*
X0406618Y0053441D01*
M02*
