G75*
%MOIN*%
%OFA0B0*%
%FSLAX25Y25*%
%IPPOS*%
%LPD*%
%AMOC8*
5,1,8,0,0,1.08239X$1,22.5*
%
%ADD10C,0.00000*%
%ADD11C,0.00400*%
%ADD12C,0.01000*%
%ADD13C,0.00394*%
%ADD14C,0.00984*%
%ADD15C,0.00787*%
%ADD16C,0.00800*%
%ADD17C,0.00500*%
%ADD18R,0.00984X0.00984*%
%ADD19C,0.00600*%
D10*
X0013469Y0037693D02*
X0418665Y0037693D01*
X0418907Y0037696D01*
X0419148Y0037705D01*
X0419389Y0037719D01*
X0419630Y0037740D01*
X0419870Y0037766D01*
X0420110Y0037798D01*
X0420349Y0037836D01*
X0420586Y0037879D01*
X0420823Y0037929D01*
X0421058Y0037984D01*
X0421292Y0038044D01*
X0421524Y0038111D01*
X0421755Y0038182D01*
X0421984Y0038260D01*
X0422211Y0038343D01*
X0422436Y0038431D01*
X0422659Y0038525D01*
X0422879Y0038624D01*
X0423097Y0038729D01*
X0423312Y0038838D01*
X0423525Y0038953D01*
X0423735Y0039073D01*
X0423941Y0039198D01*
X0424145Y0039328D01*
X0424346Y0039463D01*
X0424543Y0039603D01*
X0424737Y0039747D01*
X0424927Y0039896D01*
X0425113Y0040050D01*
X0425296Y0040208D01*
X0425475Y0040370D01*
X0425650Y0040537D01*
X0425821Y0040708D01*
X0425988Y0040883D01*
X0426150Y0041062D01*
X0426308Y0041245D01*
X0426462Y0041431D01*
X0426611Y0041621D01*
X0426755Y0041815D01*
X0426895Y0042012D01*
X0427030Y0042213D01*
X0427160Y0042417D01*
X0427285Y0042623D01*
X0427405Y0042833D01*
X0427520Y0043046D01*
X0427629Y0043261D01*
X0427734Y0043479D01*
X0427833Y0043699D01*
X0427927Y0043922D01*
X0428015Y0044147D01*
X0428098Y0044374D01*
X0428176Y0044603D01*
X0428247Y0044834D01*
X0428314Y0045066D01*
X0428374Y0045300D01*
X0428429Y0045535D01*
X0428479Y0045772D01*
X0428522Y0046009D01*
X0428560Y0046248D01*
X0428592Y0046488D01*
X0428618Y0046728D01*
X0428639Y0046969D01*
X0428653Y0047210D01*
X0428662Y0047451D01*
X0428665Y0047693D01*
X0428665Y0149740D01*
X0428662Y0149982D01*
X0428653Y0150223D01*
X0428639Y0150464D01*
X0428618Y0150705D01*
X0428592Y0150945D01*
X0428560Y0151185D01*
X0428522Y0151424D01*
X0428479Y0151661D01*
X0428429Y0151898D01*
X0428374Y0152133D01*
X0428314Y0152367D01*
X0428247Y0152599D01*
X0428176Y0152830D01*
X0428098Y0153059D01*
X0428015Y0153286D01*
X0427927Y0153511D01*
X0427833Y0153734D01*
X0427734Y0153954D01*
X0427629Y0154172D01*
X0427520Y0154387D01*
X0427405Y0154600D01*
X0427285Y0154810D01*
X0427160Y0155016D01*
X0427030Y0155220D01*
X0426895Y0155421D01*
X0426755Y0155618D01*
X0426611Y0155812D01*
X0426462Y0156002D01*
X0426308Y0156188D01*
X0426150Y0156371D01*
X0425988Y0156550D01*
X0425821Y0156725D01*
X0425650Y0156896D01*
X0425475Y0157063D01*
X0425296Y0157225D01*
X0425113Y0157383D01*
X0424927Y0157537D01*
X0424737Y0157686D01*
X0424543Y0157830D01*
X0424346Y0157970D01*
X0424145Y0158105D01*
X0423941Y0158235D01*
X0423735Y0158360D01*
X0423525Y0158480D01*
X0423312Y0158595D01*
X0423097Y0158704D01*
X0422879Y0158809D01*
X0422659Y0158908D01*
X0422436Y0159002D01*
X0422211Y0159090D01*
X0421984Y0159173D01*
X0421755Y0159251D01*
X0421524Y0159322D01*
X0421292Y0159389D01*
X0421058Y0159449D01*
X0420823Y0159504D01*
X0420586Y0159554D01*
X0420349Y0159597D01*
X0420110Y0159635D01*
X0419870Y0159667D01*
X0419630Y0159693D01*
X0419389Y0159714D01*
X0419148Y0159728D01*
X0418907Y0159737D01*
X0418665Y0159740D01*
X0338272Y0159740D01*
X0338030Y0159743D01*
X0337789Y0159752D01*
X0337548Y0159766D01*
X0337307Y0159787D01*
X0337067Y0159813D01*
X0336827Y0159845D01*
X0336588Y0159883D01*
X0336351Y0159926D01*
X0336114Y0159976D01*
X0335879Y0160031D01*
X0335645Y0160091D01*
X0335413Y0160158D01*
X0335182Y0160229D01*
X0334953Y0160307D01*
X0334726Y0160390D01*
X0334501Y0160478D01*
X0334278Y0160572D01*
X0334058Y0160671D01*
X0333840Y0160776D01*
X0333625Y0160885D01*
X0333412Y0161000D01*
X0333202Y0161120D01*
X0332996Y0161245D01*
X0332792Y0161375D01*
X0332591Y0161510D01*
X0332394Y0161650D01*
X0332200Y0161794D01*
X0332010Y0161943D01*
X0331824Y0162097D01*
X0331641Y0162255D01*
X0331462Y0162417D01*
X0331287Y0162584D01*
X0331116Y0162755D01*
X0330949Y0162930D01*
X0330787Y0163109D01*
X0330629Y0163292D01*
X0330475Y0163478D01*
X0330326Y0163668D01*
X0330182Y0163862D01*
X0330042Y0164059D01*
X0329907Y0164260D01*
X0329777Y0164464D01*
X0329652Y0164670D01*
X0329532Y0164880D01*
X0329417Y0165093D01*
X0329308Y0165308D01*
X0329203Y0165526D01*
X0329104Y0165746D01*
X0329010Y0165969D01*
X0328922Y0166194D01*
X0328839Y0166421D01*
X0328761Y0166650D01*
X0328690Y0166881D01*
X0328623Y0167113D01*
X0328563Y0167347D01*
X0328508Y0167582D01*
X0328458Y0167819D01*
X0328415Y0168056D01*
X0328377Y0168295D01*
X0328345Y0168535D01*
X0328319Y0168775D01*
X0328298Y0169016D01*
X0328284Y0169257D01*
X0328275Y0169498D01*
X0328272Y0169740D01*
X0328272Y0346591D01*
X0328269Y0346833D01*
X0328260Y0347074D01*
X0328246Y0347315D01*
X0328225Y0347556D01*
X0328199Y0347796D01*
X0328167Y0348036D01*
X0328129Y0348275D01*
X0328086Y0348512D01*
X0328036Y0348749D01*
X0327981Y0348984D01*
X0327921Y0349218D01*
X0327854Y0349450D01*
X0327783Y0349681D01*
X0327705Y0349910D01*
X0327622Y0350137D01*
X0327534Y0350362D01*
X0327440Y0350585D01*
X0327341Y0350805D01*
X0327236Y0351023D01*
X0327127Y0351238D01*
X0327012Y0351451D01*
X0326892Y0351661D01*
X0326767Y0351867D01*
X0326637Y0352071D01*
X0326502Y0352272D01*
X0326362Y0352469D01*
X0326218Y0352663D01*
X0326069Y0352853D01*
X0325915Y0353039D01*
X0325757Y0353222D01*
X0325595Y0353401D01*
X0325428Y0353576D01*
X0325257Y0353747D01*
X0325082Y0353914D01*
X0324903Y0354076D01*
X0324720Y0354234D01*
X0324534Y0354388D01*
X0324344Y0354537D01*
X0324150Y0354681D01*
X0323953Y0354821D01*
X0323752Y0354956D01*
X0323548Y0355086D01*
X0323342Y0355211D01*
X0323132Y0355331D01*
X0322919Y0355446D01*
X0322704Y0355555D01*
X0322486Y0355660D01*
X0322266Y0355759D01*
X0322043Y0355853D01*
X0321818Y0355941D01*
X0321591Y0356024D01*
X0321362Y0356102D01*
X0321131Y0356173D01*
X0320899Y0356240D01*
X0320665Y0356300D01*
X0320430Y0356355D01*
X0320193Y0356405D01*
X0319956Y0356448D01*
X0319717Y0356486D01*
X0319477Y0356518D01*
X0319237Y0356544D01*
X0318996Y0356565D01*
X0318755Y0356579D01*
X0318514Y0356588D01*
X0318272Y0356591D01*
X0277248Y0356591D01*
X0277006Y0356588D01*
X0276765Y0356579D01*
X0276524Y0356565D01*
X0276283Y0356544D01*
X0276043Y0356518D01*
X0275803Y0356486D01*
X0275564Y0356448D01*
X0275327Y0356405D01*
X0275090Y0356355D01*
X0274855Y0356300D01*
X0274621Y0356240D01*
X0274389Y0356173D01*
X0274158Y0356102D01*
X0273929Y0356024D01*
X0273702Y0355941D01*
X0273477Y0355853D01*
X0273254Y0355759D01*
X0273034Y0355660D01*
X0272816Y0355555D01*
X0272601Y0355446D01*
X0272388Y0355331D01*
X0272178Y0355211D01*
X0271972Y0355086D01*
X0271768Y0354956D01*
X0271567Y0354821D01*
X0271370Y0354681D01*
X0271176Y0354537D01*
X0270986Y0354388D01*
X0270800Y0354234D01*
X0270617Y0354076D01*
X0270438Y0353914D01*
X0270263Y0353747D01*
X0270092Y0353576D01*
X0269925Y0353401D01*
X0269763Y0353222D01*
X0269605Y0353039D01*
X0269451Y0352853D01*
X0269302Y0352663D01*
X0269158Y0352469D01*
X0269018Y0352272D01*
X0268883Y0352071D01*
X0268753Y0351867D01*
X0268628Y0351661D01*
X0268508Y0351451D01*
X0268393Y0351238D01*
X0268284Y0351023D01*
X0268179Y0350805D01*
X0268080Y0350585D01*
X0267986Y0350362D01*
X0267898Y0350137D01*
X0267815Y0349910D01*
X0267737Y0349681D01*
X0267666Y0349450D01*
X0267599Y0349218D01*
X0267539Y0348984D01*
X0267484Y0348749D01*
X0267434Y0348512D01*
X0267391Y0348275D01*
X0267353Y0348036D01*
X0267321Y0347796D01*
X0267295Y0347556D01*
X0267274Y0347315D01*
X0267260Y0347074D01*
X0267251Y0346833D01*
X0267248Y0346591D01*
X0267248Y0169740D01*
X0267245Y0169498D01*
X0267236Y0169257D01*
X0267222Y0169016D01*
X0267201Y0168775D01*
X0267175Y0168535D01*
X0267143Y0168295D01*
X0267105Y0168056D01*
X0267062Y0167819D01*
X0267012Y0167582D01*
X0266957Y0167347D01*
X0266897Y0167113D01*
X0266830Y0166881D01*
X0266759Y0166650D01*
X0266681Y0166421D01*
X0266598Y0166194D01*
X0266510Y0165969D01*
X0266416Y0165746D01*
X0266317Y0165526D01*
X0266212Y0165308D01*
X0266103Y0165093D01*
X0265988Y0164880D01*
X0265868Y0164670D01*
X0265743Y0164464D01*
X0265613Y0164260D01*
X0265478Y0164059D01*
X0265338Y0163862D01*
X0265194Y0163668D01*
X0265045Y0163478D01*
X0264891Y0163292D01*
X0264733Y0163109D01*
X0264571Y0162930D01*
X0264404Y0162755D01*
X0264233Y0162584D01*
X0264058Y0162417D01*
X0263879Y0162255D01*
X0263696Y0162097D01*
X0263510Y0161943D01*
X0263320Y0161794D01*
X0263126Y0161650D01*
X0262929Y0161510D01*
X0262728Y0161375D01*
X0262524Y0161245D01*
X0262318Y0161120D01*
X0262108Y0161000D01*
X0261895Y0160885D01*
X0261680Y0160776D01*
X0261462Y0160671D01*
X0261242Y0160572D01*
X0261019Y0160478D01*
X0260794Y0160390D01*
X0260567Y0160307D01*
X0260338Y0160229D01*
X0260107Y0160158D01*
X0259875Y0160091D01*
X0259641Y0160031D01*
X0259406Y0159976D01*
X0259169Y0159926D01*
X0258932Y0159883D01*
X0258693Y0159845D01*
X0258453Y0159813D01*
X0258213Y0159787D01*
X0257972Y0159766D01*
X0257731Y0159752D01*
X0257490Y0159743D01*
X0257248Y0159740D01*
X0194571Y0159740D01*
X0194329Y0159743D01*
X0194088Y0159752D01*
X0193847Y0159766D01*
X0193606Y0159787D01*
X0193366Y0159813D01*
X0193126Y0159845D01*
X0192887Y0159883D01*
X0192650Y0159926D01*
X0192413Y0159976D01*
X0192178Y0160031D01*
X0191944Y0160091D01*
X0191712Y0160158D01*
X0191481Y0160229D01*
X0191252Y0160307D01*
X0191025Y0160390D01*
X0190800Y0160478D01*
X0190577Y0160572D01*
X0190357Y0160671D01*
X0190139Y0160776D01*
X0189924Y0160885D01*
X0189711Y0161000D01*
X0189501Y0161120D01*
X0189295Y0161245D01*
X0189091Y0161375D01*
X0188890Y0161510D01*
X0188693Y0161650D01*
X0188499Y0161794D01*
X0188309Y0161943D01*
X0188123Y0162097D01*
X0187940Y0162255D01*
X0187761Y0162417D01*
X0187586Y0162584D01*
X0187415Y0162755D01*
X0187248Y0162930D01*
X0187086Y0163109D01*
X0186928Y0163292D01*
X0186774Y0163478D01*
X0186625Y0163668D01*
X0186481Y0163862D01*
X0186341Y0164059D01*
X0186206Y0164260D01*
X0186076Y0164464D01*
X0185951Y0164670D01*
X0185831Y0164880D01*
X0185716Y0165093D01*
X0185607Y0165308D01*
X0185502Y0165526D01*
X0185403Y0165746D01*
X0185309Y0165969D01*
X0185221Y0166194D01*
X0185138Y0166421D01*
X0185060Y0166650D01*
X0184989Y0166881D01*
X0184922Y0167113D01*
X0184862Y0167347D01*
X0184807Y0167582D01*
X0184757Y0167819D01*
X0184714Y0168056D01*
X0184676Y0168295D01*
X0184644Y0168535D01*
X0184618Y0168775D01*
X0184597Y0169016D01*
X0184583Y0169257D01*
X0184574Y0169498D01*
X0184571Y0169740D01*
X0184571Y0346748D01*
X0184568Y0346986D01*
X0184560Y0347224D01*
X0184545Y0347461D01*
X0184525Y0347698D01*
X0184499Y0347934D01*
X0184468Y0348170D01*
X0184431Y0348405D01*
X0184388Y0348639D01*
X0184339Y0348872D01*
X0184285Y0349104D01*
X0184225Y0349334D01*
X0184160Y0349563D01*
X0184089Y0349790D01*
X0184013Y0350015D01*
X0183931Y0350238D01*
X0183844Y0350460D01*
X0183752Y0350679D01*
X0183654Y0350896D01*
X0183552Y0351110D01*
X0183444Y0351322D01*
X0183330Y0351532D01*
X0183212Y0351738D01*
X0183089Y0351942D01*
X0182961Y0352142D01*
X0182829Y0352339D01*
X0182691Y0352534D01*
X0182549Y0352724D01*
X0182402Y0352912D01*
X0182251Y0353095D01*
X0182096Y0353275D01*
X0181936Y0353451D01*
X0181772Y0353623D01*
X0181603Y0353792D01*
X0181431Y0353956D01*
X0181255Y0354116D01*
X0181075Y0354271D01*
X0180892Y0354422D01*
X0180704Y0354569D01*
X0180514Y0354711D01*
X0180319Y0354849D01*
X0180122Y0354981D01*
X0179922Y0355109D01*
X0179718Y0355232D01*
X0179512Y0355350D01*
X0179302Y0355464D01*
X0179090Y0355572D01*
X0178876Y0355674D01*
X0178659Y0355772D01*
X0178440Y0355864D01*
X0178218Y0355951D01*
X0177995Y0356033D01*
X0177770Y0356109D01*
X0177543Y0356180D01*
X0177314Y0356245D01*
X0177084Y0356305D01*
X0176852Y0356359D01*
X0176619Y0356408D01*
X0176385Y0356451D01*
X0176150Y0356488D01*
X0175914Y0356519D01*
X0175678Y0356545D01*
X0175441Y0356565D01*
X0175204Y0356580D01*
X0174966Y0356588D01*
X0174728Y0356591D01*
X0132406Y0356591D01*
X0132168Y0356588D01*
X0131930Y0356580D01*
X0131693Y0356565D01*
X0131456Y0356545D01*
X0131220Y0356519D01*
X0130984Y0356488D01*
X0130749Y0356451D01*
X0130515Y0356408D01*
X0130282Y0356359D01*
X0130050Y0356305D01*
X0129820Y0356245D01*
X0129591Y0356180D01*
X0129364Y0356109D01*
X0129139Y0356033D01*
X0128916Y0355951D01*
X0128694Y0355864D01*
X0128475Y0355772D01*
X0128258Y0355674D01*
X0128044Y0355572D01*
X0127832Y0355464D01*
X0127622Y0355350D01*
X0127416Y0355232D01*
X0127212Y0355109D01*
X0127012Y0354981D01*
X0126815Y0354849D01*
X0126620Y0354711D01*
X0126430Y0354569D01*
X0126242Y0354422D01*
X0126059Y0354271D01*
X0125879Y0354116D01*
X0125703Y0353956D01*
X0125531Y0353792D01*
X0125362Y0353623D01*
X0125198Y0353451D01*
X0125038Y0353275D01*
X0124883Y0353095D01*
X0124732Y0352912D01*
X0124585Y0352724D01*
X0124443Y0352534D01*
X0124305Y0352339D01*
X0124173Y0352142D01*
X0124045Y0351942D01*
X0123922Y0351738D01*
X0123804Y0351532D01*
X0123690Y0351322D01*
X0123582Y0351110D01*
X0123480Y0350896D01*
X0123382Y0350679D01*
X0123290Y0350460D01*
X0123203Y0350238D01*
X0123121Y0350015D01*
X0123045Y0349790D01*
X0122974Y0349563D01*
X0122909Y0349334D01*
X0122849Y0349104D01*
X0122795Y0348872D01*
X0122746Y0348639D01*
X0122703Y0348405D01*
X0122666Y0348170D01*
X0122635Y0347934D01*
X0122609Y0347698D01*
X0122589Y0347461D01*
X0122574Y0347224D01*
X0122566Y0346986D01*
X0122563Y0346748D01*
X0122563Y0169740D01*
X0122560Y0169498D01*
X0122551Y0169257D01*
X0122537Y0169016D01*
X0122516Y0168775D01*
X0122490Y0168535D01*
X0122458Y0168295D01*
X0122420Y0168056D01*
X0122377Y0167819D01*
X0122327Y0167582D01*
X0122272Y0167347D01*
X0122212Y0167113D01*
X0122145Y0166881D01*
X0122074Y0166650D01*
X0121996Y0166421D01*
X0121913Y0166194D01*
X0121825Y0165969D01*
X0121731Y0165746D01*
X0121632Y0165526D01*
X0121527Y0165308D01*
X0121418Y0165093D01*
X0121303Y0164880D01*
X0121183Y0164670D01*
X0121058Y0164464D01*
X0120928Y0164260D01*
X0120793Y0164059D01*
X0120653Y0163862D01*
X0120509Y0163668D01*
X0120360Y0163478D01*
X0120206Y0163292D01*
X0120048Y0163109D01*
X0119886Y0162930D01*
X0119719Y0162755D01*
X0119548Y0162584D01*
X0119373Y0162417D01*
X0119194Y0162255D01*
X0119011Y0162097D01*
X0118825Y0161943D01*
X0118635Y0161794D01*
X0118441Y0161650D01*
X0118244Y0161510D01*
X0118043Y0161375D01*
X0117839Y0161245D01*
X0117633Y0161120D01*
X0117423Y0161000D01*
X0117210Y0160885D01*
X0116995Y0160776D01*
X0116777Y0160671D01*
X0116557Y0160572D01*
X0116334Y0160478D01*
X0116109Y0160390D01*
X0115882Y0160307D01*
X0115653Y0160229D01*
X0115422Y0160158D01*
X0115190Y0160091D01*
X0114956Y0160031D01*
X0114721Y0159976D01*
X0114484Y0159926D01*
X0114247Y0159883D01*
X0114008Y0159845D01*
X0113768Y0159813D01*
X0113528Y0159787D01*
X0113287Y0159766D01*
X0113046Y0159752D01*
X0112805Y0159743D01*
X0112563Y0159740D01*
X0013469Y0159740D01*
X0013227Y0159737D01*
X0012986Y0159728D01*
X0012745Y0159714D01*
X0012504Y0159693D01*
X0012264Y0159667D01*
X0012024Y0159635D01*
X0011785Y0159597D01*
X0011548Y0159554D01*
X0011311Y0159504D01*
X0011076Y0159449D01*
X0010842Y0159389D01*
X0010610Y0159322D01*
X0010379Y0159251D01*
X0010150Y0159173D01*
X0009923Y0159090D01*
X0009698Y0159002D01*
X0009475Y0158908D01*
X0009255Y0158809D01*
X0009037Y0158704D01*
X0008822Y0158595D01*
X0008609Y0158480D01*
X0008399Y0158360D01*
X0008193Y0158235D01*
X0007989Y0158105D01*
X0007788Y0157970D01*
X0007591Y0157830D01*
X0007397Y0157686D01*
X0007207Y0157537D01*
X0007021Y0157383D01*
X0006838Y0157225D01*
X0006659Y0157063D01*
X0006484Y0156896D01*
X0006313Y0156725D01*
X0006146Y0156550D01*
X0005984Y0156371D01*
X0005826Y0156188D01*
X0005672Y0156002D01*
X0005523Y0155812D01*
X0005379Y0155618D01*
X0005239Y0155421D01*
X0005104Y0155220D01*
X0004974Y0155016D01*
X0004849Y0154810D01*
X0004729Y0154600D01*
X0004614Y0154387D01*
X0004505Y0154172D01*
X0004400Y0153954D01*
X0004301Y0153734D01*
X0004207Y0153511D01*
X0004119Y0153286D01*
X0004036Y0153059D01*
X0003958Y0152830D01*
X0003887Y0152599D01*
X0003820Y0152367D01*
X0003760Y0152133D01*
X0003705Y0151898D01*
X0003655Y0151661D01*
X0003612Y0151424D01*
X0003574Y0151185D01*
X0003542Y0150945D01*
X0003516Y0150705D01*
X0003495Y0150464D01*
X0003481Y0150223D01*
X0003472Y0149982D01*
X0003469Y0149740D01*
X0003469Y0047693D01*
X0003472Y0047451D01*
X0003481Y0047210D01*
X0003495Y0046969D01*
X0003516Y0046728D01*
X0003542Y0046488D01*
X0003574Y0046248D01*
X0003612Y0046009D01*
X0003655Y0045772D01*
X0003705Y0045535D01*
X0003760Y0045300D01*
X0003820Y0045066D01*
X0003887Y0044834D01*
X0003958Y0044603D01*
X0004036Y0044374D01*
X0004119Y0044147D01*
X0004207Y0043922D01*
X0004301Y0043699D01*
X0004400Y0043479D01*
X0004505Y0043261D01*
X0004614Y0043046D01*
X0004729Y0042833D01*
X0004849Y0042623D01*
X0004974Y0042417D01*
X0005104Y0042213D01*
X0005239Y0042012D01*
X0005379Y0041815D01*
X0005523Y0041621D01*
X0005672Y0041431D01*
X0005826Y0041245D01*
X0005984Y0041062D01*
X0006146Y0040883D01*
X0006313Y0040708D01*
X0006484Y0040537D01*
X0006659Y0040370D01*
X0006838Y0040208D01*
X0007021Y0040050D01*
X0007207Y0039896D01*
X0007397Y0039747D01*
X0007591Y0039603D01*
X0007788Y0039463D01*
X0007989Y0039328D01*
X0008193Y0039198D01*
X0008399Y0039073D01*
X0008609Y0038953D01*
X0008822Y0038838D01*
X0009037Y0038729D01*
X0009255Y0038624D01*
X0009475Y0038525D01*
X0009698Y0038431D01*
X0009923Y0038343D01*
X0010150Y0038260D01*
X0010379Y0038182D01*
X0010610Y0038111D01*
X0010842Y0038044D01*
X0011076Y0037984D01*
X0011311Y0037929D01*
X0011548Y0037879D01*
X0011785Y0037836D01*
X0012024Y0037798D01*
X0012264Y0037766D01*
X0012504Y0037740D01*
X0012745Y0037719D01*
X0012986Y0037705D01*
X0013227Y0037696D01*
X0013469Y0037693D01*
X0012918Y0053441D02*
X0012920Y0053599D01*
X0012926Y0053757D01*
X0012936Y0053915D01*
X0012950Y0054073D01*
X0012968Y0054230D01*
X0012989Y0054387D01*
X0013015Y0054543D01*
X0013045Y0054699D01*
X0013078Y0054854D01*
X0013116Y0055007D01*
X0013157Y0055160D01*
X0013202Y0055312D01*
X0013251Y0055463D01*
X0013304Y0055612D01*
X0013360Y0055760D01*
X0013420Y0055906D01*
X0013484Y0056051D01*
X0013552Y0056194D01*
X0013623Y0056336D01*
X0013697Y0056476D01*
X0013775Y0056613D01*
X0013857Y0056749D01*
X0013941Y0056883D01*
X0014030Y0057014D01*
X0014121Y0057143D01*
X0014216Y0057270D01*
X0014313Y0057395D01*
X0014414Y0057517D01*
X0014518Y0057636D01*
X0014625Y0057753D01*
X0014735Y0057867D01*
X0014848Y0057978D01*
X0014963Y0058087D01*
X0015081Y0058192D01*
X0015202Y0058294D01*
X0015325Y0058394D01*
X0015451Y0058490D01*
X0015579Y0058583D01*
X0015709Y0058673D01*
X0015842Y0058759D01*
X0015977Y0058843D01*
X0016113Y0058922D01*
X0016252Y0058999D01*
X0016393Y0059071D01*
X0016535Y0059141D01*
X0016679Y0059206D01*
X0016825Y0059268D01*
X0016972Y0059326D01*
X0017121Y0059381D01*
X0017271Y0059432D01*
X0017422Y0059479D01*
X0017574Y0059522D01*
X0017727Y0059561D01*
X0017882Y0059597D01*
X0018037Y0059628D01*
X0018193Y0059656D01*
X0018349Y0059680D01*
X0018506Y0059700D01*
X0018664Y0059716D01*
X0018821Y0059728D01*
X0018980Y0059736D01*
X0019138Y0059740D01*
X0019296Y0059740D01*
X0019454Y0059736D01*
X0019613Y0059728D01*
X0019770Y0059716D01*
X0019928Y0059700D01*
X0020085Y0059680D01*
X0020241Y0059656D01*
X0020397Y0059628D01*
X0020552Y0059597D01*
X0020707Y0059561D01*
X0020860Y0059522D01*
X0021012Y0059479D01*
X0021163Y0059432D01*
X0021313Y0059381D01*
X0021462Y0059326D01*
X0021609Y0059268D01*
X0021755Y0059206D01*
X0021899Y0059141D01*
X0022041Y0059071D01*
X0022182Y0058999D01*
X0022321Y0058922D01*
X0022457Y0058843D01*
X0022592Y0058759D01*
X0022725Y0058673D01*
X0022855Y0058583D01*
X0022983Y0058490D01*
X0023109Y0058394D01*
X0023232Y0058294D01*
X0023353Y0058192D01*
X0023471Y0058087D01*
X0023586Y0057978D01*
X0023699Y0057867D01*
X0023809Y0057753D01*
X0023916Y0057636D01*
X0024020Y0057517D01*
X0024121Y0057395D01*
X0024218Y0057270D01*
X0024313Y0057143D01*
X0024404Y0057014D01*
X0024493Y0056883D01*
X0024577Y0056749D01*
X0024659Y0056613D01*
X0024737Y0056476D01*
X0024811Y0056336D01*
X0024882Y0056194D01*
X0024950Y0056051D01*
X0025014Y0055906D01*
X0025074Y0055760D01*
X0025130Y0055612D01*
X0025183Y0055463D01*
X0025232Y0055312D01*
X0025277Y0055160D01*
X0025318Y0055007D01*
X0025356Y0054854D01*
X0025389Y0054699D01*
X0025419Y0054543D01*
X0025445Y0054387D01*
X0025466Y0054230D01*
X0025484Y0054073D01*
X0025498Y0053915D01*
X0025508Y0053757D01*
X0025514Y0053599D01*
X0025516Y0053441D01*
X0025514Y0053283D01*
X0025508Y0053125D01*
X0025498Y0052967D01*
X0025484Y0052809D01*
X0025466Y0052652D01*
X0025445Y0052495D01*
X0025419Y0052339D01*
X0025389Y0052183D01*
X0025356Y0052028D01*
X0025318Y0051875D01*
X0025277Y0051722D01*
X0025232Y0051570D01*
X0025183Y0051419D01*
X0025130Y0051270D01*
X0025074Y0051122D01*
X0025014Y0050976D01*
X0024950Y0050831D01*
X0024882Y0050688D01*
X0024811Y0050546D01*
X0024737Y0050406D01*
X0024659Y0050269D01*
X0024577Y0050133D01*
X0024493Y0049999D01*
X0024404Y0049868D01*
X0024313Y0049739D01*
X0024218Y0049612D01*
X0024121Y0049487D01*
X0024020Y0049365D01*
X0023916Y0049246D01*
X0023809Y0049129D01*
X0023699Y0049015D01*
X0023586Y0048904D01*
X0023471Y0048795D01*
X0023353Y0048690D01*
X0023232Y0048588D01*
X0023109Y0048488D01*
X0022983Y0048392D01*
X0022855Y0048299D01*
X0022725Y0048209D01*
X0022592Y0048123D01*
X0022457Y0048039D01*
X0022321Y0047960D01*
X0022182Y0047883D01*
X0022041Y0047811D01*
X0021899Y0047741D01*
X0021755Y0047676D01*
X0021609Y0047614D01*
X0021462Y0047556D01*
X0021313Y0047501D01*
X0021163Y0047450D01*
X0021012Y0047403D01*
X0020860Y0047360D01*
X0020707Y0047321D01*
X0020552Y0047285D01*
X0020397Y0047254D01*
X0020241Y0047226D01*
X0020085Y0047202D01*
X0019928Y0047182D01*
X0019770Y0047166D01*
X0019613Y0047154D01*
X0019454Y0047146D01*
X0019296Y0047142D01*
X0019138Y0047142D01*
X0018980Y0047146D01*
X0018821Y0047154D01*
X0018664Y0047166D01*
X0018506Y0047182D01*
X0018349Y0047202D01*
X0018193Y0047226D01*
X0018037Y0047254D01*
X0017882Y0047285D01*
X0017727Y0047321D01*
X0017574Y0047360D01*
X0017422Y0047403D01*
X0017271Y0047450D01*
X0017121Y0047501D01*
X0016972Y0047556D01*
X0016825Y0047614D01*
X0016679Y0047676D01*
X0016535Y0047741D01*
X0016393Y0047811D01*
X0016252Y0047883D01*
X0016113Y0047960D01*
X0015977Y0048039D01*
X0015842Y0048123D01*
X0015709Y0048209D01*
X0015579Y0048299D01*
X0015451Y0048392D01*
X0015325Y0048488D01*
X0015202Y0048588D01*
X0015081Y0048690D01*
X0014963Y0048795D01*
X0014848Y0048904D01*
X0014735Y0049015D01*
X0014625Y0049129D01*
X0014518Y0049246D01*
X0014414Y0049365D01*
X0014313Y0049487D01*
X0014216Y0049612D01*
X0014121Y0049739D01*
X0014030Y0049868D01*
X0013941Y0049999D01*
X0013857Y0050133D01*
X0013775Y0050269D01*
X0013697Y0050406D01*
X0013623Y0050546D01*
X0013552Y0050688D01*
X0013484Y0050831D01*
X0013420Y0050976D01*
X0013360Y0051122D01*
X0013304Y0051270D01*
X0013251Y0051419D01*
X0013202Y0051570D01*
X0013157Y0051722D01*
X0013116Y0051875D01*
X0013078Y0052028D01*
X0013045Y0052183D01*
X0013015Y0052339D01*
X0012989Y0052495D01*
X0012968Y0052652D01*
X0012950Y0052809D01*
X0012936Y0052967D01*
X0012926Y0053125D01*
X0012920Y0053283D01*
X0012918Y0053441D01*
X0012918Y0143992D02*
X0012920Y0144150D01*
X0012926Y0144308D01*
X0012936Y0144466D01*
X0012950Y0144624D01*
X0012968Y0144781D01*
X0012989Y0144938D01*
X0013015Y0145094D01*
X0013045Y0145250D01*
X0013078Y0145405D01*
X0013116Y0145558D01*
X0013157Y0145711D01*
X0013202Y0145863D01*
X0013251Y0146014D01*
X0013304Y0146163D01*
X0013360Y0146311D01*
X0013420Y0146457D01*
X0013484Y0146602D01*
X0013552Y0146745D01*
X0013623Y0146887D01*
X0013697Y0147027D01*
X0013775Y0147164D01*
X0013857Y0147300D01*
X0013941Y0147434D01*
X0014030Y0147565D01*
X0014121Y0147694D01*
X0014216Y0147821D01*
X0014313Y0147946D01*
X0014414Y0148068D01*
X0014518Y0148187D01*
X0014625Y0148304D01*
X0014735Y0148418D01*
X0014848Y0148529D01*
X0014963Y0148638D01*
X0015081Y0148743D01*
X0015202Y0148845D01*
X0015325Y0148945D01*
X0015451Y0149041D01*
X0015579Y0149134D01*
X0015709Y0149224D01*
X0015842Y0149310D01*
X0015977Y0149394D01*
X0016113Y0149473D01*
X0016252Y0149550D01*
X0016393Y0149622D01*
X0016535Y0149692D01*
X0016679Y0149757D01*
X0016825Y0149819D01*
X0016972Y0149877D01*
X0017121Y0149932D01*
X0017271Y0149983D01*
X0017422Y0150030D01*
X0017574Y0150073D01*
X0017727Y0150112D01*
X0017882Y0150148D01*
X0018037Y0150179D01*
X0018193Y0150207D01*
X0018349Y0150231D01*
X0018506Y0150251D01*
X0018664Y0150267D01*
X0018821Y0150279D01*
X0018980Y0150287D01*
X0019138Y0150291D01*
X0019296Y0150291D01*
X0019454Y0150287D01*
X0019613Y0150279D01*
X0019770Y0150267D01*
X0019928Y0150251D01*
X0020085Y0150231D01*
X0020241Y0150207D01*
X0020397Y0150179D01*
X0020552Y0150148D01*
X0020707Y0150112D01*
X0020860Y0150073D01*
X0021012Y0150030D01*
X0021163Y0149983D01*
X0021313Y0149932D01*
X0021462Y0149877D01*
X0021609Y0149819D01*
X0021755Y0149757D01*
X0021899Y0149692D01*
X0022041Y0149622D01*
X0022182Y0149550D01*
X0022321Y0149473D01*
X0022457Y0149394D01*
X0022592Y0149310D01*
X0022725Y0149224D01*
X0022855Y0149134D01*
X0022983Y0149041D01*
X0023109Y0148945D01*
X0023232Y0148845D01*
X0023353Y0148743D01*
X0023471Y0148638D01*
X0023586Y0148529D01*
X0023699Y0148418D01*
X0023809Y0148304D01*
X0023916Y0148187D01*
X0024020Y0148068D01*
X0024121Y0147946D01*
X0024218Y0147821D01*
X0024313Y0147694D01*
X0024404Y0147565D01*
X0024493Y0147434D01*
X0024577Y0147300D01*
X0024659Y0147164D01*
X0024737Y0147027D01*
X0024811Y0146887D01*
X0024882Y0146745D01*
X0024950Y0146602D01*
X0025014Y0146457D01*
X0025074Y0146311D01*
X0025130Y0146163D01*
X0025183Y0146014D01*
X0025232Y0145863D01*
X0025277Y0145711D01*
X0025318Y0145558D01*
X0025356Y0145405D01*
X0025389Y0145250D01*
X0025419Y0145094D01*
X0025445Y0144938D01*
X0025466Y0144781D01*
X0025484Y0144624D01*
X0025498Y0144466D01*
X0025508Y0144308D01*
X0025514Y0144150D01*
X0025516Y0143992D01*
X0025514Y0143834D01*
X0025508Y0143676D01*
X0025498Y0143518D01*
X0025484Y0143360D01*
X0025466Y0143203D01*
X0025445Y0143046D01*
X0025419Y0142890D01*
X0025389Y0142734D01*
X0025356Y0142579D01*
X0025318Y0142426D01*
X0025277Y0142273D01*
X0025232Y0142121D01*
X0025183Y0141970D01*
X0025130Y0141821D01*
X0025074Y0141673D01*
X0025014Y0141527D01*
X0024950Y0141382D01*
X0024882Y0141239D01*
X0024811Y0141097D01*
X0024737Y0140957D01*
X0024659Y0140820D01*
X0024577Y0140684D01*
X0024493Y0140550D01*
X0024404Y0140419D01*
X0024313Y0140290D01*
X0024218Y0140163D01*
X0024121Y0140038D01*
X0024020Y0139916D01*
X0023916Y0139797D01*
X0023809Y0139680D01*
X0023699Y0139566D01*
X0023586Y0139455D01*
X0023471Y0139346D01*
X0023353Y0139241D01*
X0023232Y0139139D01*
X0023109Y0139039D01*
X0022983Y0138943D01*
X0022855Y0138850D01*
X0022725Y0138760D01*
X0022592Y0138674D01*
X0022457Y0138590D01*
X0022321Y0138511D01*
X0022182Y0138434D01*
X0022041Y0138362D01*
X0021899Y0138292D01*
X0021755Y0138227D01*
X0021609Y0138165D01*
X0021462Y0138107D01*
X0021313Y0138052D01*
X0021163Y0138001D01*
X0021012Y0137954D01*
X0020860Y0137911D01*
X0020707Y0137872D01*
X0020552Y0137836D01*
X0020397Y0137805D01*
X0020241Y0137777D01*
X0020085Y0137753D01*
X0019928Y0137733D01*
X0019770Y0137717D01*
X0019613Y0137705D01*
X0019454Y0137697D01*
X0019296Y0137693D01*
X0019138Y0137693D01*
X0018980Y0137697D01*
X0018821Y0137705D01*
X0018664Y0137717D01*
X0018506Y0137733D01*
X0018349Y0137753D01*
X0018193Y0137777D01*
X0018037Y0137805D01*
X0017882Y0137836D01*
X0017727Y0137872D01*
X0017574Y0137911D01*
X0017422Y0137954D01*
X0017271Y0138001D01*
X0017121Y0138052D01*
X0016972Y0138107D01*
X0016825Y0138165D01*
X0016679Y0138227D01*
X0016535Y0138292D01*
X0016393Y0138362D01*
X0016252Y0138434D01*
X0016113Y0138511D01*
X0015977Y0138590D01*
X0015842Y0138674D01*
X0015709Y0138760D01*
X0015579Y0138850D01*
X0015451Y0138943D01*
X0015325Y0139039D01*
X0015202Y0139139D01*
X0015081Y0139241D01*
X0014963Y0139346D01*
X0014848Y0139455D01*
X0014735Y0139566D01*
X0014625Y0139680D01*
X0014518Y0139797D01*
X0014414Y0139916D01*
X0014313Y0140038D01*
X0014216Y0140163D01*
X0014121Y0140290D01*
X0014030Y0140419D01*
X0013941Y0140550D01*
X0013857Y0140684D01*
X0013775Y0140820D01*
X0013697Y0140957D01*
X0013623Y0141097D01*
X0013552Y0141239D01*
X0013484Y0141382D01*
X0013420Y0141527D01*
X0013360Y0141673D01*
X0013304Y0141821D01*
X0013251Y0141970D01*
X0013202Y0142121D01*
X0013157Y0142273D01*
X0013116Y0142426D01*
X0013078Y0142579D01*
X0013045Y0142734D01*
X0013015Y0142890D01*
X0012989Y0143046D01*
X0012968Y0143203D01*
X0012950Y0143360D01*
X0012936Y0143518D01*
X0012926Y0143676D01*
X0012920Y0143834D01*
X0012918Y0143992D01*
X0406618Y0143992D02*
X0406620Y0144150D01*
X0406626Y0144308D01*
X0406636Y0144466D01*
X0406650Y0144624D01*
X0406668Y0144781D01*
X0406689Y0144938D01*
X0406715Y0145094D01*
X0406745Y0145250D01*
X0406778Y0145405D01*
X0406816Y0145558D01*
X0406857Y0145711D01*
X0406902Y0145863D01*
X0406951Y0146014D01*
X0407004Y0146163D01*
X0407060Y0146311D01*
X0407120Y0146457D01*
X0407184Y0146602D01*
X0407252Y0146745D01*
X0407323Y0146887D01*
X0407397Y0147027D01*
X0407475Y0147164D01*
X0407557Y0147300D01*
X0407641Y0147434D01*
X0407730Y0147565D01*
X0407821Y0147694D01*
X0407916Y0147821D01*
X0408013Y0147946D01*
X0408114Y0148068D01*
X0408218Y0148187D01*
X0408325Y0148304D01*
X0408435Y0148418D01*
X0408548Y0148529D01*
X0408663Y0148638D01*
X0408781Y0148743D01*
X0408902Y0148845D01*
X0409025Y0148945D01*
X0409151Y0149041D01*
X0409279Y0149134D01*
X0409409Y0149224D01*
X0409542Y0149310D01*
X0409677Y0149394D01*
X0409813Y0149473D01*
X0409952Y0149550D01*
X0410093Y0149622D01*
X0410235Y0149692D01*
X0410379Y0149757D01*
X0410525Y0149819D01*
X0410672Y0149877D01*
X0410821Y0149932D01*
X0410971Y0149983D01*
X0411122Y0150030D01*
X0411274Y0150073D01*
X0411427Y0150112D01*
X0411582Y0150148D01*
X0411737Y0150179D01*
X0411893Y0150207D01*
X0412049Y0150231D01*
X0412206Y0150251D01*
X0412364Y0150267D01*
X0412521Y0150279D01*
X0412680Y0150287D01*
X0412838Y0150291D01*
X0412996Y0150291D01*
X0413154Y0150287D01*
X0413313Y0150279D01*
X0413470Y0150267D01*
X0413628Y0150251D01*
X0413785Y0150231D01*
X0413941Y0150207D01*
X0414097Y0150179D01*
X0414252Y0150148D01*
X0414407Y0150112D01*
X0414560Y0150073D01*
X0414712Y0150030D01*
X0414863Y0149983D01*
X0415013Y0149932D01*
X0415162Y0149877D01*
X0415309Y0149819D01*
X0415455Y0149757D01*
X0415599Y0149692D01*
X0415741Y0149622D01*
X0415882Y0149550D01*
X0416021Y0149473D01*
X0416157Y0149394D01*
X0416292Y0149310D01*
X0416425Y0149224D01*
X0416555Y0149134D01*
X0416683Y0149041D01*
X0416809Y0148945D01*
X0416932Y0148845D01*
X0417053Y0148743D01*
X0417171Y0148638D01*
X0417286Y0148529D01*
X0417399Y0148418D01*
X0417509Y0148304D01*
X0417616Y0148187D01*
X0417720Y0148068D01*
X0417821Y0147946D01*
X0417918Y0147821D01*
X0418013Y0147694D01*
X0418104Y0147565D01*
X0418193Y0147434D01*
X0418277Y0147300D01*
X0418359Y0147164D01*
X0418437Y0147027D01*
X0418511Y0146887D01*
X0418582Y0146745D01*
X0418650Y0146602D01*
X0418714Y0146457D01*
X0418774Y0146311D01*
X0418830Y0146163D01*
X0418883Y0146014D01*
X0418932Y0145863D01*
X0418977Y0145711D01*
X0419018Y0145558D01*
X0419056Y0145405D01*
X0419089Y0145250D01*
X0419119Y0145094D01*
X0419145Y0144938D01*
X0419166Y0144781D01*
X0419184Y0144624D01*
X0419198Y0144466D01*
X0419208Y0144308D01*
X0419214Y0144150D01*
X0419216Y0143992D01*
X0419214Y0143834D01*
X0419208Y0143676D01*
X0419198Y0143518D01*
X0419184Y0143360D01*
X0419166Y0143203D01*
X0419145Y0143046D01*
X0419119Y0142890D01*
X0419089Y0142734D01*
X0419056Y0142579D01*
X0419018Y0142426D01*
X0418977Y0142273D01*
X0418932Y0142121D01*
X0418883Y0141970D01*
X0418830Y0141821D01*
X0418774Y0141673D01*
X0418714Y0141527D01*
X0418650Y0141382D01*
X0418582Y0141239D01*
X0418511Y0141097D01*
X0418437Y0140957D01*
X0418359Y0140820D01*
X0418277Y0140684D01*
X0418193Y0140550D01*
X0418104Y0140419D01*
X0418013Y0140290D01*
X0417918Y0140163D01*
X0417821Y0140038D01*
X0417720Y0139916D01*
X0417616Y0139797D01*
X0417509Y0139680D01*
X0417399Y0139566D01*
X0417286Y0139455D01*
X0417171Y0139346D01*
X0417053Y0139241D01*
X0416932Y0139139D01*
X0416809Y0139039D01*
X0416683Y0138943D01*
X0416555Y0138850D01*
X0416425Y0138760D01*
X0416292Y0138674D01*
X0416157Y0138590D01*
X0416021Y0138511D01*
X0415882Y0138434D01*
X0415741Y0138362D01*
X0415599Y0138292D01*
X0415455Y0138227D01*
X0415309Y0138165D01*
X0415162Y0138107D01*
X0415013Y0138052D01*
X0414863Y0138001D01*
X0414712Y0137954D01*
X0414560Y0137911D01*
X0414407Y0137872D01*
X0414252Y0137836D01*
X0414097Y0137805D01*
X0413941Y0137777D01*
X0413785Y0137753D01*
X0413628Y0137733D01*
X0413470Y0137717D01*
X0413313Y0137705D01*
X0413154Y0137697D01*
X0412996Y0137693D01*
X0412838Y0137693D01*
X0412680Y0137697D01*
X0412521Y0137705D01*
X0412364Y0137717D01*
X0412206Y0137733D01*
X0412049Y0137753D01*
X0411893Y0137777D01*
X0411737Y0137805D01*
X0411582Y0137836D01*
X0411427Y0137872D01*
X0411274Y0137911D01*
X0411122Y0137954D01*
X0410971Y0138001D01*
X0410821Y0138052D01*
X0410672Y0138107D01*
X0410525Y0138165D01*
X0410379Y0138227D01*
X0410235Y0138292D01*
X0410093Y0138362D01*
X0409952Y0138434D01*
X0409813Y0138511D01*
X0409677Y0138590D01*
X0409542Y0138674D01*
X0409409Y0138760D01*
X0409279Y0138850D01*
X0409151Y0138943D01*
X0409025Y0139039D01*
X0408902Y0139139D01*
X0408781Y0139241D01*
X0408663Y0139346D01*
X0408548Y0139455D01*
X0408435Y0139566D01*
X0408325Y0139680D01*
X0408218Y0139797D01*
X0408114Y0139916D01*
X0408013Y0140038D01*
X0407916Y0140163D01*
X0407821Y0140290D01*
X0407730Y0140419D01*
X0407641Y0140550D01*
X0407557Y0140684D01*
X0407475Y0140820D01*
X0407397Y0140957D01*
X0407323Y0141097D01*
X0407252Y0141239D01*
X0407184Y0141382D01*
X0407120Y0141527D01*
X0407060Y0141673D01*
X0407004Y0141821D01*
X0406951Y0141970D01*
X0406902Y0142121D01*
X0406857Y0142273D01*
X0406816Y0142426D01*
X0406778Y0142579D01*
X0406745Y0142734D01*
X0406715Y0142890D01*
X0406689Y0143046D01*
X0406668Y0143203D01*
X0406650Y0143360D01*
X0406636Y0143518D01*
X0406626Y0143676D01*
X0406620Y0143834D01*
X0406618Y0143992D01*
X0406618Y0053441D02*
X0406620Y0053599D01*
X0406626Y0053757D01*
X0406636Y0053915D01*
X0406650Y0054073D01*
X0406668Y0054230D01*
X0406689Y0054387D01*
X0406715Y0054543D01*
X0406745Y0054699D01*
X0406778Y0054854D01*
X0406816Y0055007D01*
X0406857Y0055160D01*
X0406902Y0055312D01*
X0406951Y0055463D01*
X0407004Y0055612D01*
X0407060Y0055760D01*
X0407120Y0055906D01*
X0407184Y0056051D01*
X0407252Y0056194D01*
X0407323Y0056336D01*
X0407397Y0056476D01*
X0407475Y0056613D01*
X0407557Y0056749D01*
X0407641Y0056883D01*
X0407730Y0057014D01*
X0407821Y0057143D01*
X0407916Y0057270D01*
X0408013Y0057395D01*
X0408114Y0057517D01*
X0408218Y0057636D01*
X0408325Y0057753D01*
X0408435Y0057867D01*
X0408548Y0057978D01*
X0408663Y0058087D01*
X0408781Y0058192D01*
X0408902Y0058294D01*
X0409025Y0058394D01*
X0409151Y0058490D01*
X0409279Y0058583D01*
X0409409Y0058673D01*
X0409542Y0058759D01*
X0409677Y0058843D01*
X0409813Y0058922D01*
X0409952Y0058999D01*
X0410093Y0059071D01*
X0410235Y0059141D01*
X0410379Y0059206D01*
X0410525Y0059268D01*
X0410672Y0059326D01*
X0410821Y0059381D01*
X0410971Y0059432D01*
X0411122Y0059479D01*
X0411274Y0059522D01*
X0411427Y0059561D01*
X0411582Y0059597D01*
X0411737Y0059628D01*
X0411893Y0059656D01*
X0412049Y0059680D01*
X0412206Y0059700D01*
X0412364Y0059716D01*
X0412521Y0059728D01*
X0412680Y0059736D01*
X0412838Y0059740D01*
X0412996Y0059740D01*
X0413154Y0059736D01*
X0413313Y0059728D01*
X0413470Y0059716D01*
X0413628Y0059700D01*
X0413785Y0059680D01*
X0413941Y0059656D01*
X0414097Y0059628D01*
X0414252Y0059597D01*
X0414407Y0059561D01*
X0414560Y0059522D01*
X0414712Y0059479D01*
X0414863Y0059432D01*
X0415013Y0059381D01*
X0415162Y0059326D01*
X0415309Y0059268D01*
X0415455Y0059206D01*
X0415599Y0059141D01*
X0415741Y0059071D01*
X0415882Y0058999D01*
X0416021Y0058922D01*
X0416157Y0058843D01*
X0416292Y0058759D01*
X0416425Y0058673D01*
X0416555Y0058583D01*
X0416683Y0058490D01*
X0416809Y0058394D01*
X0416932Y0058294D01*
X0417053Y0058192D01*
X0417171Y0058087D01*
X0417286Y0057978D01*
X0417399Y0057867D01*
X0417509Y0057753D01*
X0417616Y0057636D01*
X0417720Y0057517D01*
X0417821Y0057395D01*
X0417918Y0057270D01*
X0418013Y0057143D01*
X0418104Y0057014D01*
X0418193Y0056883D01*
X0418277Y0056749D01*
X0418359Y0056613D01*
X0418437Y0056476D01*
X0418511Y0056336D01*
X0418582Y0056194D01*
X0418650Y0056051D01*
X0418714Y0055906D01*
X0418774Y0055760D01*
X0418830Y0055612D01*
X0418883Y0055463D01*
X0418932Y0055312D01*
X0418977Y0055160D01*
X0419018Y0055007D01*
X0419056Y0054854D01*
X0419089Y0054699D01*
X0419119Y0054543D01*
X0419145Y0054387D01*
X0419166Y0054230D01*
X0419184Y0054073D01*
X0419198Y0053915D01*
X0419208Y0053757D01*
X0419214Y0053599D01*
X0419216Y0053441D01*
X0419214Y0053283D01*
X0419208Y0053125D01*
X0419198Y0052967D01*
X0419184Y0052809D01*
X0419166Y0052652D01*
X0419145Y0052495D01*
X0419119Y0052339D01*
X0419089Y0052183D01*
X0419056Y0052028D01*
X0419018Y0051875D01*
X0418977Y0051722D01*
X0418932Y0051570D01*
X0418883Y0051419D01*
X0418830Y0051270D01*
X0418774Y0051122D01*
X0418714Y0050976D01*
X0418650Y0050831D01*
X0418582Y0050688D01*
X0418511Y0050546D01*
X0418437Y0050406D01*
X0418359Y0050269D01*
X0418277Y0050133D01*
X0418193Y0049999D01*
X0418104Y0049868D01*
X0418013Y0049739D01*
X0417918Y0049612D01*
X0417821Y0049487D01*
X0417720Y0049365D01*
X0417616Y0049246D01*
X0417509Y0049129D01*
X0417399Y0049015D01*
X0417286Y0048904D01*
X0417171Y0048795D01*
X0417053Y0048690D01*
X0416932Y0048588D01*
X0416809Y0048488D01*
X0416683Y0048392D01*
X0416555Y0048299D01*
X0416425Y0048209D01*
X0416292Y0048123D01*
X0416157Y0048039D01*
X0416021Y0047960D01*
X0415882Y0047883D01*
X0415741Y0047811D01*
X0415599Y0047741D01*
X0415455Y0047676D01*
X0415309Y0047614D01*
X0415162Y0047556D01*
X0415013Y0047501D01*
X0414863Y0047450D01*
X0414712Y0047403D01*
X0414560Y0047360D01*
X0414407Y0047321D01*
X0414252Y0047285D01*
X0414097Y0047254D01*
X0413941Y0047226D01*
X0413785Y0047202D01*
X0413628Y0047182D01*
X0413470Y0047166D01*
X0413313Y0047154D01*
X0413154Y0047146D01*
X0412996Y0047142D01*
X0412838Y0047142D01*
X0412680Y0047146D01*
X0412521Y0047154D01*
X0412364Y0047166D01*
X0412206Y0047182D01*
X0412049Y0047202D01*
X0411893Y0047226D01*
X0411737Y0047254D01*
X0411582Y0047285D01*
X0411427Y0047321D01*
X0411274Y0047360D01*
X0411122Y0047403D01*
X0410971Y0047450D01*
X0410821Y0047501D01*
X0410672Y0047556D01*
X0410525Y0047614D01*
X0410379Y0047676D01*
X0410235Y0047741D01*
X0410093Y0047811D01*
X0409952Y0047883D01*
X0409813Y0047960D01*
X0409677Y0048039D01*
X0409542Y0048123D01*
X0409409Y0048209D01*
X0409279Y0048299D01*
X0409151Y0048392D01*
X0409025Y0048488D01*
X0408902Y0048588D01*
X0408781Y0048690D01*
X0408663Y0048795D01*
X0408548Y0048904D01*
X0408435Y0049015D01*
X0408325Y0049129D01*
X0408218Y0049246D01*
X0408114Y0049365D01*
X0408013Y0049487D01*
X0407916Y0049612D01*
X0407821Y0049739D01*
X0407730Y0049868D01*
X0407641Y0049999D01*
X0407557Y0050133D01*
X0407475Y0050269D01*
X0407397Y0050406D01*
X0407323Y0050546D01*
X0407252Y0050688D01*
X0407184Y0050831D01*
X0407120Y0050976D01*
X0407060Y0051122D01*
X0407004Y0051270D01*
X0406951Y0051419D01*
X0406902Y0051570D01*
X0406857Y0051722D01*
X0406816Y0051875D01*
X0406778Y0052028D01*
X0406745Y0052183D01*
X0406715Y0052339D01*
X0406689Y0052495D01*
X0406668Y0052652D01*
X0406650Y0052809D01*
X0406636Y0052967D01*
X0406626Y0053125D01*
X0406620Y0053283D01*
X0406618Y0053441D01*
D11*
X0402408Y0073523D02*
X0399605Y0073523D01*
X0399605Y0074924D01*
X0400073Y0075391D01*
X0401007Y0075391D01*
X0401474Y0074924D01*
X0401474Y0073523D01*
X0401474Y0074457D02*
X0402408Y0075391D01*
X0402408Y0076469D02*
X0399605Y0076469D01*
X0399605Y0077871D01*
X0400073Y0078338D01*
X0401007Y0078338D01*
X0401474Y0077871D01*
X0401474Y0076469D01*
X0402408Y0079416D02*
X0402408Y0080350D01*
X0402408Y0079883D02*
X0399605Y0079883D01*
X0399605Y0079416D02*
X0399605Y0080350D01*
X0372706Y0103260D02*
X0372238Y0102793D01*
X0370370Y0102793D01*
X0369903Y0103260D01*
X0369903Y0104194D01*
X0370370Y0104661D01*
X0372238Y0104661D01*
X0372706Y0104194D01*
X0372706Y0103260D01*
X0371771Y0103727D02*
X0372706Y0104661D01*
X0372238Y0105739D02*
X0371771Y0105739D01*
X0371304Y0106206D01*
X0371304Y0107140D01*
X0371771Y0107607D01*
X0372238Y0107607D01*
X0372706Y0107140D01*
X0372706Y0106206D01*
X0372238Y0105739D01*
X0371304Y0106206D02*
X0370837Y0105739D01*
X0370370Y0105739D01*
X0369903Y0106206D01*
X0369903Y0107140D01*
X0370370Y0107607D01*
X0370837Y0107607D01*
X0371304Y0107140D01*
X0371296Y0110669D02*
X0371296Y0111603D01*
X0369895Y0110669D02*
X0369895Y0112537D01*
X0370362Y0113615D02*
X0369895Y0114082D01*
X0369895Y0115016D01*
X0370362Y0115483D01*
X0370829Y0115483D01*
X0372698Y0113615D01*
X0372698Y0115483D01*
X0372698Y0110669D02*
X0369895Y0110669D01*
X0359450Y0103396D02*
X0358983Y0103863D01*
X0357114Y0103863D01*
X0356647Y0103396D01*
X0356647Y0102462D01*
X0357114Y0101995D01*
X0357581Y0101995D01*
X0358048Y0102462D01*
X0358048Y0103863D01*
X0359450Y0103396D02*
X0359450Y0102462D01*
X0358983Y0101995D01*
X0359450Y0100916D02*
X0359450Y0099048D01*
X0359450Y0099982D02*
X0356647Y0099982D01*
X0357581Y0099048D01*
X0357114Y0097970D02*
X0358048Y0097970D01*
X0358515Y0097503D01*
X0358515Y0096102D01*
X0358515Y0097036D02*
X0359450Y0097970D01*
X0359450Y0096102D02*
X0356647Y0096102D01*
X0356647Y0097503D01*
X0357114Y0097970D01*
X0354272Y0097832D02*
X0353338Y0096898D01*
X0353338Y0097365D02*
X0353338Y0095964D01*
X0354272Y0095964D02*
X0351470Y0095964D01*
X0351470Y0097365D01*
X0351937Y0097832D01*
X0352871Y0097832D01*
X0353338Y0097365D01*
X0352404Y0098910D02*
X0351470Y0099844D01*
X0354272Y0099844D01*
X0354272Y0098910D02*
X0354272Y0100779D01*
X0353805Y0101857D02*
X0353338Y0101857D01*
X0352871Y0102324D01*
X0352871Y0103258D01*
X0353338Y0103725D01*
X0353805Y0103725D01*
X0354272Y0103258D01*
X0354272Y0102324D01*
X0353805Y0101857D01*
X0352871Y0102324D02*
X0352404Y0101857D01*
X0351937Y0101857D01*
X0351470Y0102324D01*
X0351470Y0103258D01*
X0351937Y0103725D01*
X0352404Y0103725D01*
X0352871Y0103258D01*
X0349312Y0101857D02*
X0348845Y0101857D01*
X0346976Y0103725D01*
X0346509Y0103725D01*
X0346509Y0101857D01*
X0345099Y0100857D02*
X0344632Y0100857D01*
X0342764Y0102726D01*
X0342297Y0102726D01*
X0342297Y0100857D01*
X0342764Y0099779D02*
X0342297Y0099312D01*
X0342297Y0098378D01*
X0342764Y0097911D01*
X0344632Y0097911D01*
X0345099Y0098378D01*
X0345099Y0099312D01*
X0344632Y0099779D01*
X0346509Y0099844D02*
X0349312Y0099844D01*
X0349312Y0098910D02*
X0349312Y0100779D01*
X0347444Y0098910D02*
X0346509Y0099844D01*
X0346976Y0097832D02*
X0347911Y0097832D01*
X0348378Y0097365D01*
X0348378Y0095964D01*
X0349312Y0095964D02*
X0346509Y0095964D01*
X0346509Y0097365D01*
X0346976Y0097832D01*
X0348378Y0096898D02*
X0349312Y0097832D01*
X0345099Y0096881D02*
X0345099Y0095946D01*
X0345099Y0096414D02*
X0342297Y0096414D01*
X0342297Y0096881D02*
X0342297Y0095946D01*
X0342173Y0093902D02*
X0341706Y0093435D01*
X0341706Y0092501D01*
X0342173Y0092034D01*
X0342173Y0093902D02*
X0342640Y0093902D01*
X0344509Y0092034D01*
X0344509Y0093902D01*
X0344509Y0090956D02*
X0344509Y0089087D01*
X0344509Y0090022D02*
X0341706Y0090022D01*
X0342640Y0089087D01*
X0342173Y0088009D02*
X0343107Y0088009D01*
X0343575Y0087542D01*
X0343575Y0086141D01*
X0344509Y0086141D02*
X0341706Y0086141D01*
X0341706Y0087542D01*
X0342173Y0088009D01*
X0343575Y0087075D02*
X0344509Y0088009D01*
X0326285Y0114476D02*
X0324417Y0114476D01*
X0325351Y0114476D02*
X0325351Y0117279D01*
X0324417Y0116345D01*
X0323338Y0117279D02*
X0323338Y0114943D01*
X0322871Y0114476D01*
X0321937Y0114476D01*
X0321470Y0114943D01*
X0321470Y0117279D01*
X0331957Y0136062D02*
X0333825Y0136062D01*
X0334292Y0136529D01*
X0334292Y0137463D01*
X0333825Y0137930D01*
X0333825Y0139009D02*
X0334292Y0139476D01*
X0334292Y0140410D01*
X0333825Y0140877D01*
X0333358Y0140877D01*
X0332891Y0140410D01*
X0332891Y0139943D01*
X0332891Y0140410D02*
X0332424Y0140877D01*
X0331957Y0140877D01*
X0331490Y0140410D01*
X0331490Y0139476D01*
X0331957Y0139009D01*
X0331957Y0137930D02*
X0331490Y0137463D01*
X0331490Y0136529D01*
X0331957Y0136062D01*
X0336332Y0136529D02*
X0336799Y0136062D01*
X0338668Y0136062D01*
X0339135Y0136529D01*
X0339135Y0137463D01*
X0338668Y0137930D01*
X0338668Y0139009D02*
X0339135Y0139476D01*
X0339135Y0140410D01*
X0338668Y0140877D01*
X0338201Y0140877D01*
X0337733Y0140410D01*
X0337733Y0139943D01*
X0337733Y0140410D02*
X0337266Y0140877D01*
X0336799Y0140877D01*
X0336332Y0140410D01*
X0336332Y0139476D01*
X0336799Y0139009D01*
X0336799Y0137930D02*
X0336332Y0137463D01*
X0336332Y0136529D01*
X0341417Y0136400D02*
X0344219Y0136400D01*
X0344219Y0135933D02*
X0344219Y0136867D01*
X0343752Y0137897D02*
X0344219Y0138364D01*
X0344219Y0139298D01*
X0343752Y0139765D01*
X0342818Y0140844D02*
X0342818Y0142712D01*
X0344219Y0142245D02*
X0341417Y0142245D01*
X0342818Y0140844D01*
X0341884Y0139765D02*
X0341417Y0139298D01*
X0341417Y0138364D01*
X0341884Y0137897D01*
X0343752Y0137897D01*
X0341417Y0136867D02*
X0341417Y0135933D01*
X0346332Y0136431D02*
X0346799Y0135964D01*
X0348668Y0135964D01*
X0349135Y0136431D01*
X0349135Y0137365D01*
X0348668Y0137832D01*
X0348668Y0138910D02*
X0349135Y0139377D01*
X0349135Y0140311D01*
X0348668Y0140779D01*
X0348201Y0140779D01*
X0347733Y0140311D01*
X0347733Y0139844D01*
X0347733Y0140311D02*
X0347266Y0140779D01*
X0346799Y0140779D01*
X0346332Y0140311D01*
X0346332Y0139377D01*
X0346799Y0138910D01*
X0346799Y0137832D02*
X0346332Y0137365D01*
X0346332Y0136431D01*
X0351628Y0136431D02*
X0352095Y0135964D01*
X0353963Y0135964D01*
X0354430Y0136431D01*
X0354430Y0137365D01*
X0353963Y0137832D01*
X0353963Y0138910D02*
X0354430Y0139377D01*
X0354430Y0140311D01*
X0353963Y0140779D01*
X0353496Y0140779D01*
X0353029Y0140311D01*
X0353029Y0139844D01*
X0353029Y0140311D02*
X0352562Y0140779D01*
X0352095Y0140779D01*
X0351628Y0140311D01*
X0351628Y0139377D01*
X0352095Y0138910D01*
X0352095Y0137832D02*
X0351628Y0137365D01*
X0351628Y0136431D01*
X0356647Y0136043D02*
X0359450Y0136043D01*
X0359450Y0137911D01*
X0358983Y0138989D02*
X0359450Y0139456D01*
X0359450Y0140390D01*
X0358983Y0140857D01*
X0358515Y0140857D01*
X0358048Y0140390D01*
X0358048Y0139923D01*
X0358048Y0140390D02*
X0357581Y0140857D01*
X0357114Y0140857D01*
X0356647Y0140390D01*
X0356647Y0139456D01*
X0357114Y0138989D01*
X0353963Y0141857D02*
X0354430Y0142324D01*
X0354430Y0143258D01*
X0353963Y0143725D01*
X0353496Y0143725D01*
X0353029Y0143258D01*
X0353029Y0141857D01*
X0353963Y0141857D01*
X0353029Y0141857D02*
X0352095Y0142791D01*
X0351628Y0143725D01*
X0349135Y0143258D02*
X0349135Y0142324D01*
X0348668Y0141857D01*
X0348201Y0141857D01*
X0347733Y0142324D01*
X0347733Y0143258D01*
X0348201Y0143725D01*
X0348668Y0143725D01*
X0349135Y0143258D01*
X0347733Y0143258D02*
X0347266Y0143725D01*
X0346799Y0143725D01*
X0346332Y0143258D01*
X0346332Y0142324D01*
X0346799Y0141857D01*
X0347266Y0141857D01*
X0347733Y0142324D01*
X0339135Y0142422D02*
X0339135Y0143356D01*
X0338668Y0143823D01*
X0336799Y0143823D01*
X0336332Y0143356D01*
X0336332Y0142422D01*
X0336799Y0141955D01*
X0337266Y0141955D01*
X0337733Y0142422D01*
X0337733Y0143823D01*
X0339135Y0142422D02*
X0338668Y0141955D01*
X0334292Y0141955D02*
X0333825Y0141955D01*
X0331957Y0143823D01*
X0331490Y0143823D01*
X0331490Y0141955D01*
X0299450Y0142521D02*
X0298983Y0142054D01*
X0298515Y0142054D01*
X0298048Y0142521D01*
X0298048Y0143455D01*
X0298515Y0143922D01*
X0298983Y0143922D01*
X0299450Y0143455D01*
X0299450Y0142521D01*
X0298048Y0142521D02*
X0297581Y0142054D01*
X0297114Y0142054D01*
X0296647Y0142521D01*
X0296647Y0143455D01*
X0297114Y0143922D01*
X0297581Y0143922D01*
X0298048Y0143455D01*
X0297581Y0140975D02*
X0297114Y0140975D01*
X0296647Y0140508D01*
X0296647Y0139574D01*
X0297114Y0139107D01*
X0297114Y0138029D02*
X0296647Y0137562D01*
X0296647Y0136628D01*
X0297114Y0136161D01*
X0298983Y0136161D01*
X0299450Y0136628D01*
X0299450Y0137562D01*
X0298983Y0138029D01*
X0299450Y0139107D02*
X0297581Y0140975D01*
X0299450Y0140975D02*
X0299450Y0139107D01*
X0294292Y0139206D02*
X0292424Y0141074D01*
X0291957Y0141074D01*
X0291490Y0140607D01*
X0291490Y0139673D01*
X0291957Y0139206D01*
X0291957Y0138127D02*
X0291490Y0137660D01*
X0291490Y0136726D01*
X0291957Y0136259D01*
X0293825Y0136259D01*
X0294292Y0136726D01*
X0294292Y0137660D01*
X0293825Y0138127D01*
X0294292Y0139206D02*
X0294292Y0141074D01*
X0293825Y0142152D02*
X0294292Y0142619D01*
X0294292Y0143553D01*
X0293825Y0144020D01*
X0293358Y0144020D01*
X0292891Y0143553D01*
X0292891Y0142152D01*
X0293825Y0142152D01*
X0292891Y0142152D02*
X0291957Y0143086D01*
X0291490Y0144020D01*
X0289837Y0141060D02*
X0289837Y0139192D01*
X0289837Y0140126D02*
X0287035Y0140126D01*
X0287969Y0139192D01*
X0287502Y0138114D02*
X0287035Y0138114D01*
X0287502Y0138114D02*
X0288436Y0137180D01*
X0289837Y0137180D01*
X0288436Y0137180D02*
X0287502Y0136246D01*
X0287035Y0136246D01*
X0284489Y0136765D02*
X0284489Y0137700D01*
X0284022Y0138167D01*
X0284489Y0139245D02*
X0282621Y0141113D01*
X0282154Y0141113D01*
X0281687Y0140646D01*
X0281687Y0139712D01*
X0282154Y0139245D01*
X0282154Y0138167D02*
X0281687Y0137700D01*
X0281687Y0136765D01*
X0282154Y0136298D01*
X0284022Y0136298D01*
X0284489Y0136765D01*
X0284489Y0139245D02*
X0284489Y0141113D01*
X0284489Y0142191D02*
X0284022Y0142191D01*
X0282154Y0144060D01*
X0281687Y0144060D01*
X0281687Y0142191D01*
X0279469Y0142718D02*
X0279002Y0142251D01*
X0277134Y0144119D01*
X0279002Y0144119D01*
X0279469Y0143652D01*
X0279469Y0142718D01*
X0279002Y0142251D02*
X0277134Y0142251D01*
X0276667Y0142718D01*
X0276667Y0143652D01*
X0277134Y0144119D01*
X0277134Y0141172D02*
X0276667Y0140705D01*
X0276667Y0139771D01*
X0277134Y0139304D01*
X0277134Y0138226D02*
X0278068Y0138226D01*
X0278535Y0137759D01*
X0278535Y0136357D01*
X0279469Y0136357D02*
X0276667Y0136357D01*
X0276667Y0137759D01*
X0277134Y0138226D01*
X0278535Y0137292D02*
X0279469Y0138226D01*
X0279469Y0139304D02*
X0277601Y0141172D01*
X0277134Y0141172D01*
X0279469Y0141172D02*
X0279469Y0139304D01*
X0274194Y0139265D02*
X0274194Y0141133D01*
X0274194Y0142211D02*
X0271391Y0142211D01*
X0271391Y0143612D01*
X0271858Y0144079D01*
X0273727Y0144079D01*
X0274194Y0143612D01*
X0274194Y0142211D01*
X0272793Y0140199D02*
X0272793Y0139265D01*
X0274194Y0139265D02*
X0271391Y0139265D01*
X0271391Y0141133D01*
X0274194Y0138186D02*
X0274194Y0136318D01*
X0271391Y0136318D01*
X0272325Y0145158D02*
X0271391Y0146092D01*
X0274194Y0146092D01*
X0274194Y0145158D02*
X0274194Y0147026D01*
X0263150Y0130562D02*
X0263150Y0128694D01*
X0263150Y0129628D02*
X0260348Y0129628D01*
X0261282Y0128694D01*
X0263150Y0127616D02*
X0263150Y0125747D01*
X0260348Y0125747D01*
X0258052Y0126155D02*
X0258052Y0127089D01*
X0257585Y0127556D01*
X0257585Y0128635D02*
X0258052Y0129102D01*
X0258052Y0130036D01*
X0257585Y0130503D01*
X0257118Y0130503D01*
X0256651Y0130036D01*
X0256651Y0129569D01*
X0256651Y0130036D02*
X0256184Y0130503D01*
X0255717Y0130503D01*
X0255250Y0130036D01*
X0255250Y0129102D01*
X0255717Y0128635D01*
X0255717Y0127556D02*
X0255250Y0127089D01*
X0255250Y0126155D01*
X0255717Y0125688D01*
X0257585Y0125688D01*
X0258052Y0126155D01*
X0253131Y0126155D02*
X0252664Y0125688D01*
X0250795Y0125688D01*
X0250328Y0126155D01*
X0250328Y0127089D01*
X0250795Y0127556D01*
X0250795Y0128635D02*
X0250328Y0129102D01*
X0250328Y0130036D01*
X0250795Y0130503D01*
X0251262Y0130503D01*
X0251730Y0130036D01*
X0252197Y0130503D01*
X0252664Y0130503D01*
X0253131Y0130036D01*
X0253131Y0129102D01*
X0252664Y0128635D01*
X0252664Y0127556D02*
X0253131Y0127089D01*
X0253131Y0126155D01*
X0251730Y0129569D02*
X0251730Y0130036D01*
X0251730Y0131581D02*
X0250328Y0131581D01*
X0250328Y0133449D01*
X0251262Y0132982D02*
X0251730Y0133449D01*
X0252664Y0133449D01*
X0253131Y0132982D01*
X0253131Y0132048D01*
X0252664Y0131581D01*
X0251730Y0131581D02*
X0251262Y0132515D01*
X0251262Y0132982D01*
X0255250Y0132982D02*
X0256651Y0131581D01*
X0256651Y0133449D01*
X0258052Y0132982D02*
X0255250Y0132982D01*
X0234489Y0132608D02*
X0234489Y0131674D01*
X0234022Y0131207D01*
X0232154Y0133075D01*
X0234022Y0133075D01*
X0234489Y0132608D01*
X0234022Y0131207D02*
X0232154Y0131207D01*
X0231687Y0131674D01*
X0231687Y0132608D01*
X0232154Y0133075D01*
X0232154Y0130129D02*
X0232621Y0130129D01*
X0233088Y0129662D01*
X0233555Y0130129D01*
X0234022Y0130129D01*
X0234489Y0129662D01*
X0234489Y0128728D01*
X0234022Y0128261D01*
X0234022Y0127182D02*
X0234489Y0126715D01*
X0234489Y0125781D01*
X0234022Y0125314D01*
X0232154Y0125314D01*
X0231687Y0125781D01*
X0231687Y0126715D01*
X0232154Y0127182D01*
X0232154Y0128261D02*
X0231687Y0128728D01*
X0231687Y0129662D01*
X0232154Y0130129D01*
X0233088Y0129662D02*
X0233088Y0129195D01*
X0229076Y0128300D02*
X0227207Y0130168D01*
X0226740Y0130168D01*
X0226273Y0129701D01*
X0226273Y0128767D01*
X0226740Y0128300D01*
X0229076Y0128300D02*
X0229076Y0130168D01*
X0229076Y0127222D02*
X0229076Y0125354D01*
X0226273Y0125354D01*
X0223682Y0125860D02*
X0223682Y0126794D01*
X0223215Y0127261D01*
X0223215Y0128339D02*
X0223682Y0128806D01*
X0223682Y0129741D01*
X0223215Y0130208D01*
X0222748Y0130208D01*
X0222281Y0129741D01*
X0222281Y0129274D01*
X0222281Y0129741D02*
X0221814Y0130208D01*
X0221347Y0130208D01*
X0220880Y0129741D01*
X0220880Y0128806D01*
X0221347Y0128339D01*
X0221347Y0127261D02*
X0220880Y0126794D01*
X0220880Y0125860D01*
X0221347Y0125393D01*
X0223215Y0125393D01*
X0223682Y0125860D01*
X0218426Y0125860D02*
X0218426Y0126794D01*
X0217959Y0127261D01*
X0217959Y0128339D02*
X0218426Y0128806D01*
X0218426Y0129741D01*
X0217959Y0130208D01*
X0217492Y0130208D01*
X0217025Y0129741D01*
X0217025Y0129274D01*
X0217025Y0129741D02*
X0216558Y0130208D01*
X0216091Y0130208D01*
X0215624Y0129741D01*
X0215624Y0128806D01*
X0216091Y0128339D01*
X0216091Y0127261D02*
X0215624Y0126794D01*
X0215624Y0125860D01*
X0216091Y0125393D01*
X0217959Y0125393D01*
X0218426Y0125860D01*
X0218426Y0131286D02*
X0218426Y0133154D01*
X0218426Y0132220D02*
X0215624Y0132220D01*
X0216558Y0131286D01*
X0220880Y0131753D02*
X0221347Y0131286D01*
X0220880Y0131753D02*
X0220880Y0132687D01*
X0221347Y0133154D01*
X0221814Y0133154D01*
X0223682Y0131286D01*
X0223682Y0133154D01*
X0218870Y0105271D02*
X0219337Y0104804D01*
X0219337Y0103870D01*
X0218870Y0103403D01*
X0218870Y0102324D02*
X0219337Y0101857D01*
X0219337Y0100923D01*
X0218870Y0100456D01*
X0217002Y0100456D01*
X0216535Y0100923D01*
X0216535Y0101857D01*
X0217002Y0102324D01*
X0217002Y0103403D02*
X0216535Y0103870D01*
X0216535Y0104804D01*
X0217002Y0105271D01*
X0217469Y0105271D01*
X0217936Y0104804D01*
X0218403Y0105271D01*
X0218870Y0105271D01*
X0217936Y0104804D02*
X0217936Y0104337D01*
X0219337Y0099426D02*
X0219337Y0098492D01*
X0219337Y0098959D02*
X0216535Y0098959D01*
X0216535Y0098492D02*
X0216535Y0099426D01*
X0229167Y0098171D02*
X0231969Y0098171D01*
X0231969Y0097237D02*
X0231969Y0099105D01*
X0231502Y0100184D02*
X0231969Y0100651D01*
X0231969Y0101585D01*
X0231502Y0102052D01*
X0231035Y0102052D01*
X0230568Y0101585D01*
X0230568Y0100184D01*
X0231502Y0100184D01*
X0230568Y0100184D02*
X0229634Y0101118D01*
X0229167Y0102052D01*
X0229167Y0098171D02*
X0230101Y0097237D01*
X0229634Y0096159D02*
X0230568Y0096159D01*
X0231035Y0095692D01*
X0231035Y0094291D01*
X0231035Y0095225D02*
X0231969Y0096159D01*
X0231969Y0094291D02*
X0229167Y0094291D01*
X0229167Y0095692D01*
X0229634Y0096159D01*
X0234172Y0096691D02*
X0234639Y0096224D01*
X0236508Y0096224D01*
X0236975Y0096691D01*
X0236975Y0097625D01*
X0236508Y0098092D01*
X0236975Y0099170D02*
X0235107Y0101039D01*
X0234639Y0101039D01*
X0234172Y0100572D01*
X0234172Y0099637D01*
X0234639Y0099170D01*
X0234639Y0098092D02*
X0234172Y0097625D01*
X0234172Y0096691D01*
X0234172Y0095194D02*
X0234172Y0094259D01*
X0234172Y0094727D02*
X0236975Y0094727D01*
X0236975Y0095194D02*
X0236975Y0094259D01*
X0236975Y0099170D02*
X0236975Y0101039D01*
X0271017Y0101379D02*
X0271017Y0102313D01*
X0271484Y0102780D01*
X0271951Y0102780D01*
X0272418Y0102313D01*
X0272886Y0102780D01*
X0273353Y0102780D01*
X0273820Y0102313D01*
X0273820Y0101379D01*
X0273353Y0100912D01*
X0273820Y0099834D02*
X0273820Y0097965D01*
X0273820Y0098900D02*
X0271017Y0098900D01*
X0271951Y0097965D01*
X0271484Y0096887D02*
X0272418Y0096887D01*
X0272886Y0096420D01*
X0272886Y0095019D01*
X0273820Y0095019D02*
X0271017Y0095019D01*
X0271017Y0096420D01*
X0271484Y0096887D01*
X0272886Y0095953D02*
X0273820Y0096887D01*
X0271484Y0100912D02*
X0271017Y0101379D01*
X0272418Y0101846D02*
X0272418Y0102313D01*
X0272320Y0092229D02*
X0272320Y0090361D01*
X0270919Y0091762D01*
X0273721Y0091762D01*
X0273721Y0089282D02*
X0273721Y0087414D01*
X0273721Y0088348D02*
X0270919Y0088348D01*
X0271853Y0087414D01*
X0271386Y0086336D02*
X0272320Y0086336D01*
X0272787Y0085869D01*
X0272787Y0084468D01*
X0272787Y0085402D02*
X0273721Y0086336D01*
X0273721Y0084468D02*
X0270919Y0084468D01*
X0270919Y0085869D01*
X0271386Y0086336D01*
X0271347Y0081737D02*
X0270880Y0081270D01*
X0270880Y0080336D01*
X0271347Y0079869D01*
X0271814Y0079869D01*
X0272281Y0080336D01*
X0272281Y0081737D01*
X0273215Y0081737D02*
X0271347Y0081737D01*
X0273215Y0081737D02*
X0273682Y0081270D01*
X0273682Y0080336D01*
X0273215Y0079869D01*
X0273682Y0078790D02*
X0273682Y0076922D01*
X0271814Y0078790D01*
X0271347Y0078790D01*
X0270880Y0078323D01*
X0270880Y0077389D01*
X0271347Y0076922D01*
X0271347Y0075844D02*
X0270880Y0075377D01*
X0270880Y0074443D01*
X0271347Y0073976D01*
X0273215Y0073976D01*
X0273682Y0074443D01*
X0273682Y0075377D01*
X0273215Y0075844D01*
X0251195Y0063013D02*
X0251195Y0060210D01*
X0249326Y0063013D01*
X0249326Y0060210D01*
X0248296Y0060210D02*
X0247362Y0060210D01*
X0247829Y0060210D02*
X0247829Y0063013D01*
X0247362Y0063013D02*
X0248296Y0063013D01*
X0243337Y0062546D02*
X0242870Y0063013D01*
X0241936Y0063013D01*
X0241469Y0062546D01*
X0241469Y0062078D01*
X0241936Y0061611D01*
X0242870Y0061611D01*
X0243337Y0061144D01*
X0243337Y0060677D01*
X0242870Y0060210D01*
X0241936Y0060210D01*
X0241469Y0060677D01*
X0240391Y0061611D02*
X0239924Y0061144D01*
X0238522Y0061144D01*
X0238522Y0060210D02*
X0238522Y0063013D01*
X0239924Y0063013D01*
X0240391Y0062546D01*
X0240391Y0061611D01*
X0237444Y0061611D02*
X0236977Y0061144D01*
X0235576Y0061144D01*
X0235576Y0060210D02*
X0235576Y0063013D01*
X0236977Y0063013D01*
X0237444Y0062546D01*
X0237444Y0061611D01*
X0212307Y0060210D02*
X0212307Y0063013D01*
X0210439Y0063013D02*
X0212307Y0060210D01*
X0210439Y0060210D02*
X0210439Y0063013D01*
X0209409Y0063013D02*
X0208475Y0063013D01*
X0208942Y0063013D02*
X0208942Y0060210D01*
X0208475Y0060210D02*
X0209409Y0060210D01*
X0204450Y0060210D02*
X0202582Y0060210D01*
X0204450Y0062078D01*
X0202582Y0062078D01*
X0201503Y0061611D02*
X0199635Y0061611D01*
X0199635Y0060210D02*
X0199635Y0063013D01*
X0198557Y0063013D02*
X0198557Y0060210D01*
X0196689Y0060210D02*
X0196689Y0063013D01*
X0197623Y0062078D01*
X0198557Y0063013D01*
X0201503Y0063013D02*
X0201503Y0060210D01*
X0192664Y0060677D02*
X0192197Y0060210D01*
X0191263Y0060210D01*
X0190796Y0060677D01*
X0192664Y0062546D01*
X0192664Y0060677D01*
X0190796Y0060677D02*
X0190796Y0062546D01*
X0191263Y0063013D01*
X0192197Y0063013D01*
X0192664Y0062546D01*
X0189717Y0060210D02*
X0187849Y0060210D01*
X0188783Y0060210D02*
X0188783Y0063013D01*
X0187849Y0062078D01*
X0182875Y0062188D02*
X0182408Y0062655D01*
X0182875Y0062188D02*
X0182875Y0061254D01*
X0182408Y0060787D01*
X0180539Y0060787D01*
X0180072Y0061254D01*
X0180072Y0062188D01*
X0180539Y0062655D01*
X0181474Y0063733D02*
X0181474Y0065601D01*
X0182408Y0066680D02*
X0180539Y0066680D01*
X0180072Y0067147D01*
X0180072Y0068081D01*
X0180539Y0068548D01*
X0182408Y0066680D01*
X0182875Y0067147D01*
X0182875Y0068081D01*
X0182408Y0068548D01*
X0180539Y0068548D01*
X0180269Y0070669D02*
X0180269Y0072070D01*
X0180736Y0072537D01*
X0181670Y0072537D01*
X0182138Y0072070D01*
X0182138Y0070669D01*
X0182138Y0071603D02*
X0183072Y0072537D01*
X0183072Y0073615D02*
X0183072Y0075483D01*
X0183072Y0074549D02*
X0180269Y0074549D01*
X0181203Y0073615D01*
X0178328Y0073674D02*
X0176459Y0075542D01*
X0175992Y0075542D01*
X0175525Y0075075D01*
X0175525Y0074141D01*
X0175992Y0073674D01*
X0175992Y0072596D02*
X0176926Y0072596D01*
X0177393Y0072129D01*
X0177393Y0070728D01*
X0177393Y0071662D02*
X0178328Y0072596D01*
X0178328Y0073674D02*
X0178328Y0075542D01*
X0176926Y0076621D02*
X0176926Y0078489D01*
X0175525Y0078022D02*
X0176926Y0076621D01*
X0175525Y0078022D02*
X0178328Y0078022D01*
X0180269Y0078430D02*
X0180269Y0076562D01*
X0181670Y0076562D01*
X0181203Y0077496D01*
X0181203Y0077963D01*
X0181670Y0078430D01*
X0182605Y0078430D01*
X0183072Y0077963D01*
X0183072Y0077029D01*
X0182605Y0076562D01*
X0183072Y0070669D02*
X0180269Y0070669D01*
X0178328Y0070728D02*
X0175525Y0070728D01*
X0175525Y0072129D01*
X0175992Y0072596D01*
X0173406Y0072129D02*
X0172939Y0072596D01*
X0173406Y0072129D02*
X0173406Y0071195D01*
X0172939Y0070728D01*
X0171071Y0070728D01*
X0170604Y0071195D01*
X0170604Y0072129D01*
X0171071Y0072596D01*
X0172005Y0073674D02*
X0172005Y0075542D01*
X0171071Y0076621D02*
X0170604Y0077088D01*
X0170604Y0078022D01*
X0171071Y0078489D01*
X0171538Y0078489D01*
X0172005Y0078022D01*
X0172472Y0078489D01*
X0172939Y0078489D01*
X0173406Y0078022D01*
X0173406Y0077088D01*
X0172939Y0076621D01*
X0172005Y0077555D02*
X0172005Y0078022D01*
X0170604Y0075075D02*
X0172005Y0073674D01*
X0173406Y0075075D02*
X0170604Y0075075D01*
X0175894Y0068548D02*
X0176361Y0068548D01*
X0176828Y0068081D01*
X0177295Y0068548D01*
X0177762Y0068548D01*
X0178229Y0068081D01*
X0178229Y0067147D01*
X0177762Y0066680D01*
X0178229Y0065601D02*
X0178229Y0063733D01*
X0176361Y0065601D01*
X0175894Y0065601D01*
X0175427Y0065134D01*
X0175427Y0064200D01*
X0175894Y0063733D01*
X0175894Y0062655D02*
X0176828Y0062655D01*
X0177295Y0062188D01*
X0177295Y0060787D01*
X0177295Y0061721D02*
X0178229Y0062655D01*
X0178229Y0060787D02*
X0175427Y0060787D01*
X0175427Y0062188D01*
X0175894Y0062655D01*
X0175894Y0066680D02*
X0175427Y0067147D01*
X0175427Y0068081D01*
X0175894Y0068548D01*
X0176828Y0068081D02*
X0176828Y0067614D01*
X0180072Y0065134D02*
X0181474Y0063733D01*
X0182875Y0065134D02*
X0180072Y0065134D01*
X0137709Y0088537D02*
X0137709Y0090405D01*
X0137242Y0090872D01*
X0136308Y0090872D01*
X0135841Y0090405D01*
X0135841Y0089938D01*
X0136308Y0089471D01*
X0137709Y0089471D01*
X0137709Y0088537D02*
X0137242Y0088070D01*
X0136308Y0088070D01*
X0135841Y0088537D01*
X0134763Y0088070D02*
X0132895Y0088070D01*
X0133829Y0088070D02*
X0133829Y0090872D01*
X0132895Y0089938D01*
X0131816Y0090405D02*
X0131349Y0090872D01*
X0130415Y0090872D01*
X0129948Y0090405D01*
X0129948Y0088537D01*
X0130415Y0088070D01*
X0131349Y0088070D01*
X0131816Y0088537D01*
X0127689Y0088654D02*
X0127689Y0089588D01*
X0127222Y0090055D01*
X0127689Y0091134D02*
X0127689Y0093002D01*
X0127689Y0092068D02*
X0124887Y0092068D01*
X0125821Y0091134D01*
X0125354Y0090055D02*
X0124887Y0089588D01*
X0124887Y0088654D01*
X0125354Y0088187D01*
X0127222Y0088187D01*
X0127689Y0088654D01*
X0129869Y0093228D02*
X0129869Y0096030D01*
X0131270Y0096030D01*
X0131738Y0095563D01*
X0131738Y0094629D01*
X0131270Y0094162D01*
X0129869Y0094162D01*
X0130803Y0094162D02*
X0131738Y0093228D01*
X0132816Y0094629D02*
X0134684Y0094629D01*
X0134217Y0096030D02*
X0132816Y0094629D01*
X0134217Y0093228D02*
X0134217Y0096030D01*
X0127689Y0095481D02*
X0127689Y0094547D01*
X0127222Y0094080D01*
X0125354Y0095949D01*
X0127222Y0095949D01*
X0127689Y0095481D01*
X0127222Y0094080D02*
X0125354Y0094080D01*
X0124887Y0094547D01*
X0124887Y0095481D01*
X0125354Y0095949D01*
X0122807Y0095521D02*
X0122340Y0095988D01*
X0120472Y0095988D01*
X0120005Y0095521D01*
X0120005Y0094587D01*
X0120472Y0094120D01*
X0120939Y0094120D01*
X0121406Y0094587D01*
X0121406Y0095988D01*
X0122807Y0095521D02*
X0122807Y0094587D01*
X0122340Y0094120D01*
X0122340Y0093041D02*
X0122807Y0092574D01*
X0122807Y0091640D01*
X0122340Y0091173D01*
X0120472Y0091173D01*
X0120005Y0091640D01*
X0120005Y0092574D01*
X0120472Y0093041D01*
X0087247Y0121076D02*
X0085379Y0121076D01*
X0086313Y0121076D02*
X0086313Y0123879D01*
X0085379Y0122945D01*
X0084301Y0123412D02*
X0083834Y0123879D01*
X0082900Y0123879D01*
X0082433Y0123412D01*
X0082433Y0121543D01*
X0082900Y0121076D01*
X0083834Y0121076D01*
X0084301Y0121543D01*
X0081402Y0121076D02*
X0080468Y0121076D01*
X0080935Y0121076D02*
X0080935Y0123879D01*
X0080468Y0123879D02*
X0081402Y0123879D01*
X0099935Y0136352D02*
X0100402Y0135885D01*
X0102270Y0135885D01*
X0102737Y0136352D01*
X0102737Y0137286D01*
X0102270Y0137753D01*
X0102737Y0138832D02*
X0102737Y0140700D01*
X0102737Y0139766D02*
X0099935Y0139766D01*
X0100869Y0138832D01*
X0100402Y0137753D02*
X0099935Y0137286D01*
X0099935Y0136352D01*
X0104954Y0136352D02*
X0105421Y0135885D01*
X0107290Y0135885D01*
X0107757Y0136352D01*
X0107757Y0137286D01*
X0107290Y0137753D01*
X0107757Y0138832D02*
X0105888Y0140700D01*
X0105421Y0140700D01*
X0104954Y0140233D01*
X0104954Y0139299D01*
X0105421Y0138832D01*
X0105421Y0137753D02*
X0104954Y0137286D01*
X0104954Y0136352D01*
X0107757Y0138832D02*
X0107757Y0140700D01*
X0109639Y0139766D02*
X0112442Y0139766D01*
X0112442Y0138832D02*
X0112442Y0140700D01*
X0112442Y0141778D02*
X0112442Y0143646D01*
X0112442Y0142712D02*
X0109639Y0142712D01*
X0110573Y0141778D01*
X0109639Y0139766D02*
X0110573Y0138832D01*
X0110106Y0137753D02*
X0109639Y0137286D01*
X0109639Y0136352D01*
X0110106Y0135885D01*
X0111975Y0135885D01*
X0112442Y0136352D01*
X0112442Y0137286D01*
X0111975Y0137753D01*
X0114620Y0137286D02*
X0114620Y0136352D01*
X0115087Y0135885D01*
X0116955Y0135885D01*
X0117422Y0136352D01*
X0117422Y0137286D01*
X0116955Y0137753D01*
X0117422Y0138832D02*
X0117422Y0140700D01*
X0117422Y0139766D02*
X0114620Y0139766D01*
X0115554Y0138832D01*
X0115087Y0137753D02*
X0114620Y0137286D01*
X0115087Y0141778D02*
X0114620Y0142245D01*
X0114620Y0143179D01*
X0115087Y0143646D01*
X0115554Y0143646D01*
X0117422Y0141778D01*
X0117422Y0143646D01*
X0134200Y0142984D02*
X0134200Y0141116D01*
X0134667Y0140649D01*
X0135601Y0140649D01*
X0136068Y0141116D01*
X0137147Y0140649D02*
X0139015Y0142517D01*
X0139015Y0142984D01*
X0138548Y0143451D01*
X0137614Y0143451D01*
X0137147Y0142984D01*
X0136068Y0142984D02*
X0135601Y0143451D01*
X0134667Y0143451D01*
X0134200Y0142984D01*
X0137147Y0140649D02*
X0139015Y0140649D01*
X0140093Y0141116D02*
X0141961Y0142984D01*
X0141961Y0141116D01*
X0141494Y0140649D01*
X0140560Y0140649D01*
X0140093Y0141116D01*
X0140093Y0142984D01*
X0140560Y0143451D01*
X0141494Y0143451D01*
X0141961Y0142984D01*
X0139212Y0138254D02*
X0137343Y0138254D01*
X0137343Y0136853D01*
X0138277Y0137320D01*
X0138745Y0137320D01*
X0139212Y0136853D01*
X0139212Y0135919D01*
X0138745Y0135452D01*
X0137810Y0135452D01*
X0137343Y0135919D01*
X0136265Y0135452D02*
X0135331Y0136386D01*
X0135798Y0136386D02*
X0134397Y0136386D01*
X0134397Y0135452D02*
X0134397Y0138254D01*
X0135798Y0138254D01*
X0136265Y0137787D01*
X0136265Y0136853D01*
X0135798Y0136386D01*
X0135995Y0133215D02*
X0135061Y0133215D01*
X0134594Y0132748D01*
X0134594Y0130880D01*
X0135061Y0130413D01*
X0135995Y0130413D01*
X0136462Y0130880D01*
X0137540Y0130413D02*
X0139408Y0130413D01*
X0138474Y0130413D02*
X0138474Y0133215D01*
X0137540Y0132281D01*
X0136462Y0132748D02*
X0135995Y0133215D01*
X0140487Y0132748D02*
X0140487Y0132281D01*
X0140954Y0131814D01*
X0141888Y0131814D01*
X0142355Y0131347D01*
X0142355Y0130880D01*
X0141888Y0130413D01*
X0140954Y0130413D01*
X0140487Y0130880D01*
X0140487Y0131347D01*
X0140954Y0131814D01*
X0141888Y0131814D02*
X0142355Y0132281D01*
X0142355Y0132748D01*
X0141888Y0133215D01*
X0140954Y0133215D01*
X0140487Y0132748D01*
X0140782Y0127802D02*
X0142650Y0127802D01*
X0142650Y0127335D01*
X0140782Y0125466D01*
X0140782Y0124999D01*
X0139704Y0124999D02*
X0137835Y0124999D01*
X0138770Y0124999D02*
X0138770Y0127802D01*
X0137835Y0126867D01*
X0136757Y0127335D02*
X0136290Y0127802D01*
X0135356Y0127802D01*
X0134889Y0127335D01*
X0134889Y0125466D01*
X0135356Y0124999D01*
X0136290Y0124999D01*
X0136757Y0125466D01*
X0145784Y0124994D02*
X0145784Y0127796D01*
X0147652Y0127796D01*
X0148731Y0127796D02*
X0148731Y0124994D01*
X0150599Y0124994D01*
X0151677Y0124994D02*
X0153545Y0124994D01*
X0152611Y0124994D02*
X0152611Y0127796D01*
X0151677Y0126862D01*
X0155991Y0127354D02*
X0155991Y0125486D01*
X0156458Y0125019D01*
X0157393Y0125019D01*
X0157860Y0125486D01*
X0158938Y0125019D02*
X0160806Y0126887D01*
X0160806Y0127354D01*
X0160339Y0127821D01*
X0159405Y0127821D01*
X0158938Y0127354D01*
X0157860Y0127354D02*
X0157393Y0127821D01*
X0156458Y0127821D01*
X0155991Y0127354D01*
X0158938Y0125019D02*
X0160806Y0125019D01*
X0161884Y0125019D02*
X0163753Y0125019D01*
X0162819Y0125019D02*
X0162819Y0127821D01*
X0161884Y0126887D01*
X0174895Y0126436D02*
X0174895Y0127837D01*
X0175362Y0128304D01*
X0176296Y0128304D01*
X0176764Y0127837D01*
X0176764Y0126436D01*
X0177698Y0126436D02*
X0174895Y0126436D01*
X0176764Y0127370D02*
X0177698Y0128304D01*
X0177231Y0129383D02*
X0177698Y0129850D01*
X0177698Y0130784D01*
X0177231Y0131251D01*
X0176764Y0131251D01*
X0176296Y0130784D01*
X0176296Y0130317D01*
X0176296Y0130784D02*
X0175829Y0131251D01*
X0175362Y0131251D01*
X0174895Y0130784D01*
X0174895Y0129850D01*
X0175362Y0129383D01*
X0175303Y0133680D02*
X0177172Y0133680D01*
X0177639Y0134147D01*
X0177639Y0135082D01*
X0177172Y0135549D01*
X0177172Y0136627D02*
X0177639Y0137094D01*
X0177639Y0138028D01*
X0177172Y0138495D01*
X0176704Y0138495D01*
X0176237Y0138028D01*
X0176237Y0137561D01*
X0176237Y0138028D02*
X0175770Y0138495D01*
X0175303Y0138495D01*
X0174836Y0138028D01*
X0174836Y0137094D01*
X0175303Y0136627D01*
X0175303Y0135549D02*
X0174836Y0135082D01*
X0174836Y0134147D01*
X0175303Y0133680D01*
X0180547Y0134568D02*
X0181481Y0134568D01*
X0181014Y0134568D02*
X0181014Y0131765D01*
X0180547Y0131765D02*
X0181481Y0131765D01*
X0182511Y0132232D02*
X0182511Y0134101D01*
X0182978Y0134568D01*
X0183912Y0134568D01*
X0184380Y0134101D01*
X0185458Y0134568D02*
X0185458Y0133167D01*
X0186392Y0133634D01*
X0186859Y0133634D01*
X0187326Y0133167D01*
X0187326Y0132232D01*
X0186859Y0131765D01*
X0185925Y0131765D01*
X0185458Y0132232D01*
X0184380Y0132232D02*
X0183912Y0131765D01*
X0182978Y0131765D01*
X0182511Y0132232D01*
X0183175Y0128997D02*
X0182708Y0128530D01*
X0182708Y0126662D01*
X0183175Y0126194D01*
X0184109Y0126194D01*
X0184576Y0126662D01*
X0185655Y0126662D02*
X0186122Y0126194D01*
X0187056Y0126194D01*
X0187523Y0126662D01*
X0187523Y0127129D01*
X0187056Y0127596D01*
X0185655Y0127596D01*
X0185655Y0126662D01*
X0185655Y0127596D02*
X0186589Y0128530D01*
X0187523Y0128997D01*
X0184576Y0128530D02*
X0184109Y0128997D01*
X0183175Y0128997D01*
X0181678Y0128997D02*
X0180744Y0128997D01*
X0181211Y0128997D02*
X0181211Y0126194D01*
X0180744Y0126194D02*
X0181678Y0126194D01*
X0185458Y0134568D02*
X0187326Y0134568D01*
X0177639Y0140040D02*
X0177172Y0139573D01*
X0177639Y0140040D02*
X0177639Y0140975D01*
X0177172Y0141442D01*
X0176704Y0141442D01*
X0176237Y0140975D01*
X0176237Y0140507D01*
X0176237Y0140975D02*
X0175770Y0141442D01*
X0175303Y0141442D01*
X0174836Y0140975D01*
X0174836Y0140040D01*
X0175303Y0139573D01*
X0146718Y0126395D02*
X0145784Y0126395D01*
X0117717Y0060207D02*
X0114915Y0060207D01*
X0116316Y0058806D01*
X0116316Y0060674D01*
X0115849Y0057727D02*
X0115382Y0057727D01*
X0114915Y0057260D01*
X0114915Y0056326D01*
X0115382Y0055859D01*
X0115382Y0054781D02*
X0114915Y0054314D01*
X0114915Y0053380D01*
X0115382Y0052913D01*
X0117250Y0052913D01*
X0117717Y0053380D01*
X0117717Y0054314D01*
X0117250Y0054781D01*
X0117717Y0055859D02*
X0115849Y0057727D01*
X0117717Y0057727D02*
X0117717Y0055859D01*
X0112619Y0056228D02*
X0112152Y0055761D01*
X0111685Y0055761D01*
X0111218Y0056228D01*
X0111218Y0057162D01*
X0111685Y0057629D01*
X0112152Y0057629D01*
X0112619Y0057162D01*
X0112619Y0056228D01*
X0111218Y0056228D02*
X0110751Y0055761D01*
X0110284Y0055761D01*
X0109817Y0056228D01*
X0109817Y0057162D01*
X0110284Y0057629D01*
X0110751Y0057629D01*
X0111218Y0057162D01*
X0112152Y0054682D02*
X0112619Y0054215D01*
X0112619Y0053281D01*
X0112152Y0052814D01*
X0110284Y0052814D01*
X0109817Y0053281D01*
X0109817Y0054215D01*
X0110284Y0054682D01*
X0107560Y0054215D02*
X0107093Y0054682D01*
X0107560Y0054215D02*
X0107560Y0053281D01*
X0107093Y0052814D01*
X0105225Y0052814D01*
X0104757Y0053281D01*
X0104757Y0054215D01*
X0105225Y0054682D01*
X0104757Y0055761D02*
X0104757Y0057629D01*
X0105225Y0057629D01*
X0107093Y0055761D01*
X0107560Y0055761D01*
X0102761Y0055065D02*
X0102294Y0055532D01*
X0101360Y0055532D01*
X0100893Y0055065D01*
X0099815Y0055065D02*
X0099815Y0054131D01*
X0099348Y0053664D01*
X0097946Y0053664D01*
X0097946Y0052730D02*
X0097946Y0055532D01*
X0099348Y0055532D01*
X0099815Y0055065D01*
X0098881Y0053664D02*
X0099815Y0052730D01*
X0100893Y0052730D02*
X0102761Y0054598D01*
X0102761Y0055065D01*
X0102761Y0052730D02*
X0100893Y0052730D01*
X0100475Y0050542D02*
X0100942Y0050075D01*
X0100942Y0049141D01*
X0100475Y0048674D01*
X0100008Y0048674D01*
X0099541Y0049141D01*
X0099541Y0050075D01*
X0100008Y0050542D01*
X0100475Y0050542D01*
X0100942Y0050075D02*
X0101409Y0050542D01*
X0101876Y0050542D01*
X0102343Y0050075D01*
X0102343Y0049141D01*
X0101876Y0048674D01*
X0101409Y0048674D01*
X0100942Y0049141D01*
X0100942Y0047596D02*
X0101409Y0047129D01*
X0101409Y0045728D01*
X0101409Y0046662D02*
X0102343Y0047596D01*
X0100942Y0047596D02*
X0100008Y0047596D01*
X0099541Y0047129D01*
X0099541Y0045728D01*
X0102343Y0045728D01*
X0104698Y0045570D02*
X0104698Y0046971D01*
X0105165Y0047438D01*
X0106100Y0047438D01*
X0106567Y0046971D01*
X0106567Y0045570D01*
X0107501Y0045570D02*
X0104698Y0045570D01*
X0106567Y0046504D02*
X0107501Y0047438D01*
X0107501Y0048517D02*
X0107034Y0048517D01*
X0105165Y0050385D01*
X0104698Y0050385D01*
X0104698Y0048517D01*
X0109817Y0049096D02*
X0109817Y0050030D01*
X0110284Y0050497D01*
X0110751Y0050497D01*
X0111218Y0050030D01*
X0111685Y0050497D01*
X0112152Y0050497D01*
X0112619Y0050030D01*
X0112619Y0049096D01*
X0112152Y0048628D01*
X0112619Y0047550D02*
X0112619Y0045682D01*
X0110751Y0047550D01*
X0110284Y0047550D01*
X0109817Y0047083D01*
X0109817Y0046149D01*
X0110284Y0045682D01*
X0110284Y0044604D02*
X0109817Y0044137D01*
X0109817Y0043202D01*
X0110284Y0042735D01*
X0112152Y0042735D01*
X0112619Y0043202D01*
X0112619Y0044137D01*
X0112152Y0044604D01*
X0115013Y0045531D02*
X0115013Y0046932D01*
X0115480Y0047399D01*
X0116415Y0047399D01*
X0116882Y0046932D01*
X0116882Y0045531D01*
X0117816Y0045531D02*
X0115013Y0045531D01*
X0116882Y0046465D02*
X0117816Y0047399D01*
X0117349Y0048477D02*
X0117816Y0048944D01*
X0117816Y0049878D01*
X0117349Y0050345D01*
X0116882Y0050345D01*
X0116415Y0049878D01*
X0116415Y0048477D01*
X0117349Y0048477D01*
X0116415Y0048477D02*
X0115480Y0049411D01*
X0115013Y0050345D01*
X0111218Y0050030D02*
X0111218Y0049563D01*
X0110284Y0048628D02*
X0109817Y0049096D01*
X0097127Y0048668D02*
X0095259Y0050536D01*
X0094791Y0050536D01*
X0094324Y0050069D01*
X0094324Y0049135D01*
X0094791Y0048668D01*
X0094791Y0047590D02*
X0094324Y0047123D01*
X0094324Y0046188D01*
X0094791Y0045721D01*
X0094791Y0044643D02*
X0094324Y0044176D01*
X0094324Y0043242D01*
X0094791Y0042775D01*
X0096660Y0042775D01*
X0097127Y0043242D01*
X0097127Y0044176D01*
X0096660Y0044643D01*
X0097127Y0045721D02*
X0095259Y0047590D01*
X0094791Y0047590D01*
X0097127Y0047590D02*
X0097127Y0045721D01*
X0097127Y0048668D02*
X0097127Y0050536D01*
X0095203Y0052775D02*
X0093335Y0052775D01*
X0092868Y0053242D01*
X0092868Y0054176D01*
X0093335Y0054643D01*
X0093802Y0055721D02*
X0092868Y0056655D01*
X0095670Y0056655D01*
X0095670Y0055721D02*
X0095670Y0057590D01*
X0095203Y0058668D02*
X0095670Y0059135D01*
X0095670Y0060069D01*
X0095203Y0060536D01*
X0094269Y0060536D01*
X0093802Y0060069D01*
X0093802Y0059602D01*
X0094269Y0058668D01*
X0092868Y0058668D01*
X0092868Y0060536D01*
X0095203Y0054643D02*
X0095670Y0054176D01*
X0095670Y0053242D01*
X0095203Y0052775D01*
X0045484Y0075307D02*
X0042682Y0075307D01*
X0042682Y0076708D01*
X0043149Y0077175D01*
X0044083Y0077175D01*
X0044550Y0076708D01*
X0044550Y0075307D01*
X0044550Y0076241D02*
X0045484Y0077175D01*
X0045017Y0078253D02*
X0045484Y0078721D01*
X0045484Y0079655D01*
X0045017Y0080122D01*
X0043149Y0080122D01*
X0042682Y0079655D01*
X0042682Y0078721D01*
X0043149Y0078253D01*
X0043616Y0078253D01*
X0044083Y0078721D01*
X0044083Y0080122D01*
X0041016Y0079655D02*
X0041016Y0078721D01*
X0040549Y0078253D01*
X0039615Y0078253D02*
X0039147Y0079188D01*
X0039147Y0079655D01*
X0039615Y0080122D01*
X0040549Y0080122D01*
X0041016Y0079655D01*
X0039615Y0078253D02*
X0038213Y0078253D01*
X0038213Y0080122D01*
X0036764Y0079655D02*
X0036764Y0078721D01*
X0036297Y0078253D01*
X0034428Y0080122D01*
X0036297Y0080122D01*
X0036764Y0079655D01*
X0036297Y0078253D02*
X0034428Y0078253D01*
X0033961Y0078721D01*
X0033961Y0079655D01*
X0034428Y0080122D01*
X0036764Y0077175D02*
X0036764Y0075307D01*
X0036764Y0076241D02*
X0033961Y0076241D01*
X0034896Y0075307D01*
X0035363Y0074229D02*
X0034428Y0074229D01*
X0033961Y0073762D01*
X0033961Y0072360D01*
X0036764Y0072360D01*
X0035830Y0072360D02*
X0035830Y0073762D01*
X0035363Y0074229D01*
X0035830Y0073295D02*
X0036764Y0074229D01*
X0038213Y0073762D02*
X0038213Y0072828D01*
X0038680Y0072360D01*
X0040549Y0072360D01*
X0041016Y0072828D01*
X0041016Y0073762D01*
X0040549Y0074229D01*
X0041016Y0075307D02*
X0039147Y0077175D01*
X0038680Y0077175D01*
X0038213Y0076708D01*
X0038213Y0075774D01*
X0038680Y0075307D01*
X0038680Y0074229D02*
X0038213Y0073762D01*
X0041016Y0075307D02*
X0041016Y0077175D01*
X0041016Y0084171D02*
X0038213Y0084171D01*
X0038213Y0085573D01*
X0038680Y0086040D01*
X0039615Y0086040D01*
X0040082Y0085573D01*
X0040082Y0084171D01*
X0040082Y0085106D02*
X0041016Y0086040D01*
X0041016Y0087118D02*
X0039147Y0088986D01*
X0038680Y0088986D01*
X0038213Y0088519D01*
X0038213Y0087585D01*
X0038680Y0087118D01*
X0036764Y0087118D02*
X0036764Y0088986D01*
X0036764Y0088052D02*
X0033961Y0088052D01*
X0034896Y0087118D01*
X0035363Y0086040D02*
X0034428Y0086040D01*
X0033961Y0085573D01*
X0033961Y0084171D01*
X0036764Y0084171D01*
X0035830Y0084171D02*
X0035830Y0085573D01*
X0035363Y0086040D01*
X0035830Y0085106D02*
X0036764Y0086040D01*
X0036764Y0090065D02*
X0036764Y0091933D01*
X0036764Y0090999D02*
X0033961Y0090999D01*
X0034896Y0090065D01*
X0038213Y0090999D02*
X0041016Y0090999D01*
X0041016Y0090065D02*
X0041016Y0091933D01*
X0042682Y0091933D02*
X0043149Y0090999D01*
X0044083Y0090065D01*
X0044083Y0091466D01*
X0044550Y0091933D01*
X0045017Y0091933D01*
X0045484Y0091466D01*
X0045484Y0090532D01*
X0045017Y0090065D01*
X0044083Y0090065D01*
X0045484Y0088986D02*
X0045484Y0087118D01*
X0045484Y0088052D02*
X0042682Y0088052D01*
X0043616Y0087118D01*
X0043149Y0086040D02*
X0042682Y0085573D01*
X0042682Y0084639D01*
X0043149Y0084171D01*
X0045017Y0084171D01*
X0045484Y0084639D01*
X0045484Y0085573D01*
X0045017Y0086040D01*
X0041016Y0087118D02*
X0041016Y0088986D01*
X0039147Y0090065D02*
X0038213Y0090999D01*
X0038680Y0095982D02*
X0040549Y0095982D01*
X0041016Y0096450D01*
X0041016Y0097384D01*
X0040549Y0097851D01*
X0041016Y0098929D02*
X0041016Y0100797D01*
X0041016Y0099863D02*
X0038213Y0099863D01*
X0039147Y0098929D01*
X0038680Y0097851D02*
X0038213Y0097384D01*
X0038213Y0096450D01*
X0038680Y0095982D01*
X0036764Y0096450D02*
X0036764Y0097384D01*
X0036297Y0097851D01*
X0035363Y0098929D02*
X0033961Y0100330D01*
X0036764Y0100330D01*
X0035363Y0100797D02*
X0035363Y0098929D01*
X0034428Y0097851D02*
X0033961Y0097384D01*
X0033961Y0096450D01*
X0034428Y0095982D01*
X0036297Y0095982D01*
X0036764Y0096450D01*
X0036764Y0101876D02*
X0034896Y0103744D01*
X0034428Y0103744D01*
X0033961Y0103277D01*
X0033961Y0102343D01*
X0034428Y0101876D01*
X0036764Y0101876D02*
X0036764Y0103744D01*
X0038213Y0103277D02*
X0039615Y0101876D01*
X0039615Y0103744D01*
X0041016Y0103277D02*
X0038213Y0103277D01*
X0042682Y0103277D02*
X0042682Y0102343D01*
X0043149Y0101876D01*
X0044083Y0102810D02*
X0044083Y0103277D01*
X0044550Y0103744D01*
X0045017Y0103744D01*
X0045484Y0103277D01*
X0045484Y0102343D01*
X0045017Y0101876D01*
X0045484Y0100797D02*
X0045484Y0098929D01*
X0045484Y0099863D02*
X0042682Y0099863D01*
X0043616Y0098929D01*
X0043149Y0097851D02*
X0042682Y0097384D01*
X0042682Y0096450D01*
X0043149Y0095982D01*
X0045017Y0095982D01*
X0045484Y0096450D01*
X0045484Y0097384D01*
X0045017Y0097851D01*
X0044083Y0103277D02*
X0043616Y0103744D01*
X0043149Y0103744D01*
X0042682Y0103277D01*
X0036724Y0108044D02*
X0036724Y0108978D01*
X0036257Y0109445D01*
X0035323Y0110523D02*
X0033922Y0111925D01*
X0036724Y0111925D01*
X0035323Y0112392D02*
X0035323Y0110523D01*
X0034389Y0109445D02*
X0033922Y0108978D01*
X0033922Y0108044D01*
X0034389Y0107577D01*
X0036257Y0107577D01*
X0036724Y0108044D01*
X0038680Y0110543D02*
X0040549Y0110543D01*
X0041016Y0111010D01*
X0041016Y0111944D01*
X0040549Y0112411D01*
X0040549Y0113490D02*
X0041016Y0113957D01*
X0041016Y0114891D01*
X0040549Y0115358D01*
X0040082Y0115358D01*
X0039615Y0114891D01*
X0039615Y0113490D01*
X0040549Y0113490D01*
X0039615Y0113490D02*
X0038680Y0114424D01*
X0038213Y0115358D01*
X0036724Y0115338D02*
X0036724Y0113470D01*
X0036724Y0114404D02*
X0033922Y0114404D01*
X0034856Y0113470D01*
X0038213Y0111944D02*
X0038213Y0111010D01*
X0038680Y0110543D01*
X0038213Y0111944D02*
X0038680Y0112411D01*
X0042721Y0112043D02*
X0042721Y0111109D01*
X0043188Y0110642D01*
X0045057Y0110642D01*
X0045524Y0111109D01*
X0045524Y0112043D01*
X0045057Y0112510D01*
X0045057Y0113588D02*
X0045524Y0114055D01*
X0045524Y0114989D01*
X0045057Y0115456D01*
X0044122Y0115456D01*
X0043655Y0114989D01*
X0043655Y0114522D01*
X0044122Y0113588D01*
X0042721Y0113588D01*
X0042721Y0115456D01*
X0043188Y0112510D02*
X0042721Y0112043D01*
X0042682Y0119842D02*
X0042682Y0121243D01*
X0043149Y0121710D01*
X0044083Y0121710D01*
X0044550Y0121243D01*
X0044550Y0119842D01*
X0044550Y0120776D02*
X0045484Y0121710D01*
X0045484Y0122788D02*
X0045484Y0124657D01*
X0045484Y0123722D02*
X0042682Y0123722D01*
X0043616Y0122788D01*
X0041016Y0123157D02*
X0040549Y0122690D01*
X0041016Y0123157D02*
X0041016Y0124091D01*
X0040549Y0124558D01*
X0040082Y0124558D01*
X0039615Y0124091D01*
X0039615Y0123624D01*
X0039615Y0124091D02*
X0039147Y0124558D01*
X0038680Y0124558D01*
X0038213Y0124091D01*
X0038213Y0123157D01*
X0038680Y0122690D01*
X0038680Y0121612D02*
X0038213Y0121145D01*
X0038213Y0120210D01*
X0038680Y0119743D01*
X0040549Y0119743D01*
X0041016Y0120210D01*
X0041016Y0121145D01*
X0040549Y0121612D01*
X0042682Y0119842D02*
X0045484Y0119842D01*
X0036764Y0120210D02*
X0036764Y0121145D01*
X0036297Y0121612D01*
X0035363Y0122690D02*
X0033961Y0124091D01*
X0036764Y0124091D01*
X0035363Y0124558D02*
X0035363Y0122690D01*
X0034428Y0121612D02*
X0033961Y0121145D01*
X0033961Y0120210D01*
X0034428Y0119743D01*
X0036297Y0119743D01*
X0036764Y0120210D01*
X0141492Y0330486D02*
X0143360Y0330486D01*
X0142426Y0330486D02*
X0142426Y0333288D01*
X0141492Y0332354D01*
X0144438Y0332821D02*
X0144438Y0330953D01*
X0146307Y0332821D01*
X0146307Y0330953D01*
X0145840Y0330486D01*
X0144905Y0330486D01*
X0144438Y0330953D01*
X0144438Y0332821D02*
X0144905Y0333288D01*
X0145840Y0333288D01*
X0146307Y0332821D01*
X0147385Y0333288D02*
X0147385Y0330486D01*
X0149253Y0330486D02*
X0149253Y0333288D01*
X0148319Y0332354D01*
X0147385Y0333288D01*
X0150331Y0333288D02*
X0150331Y0330486D01*
X0150331Y0331887D02*
X0152200Y0331887D01*
X0153278Y0332354D02*
X0155146Y0332354D01*
X0153278Y0330486D01*
X0155146Y0330486D01*
X0152200Y0330486D02*
X0152200Y0333288D01*
X0159171Y0332821D02*
X0159171Y0330953D01*
X0159638Y0330486D01*
X0160572Y0330486D01*
X0161039Y0330953D01*
X0161039Y0332821D01*
X0160572Y0333288D01*
X0159638Y0333288D01*
X0159171Y0332821D01*
X0162117Y0333288D02*
X0162117Y0330953D01*
X0162585Y0330486D01*
X0163519Y0330486D01*
X0163986Y0330953D01*
X0163986Y0333288D01*
X0165064Y0333288D02*
X0166932Y0333288D01*
X0165998Y0333288D02*
X0165998Y0330486D01*
X0287549Y0330486D02*
X0287549Y0333288D01*
X0288950Y0333288D01*
X0289417Y0332821D01*
X0289417Y0331887D01*
X0288950Y0331420D01*
X0287549Y0331420D01*
X0290495Y0331420D02*
X0291896Y0331420D01*
X0292363Y0331887D01*
X0292363Y0332821D01*
X0291896Y0333288D01*
X0290495Y0333288D01*
X0290495Y0330486D01*
X0293442Y0330953D02*
X0293909Y0330486D01*
X0294843Y0330486D01*
X0295310Y0330953D01*
X0295310Y0331420D01*
X0294843Y0331887D01*
X0293909Y0331887D01*
X0293442Y0332354D01*
X0293442Y0332821D01*
X0293909Y0333288D01*
X0294843Y0333288D01*
X0295310Y0332821D01*
X0299335Y0332821D02*
X0299335Y0330953D01*
X0299802Y0330486D01*
X0300736Y0330486D01*
X0301203Y0330953D01*
X0301203Y0332821D01*
X0300736Y0333288D01*
X0299802Y0333288D01*
X0299335Y0332821D01*
X0302281Y0333288D02*
X0302281Y0330953D01*
X0302748Y0330486D01*
X0303682Y0330486D01*
X0304149Y0330953D01*
X0304149Y0333288D01*
X0305228Y0333288D02*
X0307096Y0333288D01*
X0306162Y0333288D02*
X0306162Y0330486D01*
D12*
X0142921Y0110823D02*
X0142923Y0110858D01*
X0142929Y0110892D01*
X0142938Y0110926D01*
X0142952Y0110958D01*
X0142969Y0110988D01*
X0142989Y0111017D01*
X0143012Y0111043D01*
X0143038Y0111066D01*
X0143067Y0111086D01*
X0143097Y0111103D01*
X0143129Y0111117D01*
X0143163Y0111126D01*
X0143197Y0111132D01*
X0143232Y0111134D01*
X0143267Y0111132D01*
X0143301Y0111126D01*
X0143335Y0111117D01*
X0143367Y0111103D01*
X0143397Y0111086D01*
X0143426Y0111066D01*
X0143452Y0111043D01*
X0143475Y0111017D01*
X0143495Y0110988D01*
X0143512Y0110958D01*
X0143526Y0110926D01*
X0143535Y0110892D01*
X0143541Y0110858D01*
X0143543Y0110823D01*
X0143541Y0110788D01*
X0143535Y0110754D01*
X0143526Y0110720D01*
X0143512Y0110688D01*
X0143495Y0110658D01*
X0143475Y0110629D01*
X0143452Y0110603D01*
X0143426Y0110580D01*
X0143397Y0110560D01*
X0143367Y0110543D01*
X0143335Y0110529D01*
X0143301Y0110520D01*
X0143267Y0110514D01*
X0143232Y0110512D01*
X0143197Y0110514D01*
X0143163Y0110520D01*
X0143129Y0110529D01*
X0143097Y0110543D01*
X0143067Y0110560D01*
X0143038Y0110580D01*
X0143012Y0110603D01*
X0142989Y0110629D01*
X0142969Y0110658D01*
X0142952Y0110688D01*
X0142938Y0110720D01*
X0142929Y0110754D01*
X0142923Y0110788D01*
X0142921Y0110823D01*
X0198532Y0095075D02*
X0198534Y0095110D01*
X0198540Y0095144D01*
X0198549Y0095178D01*
X0198563Y0095210D01*
X0198580Y0095240D01*
X0198600Y0095269D01*
X0198623Y0095295D01*
X0198649Y0095318D01*
X0198678Y0095338D01*
X0198708Y0095355D01*
X0198740Y0095369D01*
X0198774Y0095378D01*
X0198808Y0095384D01*
X0198843Y0095386D01*
X0198878Y0095384D01*
X0198912Y0095378D01*
X0198946Y0095369D01*
X0198978Y0095355D01*
X0199008Y0095338D01*
X0199037Y0095318D01*
X0199063Y0095295D01*
X0199086Y0095269D01*
X0199106Y0095240D01*
X0199123Y0095210D01*
X0199137Y0095178D01*
X0199146Y0095144D01*
X0199152Y0095110D01*
X0199154Y0095075D01*
X0199152Y0095040D01*
X0199146Y0095006D01*
X0199137Y0094972D01*
X0199123Y0094940D01*
X0199106Y0094910D01*
X0199086Y0094881D01*
X0199063Y0094855D01*
X0199037Y0094832D01*
X0199008Y0094812D01*
X0198978Y0094795D01*
X0198946Y0094781D01*
X0198912Y0094772D01*
X0198878Y0094766D01*
X0198843Y0094764D01*
X0198808Y0094766D01*
X0198774Y0094772D01*
X0198740Y0094781D01*
X0198708Y0094795D01*
X0198678Y0094812D01*
X0198649Y0094832D01*
X0198623Y0094855D01*
X0198600Y0094881D01*
X0198580Y0094910D01*
X0198563Y0094940D01*
X0198549Y0094972D01*
X0198540Y0095006D01*
X0198534Y0095040D01*
X0198532Y0095075D01*
X0203748Y0085823D02*
X0203750Y0085858D01*
X0203756Y0085892D01*
X0203765Y0085926D01*
X0203779Y0085958D01*
X0203796Y0085988D01*
X0203816Y0086017D01*
X0203839Y0086043D01*
X0203865Y0086066D01*
X0203894Y0086086D01*
X0203924Y0086103D01*
X0203956Y0086117D01*
X0203990Y0086126D01*
X0204024Y0086132D01*
X0204059Y0086134D01*
X0204094Y0086132D01*
X0204128Y0086126D01*
X0204162Y0086117D01*
X0204194Y0086103D01*
X0204224Y0086086D01*
X0204253Y0086066D01*
X0204279Y0086043D01*
X0204302Y0086017D01*
X0204322Y0085988D01*
X0204339Y0085958D01*
X0204353Y0085926D01*
X0204362Y0085892D01*
X0204368Y0085858D01*
X0204370Y0085823D01*
X0204368Y0085788D01*
X0204362Y0085754D01*
X0204353Y0085720D01*
X0204339Y0085688D01*
X0204322Y0085658D01*
X0204302Y0085629D01*
X0204279Y0085603D01*
X0204253Y0085580D01*
X0204224Y0085560D01*
X0204194Y0085543D01*
X0204162Y0085529D01*
X0204128Y0085520D01*
X0204094Y0085514D01*
X0204059Y0085512D01*
X0204024Y0085514D01*
X0203990Y0085520D01*
X0203956Y0085529D01*
X0203924Y0085543D01*
X0203894Y0085560D01*
X0203865Y0085580D01*
X0203839Y0085603D01*
X0203816Y0085629D01*
X0203796Y0085658D01*
X0203779Y0085688D01*
X0203765Y0085720D01*
X0203756Y0085754D01*
X0203750Y0085788D01*
X0203748Y0085823D01*
X0241150Y0085823D02*
X0241152Y0085858D01*
X0241158Y0085892D01*
X0241167Y0085926D01*
X0241181Y0085958D01*
X0241198Y0085988D01*
X0241218Y0086017D01*
X0241241Y0086043D01*
X0241267Y0086066D01*
X0241296Y0086086D01*
X0241326Y0086103D01*
X0241358Y0086117D01*
X0241392Y0086126D01*
X0241426Y0086132D01*
X0241461Y0086134D01*
X0241496Y0086132D01*
X0241530Y0086126D01*
X0241564Y0086117D01*
X0241596Y0086103D01*
X0241626Y0086086D01*
X0241655Y0086066D01*
X0241681Y0086043D01*
X0241704Y0086017D01*
X0241724Y0085988D01*
X0241741Y0085958D01*
X0241755Y0085926D01*
X0241764Y0085892D01*
X0241770Y0085858D01*
X0241772Y0085823D01*
X0241770Y0085788D01*
X0241764Y0085754D01*
X0241755Y0085720D01*
X0241741Y0085688D01*
X0241724Y0085658D01*
X0241704Y0085629D01*
X0241681Y0085603D01*
X0241655Y0085580D01*
X0241626Y0085560D01*
X0241596Y0085543D01*
X0241564Y0085529D01*
X0241530Y0085520D01*
X0241496Y0085514D01*
X0241461Y0085512D01*
X0241426Y0085514D01*
X0241392Y0085520D01*
X0241358Y0085529D01*
X0241326Y0085543D01*
X0241296Y0085560D01*
X0241267Y0085580D01*
X0241241Y0085603D01*
X0241218Y0085629D01*
X0241198Y0085658D01*
X0241181Y0085688D01*
X0241167Y0085720D01*
X0241158Y0085754D01*
X0241152Y0085788D01*
X0241150Y0085823D01*
X0336524Y0106689D02*
X0336526Y0106724D01*
X0336532Y0106758D01*
X0336541Y0106792D01*
X0336555Y0106824D01*
X0336572Y0106854D01*
X0336592Y0106883D01*
X0336615Y0106909D01*
X0336641Y0106932D01*
X0336670Y0106952D01*
X0336700Y0106969D01*
X0336732Y0106983D01*
X0336766Y0106992D01*
X0336800Y0106998D01*
X0336835Y0107000D01*
X0336870Y0106998D01*
X0336904Y0106992D01*
X0336938Y0106983D01*
X0336970Y0106969D01*
X0337000Y0106952D01*
X0337029Y0106932D01*
X0337055Y0106909D01*
X0337078Y0106883D01*
X0337098Y0106854D01*
X0337115Y0106824D01*
X0337129Y0106792D01*
X0337138Y0106758D01*
X0337144Y0106724D01*
X0337146Y0106689D01*
X0337144Y0106654D01*
X0337138Y0106620D01*
X0337129Y0106586D01*
X0337115Y0106554D01*
X0337098Y0106524D01*
X0337078Y0106495D01*
X0337055Y0106469D01*
X0337029Y0106446D01*
X0337000Y0106426D01*
X0336970Y0106409D01*
X0336938Y0106395D01*
X0336904Y0106386D01*
X0336870Y0106380D01*
X0336835Y0106378D01*
X0336800Y0106380D01*
X0336766Y0106386D01*
X0336732Y0106395D01*
X0336700Y0106409D01*
X0336670Y0106426D01*
X0336641Y0106446D01*
X0336615Y0106469D01*
X0336592Y0106495D01*
X0336572Y0106524D01*
X0336555Y0106554D01*
X0336541Y0106586D01*
X0336532Y0106620D01*
X0336526Y0106654D01*
X0336524Y0106689D01*
D13*
X0262134Y0038677D02*
X0255528Y0038677D01*
X0231528Y0038677D02*
X0224921Y0038677D01*
X0209083Y0038677D02*
X0202476Y0038677D01*
X0178476Y0038677D02*
X0171870Y0038677D01*
X0140772Y0111059D02*
X0135693Y0111059D01*
X0141776Y0112319D02*
X0141776Y0112319D01*
X0141749Y0112321D01*
X0141723Y0112326D01*
X0141698Y0112335D01*
X0141674Y0112348D01*
X0141652Y0112363D01*
X0141632Y0112382D01*
X0141615Y0112402D01*
X0141601Y0112425D01*
X0141590Y0112450D01*
X0141583Y0112476D01*
X0141579Y0112503D01*
X0141579Y0112529D01*
X0141583Y0112556D01*
X0141590Y0112582D01*
X0141601Y0112607D01*
X0141615Y0112630D01*
X0141632Y0112650D01*
X0141652Y0112669D01*
X0141674Y0112684D01*
X0141698Y0112697D01*
X0141723Y0112706D01*
X0141749Y0112711D01*
X0141776Y0112713D01*
X0141776Y0112713D01*
X0141803Y0112711D01*
X0141829Y0112706D01*
X0141854Y0112697D01*
X0141878Y0112684D01*
X0141900Y0112669D01*
X0141920Y0112650D01*
X0141937Y0112630D01*
X0141951Y0112607D01*
X0141962Y0112582D01*
X0141969Y0112556D01*
X0141973Y0112529D01*
X0141973Y0112503D01*
X0141969Y0112476D01*
X0141962Y0112450D01*
X0141951Y0112425D01*
X0141937Y0112402D01*
X0141920Y0112382D01*
X0141900Y0112363D01*
X0141878Y0112348D01*
X0141854Y0112335D01*
X0141829Y0112326D01*
X0141803Y0112321D01*
X0141776Y0112319D01*
X0140772Y0119091D02*
X0135693Y0119091D01*
X0135256Y0355409D02*
X0141862Y0355409D01*
X0165862Y0355409D02*
X0172469Y0355409D01*
X0279744Y0355409D02*
X0286350Y0355409D01*
X0310350Y0355409D02*
X0316957Y0355409D01*
D14*
X0349236Y0130528D02*
X0349238Y0130572D01*
X0349244Y0130616D01*
X0349254Y0130659D01*
X0349267Y0130701D01*
X0349285Y0130741D01*
X0349306Y0130780D01*
X0349330Y0130817D01*
X0349357Y0130852D01*
X0349388Y0130884D01*
X0349421Y0130913D01*
X0349457Y0130939D01*
X0349495Y0130961D01*
X0349535Y0130980D01*
X0349576Y0130996D01*
X0349619Y0131008D01*
X0349662Y0131016D01*
X0349706Y0131020D01*
X0349750Y0131020D01*
X0349794Y0131016D01*
X0349837Y0131008D01*
X0349880Y0130996D01*
X0349921Y0130980D01*
X0349961Y0130961D01*
X0349999Y0130939D01*
X0350035Y0130913D01*
X0350068Y0130884D01*
X0350099Y0130852D01*
X0350126Y0130817D01*
X0350150Y0130780D01*
X0350171Y0130741D01*
X0350189Y0130701D01*
X0350202Y0130659D01*
X0350212Y0130616D01*
X0350218Y0130572D01*
X0350220Y0130528D01*
X0350218Y0130484D01*
X0350212Y0130440D01*
X0350202Y0130397D01*
X0350189Y0130355D01*
X0350171Y0130315D01*
X0350150Y0130276D01*
X0350126Y0130239D01*
X0350099Y0130204D01*
X0350068Y0130172D01*
X0350035Y0130143D01*
X0349999Y0130117D01*
X0349961Y0130095D01*
X0349921Y0130076D01*
X0349880Y0130060D01*
X0349837Y0130048D01*
X0349794Y0130040D01*
X0349750Y0130036D01*
X0349706Y0130036D01*
X0349662Y0130040D01*
X0349619Y0130048D01*
X0349576Y0130060D01*
X0349535Y0130076D01*
X0349495Y0130095D01*
X0349457Y0130117D01*
X0349421Y0130143D01*
X0349388Y0130172D01*
X0349357Y0130204D01*
X0349330Y0130239D01*
X0349306Y0130276D01*
X0349285Y0130315D01*
X0349267Y0130355D01*
X0349254Y0130397D01*
X0349244Y0130440D01*
X0349238Y0130484D01*
X0349236Y0130528D01*
X0183882Y0120862D02*
X0183884Y0120906D01*
X0183890Y0120950D01*
X0183900Y0120993D01*
X0183913Y0121035D01*
X0183931Y0121075D01*
X0183952Y0121114D01*
X0183976Y0121151D01*
X0184003Y0121186D01*
X0184034Y0121218D01*
X0184067Y0121247D01*
X0184103Y0121273D01*
X0184141Y0121295D01*
X0184181Y0121314D01*
X0184222Y0121330D01*
X0184265Y0121342D01*
X0184308Y0121350D01*
X0184352Y0121354D01*
X0184396Y0121354D01*
X0184440Y0121350D01*
X0184483Y0121342D01*
X0184526Y0121330D01*
X0184567Y0121314D01*
X0184607Y0121295D01*
X0184645Y0121273D01*
X0184681Y0121247D01*
X0184714Y0121218D01*
X0184745Y0121186D01*
X0184772Y0121151D01*
X0184796Y0121114D01*
X0184817Y0121075D01*
X0184835Y0121035D01*
X0184848Y0120993D01*
X0184858Y0120950D01*
X0184864Y0120906D01*
X0184866Y0120862D01*
X0184864Y0120818D01*
X0184858Y0120774D01*
X0184848Y0120731D01*
X0184835Y0120689D01*
X0184817Y0120649D01*
X0184796Y0120610D01*
X0184772Y0120573D01*
X0184745Y0120538D01*
X0184714Y0120506D01*
X0184681Y0120477D01*
X0184645Y0120451D01*
X0184607Y0120429D01*
X0184567Y0120410D01*
X0184526Y0120394D01*
X0184483Y0120382D01*
X0184440Y0120374D01*
X0184396Y0120370D01*
X0184352Y0120370D01*
X0184308Y0120374D01*
X0184265Y0120382D01*
X0184222Y0120394D01*
X0184181Y0120410D01*
X0184141Y0120429D01*
X0184103Y0120451D01*
X0184067Y0120477D01*
X0184034Y0120506D01*
X0184003Y0120538D01*
X0183976Y0120573D01*
X0183952Y0120610D01*
X0183931Y0120649D01*
X0183913Y0120689D01*
X0183900Y0120731D01*
X0183890Y0120774D01*
X0183884Y0120818D01*
X0183882Y0120862D01*
X0077425Y0093283D02*
X0077427Y0093327D01*
X0077433Y0093371D01*
X0077443Y0093414D01*
X0077456Y0093456D01*
X0077474Y0093496D01*
X0077495Y0093535D01*
X0077519Y0093572D01*
X0077546Y0093607D01*
X0077577Y0093639D01*
X0077610Y0093668D01*
X0077646Y0093694D01*
X0077684Y0093716D01*
X0077724Y0093735D01*
X0077765Y0093751D01*
X0077808Y0093763D01*
X0077851Y0093771D01*
X0077895Y0093775D01*
X0077939Y0093775D01*
X0077983Y0093771D01*
X0078026Y0093763D01*
X0078069Y0093751D01*
X0078110Y0093735D01*
X0078150Y0093716D01*
X0078188Y0093694D01*
X0078224Y0093668D01*
X0078257Y0093639D01*
X0078288Y0093607D01*
X0078315Y0093572D01*
X0078339Y0093535D01*
X0078360Y0093496D01*
X0078378Y0093456D01*
X0078391Y0093414D01*
X0078401Y0093371D01*
X0078407Y0093327D01*
X0078409Y0093283D01*
X0078407Y0093239D01*
X0078401Y0093195D01*
X0078391Y0093152D01*
X0078378Y0093110D01*
X0078360Y0093070D01*
X0078339Y0093031D01*
X0078315Y0092994D01*
X0078288Y0092959D01*
X0078257Y0092927D01*
X0078224Y0092898D01*
X0078188Y0092872D01*
X0078150Y0092850D01*
X0078110Y0092831D01*
X0078069Y0092815D01*
X0078026Y0092803D01*
X0077983Y0092795D01*
X0077939Y0092791D01*
X0077895Y0092791D01*
X0077851Y0092795D01*
X0077808Y0092803D01*
X0077765Y0092815D01*
X0077724Y0092831D01*
X0077684Y0092850D01*
X0077646Y0092872D01*
X0077610Y0092898D01*
X0077577Y0092927D01*
X0077546Y0092959D01*
X0077519Y0092994D01*
X0077495Y0093031D01*
X0077474Y0093070D01*
X0077456Y0093110D01*
X0077443Y0093152D01*
X0077433Y0093195D01*
X0077427Y0093239D01*
X0077425Y0093283D01*
D15*
X0082878Y0076374D02*
X0082878Y0076374D01*
X0188508Y0095508D02*
X0188508Y0106925D01*
X0190870Y0106925D01*
X0190870Y0095508D01*
X0188508Y0095508D01*
X0192248Y0094917D02*
X0196972Y0094917D01*
X0202287Y0098579D02*
X0214098Y0098579D01*
X0214098Y0084012D01*
X0202287Y0084012D01*
X0202287Y0098579D01*
X0202091Y0082634D02*
X0202091Y0076827D01*
X0239315Y0076827D02*
X0239315Y0082634D01*
X0239512Y0084012D02*
X0251323Y0084012D01*
X0251323Y0098579D01*
X0239512Y0098579D01*
X0239512Y0084012D01*
X0292937Y0125311D02*
X0292937Y0126886D01*
X0290559Y0130232D02*
X0290559Y0130232D01*
X0290598Y0130234D01*
X0290636Y0130240D01*
X0290673Y0130249D01*
X0290710Y0130262D01*
X0290745Y0130279D01*
X0290778Y0130298D01*
X0290809Y0130321D01*
X0290838Y0130347D01*
X0290864Y0130376D01*
X0290887Y0130407D01*
X0290906Y0130440D01*
X0290923Y0130475D01*
X0290936Y0130512D01*
X0290945Y0130549D01*
X0290951Y0130587D01*
X0290953Y0130626D01*
X0290951Y0130665D01*
X0290945Y0130703D01*
X0290936Y0130740D01*
X0290923Y0130777D01*
X0290906Y0130812D01*
X0290887Y0130845D01*
X0290864Y0130876D01*
X0290838Y0130905D01*
X0290809Y0130931D01*
X0290778Y0130954D01*
X0290745Y0130973D01*
X0290710Y0130990D01*
X0290673Y0131003D01*
X0290636Y0131012D01*
X0290598Y0131018D01*
X0290559Y0131020D01*
X0290559Y0131020D01*
X0290520Y0131018D01*
X0290482Y0131012D01*
X0290445Y0131003D01*
X0290408Y0130990D01*
X0290373Y0130973D01*
X0290340Y0130954D01*
X0290309Y0130931D01*
X0290280Y0130905D01*
X0290254Y0130876D01*
X0290231Y0130845D01*
X0290212Y0130812D01*
X0290195Y0130777D01*
X0290182Y0130740D01*
X0290173Y0130703D01*
X0290167Y0130665D01*
X0290165Y0130626D01*
X0290167Y0130587D01*
X0290173Y0130549D01*
X0290182Y0130512D01*
X0290195Y0130475D01*
X0290212Y0130440D01*
X0290231Y0130407D01*
X0290254Y0130376D01*
X0290280Y0130347D01*
X0290309Y0130321D01*
X0290340Y0130298D01*
X0290373Y0130279D01*
X0290408Y0130262D01*
X0290445Y0130249D01*
X0290482Y0130240D01*
X0290520Y0130234D01*
X0290559Y0130232D01*
X0302780Y0126886D02*
X0302780Y0125311D01*
X0405713Y0124110D02*
X0405713Y0073323D01*
X0426185Y0073323D01*
X0426185Y0124110D01*
X0405713Y0124110D01*
X0410555Y0113717D02*
X0410557Y0113756D01*
X0410563Y0113795D01*
X0410573Y0113833D01*
X0410586Y0113870D01*
X0410603Y0113905D01*
X0410623Y0113939D01*
X0410647Y0113970D01*
X0410674Y0113999D01*
X0410703Y0114025D01*
X0410735Y0114048D01*
X0410769Y0114068D01*
X0410805Y0114084D01*
X0410842Y0114096D01*
X0410881Y0114105D01*
X0410920Y0114110D01*
X0410959Y0114111D01*
X0410998Y0114108D01*
X0411037Y0114101D01*
X0411074Y0114090D01*
X0411111Y0114076D01*
X0411146Y0114058D01*
X0411179Y0114037D01*
X0411210Y0114012D01*
X0411238Y0113985D01*
X0411263Y0113955D01*
X0411285Y0113922D01*
X0411304Y0113888D01*
X0411319Y0113852D01*
X0411331Y0113814D01*
X0411339Y0113776D01*
X0411343Y0113737D01*
X0411343Y0113697D01*
X0411339Y0113658D01*
X0411331Y0113620D01*
X0411319Y0113582D01*
X0411304Y0113546D01*
X0411285Y0113512D01*
X0411263Y0113479D01*
X0411238Y0113449D01*
X0411210Y0113422D01*
X0411179Y0113397D01*
X0411146Y0113376D01*
X0411111Y0113358D01*
X0411074Y0113344D01*
X0411037Y0113333D01*
X0410998Y0113326D01*
X0410959Y0113323D01*
X0410920Y0113324D01*
X0410881Y0113329D01*
X0410842Y0113338D01*
X0410805Y0113350D01*
X0410769Y0113366D01*
X0410735Y0113386D01*
X0410703Y0113409D01*
X0410674Y0113435D01*
X0410647Y0113464D01*
X0410623Y0113495D01*
X0410603Y0113529D01*
X0410586Y0113564D01*
X0410573Y0113601D01*
X0410563Y0113639D01*
X0410557Y0113678D01*
X0410555Y0113717D01*
D16*
X0382445Y0098087D02*
X0379295Y0098087D01*
X0382445Y0098087D02*
X0382445Y0095724D01*
X0382445Y0089425D02*
X0382445Y0087063D01*
X0379295Y0087063D01*
X0406224Y0053441D02*
X0406226Y0053605D01*
X0406232Y0053769D01*
X0406242Y0053933D01*
X0406256Y0054097D01*
X0406274Y0054260D01*
X0406296Y0054423D01*
X0406323Y0054585D01*
X0406353Y0054747D01*
X0406387Y0054907D01*
X0406425Y0055067D01*
X0406466Y0055226D01*
X0406512Y0055384D01*
X0406562Y0055540D01*
X0406615Y0055696D01*
X0406672Y0055850D01*
X0406733Y0056002D01*
X0406798Y0056153D01*
X0406867Y0056303D01*
X0406939Y0056450D01*
X0407014Y0056596D01*
X0407094Y0056740D01*
X0407176Y0056882D01*
X0407262Y0057022D01*
X0407352Y0057159D01*
X0407445Y0057295D01*
X0407541Y0057428D01*
X0407641Y0057559D01*
X0407743Y0057687D01*
X0407849Y0057813D01*
X0407958Y0057936D01*
X0408070Y0058056D01*
X0408184Y0058174D01*
X0408302Y0058288D01*
X0408422Y0058400D01*
X0408545Y0058509D01*
X0408671Y0058615D01*
X0408799Y0058717D01*
X0408930Y0058817D01*
X0409063Y0058913D01*
X0409199Y0059006D01*
X0409336Y0059096D01*
X0409476Y0059182D01*
X0409618Y0059264D01*
X0409762Y0059344D01*
X0409908Y0059419D01*
X0410055Y0059491D01*
X0410205Y0059560D01*
X0410356Y0059625D01*
X0410508Y0059686D01*
X0410662Y0059743D01*
X0410818Y0059796D01*
X0410974Y0059846D01*
X0411132Y0059892D01*
X0411291Y0059933D01*
X0411451Y0059971D01*
X0411611Y0060005D01*
X0411773Y0060035D01*
X0411935Y0060062D01*
X0412098Y0060084D01*
X0412261Y0060102D01*
X0412425Y0060116D01*
X0412589Y0060126D01*
X0412753Y0060132D01*
X0412917Y0060134D01*
X0413081Y0060132D01*
X0413245Y0060126D01*
X0413409Y0060116D01*
X0413573Y0060102D01*
X0413736Y0060084D01*
X0413899Y0060062D01*
X0414061Y0060035D01*
X0414223Y0060005D01*
X0414383Y0059971D01*
X0414543Y0059933D01*
X0414702Y0059892D01*
X0414860Y0059846D01*
X0415016Y0059796D01*
X0415172Y0059743D01*
X0415326Y0059686D01*
X0415478Y0059625D01*
X0415629Y0059560D01*
X0415779Y0059491D01*
X0415926Y0059419D01*
X0416072Y0059344D01*
X0416216Y0059264D01*
X0416358Y0059182D01*
X0416498Y0059096D01*
X0416635Y0059006D01*
X0416771Y0058913D01*
X0416904Y0058817D01*
X0417035Y0058717D01*
X0417163Y0058615D01*
X0417289Y0058509D01*
X0417412Y0058400D01*
X0417532Y0058288D01*
X0417650Y0058174D01*
X0417764Y0058056D01*
X0417876Y0057936D01*
X0417985Y0057813D01*
X0418091Y0057687D01*
X0418193Y0057559D01*
X0418293Y0057428D01*
X0418389Y0057295D01*
X0418482Y0057159D01*
X0418572Y0057022D01*
X0418658Y0056882D01*
X0418740Y0056740D01*
X0418820Y0056596D01*
X0418895Y0056450D01*
X0418967Y0056303D01*
X0419036Y0056153D01*
X0419101Y0056002D01*
X0419162Y0055850D01*
X0419219Y0055696D01*
X0419272Y0055540D01*
X0419322Y0055384D01*
X0419368Y0055226D01*
X0419409Y0055067D01*
X0419447Y0054907D01*
X0419481Y0054747D01*
X0419511Y0054585D01*
X0419538Y0054423D01*
X0419560Y0054260D01*
X0419578Y0054097D01*
X0419592Y0053933D01*
X0419602Y0053769D01*
X0419608Y0053605D01*
X0419610Y0053441D01*
X0419608Y0053277D01*
X0419602Y0053113D01*
X0419592Y0052949D01*
X0419578Y0052785D01*
X0419560Y0052622D01*
X0419538Y0052459D01*
X0419511Y0052297D01*
X0419481Y0052135D01*
X0419447Y0051975D01*
X0419409Y0051815D01*
X0419368Y0051656D01*
X0419322Y0051498D01*
X0419272Y0051342D01*
X0419219Y0051186D01*
X0419162Y0051032D01*
X0419101Y0050880D01*
X0419036Y0050729D01*
X0418967Y0050579D01*
X0418895Y0050432D01*
X0418820Y0050286D01*
X0418740Y0050142D01*
X0418658Y0050000D01*
X0418572Y0049860D01*
X0418482Y0049723D01*
X0418389Y0049587D01*
X0418293Y0049454D01*
X0418193Y0049323D01*
X0418091Y0049195D01*
X0417985Y0049069D01*
X0417876Y0048946D01*
X0417764Y0048826D01*
X0417650Y0048708D01*
X0417532Y0048594D01*
X0417412Y0048482D01*
X0417289Y0048373D01*
X0417163Y0048267D01*
X0417035Y0048165D01*
X0416904Y0048065D01*
X0416771Y0047969D01*
X0416635Y0047876D01*
X0416498Y0047786D01*
X0416358Y0047700D01*
X0416216Y0047618D01*
X0416072Y0047538D01*
X0415926Y0047463D01*
X0415779Y0047391D01*
X0415629Y0047322D01*
X0415478Y0047257D01*
X0415326Y0047196D01*
X0415172Y0047139D01*
X0415016Y0047086D01*
X0414860Y0047036D01*
X0414702Y0046990D01*
X0414543Y0046949D01*
X0414383Y0046911D01*
X0414223Y0046877D01*
X0414061Y0046847D01*
X0413899Y0046820D01*
X0413736Y0046798D01*
X0413573Y0046780D01*
X0413409Y0046766D01*
X0413245Y0046756D01*
X0413081Y0046750D01*
X0412917Y0046748D01*
X0412753Y0046750D01*
X0412589Y0046756D01*
X0412425Y0046766D01*
X0412261Y0046780D01*
X0412098Y0046798D01*
X0411935Y0046820D01*
X0411773Y0046847D01*
X0411611Y0046877D01*
X0411451Y0046911D01*
X0411291Y0046949D01*
X0411132Y0046990D01*
X0410974Y0047036D01*
X0410818Y0047086D01*
X0410662Y0047139D01*
X0410508Y0047196D01*
X0410356Y0047257D01*
X0410205Y0047322D01*
X0410055Y0047391D01*
X0409908Y0047463D01*
X0409762Y0047538D01*
X0409618Y0047618D01*
X0409476Y0047700D01*
X0409336Y0047786D01*
X0409199Y0047876D01*
X0409063Y0047969D01*
X0408930Y0048065D01*
X0408799Y0048165D01*
X0408671Y0048267D01*
X0408545Y0048373D01*
X0408422Y0048482D01*
X0408302Y0048594D01*
X0408184Y0048708D01*
X0408070Y0048826D01*
X0407958Y0048946D01*
X0407849Y0049069D01*
X0407743Y0049195D01*
X0407641Y0049323D01*
X0407541Y0049454D01*
X0407445Y0049587D01*
X0407352Y0049723D01*
X0407262Y0049860D01*
X0407176Y0050000D01*
X0407094Y0050142D01*
X0407014Y0050286D01*
X0406939Y0050432D01*
X0406867Y0050579D01*
X0406798Y0050729D01*
X0406733Y0050880D01*
X0406672Y0051032D01*
X0406615Y0051186D01*
X0406562Y0051342D01*
X0406512Y0051498D01*
X0406466Y0051656D01*
X0406425Y0051815D01*
X0406387Y0051975D01*
X0406353Y0052135D01*
X0406323Y0052297D01*
X0406296Y0052459D01*
X0406274Y0052622D01*
X0406256Y0052785D01*
X0406242Y0052949D01*
X0406232Y0053113D01*
X0406226Y0053277D01*
X0406224Y0053441D01*
X0320398Y0082929D02*
X0320398Y0109130D01*
X0319000Y0110528D01*
X0292799Y0110528D01*
X0292799Y0082929D01*
X0320398Y0082929D01*
X0320498Y0111128D02*
X0320500Y0111177D01*
X0320506Y0111225D01*
X0320516Y0111273D01*
X0320530Y0111320D01*
X0320547Y0111366D01*
X0320568Y0111410D01*
X0320593Y0111452D01*
X0320621Y0111492D01*
X0320653Y0111530D01*
X0320687Y0111565D01*
X0320724Y0111597D01*
X0320763Y0111626D01*
X0320805Y0111652D01*
X0320849Y0111674D01*
X0320894Y0111692D01*
X0320941Y0111707D01*
X0320988Y0111718D01*
X0321037Y0111725D01*
X0321086Y0111728D01*
X0321135Y0111727D01*
X0321183Y0111722D01*
X0321232Y0111713D01*
X0321279Y0111700D01*
X0321325Y0111683D01*
X0321369Y0111663D01*
X0321412Y0111639D01*
X0321453Y0111612D01*
X0321491Y0111581D01*
X0321527Y0111548D01*
X0321559Y0111512D01*
X0321589Y0111473D01*
X0321616Y0111432D01*
X0321639Y0111388D01*
X0321658Y0111343D01*
X0321674Y0111297D01*
X0321686Y0111250D01*
X0321694Y0111201D01*
X0321698Y0111152D01*
X0321698Y0111104D01*
X0321694Y0111055D01*
X0321686Y0111006D01*
X0321674Y0110959D01*
X0321658Y0110913D01*
X0321639Y0110868D01*
X0321616Y0110824D01*
X0321589Y0110783D01*
X0321559Y0110744D01*
X0321527Y0110708D01*
X0321491Y0110675D01*
X0321453Y0110644D01*
X0321412Y0110617D01*
X0321369Y0110593D01*
X0321325Y0110573D01*
X0321279Y0110556D01*
X0321232Y0110543D01*
X0321183Y0110534D01*
X0321135Y0110529D01*
X0321086Y0110528D01*
X0321037Y0110531D01*
X0320988Y0110538D01*
X0320941Y0110549D01*
X0320894Y0110564D01*
X0320849Y0110582D01*
X0320805Y0110604D01*
X0320763Y0110630D01*
X0320724Y0110659D01*
X0320687Y0110691D01*
X0320653Y0110726D01*
X0320621Y0110764D01*
X0320593Y0110804D01*
X0320568Y0110846D01*
X0320547Y0110890D01*
X0320530Y0110936D01*
X0320516Y0110983D01*
X0320506Y0111031D01*
X0320500Y0111079D01*
X0320498Y0111128D01*
X0406224Y0143992D02*
X0406226Y0144156D01*
X0406232Y0144320D01*
X0406242Y0144484D01*
X0406256Y0144648D01*
X0406274Y0144811D01*
X0406296Y0144974D01*
X0406323Y0145136D01*
X0406353Y0145298D01*
X0406387Y0145458D01*
X0406425Y0145618D01*
X0406466Y0145777D01*
X0406512Y0145935D01*
X0406562Y0146091D01*
X0406615Y0146247D01*
X0406672Y0146401D01*
X0406733Y0146553D01*
X0406798Y0146704D01*
X0406867Y0146854D01*
X0406939Y0147001D01*
X0407014Y0147147D01*
X0407094Y0147291D01*
X0407176Y0147433D01*
X0407262Y0147573D01*
X0407352Y0147710D01*
X0407445Y0147846D01*
X0407541Y0147979D01*
X0407641Y0148110D01*
X0407743Y0148238D01*
X0407849Y0148364D01*
X0407958Y0148487D01*
X0408070Y0148607D01*
X0408184Y0148725D01*
X0408302Y0148839D01*
X0408422Y0148951D01*
X0408545Y0149060D01*
X0408671Y0149166D01*
X0408799Y0149268D01*
X0408930Y0149368D01*
X0409063Y0149464D01*
X0409199Y0149557D01*
X0409336Y0149647D01*
X0409476Y0149733D01*
X0409618Y0149815D01*
X0409762Y0149895D01*
X0409908Y0149970D01*
X0410055Y0150042D01*
X0410205Y0150111D01*
X0410356Y0150176D01*
X0410508Y0150237D01*
X0410662Y0150294D01*
X0410818Y0150347D01*
X0410974Y0150397D01*
X0411132Y0150443D01*
X0411291Y0150484D01*
X0411451Y0150522D01*
X0411611Y0150556D01*
X0411773Y0150586D01*
X0411935Y0150613D01*
X0412098Y0150635D01*
X0412261Y0150653D01*
X0412425Y0150667D01*
X0412589Y0150677D01*
X0412753Y0150683D01*
X0412917Y0150685D01*
X0413081Y0150683D01*
X0413245Y0150677D01*
X0413409Y0150667D01*
X0413573Y0150653D01*
X0413736Y0150635D01*
X0413899Y0150613D01*
X0414061Y0150586D01*
X0414223Y0150556D01*
X0414383Y0150522D01*
X0414543Y0150484D01*
X0414702Y0150443D01*
X0414860Y0150397D01*
X0415016Y0150347D01*
X0415172Y0150294D01*
X0415326Y0150237D01*
X0415478Y0150176D01*
X0415629Y0150111D01*
X0415779Y0150042D01*
X0415926Y0149970D01*
X0416072Y0149895D01*
X0416216Y0149815D01*
X0416358Y0149733D01*
X0416498Y0149647D01*
X0416635Y0149557D01*
X0416771Y0149464D01*
X0416904Y0149368D01*
X0417035Y0149268D01*
X0417163Y0149166D01*
X0417289Y0149060D01*
X0417412Y0148951D01*
X0417532Y0148839D01*
X0417650Y0148725D01*
X0417764Y0148607D01*
X0417876Y0148487D01*
X0417985Y0148364D01*
X0418091Y0148238D01*
X0418193Y0148110D01*
X0418293Y0147979D01*
X0418389Y0147846D01*
X0418482Y0147710D01*
X0418572Y0147573D01*
X0418658Y0147433D01*
X0418740Y0147291D01*
X0418820Y0147147D01*
X0418895Y0147001D01*
X0418967Y0146854D01*
X0419036Y0146704D01*
X0419101Y0146553D01*
X0419162Y0146401D01*
X0419219Y0146247D01*
X0419272Y0146091D01*
X0419322Y0145935D01*
X0419368Y0145777D01*
X0419409Y0145618D01*
X0419447Y0145458D01*
X0419481Y0145298D01*
X0419511Y0145136D01*
X0419538Y0144974D01*
X0419560Y0144811D01*
X0419578Y0144648D01*
X0419592Y0144484D01*
X0419602Y0144320D01*
X0419608Y0144156D01*
X0419610Y0143992D01*
X0419608Y0143828D01*
X0419602Y0143664D01*
X0419592Y0143500D01*
X0419578Y0143336D01*
X0419560Y0143173D01*
X0419538Y0143010D01*
X0419511Y0142848D01*
X0419481Y0142686D01*
X0419447Y0142526D01*
X0419409Y0142366D01*
X0419368Y0142207D01*
X0419322Y0142049D01*
X0419272Y0141893D01*
X0419219Y0141737D01*
X0419162Y0141583D01*
X0419101Y0141431D01*
X0419036Y0141280D01*
X0418967Y0141130D01*
X0418895Y0140983D01*
X0418820Y0140837D01*
X0418740Y0140693D01*
X0418658Y0140551D01*
X0418572Y0140411D01*
X0418482Y0140274D01*
X0418389Y0140138D01*
X0418293Y0140005D01*
X0418193Y0139874D01*
X0418091Y0139746D01*
X0417985Y0139620D01*
X0417876Y0139497D01*
X0417764Y0139377D01*
X0417650Y0139259D01*
X0417532Y0139145D01*
X0417412Y0139033D01*
X0417289Y0138924D01*
X0417163Y0138818D01*
X0417035Y0138716D01*
X0416904Y0138616D01*
X0416771Y0138520D01*
X0416635Y0138427D01*
X0416498Y0138337D01*
X0416358Y0138251D01*
X0416216Y0138169D01*
X0416072Y0138089D01*
X0415926Y0138014D01*
X0415779Y0137942D01*
X0415629Y0137873D01*
X0415478Y0137808D01*
X0415326Y0137747D01*
X0415172Y0137690D01*
X0415016Y0137637D01*
X0414860Y0137587D01*
X0414702Y0137541D01*
X0414543Y0137500D01*
X0414383Y0137462D01*
X0414223Y0137428D01*
X0414061Y0137398D01*
X0413899Y0137371D01*
X0413736Y0137349D01*
X0413573Y0137331D01*
X0413409Y0137317D01*
X0413245Y0137307D01*
X0413081Y0137301D01*
X0412917Y0137299D01*
X0412753Y0137301D01*
X0412589Y0137307D01*
X0412425Y0137317D01*
X0412261Y0137331D01*
X0412098Y0137349D01*
X0411935Y0137371D01*
X0411773Y0137398D01*
X0411611Y0137428D01*
X0411451Y0137462D01*
X0411291Y0137500D01*
X0411132Y0137541D01*
X0410974Y0137587D01*
X0410818Y0137637D01*
X0410662Y0137690D01*
X0410508Y0137747D01*
X0410356Y0137808D01*
X0410205Y0137873D01*
X0410055Y0137942D01*
X0409908Y0138014D01*
X0409762Y0138089D01*
X0409618Y0138169D01*
X0409476Y0138251D01*
X0409336Y0138337D01*
X0409199Y0138427D01*
X0409063Y0138520D01*
X0408930Y0138616D01*
X0408799Y0138716D01*
X0408671Y0138818D01*
X0408545Y0138924D01*
X0408422Y0139033D01*
X0408302Y0139145D01*
X0408184Y0139259D01*
X0408070Y0139377D01*
X0407958Y0139497D01*
X0407849Y0139620D01*
X0407743Y0139746D01*
X0407641Y0139874D01*
X0407541Y0140005D01*
X0407445Y0140138D01*
X0407352Y0140274D01*
X0407262Y0140411D01*
X0407176Y0140551D01*
X0407094Y0140693D01*
X0407014Y0140837D01*
X0406939Y0140983D01*
X0406867Y0141130D01*
X0406798Y0141280D01*
X0406733Y0141431D01*
X0406672Y0141583D01*
X0406615Y0141737D01*
X0406562Y0141893D01*
X0406512Y0142049D01*
X0406466Y0142207D01*
X0406425Y0142366D01*
X0406387Y0142526D01*
X0406353Y0142686D01*
X0406323Y0142848D01*
X0406296Y0143010D01*
X0406274Y0143173D01*
X0406256Y0143336D01*
X0406242Y0143500D01*
X0406232Y0143664D01*
X0406226Y0143828D01*
X0406224Y0143992D01*
X0012524Y0143992D02*
X0012526Y0144156D01*
X0012532Y0144320D01*
X0012542Y0144484D01*
X0012556Y0144648D01*
X0012574Y0144811D01*
X0012596Y0144974D01*
X0012623Y0145136D01*
X0012653Y0145298D01*
X0012687Y0145458D01*
X0012725Y0145618D01*
X0012766Y0145777D01*
X0012812Y0145935D01*
X0012862Y0146091D01*
X0012915Y0146247D01*
X0012972Y0146401D01*
X0013033Y0146553D01*
X0013098Y0146704D01*
X0013167Y0146854D01*
X0013239Y0147001D01*
X0013314Y0147147D01*
X0013394Y0147291D01*
X0013476Y0147433D01*
X0013562Y0147573D01*
X0013652Y0147710D01*
X0013745Y0147846D01*
X0013841Y0147979D01*
X0013941Y0148110D01*
X0014043Y0148238D01*
X0014149Y0148364D01*
X0014258Y0148487D01*
X0014370Y0148607D01*
X0014484Y0148725D01*
X0014602Y0148839D01*
X0014722Y0148951D01*
X0014845Y0149060D01*
X0014971Y0149166D01*
X0015099Y0149268D01*
X0015230Y0149368D01*
X0015363Y0149464D01*
X0015499Y0149557D01*
X0015636Y0149647D01*
X0015776Y0149733D01*
X0015918Y0149815D01*
X0016062Y0149895D01*
X0016208Y0149970D01*
X0016355Y0150042D01*
X0016505Y0150111D01*
X0016656Y0150176D01*
X0016808Y0150237D01*
X0016962Y0150294D01*
X0017118Y0150347D01*
X0017274Y0150397D01*
X0017432Y0150443D01*
X0017591Y0150484D01*
X0017751Y0150522D01*
X0017911Y0150556D01*
X0018073Y0150586D01*
X0018235Y0150613D01*
X0018398Y0150635D01*
X0018561Y0150653D01*
X0018725Y0150667D01*
X0018889Y0150677D01*
X0019053Y0150683D01*
X0019217Y0150685D01*
X0019381Y0150683D01*
X0019545Y0150677D01*
X0019709Y0150667D01*
X0019873Y0150653D01*
X0020036Y0150635D01*
X0020199Y0150613D01*
X0020361Y0150586D01*
X0020523Y0150556D01*
X0020683Y0150522D01*
X0020843Y0150484D01*
X0021002Y0150443D01*
X0021160Y0150397D01*
X0021316Y0150347D01*
X0021472Y0150294D01*
X0021626Y0150237D01*
X0021778Y0150176D01*
X0021929Y0150111D01*
X0022079Y0150042D01*
X0022226Y0149970D01*
X0022372Y0149895D01*
X0022516Y0149815D01*
X0022658Y0149733D01*
X0022798Y0149647D01*
X0022935Y0149557D01*
X0023071Y0149464D01*
X0023204Y0149368D01*
X0023335Y0149268D01*
X0023463Y0149166D01*
X0023589Y0149060D01*
X0023712Y0148951D01*
X0023832Y0148839D01*
X0023950Y0148725D01*
X0024064Y0148607D01*
X0024176Y0148487D01*
X0024285Y0148364D01*
X0024391Y0148238D01*
X0024493Y0148110D01*
X0024593Y0147979D01*
X0024689Y0147846D01*
X0024782Y0147710D01*
X0024872Y0147573D01*
X0024958Y0147433D01*
X0025040Y0147291D01*
X0025120Y0147147D01*
X0025195Y0147001D01*
X0025267Y0146854D01*
X0025336Y0146704D01*
X0025401Y0146553D01*
X0025462Y0146401D01*
X0025519Y0146247D01*
X0025572Y0146091D01*
X0025622Y0145935D01*
X0025668Y0145777D01*
X0025709Y0145618D01*
X0025747Y0145458D01*
X0025781Y0145298D01*
X0025811Y0145136D01*
X0025838Y0144974D01*
X0025860Y0144811D01*
X0025878Y0144648D01*
X0025892Y0144484D01*
X0025902Y0144320D01*
X0025908Y0144156D01*
X0025910Y0143992D01*
X0025908Y0143828D01*
X0025902Y0143664D01*
X0025892Y0143500D01*
X0025878Y0143336D01*
X0025860Y0143173D01*
X0025838Y0143010D01*
X0025811Y0142848D01*
X0025781Y0142686D01*
X0025747Y0142526D01*
X0025709Y0142366D01*
X0025668Y0142207D01*
X0025622Y0142049D01*
X0025572Y0141893D01*
X0025519Y0141737D01*
X0025462Y0141583D01*
X0025401Y0141431D01*
X0025336Y0141280D01*
X0025267Y0141130D01*
X0025195Y0140983D01*
X0025120Y0140837D01*
X0025040Y0140693D01*
X0024958Y0140551D01*
X0024872Y0140411D01*
X0024782Y0140274D01*
X0024689Y0140138D01*
X0024593Y0140005D01*
X0024493Y0139874D01*
X0024391Y0139746D01*
X0024285Y0139620D01*
X0024176Y0139497D01*
X0024064Y0139377D01*
X0023950Y0139259D01*
X0023832Y0139145D01*
X0023712Y0139033D01*
X0023589Y0138924D01*
X0023463Y0138818D01*
X0023335Y0138716D01*
X0023204Y0138616D01*
X0023071Y0138520D01*
X0022935Y0138427D01*
X0022798Y0138337D01*
X0022658Y0138251D01*
X0022516Y0138169D01*
X0022372Y0138089D01*
X0022226Y0138014D01*
X0022079Y0137942D01*
X0021929Y0137873D01*
X0021778Y0137808D01*
X0021626Y0137747D01*
X0021472Y0137690D01*
X0021316Y0137637D01*
X0021160Y0137587D01*
X0021002Y0137541D01*
X0020843Y0137500D01*
X0020683Y0137462D01*
X0020523Y0137428D01*
X0020361Y0137398D01*
X0020199Y0137371D01*
X0020036Y0137349D01*
X0019873Y0137331D01*
X0019709Y0137317D01*
X0019545Y0137307D01*
X0019381Y0137301D01*
X0019217Y0137299D01*
X0019053Y0137301D01*
X0018889Y0137307D01*
X0018725Y0137317D01*
X0018561Y0137331D01*
X0018398Y0137349D01*
X0018235Y0137371D01*
X0018073Y0137398D01*
X0017911Y0137428D01*
X0017751Y0137462D01*
X0017591Y0137500D01*
X0017432Y0137541D01*
X0017274Y0137587D01*
X0017118Y0137637D01*
X0016962Y0137690D01*
X0016808Y0137747D01*
X0016656Y0137808D01*
X0016505Y0137873D01*
X0016355Y0137942D01*
X0016208Y0138014D01*
X0016062Y0138089D01*
X0015918Y0138169D01*
X0015776Y0138251D01*
X0015636Y0138337D01*
X0015499Y0138427D01*
X0015363Y0138520D01*
X0015230Y0138616D01*
X0015099Y0138716D01*
X0014971Y0138818D01*
X0014845Y0138924D01*
X0014722Y0139033D01*
X0014602Y0139145D01*
X0014484Y0139259D01*
X0014370Y0139377D01*
X0014258Y0139497D01*
X0014149Y0139620D01*
X0014043Y0139746D01*
X0013941Y0139874D01*
X0013841Y0140005D01*
X0013745Y0140138D01*
X0013652Y0140274D01*
X0013562Y0140411D01*
X0013476Y0140551D01*
X0013394Y0140693D01*
X0013314Y0140837D01*
X0013239Y0140983D01*
X0013167Y0141130D01*
X0013098Y0141280D01*
X0013033Y0141431D01*
X0012972Y0141583D01*
X0012915Y0141737D01*
X0012862Y0141893D01*
X0012812Y0142049D01*
X0012766Y0142207D01*
X0012725Y0142366D01*
X0012687Y0142526D01*
X0012653Y0142686D01*
X0012623Y0142848D01*
X0012596Y0143010D01*
X0012574Y0143173D01*
X0012556Y0143336D01*
X0012542Y0143500D01*
X0012532Y0143664D01*
X0012526Y0143828D01*
X0012524Y0143992D01*
X0012524Y0053441D02*
X0012526Y0053605D01*
X0012532Y0053769D01*
X0012542Y0053933D01*
X0012556Y0054097D01*
X0012574Y0054260D01*
X0012596Y0054423D01*
X0012623Y0054585D01*
X0012653Y0054747D01*
X0012687Y0054907D01*
X0012725Y0055067D01*
X0012766Y0055226D01*
X0012812Y0055384D01*
X0012862Y0055540D01*
X0012915Y0055696D01*
X0012972Y0055850D01*
X0013033Y0056002D01*
X0013098Y0056153D01*
X0013167Y0056303D01*
X0013239Y0056450D01*
X0013314Y0056596D01*
X0013394Y0056740D01*
X0013476Y0056882D01*
X0013562Y0057022D01*
X0013652Y0057159D01*
X0013745Y0057295D01*
X0013841Y0057428D01*
X0013941Y0057559D01*
X0014043Y0057687D01*
X0014149Y0057813D01*
X0014258Y0057936D01*
X0014370Y0058056D01*
X0014484Y0058174D01*
X0014602Y0058288D01*
X0014722Y0058400D01*
X0014845Y0058509D01*
X0014971Y0058615D01*
X0015099Y0058717D01*
X0015230Y0058817D01*
X0015363Y0058913D01*
X0015499Y0059006D01*
X0015636Y0059096D01*
X0015776Y0059182D01*
X0015918Y0059264D01*
X0016062Y0059344D01*
X0016208Y0059419D01*
X0016355Y0059491D01*
X0016505Y0059560D01*
X0016656Y0059625D01*
X0016808Y0059686D01*
X0016962Y0059743D01*
X0017118Y0059796D01*
X0017274Y0059846D01*
X0017432Y0059892D01*
X0017591Y0059933D01*
X0017751Y0059971D01*
X0017911Y0060005D01*
X0018073Y0060035D01*
X0018235Y0060062D01*
X0018398Y0060084D01*
X0018561Y0060102D01*
X0018725Y0060116D01*
X0018889Y0060126D01*
X0019053Y0060132D01*
X0019217Y0060134D01*
X0019381Y0060132D01*
X0019545Y0060126D01*
X0019709Y0060116D01*
X0019873Y0060102D01*
X0020036Y0060084D01*
X0020199Y0060062D01*
X0020361Y0060035D01*
X0020523Y0060005D01*
X0020683Y0059971D01*
X0020843Y0059933D01*
X0021002Y0059892D01*
X0021160Y0059846D01*
X0021316Y0059796D01*
X0021472Y0059743D01*
X0021626Y0059686D01*
X0021778Y0059625D01*
X0021929Y0059560D01*
X0022079Y0059491D01*
X0022226Y0059419D01*
X0022372Y0059344D01*
X0022516Y0059264D01*
X0022658Y0059182D01*
X0022798Y0059096D01*
X0022935Y0059006D01*
X0023071Y0058913D01*
X0023204Y0058817D01*
X0023335Y0058717D01*
X0023463Y0058615D01*
X0023589Y0058509D01*
X0023712Y0058400D01*
X0023832Y0058288D01*
X0023950Y0058174D01*
X0024064Y0058056D01*
X0024176Y0057936D01*
X0024285Y0057813D01*
X0024391Y0057687D01*
X0024493Y0057559D01*
X0024593Y0057428D01*
X0024689Y0057295D01*
X0024782Y0057159D01*
X0024872Y0057022D01*
X0024958Y0056882D01*
X0025040Y0056740D01*
X0025120Y0056596D01*
X0025195Y0056450D01*
X0025267Y0056303D01*
X0025336Y0056153D01*
X0025401Y0056002D01*
X0025462Y0055850D01*
X0025519Y0055696D01*
X0025572Y0055540D01*
X0025622Y0055384D01*
X0025668Y0055226D01*
X0025709Y0055067D01*
X0025747Y0054907D01*
X0025781Y0054747D01*
X0025811Y0054585D01*
X0025838Y0054423D01*
X0025860Y0054260D01*
X0025878Y0054097D01*
X0025892Y0053933D01*
X0025902Y0053769D01*
X0025908Y0053605D01*
X0025910Y0053441D01*
X0025908Y0053277D01*
X0025902Y0053113D01*
X0025892Y0052949D01*
X0025878Y0052785D01*
X0025860Y0052622D01*
X0025838Y0052459D01*
X0025811Y0052297D01*
X0025781Y0052135D01*
X0025747Y0051975D01*
X0025709Y0051815D01*
X0025668Y0051656D01*
X0025622Y0051498D01*
X0025572Y0051342D01*
X0025519Y0051186D01*
X0025462Y0051032D01*
X0025401Y0050880D01*
X0025336Y0050729D01*
X0025267Y0050579D01*
X0025195Y0050432D01*
X0025120Y0050286D01*
X0025040Y0050142D01*
X0024958Y0050000D01*
X0024872Y0049860D01*
X0024782Y0049723D01*
X0024689Y0049587D01*
X0024593Y0049454D01*
X0024493Y0049323D01*
X0024391Y0049195D01*
X0024285Y0049069D01*
X0024176Y0048946D01*
X0024064Y0048826D01*
X0023950Y0048708D01*
X0023832Y0048594D01*
X0023712Y0048482D01*
X0023589Y0048373D01*
X0023463Y0048267D01*
X0023335Y0048165D01*
X0023204Y0048065D01*
X0023071Y0047969D01*
X0022935Y0047876D01*
X0022798Y0047786D01*
X0022658Y0047700D01*
X0022516Y0047618D01*
X0022372Y0047538D01*
X0022226Y0047463D01*
X0022079Y0047391D01*
X0021929Y0047322D01*
X0021778Y0047257D01*
X0021626Y0047196D01*
X0021472Y0047139D01*
X0021316Y0047086D01*
X0021160Y0047036D01*
X0021002Y0046990D01*
X0020843Y0046949D01*
X0020683Y0046911D01*
X0020523Y0046877D01*
X0020361Y0046847D01*
X0020199Y0046820D01*
X0020036Y0046798D01*
X0019873Y0046780D01*
X0019709Y0046766D01*
X0019545Y0046756D01*
X0019381Y0046750D01*
X0019217Y0046748D01*
X0019053Y0046750D01*
X0018889Y0046756D01*
X0018725Y0046766D01*
X0018561Y0046780D01*
X0018398Y0046798D01*
X0018235Y0046820D01*
X0018073Y0046847D01*
X0017911Y0046877D01*
X0017751Y0046911D01*
X0017591Y0046949D01*
X0017432Y0046990D01*
X0017274Y0047036D01*
X0017118Y0047086D01*
X0016962Y0047139D01*
X0016808Y0047196D01*
X0016656Y0047257D01*
X0016505Y0047322D01*
X0016355Y0047391D01*
X0016208Y0047463D01*
X0016062Y0047538D01*
X0015918Y0047618D01*
X0015776Y0047700D01*
X0015636Y0047786D01*
X0015499Y0047876D01*
X0015363Y0047969D01*
X0015230Y0048065D01*
X0015099Y0048165D01*
X0014971Y0048267D01*
X0014845Y0048373D01*
X0014722Y0048482D01*
X0014602Y0048594D01*
X0014484Y0048708D01*
X0014370Y0048826D01*
X0014258Y0048946D01*
X0014149Y0049069D01*
X0014043Y0049195D01*
X0013941Y0049323D01*
X0013841Y0049454D01*
X0013745Y0049587D01*
X0013652Y0049723D01*
X0013562Y0049860D01*
X0013476Y0050000D01*
X0013394Y0050142D01*
X0013314Y0050286D01*
X0013239Y0050432D01*
X0013167Y0050579D01*
X0013098Y0050729D01*
X0013033Y0050880D01*
X0012972Y0051032D01*
X0012915Y0051186D01*
X0012862Y0051342D01*
X0012812Y0051498D01*
X0012766Y0051656D01*
X0012725Y0051815D01*
X0012687Y0051975D01*
X0012653Y0052135D01*
X0012623Y0052297D01*
X0012596Y0052459D01*
X0012574Y0052622D01*
X0012556Y0052785D01*
X0012542Y0052949D01*
X0012532Y0053113D01*
X0012526Y0053277D01*
X0012524Y0053441D01*
D17*
X0223134Y0114307D02*
X0223134Y0116669D01*
X0225890Y0116669D02*
X0225890Y0114307D01*
X0259531Y0114504D02*
X0259531Y0116866D01*
X0262287Y0116866D02*
X0262287Y0114504D01*
X0376480Y0114780D02*
X0376480Y0101984D01*
X0382988Y0101984D01*
X0382988Y0114780D01*
X0376480Y0114780D01*
X0380319Y0124917D02*
X0380319Y0127280D01*
X0383075Y0127280D02*
X0383075Y0124917D01*
D18*
X0272465Y0125606D03*
D19*
X0399417Y0143992D02*
X0399421Y0144323D01*
X0399433Y0144654D01*
X0399454Y0144985D01*
X0399482Y0145315D01*
X0399519Y0145645D01*
X0399563Y0145973D01*
X0399616Y0146300D01*
X0399676Y0146626D01*
X0399745Y0146950D01*
X0399822Y0147272D01*
X0399906Y0147593D01*
X0399998Y0147911D01*
X0400098Y0148227D01*
X0400206Y0148540D01*
X0400322Y0148851D01*
X0400445Y0149158D01*
X0400575Y0149463D01*
X0400713Y0149764D01*
X0400858Y0150062D01*
X0401011Y0150356D01*
X0401171Y0150646D01*
X0401338Y0150932D01*
X0401511Y0151214D01*
X0401692Y0151492D01*
X0401880Y0151765D01*
X0402074Y0152034D01*
X0402274Y0152298D01*
X0402481Y0152556D01*
X0402695Y0152810D01*
X0402914Y0153058D01*
X0403140Y0153301D01*
X0403371Y0153538D01*
X0403608Y0153769D01*
X0403851Y0153995D01*
X0404099Y0154214D01*
X0404353Y0154428D01*
X0404611Y0154635D01*
X0404875Y0154835D01*
X0405144Y0155029D01*
X0405417Y0155217D01*
X0405695Y0155398D01*
X0405977Y0155571D01*
X0406263Y0155738D01*
X0406553Y0155898D01*
X0406847Y0156051D01*
X0407145Y0156196D01*
X0407446Y0156334D01*
X0407751Y0156464D01*
X0408058Y0156587D01*
X0408369Y0156703D01*
X0408682Y0156811D01*
X0408998Y0156911D01*
X0409316Y0157003D01*
X0409637Y0157087D01*
X0409959Y0157164D01*
X0410283Y0157233D01*
X0410609Y0157293D01*
X0410936Y0157346D01*
X0411264Y0157390D01*
X0411594Y0157427D01*
X0411924Y0157455D01*
X0412255Y0157476D01*
X0412586Y0157488D01*
X0412917Y0157492D01*
X0413248Y0157488D01*
X0413579Y0157476D01*
X0413910Y0157455D01*
X0414240Y0157427D01*
X0414570Y0157390D01*
X0414898Y0157346D01*
X0415225Y0157293D01*
X0415551Y0157233D01*
X0415875Y0157164D01*
X0416197Y0157087D01*
X0416518Y0157003D01*
X0416836Y0156911D01*
X0417152Y0156811D01*
X0417465Y0156703D01*
X0417776Y0156587D01*
X0418083Y0156464D01*
X0418388Y0156334D01*
X0418689Y0156196D01*
X0418987Y0156051D01*
X0419281Y0155898D01*
X0419571Y0155738D01*
X0419857Y0155571D01*
X0420139Y0155398D01*
X0420417Y0155217D01*
X0420690Y0155029D01*
X0420959Y0154835D01*
X0421223Y0154635D01*
X0421481Y0154428D01*
X0421735Y0154214D01*
X0421983Y0153995D01*
X0422226Y0153769D01*
X0422463Y0153538D01*
X0422694Y0153301D01*
X0422920Y0153058D01*
X0423139Y0152810D01*
X0423353Y0152556D01*
X0423560Y0152298D01*
X0423760Y0152034D01*
X0423954Y0151765D01*
X0424142Y0151492D01*
X0424323Y0151214D01*
X0424496Y0150932D01*
X0424663Y0150646D01*
X0424823Y0150356D01*
X0424976Y0150062D01*
X0425121Y0149764D01*
X0425259Y0149463D01*
X0425389Y0149158D01*
X0425512Y0148851D01*
X0425628Y0148540D01*
X0425736Y0148227D01*
X0425836Y0147911D01*
X0425928Y0147593D01*
X0426012Y0147272D01*
X0426089Y0146950D01*
X0426158Y0146626D01*
X0426218Y0146300D01*
X0426271Y0145973D01*
X0426315Y0145645D01*
X0426352Y0145315D01*
X0426380Y0144985D01*
X0426401Y0144654D01*
X0426413Y0144323D01*
X0426417Y0143992D01*
X0426413Y0143661D01*
X0426401Y0143330D01*
X0426380Y0142999D01*
X0426352Y0142669D01*
X0426315Y0142339D01*
X0426271Y0142011D01*
X0426218Y0141684D01*
X0426158Y0141358D01*
X0426089Y0141034D01*
X0426012Y0140712D01*
X0425928Y0140391D01*
X0425836Y0140073D01*
X0425736Y0139757D01*
X0425628Y0139444D01*
X0425512Y0139133D01*
X0425389Y0138826D01*
X0425259Y0138521D01*
X0425121Y0138220D01*
X0424976Y0137922D01*
X0424823Y0137628D01*
X0424663Y0137338D01*
X0424496Y0137052D01*
X0424323Y0136770D01*
X0424142Y0136492D01*
X0423954Y0136219D01*
X0423760Y0135950D01*
X0423560Y0135686D01*
X0423353Y0135428D01*
X0423139Y0135174D01*
X0422920Y0134926D01*
X0422694Y0134683D01*
X0422463Y0134446D01*
X0422226Y0134215D01*
X0421983Y0133989D01*
X0421735Y0133770D01*
X0421481Y0133556D01*
X0421223Y0133349D01*
X0420959Y0133149D01*
X0420690Y0132955D01*
X0420417Y0132767D01*
X0420139Y0132586D01*
X0419857Y0132413D01*
X0419571Y0132246D01*
X0419281Y0132086D01*
X0418987Y0131933D01*
X0418689Y0131788D01*
X0418388Y0131650D01*
X0418083Y0131520D01*
X0417776Y0131397D01*
X0417465Y0131281D01*
X0417152Y0131173D01*
X0416836Y0131073D01*
X0416518Y0130981D01*
X0416197Y0130897D01*
X0415875Y0130820D01*
X0415551Y0130751D01*
X0415225Y0130691D01*
X0414898Y0130638D01*
X0414570Y0130594D01*
X0414240Y0130557D01*
X0413910Y0130529D01*
X0413579Y0130508D01*
X0413248Y0130496D01*
X0412917Y0130492D01*
X0412586Y0130496D01*
X0412255Y0130508D01*
X0411924Y0130529D01*
X0411594Y0130557D01*
X0411264Y0130594D01*
X0410936Y0130638D01*
X0410609Y0130691D01*
X0410283Y0130751D01*
X0409959Y0130820D01*
X0409637Y0130897D01*
X0409316Y0130981D01*
X0408998Y0131073D01*
X0408682Y0131173D01*
X0408369Y0131281D01*
X0408058Y0131397D01*
X0407751Y0131520D01*
X0407446Y0131650D01*
X0407145Y0131788D01*
X0406847Y0131933D01*
X0406553Y0132086D01*
X0406263Y0132246D01*
X0405977Y0132413D01*
X0405695Y0132586D01*
X0405417Y0132767D01*
X0405144Y0132955D01*
X0404875Y0133149D01*
X0404611Y0133349D01*
X0404353Y0133556D01*
X0404099Y0133770D01*
X0403851Y0133989D01*
X0403608Y0134215D01*
X0403371Y0134446D01*
X0403140Y0134683D01*
X0402914Y0134926D01*
X0402695Y0135174D01*
X0402481Y0135428D01*
X0402274Y0135686D01*
X0402074Y0135950D01*
X0401880Y0136219D01*
X0401692Y0136492D01*
X0401511Y0136770D01*
X0401338Y0137052D01*
X0401171Y0137338D01*
X0401011Y0137628D01*
X0400858Y0137922D01*
X0400713Y0138220D01*
X0400575Y0138521D01*
X0400445Y0138826D01*
X0400322Y0139133D01*
X0400206Y0139444D01*
X0400098Y0139757D01*
X0399998Y0140073D01*
X0399906Y0140391D01*
X0399822Y0140712D01*
X0399745Y0141034D01*
X0399676Y0141358D01*
X0399616Y0141684D01*
X0399563Y0142011D01*
X0399519Y0142339D01*
X0399482Y0142669D01*
X0399454Y0142999D01*
X0399433Y0143330D01*
X0399421Y0143661D01*
X0399417Y0143992D01*
X0399417Y0053441D02*
X0399421Y0053772D01*
X0399433Y0054103D01*
X0399454Y0054434D01*
X0399482Y0054764D01*
X0399519Y0055094D01*
X0399563Y0055422D01*
X0399616Y0055749D01*
X0399676Y0056075D01*
X0399745Y0056399D01*
X0399822Y0056721D01*
X0399906Y0057042D01*
X0399998Y0057360D01*
X0400098Y0057676D01*
X0400206Y0057989D01*
X0400322Y0058300D01*
X0400445Y0058607D01*
X0400575Y0058912D01*
X0400713Y0059213D01*
X0400858Y0059511D01*
X0401011Y0059805D01*
X0401171Y0060095D01*
X0401338Y0060381D01*
X0401511Y0060663D01*
X0401692Y0060941D01*
X0401880Y0061214D01*
X0402074Y0061483D01*
X0402274Y0061747D01*
X0402481Y0062005D01*
X0402695Y0062259D01*
X0402914Y0062507D01*
X0403140Y0062750D01*
X0403371Y0062987D01*
X0403608Y0063218D01*
X0403851Y0063444D01*
X0404099Y0063663D01*
X0404353Y0063877D01*
X0404611Y0064084D01*
X0404875Y0064284D01*
X0405144Y0064478D01*
X0405417Y0064666D01*
X0405695Y0064847D01*
X0405977Y0065020D01*
X0406263Y0065187D01*
X0406553Y0065347D01*
X0406847Y0065500D01*
X0407145Y0065645D01*
X0407446Y0065783D01*
X0407751Y0065913D01*
X0408058Y0066036D01*
X0408369Y0066152D01*
X0408682Y0066260D01*
X0408998Y0066360D01*
X0409316Y0066452D01*
X0409637Y0066536D01*
X0409959Y0066613D01*
X0410283Y0066682D01*
X0410609Y0066742D01*
X0410936Y0066795D01*
X0411264Y0066839D01*
X0411594Y0066876D01*
X0411924Y0066904D01*
X0412255Y0066925D01*
X0412586Y0066937D01*
X0412917Y0066941D01*
X0413248Y0066937D01*
X0413579Y0066925D01*
X0413910Y0066904D01*
X0414240Y0066876D01*
X0414570Y0066839D01*
X0414898Y0066795D01*
X0415225Y0066742D01*
X0415551Y0066682D01*
X0415875Y0066613D01*
X0416197Y0066536D01*
X0416518Y0066452D01*
X0416836Y0066360D01*
X0417152Y0066260D01*
X0417465Y0066152D01*
X0417776Y0066036D01*
X0418083Y0065913D01*
X0418388Y0065783D01*
X0418689Y0065645D01*
X0418987Y0065500D01*
X0419281Y0065347D01*
X0419571Y0065187D01*
X0419857Y0065020D01*
X0420139Y0064847D01*
X0420417Y0064666D01*
X0420690Y0064478D01*
X0420959Y0064284D01*
X0421223Y0064084D01*
X0421481Y0063877D01*
X0421735Y0063663D01*
X0421983Y0063444D01*
X0422226Y0063218D01*
X0422463Y0062987D01*
X0422694Y0062750D01*
X0422920Y0062507D01*
X0423139Y0062259D01*
X0423353Y0062005D01*
X0423560Y0061747D01*
X0423760Y0061483D01*
X0423954Y0061214D01*
X0424142Y0060941D01*
X0424323Y0060663D01*
X0424496Y0060381D01*
X0424663Y0060095D01*
X0424823Y0059805D01*
X0424976Y0059511D01*
X0425121Y0059213D01*
X0425259Y0058912D01*
X0425389Y0058607D01*
X0425512Y0058300D01*
X0425628Y0057989D01*
X0425736Y0057676D01*
X0425836Y0057360D01*
X0425928Y0057042D01*
X0426012Y0056721D01*
X0426089Y0056399D01*
X0426158Y0056075D01*
X0426218Y0055749D01*
X0426271Y0055422D01*
X0426315Y0055094D01*
X0426352Y0054764D01*
X0426380Y0054434D01*
X0426401Y0054103D01*
X0426413Y0053772D01*
X0426417Y0053441D01*
X0426413Y0053110D01*
X0426401Y0052779D01*
X0426380Y0052448D01*
X0426352Y0052118D01*
X0426315Y0051788D01*
X0426271Y0051460D01*
X0426218Y0051133D01*
X0426158Y0050807D01*
X0426089Y0050483D01*
X0426012Y0050161D01*
X0425928Y0049840D01*
X0425836Y0049522D01*
X0425736Y0049206D01*
X0425628Y0048893D01*
X0425512Y0048582D01*
X0425389Y0048275D01*
X0425259Y0047970D01*
X0425121Y0047669D01*
X0424976Y0047371D01*
X0424823Y0047077D01*
X0424663Y0046787D01*
X0424496Y0046501D01*
X0424323Y0046219D01*
X0424142Y0045941D01*
X0423954Y0045668D01*
X0423760Y0045399D01*
X0423560Y0045135D01*
X0423353Y0044877D01*
X0423139Y0044623D01*
X0422920Y0044375D01*
X0422694Y0044132D01*
X0422463Y0043895D01*
X0422226Y0043664D01*
X0421983Y0043438D01*
X0421735Y0043219D01*
X0421481Y0043005D01*
X0421223Y0042798D01*
X0420959Y0042598D01*
X0420690Y0042404D01*
X0420417Y0042216D01*
X0420139Y0042035D01*
X0419857Y0041862D01*
X0419571Y0041695D01*
X0419281Y0041535D01*
X0418987Y0041382D01*
X0418689Y0041237D01*
X0418388Y0041099D01*
X0418083Y0040969D01*
X0417776Y0040846D01*
X0417465Y0040730D01*
X0417152Y0040622D01*
X0416836Y0040522D01*
X0416518Y0040430D01*
X0416197Y0040346D01*
X0415875Y0040269D01*
X0415551Y0040200D01*
X0415225Y0040140D01*
X0414898Y0040087D01*
X0414570Y0040043D01*
X0414240Y0040006D01*
X0413910Y0039978D01*
X0413579Y0039957D01*
X0413248Y0039945D01*
X0412917Y0039941D01*
X0412586Y0039945D01*
X0412255Y0039957D01*
X0411924Y0039978D01*
X0411594Y0040006D01*
X0411264Y0040043D01*
X0410936Y0040087D01*
X0410609Y0040140D01*
X0410283Y0040200D01*
X0409959Y0040269D01*
X0409637Y0040346D01*
X0409316Y0040430D01*
X0408998Y0040522D01*
X0408682Y0040622D01*
X0408369Y0040730D01*
X0408058Y0040846D01*
X0407751Y0040969D01*
X0407446Y0041099D01*
X0407145Y0041237D01*
X0406847Y0041382D01*
X0406553Y0041535D01*
X0406263Y0041695D01*
X0405977Y0041862D01*
X0405695Y0042035D01*
X0405417Y0042216D01*
X0405144Y0042404D01*
X0404875Y0042598D01*
X0404611Y0042798D01*
X0404353Y0043005D01*
X0404099Y0043219D01*
X0403851Y0043438D01*
X0403608Y0043664D01*
X0403371Y0043895D01*
X0403140Y0044132D01*
X0402914Y0044375D01*
X0402695Y0044623D01*
X0402481Y0044877D01*
X0402274Y0045135D01*
X0402074Y0045399D01*
X0401880Y0045668D01*
X0401692Y0045941D01*
X0401511Y0046219D01*
X0401338Y0046501D01*
X0401171Y0046787D01*
X0401011Y0047077D01*
X0400858Y0047371D01*
X0400713Y0047669D01*
X0400575Y0047970D01*
X0400445Y0048275D01*
X0400322Y0048582D01*
X0400206Y0048893D01*
X0400098Y0049206D01*
X0399998Y0049522D01*
X0399906Y0049840D01*
X0399822Y0050161D01*
X0399745Y0050483D01*
X0399676Y0050807D01*
X0399616Y0051133D01*
X0399563Y0051460D01*
X0399519Y0051788D01*
X0399482Y0052118D01*
X0399454Y0052448D01*
X0399433Y0052779D01*
X0399421Y0053110D01*
X0399417Y0053441D01*
X0005717Y0053441D02*
X0005721Y0053772D01*
X0005733Y0054103D01*
X0005754Y0054434D01*
X0005782Y0054764D01*
X0005819Y0055094D01*
X0005863Y0055422D01*
X0005916Y0055749D01*
X0005976Y0056075D01*
X0006045Y0056399D01*
X0006122Y0056721D01*
X0006206Y0057042D01*
X0006298Y0057360D01*
X0006398Y0057676D01*
X0006506Y0057989D01*
X0006622Y0058300D01*
X0006745Y0058607D01*
X0006875Y0058912D01*
X0007013Y0059213D01*
X0007158Y0059511D01*
X0007311Y0059805D01*
X0007471Y0060095D01*
X0007638Y0060381D01*
X0007811Y0060663D01*
X0007992Y0060941D01*
X0008180Y0061214D01*
X0008374Y0061483D01*
X0008574Y0061747D01*
X0008781Y0062005D01*
X0008995Y0062259D01*
X0009214Y0062507D01*
X0009440Y0062750D01*
X0009671Y0062987D01*
X0009908Y0063218D01*
X0010151Y0063444D01*
X0010399Y0063663D01*
X0010653Y0063877D01*
X0010911Y0064084D01*
X0011175Y0064284D01*
X0011444Y0064478D01*
X0011717Y0064666D01*
X0011995Y0064847D01*
X0012277Y0065020D01*
X0012563Y0065187D01*
X0012853Y0065347D01*
X0013147Y0065500D01*
X0013445Y0065645D01*
X0013746Y0065783D01*
X0014051Y0065913D01*
X0014358Y0066036D01*
X0014669Y0066152D01*
X0014982Y0066260D01*
X0015298Y0066360D01*
X0015616Y0066452D01*
X0015937Y0066536D01*
X0016259Y0066613D01*
X0016583Y0066682D01*
X0016909Y0066742D01*
X0017236Y0066795D01*
X0017564Y0066839D01*
X0017894Y0066876D01*
X0018224Y0066904D01*
X0018555Y0066925D01*
X0018886Y0066937D01*
X0019217Y0066941D01*
X0019548Y0066937D01*
X0019879Y0066925D01*
X0020210Y0066904D01*
X0020540Y0066876D01*
X0020870Y0066839D01*
X0021198Y0066795D01*
X0021525Y0066742D01*
X0021851Y0066682D01*
X0022175Y0066613D01*
X0022497Y0066536D01*
X0022818Y0066452D01*
X0023136Y0066360D01*
X0023452Y0066260D01*
X0023765Y0066152D01*
X0024076Y0066036D01*
X0024383Y0065913D01*
X0024688Y0065783D01*
X0024989Y0065645D01*
X0025287Y0065500D01*
X0025581Y0065347D01*
X0025871Y0065187D01*
X0026157Y0065020D01*
X0026439Y0064847D01*
X0026717Y0064666D01*
X0026990Y0064478D01*
X0027259Y0064284D01*
X0027523Y0064084D01*
X0027781Y0063877D01*
X0028035Y0063663D01*
X0028283Y0063444D01*
X0028526Y0063218D01*
X0028763Y0062987D01*
X0028994Y0062750D01*
X0029220Y0062507D01*
X0029439Y0062259D01*
X0029653Y0062005D01*
X0029860Y0061747D01*
X0030060Y0061483D01*
X0030254Y0061214D01*
X0030442Y0060941D01*
X0030623Y0060663D01*
X0030796Y0060381D01*
X0030963Y0060095D01*
X0031123Y0059805D01*
X0031276Y0059511D01*
X0031421Y0059213D01*
X0031559Y0058912D01*
X0031689Y0058607D01*
X0031812Y0058300D01*
X0031928Y0057989D01*
X0032036Y0057676D01*
X0032136Y0057360D01*
X0032228Y0057042D01*
X0032312Y0056721D01*
X0032389Y0056399D01*
X0032458Y0056075D01*
X0032518Y0055749D01*
X0032571Y0055422D01*
X0032615Y0055094D01*
X0032652Y0054764D01*
X0032680Y0054434D01*
X0032701Y0054103D01*
X0032713Y0053772D01*
X0032717Y0053441D01*
X0032713Y0053110D01*
X0032701Y0052779D01*
X0032680Y0052448D01*
X0032652Y0052118D01*
X0032615Y0051788D01*
X0032571Y0051460D01*
X0032518Y0051133D01*
X0032458Y0050807D01*
X0032389Y0050483D01*
X0032312Y0050161D01*
X0032228Y0049840D01*
X0032136Y0049522D01*
X0032036Y0049206D01*
X0031928Y0048893D01*
X0031812Y0048582D01*
X0031689Y0048275D01*
X0031559Y0047970D01*
X0031421Y0047669D01*
X0031276Y0047371D01*
X0031123Y0047077D01*
X0030963Y0046787D01*
X0030796Y0046501D01*
X0030623Y0046219D01*
X0030442Y0045941D01*
X0030254Y0045668D01*
X0030060Y0045399D01*
X0029860Y0045135D01*
X0029653Y0044877D01*
X0029439Y0044623D01*
X0029220Y0044375D01*
X0028994Y0044132D01*
X0028763Y0043895D01*
X0028526Y0043664D01*
X0028283Y0043438D01*
X0028035Y0043219D01*
X0027781Y0043005D01*
X0027523Y0042798D01*
X0027259Y0042598D01*
X0026990Y0042404D01*
X0026717Y0042216D01*
X0026439Y0042035D01*
X0026157Y0041862D01*
X0025871Y0041695D01*
X0025581Y0041535D01*
X0025287Y0041382D01*
X0024989Y0041237D01*
X0024688Y0041099D01*
X0024383Y0040969D01*
X0024076Y0040846D01*
X0023765Y0040730D01*
X0023452Y0040622D01*
X0023136Y0040522D01*
X0022818Y0040430D01*
X0022497Y0040346D01*
X0022175Y0040269D01*
X0021851Y0040200D01*
X0021525Y0040140D01*
X0021198Y0040087D01*
X0020870Y0040043D01*
X0020540Y0040006D01*
X0020210Y0039978D01*
X0019879Y0039957D01*
X0019548Y0039945D01*
X0019217Y0039941D01*
X0018886Y0039945D01*
X0018555Y0039957D01*
X0018224Y0039978D01*
X0017894Y0040006D01*
X0017564Y0040043D01*
X0017236Y0040087D01*
X0016909Y0040140D01*
X0016583Y0040200D01*
X0016259Y0040269D01*
X0015937Y0040346D01*
X0015616Y0040430D01*
X0015298Y0040522D01*
X0014982Y0040622D01*
X0014669Y0040730D01*
X0014358Y0040846D01*
X0014051Y0040969D01*
X0013746Y0041099D01*
X0013445Y0041237D01*
X0013147Y0041382D01*
X0012853Y0041535D01*
X0012563Y0041695D01*
X0012277Y0041862D01*
X0011995Y0042035D01*
X0011717Y0042216D01*
X0011444Y0042404D01*
X0011175Y0042598D01*
X0010911Y0042798D01*
X0010653Y0043005D01*
X0010399Y0043219D01*
X0010151Y0043438D01*
X0009908Y0043664D01*
X0009671Y0043895D01*
X0009440Y0044132D01*
X0009214Y0044375D01*
X0008995Y0044623D01*
X0008781Y0044877D01*
X0008574Y0045135D01*
X0008374Y0045399D01*
X0008180Y0045668D01*
X0007992Y0045941D01*
X0007811Y0046219D01*
X0007638Y0046501D01*
X0007471Y0046787D01*
X0007311Y0047077D01*
X0007158Y0047371D01*
X0007013Y0047669D01*
X0006875Y0047970D01*
X0006745Y0048275D01*
X0006622Y0048582D01*
X0006506Y0048893D01*
X0006398Y0049206D01*
X0006298Y0049522D01*
X0006206Y0049840D01*
X0006122Y0050161D01*
X0006045Y0050483D01*
X0005976Y0050807D01*
X0005916Y0051133D01*
X0005863Y0051460D01*
X0005819Y0051788D01*
X0005782Y0052118D01*
X0005754Y0052448D01*
X0005733Y0052779D01*
X0005721Y0053110D01*
X0005717Y0053441D01*
X0005717Y0143992D02*
X0005721Y0144323D01*
X0005733Y0144654D01*
X0005754Y0144985D01*
X0005782Y0145315D01*
X0005819Y0145645D01*
X0005863Y0145973D01*
X0005916Y0146300D01*
X0005976Y0146626D01*
X0006045Y0146950D01*
X0006122Y0147272D01*
X0006206Y0147593D01*
X0006298Y0147911D01*
X0006398Y0148227D01*
X0006506Y0148540D01*
X0006622Y0148851D01*
X0006745Y0149158D01*
X0006875Y0149463D01*
X0007013Y0149764D01*
X0007158Y0150062D01*
X0007311Y0150356D01*
X0007471Y0150646D01*
X0007638Y0150932D01*
X0007811Y0151214D01*
X0007992Y0151492D01*
X0008180Y0151765D01*
X0008374Y0152034D01*
X0008574Y0152298D01*
X0008781Y0152556D01*
X0008995Y0152810D01*
X0009214Y0153058D01*
X0009440Y0153301D01*
X0009671Y0153538D01*
X0009908Y0153769D01*
X0010151Y0153995D01*
X0010399Y0154214D01*
X0010653Y0154428D01*
X0010911Y0154635D01*
X0011175Y0154835D01*
X0011444Y0155029D01*
X0011717Y0155217D01*
X0011995Y0155398D01*
X0012277Y0155571D01*
X0012563Y0155738D01*
X0012853Y0155898D01*
X0013147Y0156051D01*
X0013445Y0156196D01*
X0013746Y0156334D01*
X0014051Y0156464D01*
X0014358Y0156587D01*
X0014669Y0156703D01*
X0014982Y0156811D01*
X0015298Y0156911D01*
X0015616Y0157003D01*
X0015937Y0157087D01*
X0016259Y0157164D01*
X0016583Y0157233D01*
X0016909Y0157293D01*
X0017236Y0157346D01*
X0017564Y0157390D01*
X0017894Y0157427D01*
X0018224Y0157455D01*
X0018555Y0157476D01*
X0018886Y0157488D01*
X0019217Y0157492D01*
X0019548Y0157488D01*
X0019879Y0157476D01*
X0020210Y0157455D01*
X0020540Y0157427D01*
X0020870Y0157390D01*
X0021198Y0157346D01*
X0021525Y0157293D01*
X0021851Y0157233D01*
X0022175Y0157164D01*
X0022497Y0157087D01*
X0022818Y0157003D01*
X0023136Y0156911D01*
X0023452Y0156811D01*
X0023765Y0156703D01*
X0024076Y0156587D01*
X0024383Y0156464D01*
X0024688Y0156334D01*
X0024989Y0156196D01*
X0025287Y0156051D01*
X0025581Y0155898D01*
X0025871Y0155738D01*
X0026157Y0155571D01*
X0026439Y0155398D01*
X0026717Y0155217D01*
X0026990Y0155029D01*
X0027259Y0154835D01*
X0027523Y0154635D01*
X0027781Y0154428D01*
X0028035Y0154214D01*
X0028283Y0153995D01*
X0028526Y0153769D01*
X0028763Y0153538D01*
X0028994Y0153301D01*
X0029220Y0153058D01*
X0029439Y0152810D01*
X0029653Y0152556D01*
X0029860Y0152298D01*
X0030060Y0152034D01*
X0030254Y0151765D01*
X0030442Y0151492D01*
X0030623Y0151214D01*
X0030796Y0150932D01*
X0030963Y0150646D01*
X0031123Y0150356D01*
X0031276Y0150062D01*
X0031421Y0149764D01*
X0031559Y0149463D01*
X0031689Y0149158D01*
X0031812Y0148851D01*
X0031928Y0148540D01*
X0032036Y0148227D01*
X0032136Y0147911D01*
X0032228Y0147593D01*
X0032312Y0147272D01*
X0032389Y0146950D01*
X0032458Y0146626D01*
X0032518Y0146300D01*
X0032571Y0145973D01*
X0032615Y0145645D01*
X0032652Y0145315D01*
X0032680Y0144985D01*
X0032701Y0144654D01*
X0032713Y0144323D01*
X0032717Y0143992D01*
X0032713Y0143661D01*
X0032701Y0143330D01*
X0032680Y0142999D01*
X0032652Y0142669D01*
X0032615Y0142339D01*
X0032571Y0142011D01*
X0032518Y0141684D01*
X0032458Y0141358D01*
X0032389Y0141034D01*
X0032312Y0140712D01*
X0032228Y0140391D01*
X0032136Y0140073D01*
X0032036Y0139757D01*
X0031928Y0139444D01*
X0031812Y0139133D01*
X0031689Y0138826D01*
X0031559Y0138521D01*
X0031421Y0138220D01*
X0031276Y0137922D01*
X0031123Y0137628D01*
X0030963Y0137338D01*
X0030796Y0137052D01*
X0030623Y0136770D01*
X0030442Y0136492D01*
X0030254Y0136219D01*
X0030060Y0135950D01*
X0029860Y0135686D01*
X0029653Y0135428D01*
X0029439Y0135174D01*
X0029220Y0134926D01*
X0028994Y0134683D01*
X0028763Y0134446D01*
X0028526Y0134215D01*
X0028283Y0133989D01*
X0028035Y0133770D01*
X0027781Y0133556D01*
X0027523Y0133349D01*
X0027259Y0133149D01*
X0026990Y0132955D01*
X0026717Y0132767D01*
X0026439Y0132586D01*
X0026157Y0132413D01*
X0025871Y0132246D01*
X0025581Y0132086D01*
X0025287Y0131933D01*
X0024989Y0131788D01*
X0024688Y0131650D01*
X0024383Y0131520D01*
X0024076Y0131397D01*
X0023765Y0131281D01*
X0023452Y0131173D01*
X0023136Y0131073D01*
X0022818Y0130981D01*
X0022497Y0130897D01*
X0022175Y0130820D01*
X0021851Y0130751D01*
X0021525Y0130691D01*
X0021198Y0130638D01*
X0020870Y0130594D01*
X0020540Y0130557D01*
X0020210Y0130529D01*
X0019879Y0130508D01*
X0019548Y0130496D01*
X0019217Y0130492D01*
X0018886Y0130496D01*
X0018555Y0130508D01*
X0018224Y0130529D01*
X0017894Y0130557D01*
X0017564Y0130594D01*
X0017236Y0130638D01*
X0016909Y0130691D01*
X0016583Y0130751D01*
X0016259Y0130820D01*
X0015937Y0130897D01*
X0015616Y0130981D01*
X0015298Y0131073D01*
X0014982Y0131173D01*
X0014669Y0131281D01*
X0014358Y0131397D01*
X0014051Y0131520D01*
X0013746Y0131650D01*
X0013445Y0131788D01*
X0013147Y0131933D01*
X0012853Y0132086D01*
X0012563Y0132246D01*
X0012277Y0132413D01*
X0011995Y0132586D01*
X0011717Y0132767D01*
X0011444Y0132955D01*
X0011175Y0133149D01*
X0010911Y0133349D01*
X0010653Y0133556D01*
X0010399Y0133770D01*
X0010151Y0133989D01*
X0009908Y0134215D01*
X0009671Y0134446D01*
X0009440Y0134683D01*
X0009214Y0134926D01*
X0008995Y0135174D01*
X0008781Y0135428D01*
X0008574Y0135686D01*
X0008374Y0135950D01*
X0008180Y0136219D01*
X0007992Y0136492D01*
X0007811Y0136770D01*
X0007638Y0137052D01*
X0007471Y0137338D01*
X0007311Y0137628D01*
X0007158Y0137922D01*
X0007013Y0138220D01*
X0006875Y0138521D01*
X0006745Y0138826D01*
X0006622Y0139133D01*
X0006506Y0139444D01*
X0006398Y0139757D01*
X0006298Y0140073D01*
X0006206Y0140391D01*
X0006122Y0140712D01*
X0006045Y0141034D01*
X0005976Y0141358D01*
X0005916Y0141684D01*
X0005863Y0142011D01*
X0005819Y0142339D01*
X0005782Y0142669D01*
X0005754Y0142999D01*
X0005733Y0143330D01*
X0005721Y0143661D01*
X0005717Y0143992D01*
M02*
