%
M48
M72
T01C0.01181
T02C0.02756
T03C0.05906
T04C0.06693
T05C0.12598
%
T01
X253665Y157083
X248055Y156886
X241953Y154622
X237228Y150094
X233783Y144681
X231717Y139366
X231421Y134248
X231421Y130311
X231421Y126374
X236835Y122043
X236835Y114169
X227583Y118402
X214591Y126374
X214591Y130311
X214591Y134248
X214591Y138185
X213016Y145075
X209177Y149898
X203862Y153638
X197366Y156394
X185358Y158264
X181421Y158264
X177484Y158264
X172071Y158953
X167346Y160528
X164591Y164760
X163606Y169484
X163606Y173421
X163606Y177358
X163606Y181295
X163606Y185232
X163606Y189169
X163606Y193106
X163606Y197043
X163606Y200980
X163606Y204917
X163606Y208854
X163606Y212791
X163606Y216728
X163606Y220665
X163606Y224602
X163606Y228539
X163606Y232476
X163606Y236413
X163606Y240350
X163606Y244287
X163606Y248224
X163606Y252161
X163606Y256098
X163606Y260035
X163606Y263972
X163606Y267909
X163606Y271846
X163606Y275783
X163606Y279720
X163606Y283657
X163606Y287594
X163606Y291531
X163606Y295469
X163606Y299406
X163606Y303343
X163606Y307280
X163606Y311217
X163606Y315154
X163606Y319091
X163606Y323028
X163606Y326965
X163606Y330902
X144217Y331098
X144217Y327161
X144217Y323224
X144217Y319287
X144217Y315350
X144217Y311413
X144217Y307476
X144217Y303539
X144217Y299602
X144217Y295665
X144217Y291728
X144217Y287791
X144217Y283854
X144217Y279917
X144217Y275980
X144217Y272043
X144217Y268106
X144217Y264169
X144217Y260232
X144217Y256295
X144217Y252358
X144217Y248421
X144217Y244484
X144217Y240547
X144217Y236610
X144217Y232673
X144217Y228736
X144217Y224799
X144217Y220862
X144217Y216925
X144217Y212988
X144217Y209051
X144217Y205114
X144217Y201177
X144217Y197240
X144217Y193303
X144217Y189366
X144217Y185429
X144217Y181492
X144217Y177555
X144217Y173618
X144217Y169681
X144217Y165744
X144217Y161807
X145004Y156984
X146579Y152555
X148744Y148421
X152386Y144878
X156224Y141335
X161441Y139563
X166657Y137890
X171874Y137201
X175811Y137201
X179748Y137201
X183685Y137201
X188508Y135232
X191756Y131098
X193331Y126276
X182209Y118205
X173744Y118992
X177091Y107476
X188311Y108854
X197268Y113087
X218035Y90843
X222563Y88087
X222563Y84150
X222563Y80213
X225024Y75980
X228961Y74012
X225024Y68106
X221087Y68106
X217150Y68106
X213114Y68205
X213016Y72240
X206224Y72535
X206224Y68598
X209472Y61315
X213213Y62201
X217150Y62201
X221087Y62201
X225024Y62201
X228961Y62201
X232898Y62201
X237130Y62201
X246776Y65252
X250417Y65350
X254354Y65350
X258291Y65350
X262228Y65350
X266165Y65350
X270102Y65350
X258291Y73323
X254354Y73323
X250417Y73323
X237720Y73520
X233783Y73520
X249236Y87398
X255437Y90843
X259768Y91531
X259866Y87004
X261933Y82575
X265673Y79720
X269610Y79720
X273547Y79720
X284079Y79327
X284079Y84150
X284079Y87496
X284079Y90646
X284079Y93894
X284079Y97043
X284079Y100094
X284079Y103146
X278764Y105508
X287327Y113382
X291559Y113480
X305831Y105311
X304846Y96059
X304256Y88382
X299925Y84937
X296776Y84937
X298646Y65646
X301795Y63776
X294709Y65646
X290772Y65646
X286835Y65646
X283094Y57476
X284276Y43598
X310752Y63776
X314984Y63776
X324236Y65646
X328173Y65646
X332110Y65646
X336047Y65646
X339984Y65646
X343921Y65646
X347858Y65646
X351795Y65646
X355732Y65646
X359669Y65646
X363606Y65646
X367543Y65646
X371480Y65646
X375417Y65646
X379354Y65646
X383291Y65646
X387228Y65646
X391165Y65646
X395102Y65646
X399039Y65646
X398941Y72437
X402878Y72437
X395004Y72437
X391067Y72437
X387130Y72437
X383193Y72437
X379256Y72437
X375319Y72437
X371382Y72437
X367445Y72437
X363508Y72437
X359571Y72437
X355634Y72437
X351697Y72437
X347760Y72437
X342839Y75094
X348449Y80213
X352386Y80213
X356323Y80213
X356224Y83854
X360161Y83854
X360260Y80213
X364197Y80213
X364098Y83854
X364098Y87791
X360161Y87791
X364098Y91728
X368035Y95665
X364098Y109445
X364098Y113382
X364098Y117319
X368035Y117319
X368035Y113382
X371972Y117319
X362524Y122732
X363311Y129228
X354551Y118598
X354453Y111709
X347366Y122732
X338902Y129445
X330831Y129524
X323055Y129622
X323055Y133559
X323055Y137496
X319118Y137496
X315181Y137496
X319118Y141433
X323055Y141433
X320535Y122732
X330929Y117713
X328567Y111610
X328567Y107969
X330929Y104425
X335063Y105508
X339098Y104425
X339098Y97240
X342839Y97240
X346776Y99602
X342839Y85429
X336638Y80213
X332701Y80213
X328764Y80213
X328862Y85724
X328567Y92811
X328567Y95961
X328567Y100291
X315575Y105213
X323547Y113677
X337327Y116433
X301795Y146748
X298350Y143894
X294807Y141335
X290083Y139268
X285260Y138480
X280339Y137890
X276402Y137890
X272465Y137890
X268528Y137890
X264591Y137890
X259079Y137004
X254354Y134346
X252189Y130114
X252189Y126177
X263311Y123323
X267248Y123323
X267248Y127260
X263803Y118500
X304650Y150291
X306717Y154130
X307799Y158657
X308193Y163579
X308193Y167516
X308193Y171453
X308193Y175390
X308193Y179327
X308193Y183264
X308193Y187201
X308193Y191138
X308193Y195075
X308193Y199012
X308193Y202949
X308193Y206886
X308193Y210823
X308193Y214760
X308193Y218697
X308193Y222634
X308193Y226571
X308193Y230508
X308193Y234445
X308193Y238382
X308193Y242319
X308193Y246256
X308193Y250193
X308193Y254130
X308193Y258067
X308193Y262004
X308193Y265941
X308193Y269878
X308193Y273815
X308193Y277752
X308193Y281689
X308193Y285626
X308193Y289563
X308193Y293500
X308193Y297437
X308193Y301374
X308193Y305311
X308193Y309248
X308193Y313185
X308193Y317122
X308193Y321059
X308193Y324996
X308193Y328933
X308193Y332870
X308193Y336807
X387819Y80213
X387720Y83854
X383783Y83854
X383882Y80213
X379945Y80213
X376008Y80213
X372071Y80213
X368134Y80213
X391657Y83854
X335949Y72437
X332012Y72437
X328075Y72437
X324138Y72437
X320693Y77850
X317150Y52654
X317150Y47240
X221087Y44484
X221087Y40547
X217150Y40547
X217150Y44484
X217150Y48421
X213213Y44484
X213213Y40547
X196382Y56787
X184571Y56787
X180634Y65252
X184571Y68598
X162819Y52654
X158882Y52654
X154945Y52654
X151008Y52654
X147071Y52654
X143134Y52654
X139295Y49504
X135555Y53539
X130831Y53539
X130831Y56591
X130831Y59642
X130831Y65843
X127681Y65843
X124630Y65843
X121579Y65744
X111638Y68205
X120791Y77850
X120791Y81787
X124728Y81787
X124728Y85724
X120791Y85724
X120791Y89661
X124728Y89661
X128665Y89661
X128665Y85724
X132701Y100291
X117051Y108559
X113311Y105508
X111835Y100665
X104059Y109839
X102287Y114268
X103862Y117713
X108094Y112693
X111441Y116433
X120693Y114957
X119906Y127161
X129217Y127161
X120791Y136906
X120791Y140843
X120791Y144780
X120791Y148717
X116854Y144780
X116854Y140843
X112917Y140843
X112917Y136906
X108980Y136906
X116854Y136906
X89000Y119091
X87720Y109445
X82996Y109445
X82996Y104917
X87819Y104720
X92445Y104720
X92445Y109248
X92445Y99799
X87720Y99799
X82996Y99799
X71480Y99996
X71480Y103047
X71579Y110823
X71579Y114760
X63213Y104425
X63114Y100665
X55339Y104524
X45398Y104327
X45398Y108264
X41461Y104327
X41461Y100390
X45398Y100390
X45398Y96453
X47661Y89760
X55831Y86020
X63409Y82772
X59374Y75685
X70988Y75390
X81224Y75783
X85161Y75783
X89197Y75783
X93035Y75783
X80634Y71650
X79157Y86118
X71283Y89760
X95201Y89760
X100122Y89760
X100122Y93697
X134079Y65941
X147268Y69386
X151205Y69386
X155142Y69386
X155142Y73323
X159079Y73323
X151205Y73323
X125417Y52654
X121480Y52654
X117543Y52654
X113606Y52654
X109669Y52654
X105732Y52654
X101795Y52654
X97858Y52654
X93921Y52654
X89984Y52654
X87327Y56197
X83390Y56197
X79453Y56197
X75024Y49406
X78469Y46846
X71579Y52260
X67642Y52260
X67642Y56197
X63705Y56197
X63705Y52260
X59768Y52260
X102484Y45075
X127091Y41827
X131028Y41827
X134965Y41827
X138902Y41827
X142839Y41827
X146776Y41827
X150713Y41827
X154650Y41827
X158587Y41827
X162524Y41827
X166461Y41827
X212130Y86906
X263705Y158264
X267642Y158264
X271579Y158264
X276106Y158264
X281028Y158264
X285457Y160134
X288508Y163579
X288508Y167516
X288508Y171453
X288508Y175390
X288508Y179327
X288508Y183264
X288508Y187201
X288508Y191138
X288508Y195075
X288508Y199012
X288508Y202949
X288508Y206886
X288508Y210823
X288508Y214760
X288508Y218697
X288508Y222634
X288508Y226571
X288508Y230508
X288508Y234445
X288508Y238382
X288508Y242319
X288508Y246256
X288508Y250193
X288508Y254130
X288508Y258067
X288508Y262004
X288508Y265941
X288508Y269878
X288508Y273815
X288508Y277752
X288508Y281689
X288508Y285626
X288508Y289563
X288508Y293500
X288508Y297437
X288508Y301374
X288508Y305311
X288508Y309248
X288508Y313185
X288508Y317122
X288508Y321059
X288508Y324996
X288508Y328933
X288508Y332870
X288508Y336807
X57799Y148717
X57799Y144780
X61736Y144780
X61736Y140843
X57799Y140843
X57799Y136906
X61736Y136906
X65673Y136906
X65673Y140843
X69610Y136906
T02
X288350Y52437
X288350Y47437
X293350Y47437
X293350Y52437
X298350Y52437
X298350Y47437
X303350Y47437
X303350Y52437
X308350Y52437
X308350Y47437
X413449Y88717
X413449Y93717
X418449Y93717
X418449Y88717
X418449Y98717
X418449Y103717
X418449Y108717
X413449Y108717
X413449Y103717
X413449Y98717
T03
X154256Y93402
T04
X144256Y103402
X164256Y103402
X164256Y83402
X144256Y83402
T05
X412917Y53441
X412917Y143992
X19217Y143992
X19217Y53441
M30
